<?xml version="1.0" encoding="UTF-8" standalone="no"?>
<!-- Created with Inkscape (http://www.inkscape.org/) -->

<svg
   xmlns:dc="http://purl.org/dc/elements/1.1/"
   xmlns:cc="http://creativecommons.org/ns#"
   xmlns:rdf="http://www.w3.org/1999/02/22-rdf-syntax-ns#"
   xmlns:svg="http://www.w3.org/2000/svg"
   xmlns="http://www.w3.org/2000/svg"
   xmlns:sodipodi="http://sodipodi.sourceforge.net/DTD/sodipodi-0.dtd"
   xmlns:inkscape="http://www.inkscape.org/namespaces/inkscape"
   width="198.24274"
   height="208.23573"
   id="svg3381"
   version="1.1"
   inkscape:version="0.91 r13725"
   sodipodi:docname="lyon1 (pastille).svg">
  <defs
     id="defs3383" />
  <sodipodi:namedview
     id="base"
     pagecolor="#ffffff"
     bordercolor="#666666"
     borderopacity="1.0"
     inkscape:pageopacity="0.0"
     inkscape:pageshadow="2"
     inkscape:zoom="0.98994949"
     inkscape:cx="198.30349"
     inkscape:cy="47.554201"
     inkscape:document-units="px"
     inkscape:current-layer="g3312"
     showgrid="false"
     fit-margin-top="0"
     fit-margin-left="0"
     fit-margin-right="0"
     fit-margin-bottom="0"
     inkscape:window-width="1920"
     inkscape:window-height="1047"
     inkscape:window-x="0"
     inkscape:window-y="1050"
     inkscape:window-maximized="1" />
  <metadata
     id="metadata3386">
    <rdf:RDF>
      <cc:Work
         rdf:about="">
        <dc:format>image/svg+xml</dc:format>
        <dc:type
           rdf:resource="http://purl.org/dc/dcmitype/StillImage" />
        <dc:title></dc:title>
      </cc:Work>
    </rdf:RDF>
  </metadata>
  <g
     inkscape:label="Calque 1"
     inkscape:groupmode="layer"
     id="layer1"
     transform="translate(-305.22317,-322.53003)">
    <g
       transform="matrix(1.25,0,0,-1.25,236.22304,1036.8979)"
       id="g3312">
      <g
         id="g60">
        <path
           inkscape:connector-curvature="0"
           id="path62"
           style="fill:none;stroke:#4f4c4c;stroke-width:2.23569989;stroke-linecap:butt;stroke-linejoin:miter;stroke-miterlimit:7.66129017;stroke-dasharray:none;stroke-opacity:1"
           d="m 153.9,487.7 c 0,-15.4 -12.4,-27.8 -27.8,-27.8 -15.4,0 -27.9,12.4 -27.9,27.8 0,15.4 12.5,27.9 27.9,27.9 15.4,0 27.8,-12.5 27.8,-27.9 z" />
      </g>
      <g
         id="g64">
        <path
           inkscape:connector-curvature="0"
           id="path66"
           style="fill:none;stroke:#f1471d;stroke-width:1.18859005;stroke-linecap:butt;stroke-linejoin:miter;stroke-miterlimit:7.66129017;stroke-dasharray:none;stroke-opacity:1"
           d="m 158.8,487.7 c 0,-18.1 -14.7,-32.7 -32.7,-32.7 -18.1,0 -32.7,14.6 -32.7,32.7 0,18.1 14.6,32.7 32.7,32.7 18,0 32.7,-14.6 32.7,-32.7 z" />
      </g>
      <g
         id="g68">
        <path
           inkscape:connector-curvature="0"
           id="path70"
           style="fill:none;stroke:#f79210;stroke-width:5.99959993;stroke-linecap:butt;stroke-linejoin:miter;stroke-miterlimit:7.66129017;stroke-dasharray:none;stroke-opacity:1"
           d="m 165.2,487.7 c 0,-21.6 -17.5,-39.1 -39.1,-39.1 -21.6,0 -39.1,17.5 -39.1,39.1 0,21.6 17.5,39.1 39.1,39.1 21.6,0 39.1,-17.5 39.1,-39.1 z" />
      </g>
      <g
         id="g72">
        <path
           inkscape:connector-curvature="0"
           id="path74"
           style="fill:none;stroke:#b23314;stroke-width:2.23569989;stroke-linecap:butt;stroke-linejoin:miter;stroke-miterlimit:7.66129017;stroke-dasharray:none;stroke-opacity:1"
           d="m 176.3,491.5 c 0,-26.9 -21.8,-48.7 -48.6,-48.7 -26.9,0 -48.7,21.8 -48.7,48.7 0,26.8 21.8,48.6 48.7,48.6 26.8,0 48.6,-21.8 48.6,-48.6 z" />
      </g>
      <g
         id="g76">
        <path
           inkscape:connector-curvature="0"
           id="path78"
           style="fill:none;stroke:#65808e;stroke-width:2.23569989;stroke-linecap:butt;stroke-linejoin:miter;stroke-miterlimit:7.66129017;stroke-dasharray:none;stroke-opacity:1"
           d="m 181.2,492.1 c 0,-29.3 -23.7,-53 -52.9,-53 -29.2,0 -52.9,23.7 -52.9,53 0,29.2 23.7,52.9 52.9,52.9 29.2,0 52.9,-23.7 52.9,-52.9 z" />
      </g>
      <g
         id="g80">
        <path
           inkscape:connector-curvature="0"
           id="path82"
           style="fill:none;stroke:#f9a70d;stroke-width:2.99979997;stroke-linecap:butt;stroke-linejoin:miter;stroke-miterlimit:7.66129017;stroke-dasharray:none;stroke-opacity:1"
           d="m 186.3,489.7 c 0,-35.8 -29,-64.8 -64.8,-64.8 -35.8,0 -64.8,29 -64.8,64.8 0,35.7 29,64.7 64.8,64.7 35.8,0 64.8,-29 64.8,-64.7 z" />
      </g>
      <g
         id="g84">
        <path
           inkscape:connector-curvature="0"
           id="path86"
           style="fill:none;stroke:#f0397b;stroke-width:1.18859005;stroke-linecap:butt;stroke-linejoin:miter;stroke-miterlimit:7.66129017;stroke-dasharray:none;stroke-opacity:1"
           d="m 198.6,470.8 c 0,-36.1 -29.2,-65.3 -65.3,-65.3 -36.1,0 -65.3,29.2 -65.3,65.3 0,36.1 29.2,65.3 65.3,65.3 36.1,0 65.3,-29.2 65.3,-65.3 z" />
      </g>
      <g
         id="g88">
        <path
           inkscape:connector-curvature="0"
           id="path90"
           style="fill:none;stroke:#f25c19;stroke-width:1.18859005;stroke-linecap:butt;stroke-linejoin:miter;stroke-miterlimit:7.66129017;stroke-dasharray:none;stroke-opacity:1"
           d="m 213.2,497.9 c 0,-40.4 -33.4,-73.1 -74.6,-73.1 -41.1,0 -74.5,32.7 -74.5,73.1 0,40.3 33.4,73 74.5,73 41.2,0 74.6,-32.7 74.6,-73 z" />
      </g>
      <g
         id="g98">
        <text
           id="text100"
           transform="matrix(1,0,0,-1,104.8,477.6)">
          <tspan
             id="tspan102"
             sodipodi:role="line"
             y="0"
             x="0 19.392 27.768"
             style="font-variant:normal;font-weight:bold;font-size:24px;font-family:'DejaVu Sans';-inkscape-font-specification:DejaVuSans-Bold;writing-mode:lr-tb;fill:#4c4c4c;fill-opacity:1;fill-rule:nonzero;stroke:none">U B</tspan>
        </text>
      </g>
      <g
         id="g106">
        <text
           id="text108"
           transform="matrix(1,0,0,-1,116.1,488)">
          <tspan
             id="tspan110"
             y="0"
             x="0"
             style="font-variant:normal;font-weight:bold;font-size:24px;font-family:'DejaVu Sans';-inkscape-font-specification:DejaVuSans-Bold;writing-mode:lr-tb;fill:#4c4c4c;fill-opacity:1;fill-rule:nonzero;stroke:none">C</tspan>
        </text>
      </g>
      <g
         id="g114">
        <text
           id="text116"
           transform="matrix(1,0,0,-1,121.8,471.9)">
          <tspan
             id="tspan118"
             y="0"
             x="0"
             style="font-variant:normal;font-weight:bold;font-size:24px;font-family:'DejaVu Sans';-inkscape-font-specification:DejaVuSans-Bold;writing-mode:lr-tb;fill:#4c4c4c;fill-opacity:1;fill-rule:nonzero;stroke:none">L</tspan>
        </text>
      </g>
    </g>
  </g>
</svg>
