<?xml version="1.0" encoding="UTF-8" standalone="no"?>
<svg
   xmlns:dc="http://purl.org/dc/elements/1.1/"
   xmlns:cc="http://creativecommons.org/ns#"
   xmlns:rdf="http://www.w3.org/1999/02/22-rdf-syntax-ns#"
   xmlns:svg="http://www.w3.org/2000/svg"
   xmlns="http://www.w3.org/2000/svg"
   xmlns:sodipodi="http://sodipodi.sourceforge.net/DTD/sodipodi-0.dtd"
   xmlns:inkscape="http://www.inkscape.org/namespaces/inkscape"
   xml:space="preserve"
   id="svg2"
   height="32"
   width="33.762066"
   version="1.1"
   sodipodi:docname="sma_pastille.svg"
   inkscape:version="0.92.3 (2405546, 2018-03-11)"><sodipodi:namedview
     pagecolor="#ffffff"
     bordercolor="#666666"
     borderopacity="1"
     objecttolerance="10"
     gridtolerance="10"
     guidetolerance="10"
     inkscape:pageopacity="0"
     inkscape:pageshadow="2"
     inkscape:window-width="3840"
     inkscape:window-height="2034"
     id="namedview27"
     showgrid="false"
     fit-margin-left="0"
     fit-margin-top="0"
     fit-margin-bottom="0"
     fit-margin-right="0"
     inkscape:zoom="22.627418"
     inkscape:cx="-13.95537"
     inkscape:cy="-5.2198556"
     inkscape:window-x="1920"
     inkscape:window-y="60"
     inkscape:window-maximized="1"
     inkscape:current-layer="g870" /><metadata
     id="metadata8"><rdf:RDF><cc:Work
         rdf:about=""><dc:format>image/svg+xml</dc:format><dc:type
           rdf:resource="http://purl.org/dc/dcmitype/StillImage" /><dc:title></dc:title></cc:Work></rdf:RDF></metadata><defs
     id="defs6"><clipPath
   id="clipPath16"><path
     id="path18"
     d="M 0,0.1 H 595.2 V 841.9 H 0 Z"
     inkscape:connector-curvature="0" /></clipPath>

</defs><g
     id="g10"
     transform="matrix(1.25,0,0,-1.25,-194.90604,980.32823)"><g
       id="g870"><g
   transform="matrix(0.50193972,0,0,0.50193972,61.264299,381.82557)"
   clip-path="url(#clipPath16)"
   id="g14"><g
   id="g34" /><path
   sodipodi:nodetypes="sssssccsscscsccscscsscscccccsccccccscssccscccscscccscccscccccscccccsccccccccc"
   inkscape:connector-curvature="0"
   style="fill:#859900;fill-opacity:1;fill-rule:evenodd;stroke:none"
   d="m 214.09051,801.76363 c -14.5022,0 -25.50106,-10.99887 -25.50106,-25.50107 0,-14.42073 10.99886,-25.50107 25.50106,-25.50107 14.42073,0 25.50107,11.08034 25.50107,25.50107 0,14.5022 -11.08034,25.50107 -25.50107,25.50107 z m 0,-2.32199 c 5.66971,0 10.72786,-2.05097 14.57476,-5.50071 0.28167,0.10111 0.58353,0.16422 0.90512,0.16422 1.54799,0 2.68862,-1.14062 2.68862,-2.60713 0,-0.46662 -0.11452,-0.88906 -0.30171,-1.26157 2.68871,-3.82502 4.25315,-8.60686 4.25315,-13.89242 0,-1.28664 -0.0962,-2.54346 -0.27498,-3.76686 0.83311,-0.4614 1.37486,-1.3402 1.37486,-2.34361 0,-1.45735 -1.1274,-2.67092 -2.6606,-2.68607 -2.217,-5.94447 -6.65423,-10.59207 -12.34826,-12.88675 -0.09,-1.45618 -1.26136,-2.5142 -2.67079,-2.5142 -0.92679,0 -1.75444,0.45663 -2.23924,1.18263 -1.0738,-0.15871 -2.17434,-0.24442 -3.30093,-0.24442 -9.60727,0 -17.5111,5.96322 -20.69161,14.63078 -0.0287,-8.2e-4 -0.0551,-0.007 -0.084,-0.007 -1.54799,0 -2.68861,1.14062 -2.68861,2.60713 0,1.11693 0.59886,2.01413 1.51107,2.43146 -0.16399,1.16947 -0.24824,2.37083 -0.24824,3.59755 0,13.08964 9.65729,23.09761 22.2014,23.09761 z m -20.69925,-26.44565 c 1.38674,-0.0388 2.45756,-1.09945 2.5193,-2.55238 4.75444,0.50897 9.12097,1.62328 13.01914,3.15324 -0.39898,0.81157 -0.62377,1.74101 -0.62377,2.74718 0,2.8753 1.90305,5.11478 4.58922,5.60254 0.43154,2.05467 1.25675,3.62913 2.44673,4.64779 1.09638,0.93852 2.50493,1.35416 4.03165,1.18899 1.52671,-0.16516 3.17487,-0.88027 4.90239,-2.13994 0.24105,-0.17577 0.49534,-0.44562 0.73962,-0.64287 1.16808,1.51634 2.09913,3.04711 2.73953,4.54084 -0.4894,0.48065 -0.79181,1.16339 -0.79181,1.95664 0,0.68892 0.25826,1.29995 0.67724,1.76057 -3.59993,3.12489 -8.29036,4.96095 -13.54999,4.96095 -11.8978,0 -20.97931,-9.38261 -20.97931,-21.87551 0,-1.15181 0.10751,-2.26361 0.28006,-3.34804 z m 37.76149,16.29844 c -0.43715,-0.3056 -0.97638,-0.48501 -1.58236,-0.48501 -0.26286,0 -0.51003,0.0481 -0.74726,0.11711 -0.68942,-1.5829 -1.6627,-3.17625 -2.87447,-4.73944 2.68594,-2.43431 5.51733,-6.15241 8.33317,-11.29929 0.11224,0.015 0.22309,0.0344 0.33989,0.0344 0.0326,0 0.062,-0.008 0.0942,-0.009 0.16292,1.11551 0.27243,2.25378 0.27243,3.43077 0,4.93196 -1.40658,9.3744 -3.8356,12.9504 z m 2.2456,-21.42359 c -0.82721,0.45527 -1.38376,1.34436 -1.38376,2.36272 0,0.92231 0.45117,1.74711 1.15079,2.23287 -2.73583,4.96789 -5.47222,8.47341 -7.98563,10.77099 -1.53508,-1.80598 -3.3867,-3.55903 -5.55417,-5.18373 0.16121,-0.53556 0.24952,-1.10838 0.24952,-1.70965 0,-3.05027 -2.10899,-5.41484 -5.01823,-5.80369 0.91135,-3.79754 2.48307,-8.18928 4.86928,-13.10697 1.04696,-0.0363 1.95548,-0.64797 2.36272,-1.5429 5.20701,2.18359 9.24409,6.48184 11.30948,11.98036 z m -16.42318,-13.36922 c -0.0132,0.11041 -0.0331,0.2183 -0.0331,0.33352 0,1.05813 0.64025,1.93976 1.54544,2.35254 -2.39207,4.97599 -3.95991,9.42485 -4.86675,13.30939 -1.64973,0.10383 -3.06518,0.85844 -4.0189,2.03936 -4.15434,-1.64467 -8.83399,-2.81078 -13.92044,-3.32002 -0.21706,-0.4791 -0.57301,-0.8714 -1.02096,-1.1368 3.01561,-8.17639 10.36302,-13.77277 19.43005,-13.77277 0.98354,0 1.94536,0.0673 2.88466,0.19477 z m -2.78536,27.53784 c 2.17243,-0.0585 3.97828,-1.15337 4.93803,-2.83119 2.00332,1.52953 3.70934,3.16877 5.12516,4.83874 -0.22941,0.18564 -0.47312,0.44609 -0.69761,0.60978 -1.60525,1.17052 -3.07279,1.77777 -4.31426,1.91207 -1.24147,0.13431 -2.25609,-0.17471 -3.10488,-0.9013 -0.85845,-0.73485 -1.54056,-1.95688 -1.94644,-3.6281 z"
   id="path36" /><g
   id="g38"
   style="fill:none" /><g
   id="g42"
   transform="translate(0,-19.93744)"><path
     inkscape:connector-curvature="0"
     d="M 189.5,796.2 Z"
     id="path44"
     style="fill:none;stroke:#ffffff;stroke-width:2.29229999;stroke-linecap:butt;stroke-linejoin:round;stroke-miterlimit:10;stroke-dasharray:none;stroke-opacity:1" /></g><g
   id="g46"
   transform="translate(0,35.46256)"><path
     inkscape:connector-curvature="0"
     d="M 242.4,740.8 Z"
     id="path48"
     style="fill:none;stroke:#ffffff;stroke-width:2.29229999;stroke-linecap:butt;stroke-linejoin:round;stroke-miterlimit:10;stroke-dasharray:none;stroke-opacity:1" /></g><g
   id="g52"
   transform="translate(0,7.71256)"><path
     inkscape:connector-curvature="0"
     d="m 215.9,769 c 0.3,0 0.5,-0.2 0.5,-0.4 0,-0.3 -0.2,-0.5 -0.5,-0.5 -0.2,0 -0.4,0.2 -0.4,0.5 0,0.2 0.2,0.4 0.4,0.4 z"
     id="path54"
     style="fill:none;stroke:none" /></g><g
   id="g56"
   transform="translate(0,7.26256)"><path
     inkscape:connector-curvature="0"
     d="M 215.5,769 Z"
     id="path58"
     style="fill:none;stroke:none" /></g><g
   id="g60"
   transform="translate(0,8.16256)"><path
     inkscape:connector-curvature="0"
     d="M 216.4,768.1 Z"
     id="path62"
     style="fill:none;stroke:none" /></g><g
   id="g74" />

</g>


<g
   id="g860"
   clip-path="url(#clipPath16)"
   transform="matrix(0.50193972,0,0,0.50193972,61.264299,381.82557)"
   style="fill:#174a7c;fill-opacity:1"><g
   id="g832"
   style="fill:#174a7c;fill-opacity:1" /><path
   id="path834"
   d="m 214.09051,801.76363 c -14.5022,0 -25.50106,-10.99887 -25.50106,-25.50107 0,-14.42073 10.99886,-25.50107 25.50106,-25.50107 14.42073,0 25.50107,11.08034 25.50107,25.50107 0,14.5022 -11.08034,25.50107 -25.50107,25.50107 z m 0,-2.32199 c 5.66971,0 10.72786,-2.05097 14.57476,-5.50071 0.28167,0.10111 0.58353,0.16422 0.90512,0.16422 1.54799,0 2.68862,-1.14062 2.68862,-2.60713 0,-0.46662 -0.11452,-0.88906 -0.30171,-1.26157 2.68871,-3.82502 4.25315,-8.60686 4.25315,-13.89242 0,-1.28664 -0.0962,-2.54346 -0.27498,-3.76686 0.83311,-0.4614 1.37486,-1.3402 1.37486,-2.34361 0,-1.45735 -1.1274,-2.67092 -2.6606,-2.68607 -2.217,-5.94447 -6.65423,-10.59207 -12.34826,-12.88675 -0.09,-1.45618 -1.26136,-2.5142 -2.67079,-2.5142 -0.92679,0 -1.75444,0.45663 -2.23924,1.18263 -1.0738,-0.15871 -2.17434,-0.24442 -3.30093,-0.24442 -9.60727,0 -17.5111,5.96322 -20.69161,14.63078 -0.0287,-8.2e-4 -0.0551,-0.007 -0.084,-0.007 -1.54799,0 -2.68861,1.14062 -2.68861,2.60713 0,1.11693 0.59886,2.01413 1.51107,2.43146 -0.16399,1.16947 -0.24824,2.37083 -0.24824,3.59755 0,13.08964 9.65729,23.09761 22.2014,23.09761 z m -20.69925,-26.44565 c 1.38674,-0.0388 2.45756,-1.09945 2.5193,-2.55238 4.75444,0.50897 9.12097,1.62328 13.01914,3.15324 -0.39898,0.81157 -0.62377,1.74101 -0.62377,2.74718 0,2.8753 1.90305,5.11478 4.58922,5.60254 0.43154,2.05467 1.25675,3.62913 2.44673,4.64779 1.09638,0.93852 2.50493,1.35416 4.03165,1.18899 1.52671,-0.16516 3.17487,-0.88027 4.90239,-2.13994 0.24105,-0.17577 0.49534,-0.44562 0.73962,-0.64287 1.16808,1.51634 2.09913,3.04711 2.73953,4.54084 -0.4894,0.48065 -0.79181,1.16339 -0.79181,1.95664 0,0.68892 0.25826,1.29995 0.67724,1.76057 -3.59993,3.12489 -8.29036,4.96095 -13.54999,4.96095 -11.8978,0 -20.97931,-9.38261 -20.97931,-21.87551 0,-1.15181 0.10751,-2.26361 0.28006,-3.34804 z m 37.76149,16.29844 c -0.43715,-0.3056 -0.97638,-0.48501 -1.58236,-0.48501 -0.26286,0 -0.51003,0.0481 -0.74726,0.11711 -0.68942,-1.5829 -1.6627,-3.17625 -2.87447,-4.73944 2.68594,-2.43431 5.51733,-6.15241 8.33317,-11.29929 0.11224,0.015 0.22309,0.0344 0.33989,0.0344 0.0326,0 0.062,-0.008 0.0942,-0.009 0.16292,1.11551 0.27243,2.25378 0.27243,3.43077 0,4.93196 -1.40658,9.3744 -3.8356,12.9504 z m 2.2456,-21.42359 c -0.82721,0.45527 -1.38376,1.34436 -1.38376,2.36272 0,0.92231 0.45117,1.74711 1.15079,2.23287 -2.73583,4.96789 -5.47222,8.47341 -7.98563,10.77099 -1.53508,-1.80598 -3.3867,-3.55903 -5.55417,-5.18373 0.16121,-0.53556 0.24952,-1.10838 0.24952,-1.70965 0,-3.05027 -2.10899,-5.41484 -5.01823,-5.80369 0.91135,-3.79754 2.48307,-8.18928 4.86928,-13.10697 1.04696,-0.0363 1.95548,-0.64797 2.36272,-1.5429 5.20701,2.18359 9.24409,6.48184 11.30948,11.98036 z m -16.42318,-13.36922 c -0.0132,0.11041 -0.0331,0.2183 -0.0331,0.33352 0,1.05813 0.64025,1.93976 1.54544,2.35254 -2.39207,4.97599 -3.95991,9.42485 -4.86675,13.30939 -1.64973,0.10383 -3.06518,0.85844 -4.0189,2.03936 -4.15434,-1.64467 -8.83399,-2.81078 -13.92044,-3.32002 -0.21706,-0.4791 -0.57301,-0.8714 -1.02096,-1.1368 3.01561,-8.17639 10.36302,-13.77277 19.43005,-13.77277 0.98354,0 1.94536,0.0673 2.88466,0.19477 z m -2.78536,27.53784 c 2.17243,-0.0585 3.97828,-1.15337 4.93803,-2.83119 2.00332,1.52953 3.70934,3.16877 5.12516,4.83874 -0.22941,0.18564 -0.47312,0.44609 -0.69761,0.60978 -1.60525,1.17052 -3.07279,1.77777 -4.31426,1.91207 -1.24147,0.13431 -2.25609,-0.17471 -3.10488,-0.9013 -0.85845,-0.73485 -1.54056,-1.95688 -1.94644,-3.6281 z"
   style="fill:#174a7c;fill-opacity:1;fill-rule:evenodd;stroke:none"
   inkscape:connector-curvature="0"
   sodipodi:nodetypes="sssssccsscscsccscscsscscccccsccccccscssccscccscscccscccscccccscccccsccccccccc" /><g
   style="fill:#174a7c;fill-opacity:1"
   id="g836" /><g
   transform="translate(0,-19.93744)"
   id="g840"
   style="fill:#174a7c;fill-opacity:1"><path
     style="fill:#174a7c;fill-opacity:1;stroke:#ffffff;stroke-width:2.29229999;stroke-linecap:butt;stroke-linejoin:round;stroke-miterlimit:10;stroke-dasharray:none;stroke-opacity:1"
     id="path838"
     d="M 189.5,796.2 Z"
     inkscape:connector-curvature="0" /></g><g
   transform="translate(0,35.46256)"
   id="g844"
   style="fill:#174a7c;fill-opacity:1"><path
     style="fill:#174a7c;fill-opacity:1;stroke:#ffffff;stroke-width:2.29229999;stroke-linecap:butt;stroke-linejoin:round;stroke-miterlimit:10;stroke-dasharray:none;stroke-opacity:1"
     id="path842"
     d="M 242.4,740.8 Z"
     inkscape:connector-curvature="0" /></g><g
   transform="translate(0,7.71256)"
   id="g848"
   style="fill:#174a7c;fill-opacity:1" /><g
   transform="translate(0,7.26256)"
   id="g852"
   style="fill:#174a7c;fill-opacity:1"><path
     style="fill:#174a7c;fill-opacity:1;stroke:none"
     id="path850"
     d="M 215.5,769 Z"
     inkscape:connector-curvature="0" /></g><g
   transform="translate(0,8.16256)"
   id="g856"
   style="fill:#174a7c;fill-opacity:1"><path
     style="fill:#174a7c;fill-opacity:1;stroke:none"
     id="path854"
     d="M 216.4,768.1 Z"
     inkscape:connector-curvature="0" /></g><g
   id="g858"
   style="fill:#174a7c;fill-opacity:1" />

</g><g
   id="g862"
   transform="matrix(0.50193972,0,0,0.50193972,61.264299,381.82557)" /><path
   id="path864"
   d="m 158.33505,769.82296 c 0.69606,-0.0195 1.23355,-0.55186 1.26454,-1.28114 2.38644,0.25547 4.57818,0.81479 6.53482,1.58274 -0.20026,0.40736 -0.31309,0.87388 -0.31309,1.37892 0,1.44322 0.95522,2.56731 2.30351,2.81213 0.21661,1.03132 0.63081,1.82161 1.22811,2.33291 0.55032,0.47108 1.25733,0.67971 2.02365,0.5968 0.76631,-0.0829 1.59359,-0.44184 2.4607,-1.07412 0.12099,-0.0882 0.24863,-0.22367 0.37125,-0.32268 0.5863,0.76111 1.05363,1.52947 1.37508,2.27923 -0.24565,0.24126 -0.39745,0.58395 -0.39745,0.98211 0,0.3458 0.12964,0.6525 0.33994,0.8837 -1.80695,1.56851 -4.16126,2.4901 -6.80128,2.4901 -5.97198,0 -10.53035,-4.7095 -10.53035,-10.98018 0,-0.57814 0.054,-1.1362 0.14057,-1.68052 z m 18.954,8.18084 c -0.21943,-0.1534 -0.49009,-0.24345 -0.79425,-0.24345 -0.13194,0 -0.25601,0.0241 -0.37508,0.0588 -0.34605,-0.79452 -0.83458,-1.59428 -1.44281,-2.37891 1.34818,-1.22188 2.76936,-3.08814 4.18275,-5.67156 0.0563,0.008 0.11197,0.0173 0.1706,0.0173 0.0164,0 0.0311,-0.004 0.0473,-0.005 0.0818,0.55991 0.13675,1.13126 0.13675,1.72203 0,2.47555 -0.70602,4.70539 -1.92524,6.50033 z m 1.12715,-10.75336 c -0.41521,0.22852 -0.69456,0.67479 -0.69456,1.18595 0,0.46294 0.22646,0.87694 0.57762,1.12076 -1.37322,2.49358 -2.74672,4.25314 -4.0083,5.40639 -0.77052,-0.90649 -1.69992,-1.78642 -2.78786,-2.60192 0.0809,-0.26882 0.12525,-0.55634 0.12525,-0.85814 0,-1.53105 -1.05859,-2.71792 -2.51885,-2.9131 0.45744,-1.90614 1.24635,-4.11053 2.44408,-6.57891 0.52551,-0.0182 0.98153,-0.32524 1.18594,-0.77444 2.61361,1.09603 4.63998,3.25349 5.67668,6.01341 z m -8.24344,-6.71054 c -0.007,0.0554 -0.0166,0.10958 -0.0166,0.16741 0,0.53112 0.32137,0.97364 0.77572,1.18083 -1.20068,2.49765 -1.98764,4.73071 -2.44282,6.68051 -0.82806,0.0521 -1.53853,0.43089 -2.01724,1.02364 -2.08523,-0.82553 -4.43413,-1.41084 -6.98722,-1.66645 -0.10895,-0.24048 -0.28762,-0.43739 -0.51246,-0.57061 1.51365,-4.10405 5.20161,-6.9131 9.75271,-6.9131 0.49368,0 0.97645,0.0338 1.44793,0.0978 z m -1.39809,13.82234 c 1.09043,-0.0294 1.99686,-0.57892 2.4786,-1.42109 1.00554,0.76773 1.86186,1.59053 2.57252,2.42876 -0.11515,0.0932 -0.23748,0.22391 -0.35016,0.30607 -0.80574,0.58753 -1.54236,0.89233 -2.1655,0.95974 -0.62314,0.0674 -1.13242,-0.0877 -1.55846,-0.45239 -0.43089,-0.36886 -0.77327,-0.98224 -0.977,-1.82109 z"
   style="fill:#657b83;fill-opacity:1;fill-rule:evenodd;stroke:none;stroke-width:0.50193971"
   inkscape:connector-curvature="0"
   sodipodi:nodetypes="cccsccccccscssccscccscscccscccscccccscccccsccccccccc" /><g
   style="fill:none"
   id="g866"
   transform="matrix(0.50193972,0,0,0.50193972,61.264299,381.82557)" /><g
   transform="matrix(0.50193972,0,0,0.50193972,61.264299,371.81818)"
   id="g871"><path
     style="fill:none;stroke:#ffffff;stroke-width:2.29229999;stroke-linecap:butt;stroke-linejoin:round;stroke-miterlimit:10;stroke-dasharray:none;stroke-opacity:1"
     id="path868"
     d="M 189.5,796.2 Z"
     inkscape:connector-curvature="0" /></g><g
   transform="matrix(0.50193972,0,0,0.50193972,61.264299,399.62564)"
   id="g875"><path
     style="fill:none;stroke:#ffffff;stroke-width:2.29229999;stroke-linecap:butt;stroke-linejoin:round;stroke-miterlimit:10;stroke-dasharray:none;stroke-opacity:1"
     id="path873"
     d="M 242.4,740.8 Z"
     inkscape:connector-curvature="0" /></g><g
   id="g889"
   transform="matrix(0.50193972,0,0,0.50193972,61.264299,381.82557)" /><path
   sodipodi:nodetypes="cccsccccccscssc"
   inkscape:connector-curvature="0"
   style="fill:#859900;fill-opacity:1;fill-rule:evenodd;stroke:none;stroke-width:0.50193971"
   d="m 158.33505,769.82296 c 0.69606,-0.0195 1.23355,-0.55186 1.26454,-1.28114 2.38644,0.25547 4.57818,0.81479 6.53482,1.58274 -0.20026,0.40736 -0.31309,0.87388 -0.31309,1.37892 0,1.44322 0.95522,2.56731 2.30351,2.81213 0.21661,1.03132 0.63081,1.82161 1.22811,2.33291 0.55032,0.47108 1.25733,0.67971 2.02365,0.5968 0.76631,-0.0829 1.59359,-0.44184 2.4607,-1.07412 0.12099,-0.0882 0.24863,-0.22367 0.37125,-0.32268 0.5863,0.76111 1.05363,1.52947 1.37508,2.27923 -0.24565,0.24126 -0.39745,0.58395 -0.39745,0.98211 0,0.3458 0.12964,0.6525 0.33994,0.8837 -1.80695,1.56851 -4.16126,2.4901 -6.80128,2.4901 -5.97198,0 -10.53035,-4.7095 -10.53035,-10.98018 0,-0.57814 0.054,-1.1362 0.14057,-1.68052 z"
   id="path953" /><g
   id="g921"
   clip-path="url(#clipPath16)"
   transform="matrix(0.50193972,0,0,0.50193972,61.264299,381.82557)"><g
   id="g893" /><path
   id="path895"
   d="m 233.39835,767.87084 c -0.82721,0.45527 -1.38376,1.34436 -1.38376,2.36272 0,0.92231 0.45117,1.74711 1.15079,2.23287 -2.73583,4.96789 -5.47222,8.47341 -7.98563,10.77099 -1.53508,-1.80598 -3.3867,-3.55903 -5.55417,-5.18373 0.16121,-0.53556 0.24952,-1.10838 0.24952,-1.70965 0,-3.05027 -2.10899,-5.41484 -5.01823,-5.80369 0.91135,-3.79754 2.48307,-8.18928 4.86928,-13.10697 1.04696,-0.0363 1.95548,-0.64797 2.36272,-1.5429 5.20701,2.18359 9.24409,6.48184 11.30948,11.98036 z"
   style="fill:#dc322f;fill-opacity:1;fill-rule:evenodd;stroke:none"
   inkscape:connector-curvature="0"
   sodipodi:nodetypes="cscccscccc" /><g
   style="fill:none"
   id="g897" /><g
   transform="translate(0,-19.93744)"
   id="g901"><path
     style="fill:none;stroke:#ffffff;stroke-width:2.29229999;stroke-linecap:butt;stroke-linejoin:round;stroke-miterlimit:10;stroke-dasharray:none;stroke-opacity:1"
     id="path899"
     d="M 189.5,796.2 Z"
     inkscape:connector-curvature="0" /></g><g
   transform="translate(0,35.46256)"
   id="g905"><path
     style="fill:none;stroke:#ffffff;stroke-width:2.29229999;stroke-linecap:butt;stroke-linejoin:round;stroke-miterlimit:10;stroke-dasharray:none;stroke-opacity:1"
     id="path903"
     d="M 242.4,740.8 Z"
     inkscape:connector-curvature="0" /></g><g
   transform="translate(0,7.71256)"
   id="g909"><path
     style="fill:none;stroke:none"
     id="path907"
     d="m 215.9,769 c 0.3,0 0.5,-0.2 0.5,-0.4 0,-0.3 -0.2,-0.5 -0.5,-0.5 -0.2,0 -0.4,0.2 -0.4,0.5 0,0.2 0.2,0.4 0.4,0.4 z"
     inkscape:connector-curvature="0" /></g><g
   transform="translate(0,7.26256)"
   id="g913"><path
     style="fill:none;stroke:none"
     id="path911"
     d="M 215.5,769 Z"
     inkscape:connector-curvature="0" /></g><g
   transform="translate(0,8.16256)"
   id="g917"><path
     style="fill:none;stroke:none"
     id="path915"
     d="M 216.4,768.1 Z"
     inkscape:connector-curvature="0" /></g><g
   id="g919" />

</g><g
   id="g951"
   clip-path="url(#clipPath16)"
   transform="matrix(0.50193972,0,0,0.50193972,61.264299,381.82557)"
   style="fill:#268bd2"><g
   id="g923"
   style="fill:#268bd2" /><path
   id="path925"
   d="m 216.97517,754.50162 c -0.0132,0.11041 -0.0331,0.2183 -0.0331,0.33352 0,1.05813 0.64025,1.93976 1.54544,2.35254 -2.39207,4.97599 -3.95991,9.42485 -4.86675,13.30939 -1.64973,0.10383 -3.06518,0.85844 -4.0189,2.03936 -4.15434,-1.64467 -8.83399,-2.81078 -13.92044,-3.32002 -0.21706,-0.4791 -0.57301,-0.8714 -1.02096,-1.1368 3.01561,-8.17639 10.36302,-13.77277 19.43005,-13.77277 0.98354,0 1.94536,0.0673 2.88466,0.19477 z"
   style="fill:#268bd2;fill-opacity:1;fill-rule:evenodd;stroke:none"
   inkscape:connector-curvature="0"
   sodipodi:nodetypes="cscccccscc" /><g
   style="fill:#268bd2"
   id="g927" /><g
   transform="translate(0,-19.93744)"
   id="g931"
   style="fill:#268bd2"><path
     style="fill:#268bd2;stroke:#ffffff;stroke-width:2.29229999;stroke-linecap:butt;stroke-linejoin:round;stroke-miterlimit:10;stroke-dasharray:none;stroke-opacity:1"
     id="path929"
     d="M 189.5,796.2 Z"
     inkscape:connector-curvature="0" /></g><g
   transform="translate(0,35.46256)"
   id="g935"
   style="fill:#268bd2"><path
     style="fill:#268bd2;stroke:#ffffff;stroke-width:2.29229999;stroke-linecap:butt;stroke-linejoin:round;stroke-miterlimit:10;stroke-dasharray:none;stroke-opacity:1"
     id="path933"
     d="M 242.4,740.8 Z"
     inkscape:connector-curvature="0" /></g><g
   transform="translate(0,7.71256)"
   id="g939"
   style="fill:#268bd2" /><g
   transform="translate(0,7.26256)"
   id="g943"
   style="fill:#268bd2"><path
     style="fill:#268bd2;stroke:none"
     id="path941"
     d="M 215.5,769 Z"
     inkscape:connector-curvature="0" /></g><g
   transform="translate(0,8.16256)"
   id="g947"
   style="fill:#268bd2"><path
     style="fill:#268bd2;stroke:none"
     id="path945"
     d="M 216.4,768.1 Z"
     inkscape:connector-curvature="0" /></g><g
   id="g949"
   style="fill:#268bd2" />

</g><path
   sodipodi:nodetypes="cscccscscc"
   inkscape:connector-curvature="0"
   style="fill:#b58900;fill-opacity:1;fill-rule:evenodd;stroke:none;stroke-width:0.50193971"
   d="m 177.28905,778.0038 c -0.21943,-0.1534 -0.49009,-0.24345 -0.79425,-0.24345 -0.13194,0 -0.25601,0.0241 -0.37508,0.0588 -0.34605,-0.79452 -0.83458,-1.59428 -1.44281,-2.37891 1.34818,-1.22188 2.76936,-3.08814 4.18275,-5.67156 0.0563,0.008 0.11197,0.0173 0.1706,0.0173 0.0164,0 0.0311,-0.004 0.0473,-0.005 0.0818,0.55991 0.13675,1.13126 0.13675,1.72203 0,2.47555 -0.70602,4.70539 -1.92524,6.50033 z"
   id="path970" /></g></g></svg>