<?xml version="1.0" encoding="UTF-8" standalone="no"?>
<!-- Created with Inkscape (http://www.inkscape.org/) -->

<svg
   xmlns:dc="http://purl.org/dc/elements/1.1/"
   xmlns:cc="http://creativecommons.org/ns#"
   xmlns:rdf="http://www.w3.org/1999/02/22-rdf-syntax-ns#"
   xmlns:svg="http://www.w3.org/2000/svg"
   xmlns="http://www.w3.org/2000/svg"
   xmlns:sodipodi="http://sodipodi.sourceforge.net/DTD/sodipodi-0.dtd"
   xmlns:inkscape="http://www.inkscape.org/namespaces/inkscape"
   version="1.1"
   id="svg2"
   xml:space="preserve"
   width="577.51996"
   height="577.52533"
   viewBox="0 0 577.51995 577.52532"
   sodipodi:docname="ara_pastille.svg"
   inkscape:version="0.92.3 (2405546, 2018-03-11)"><metadata
     id="metadata8"><rdf:RDF><cc:Work
         rdf:about=""><dc:format>image/svg+xml</dc:format><dc:type
           rdf:resource="http://purl.org/dc/dcmitype/StillImage" /><dc:title></dc:title></cc:Work></rdf:RDF></metadata><defs
     id="defs6" /><sodipodi:namedview
     pagecolor="#ffffff"
     bordercolor="#666666"
     borderopacity="1"
     objecttolerance="10"
     gridtolerance="10"
     guidetolerance="10"
     inkscape:pageopacity="0"
     inkscape:pageshadow="2"
     inkscape:window-width="3840"
     inkscape:window-height="2034"
     id="namedview4"
     showgrid="false"
     fit-margin-top="0"
     fit-margin-left="0"
     fit-margin-right="0"
     fit-margin-bottom="0"
     inkscape:zoom="0.73597439"
     inkscape:cx="-1132.3611"
     inkscape:cy="-21.215463"
     inkscape:window-x="1920"
     inkscape:window-y="60"
     inkscape:window-maximized="1"
     inkscape:current-layer="g12" /><g
     id="g10"
     inkscape:groupmode="layer"
     inkscape:label="ink_ext_XXXXXX"
     transform="matrix(1.3333333,0,0,-1.3333333,-1486.84,1056.236)"><g
       id="g12"
       transform="scale(0.1)"><path
         d="m 14663.8,4882.63 h -2184.3 v 238.99 h 2184.3 z m -2614,0 -206.3,120.62 551.8,944.4 8.7,15.06 v 0 h 210.1 2.8 c 122.4,-129.78 295.9,-210.81 488.3,-210.81 206.2,0 390.7,93.04 513.8,239.4 l 176.8,-160.08 c -166.8,-194.45 -414.3,-317.67 -690.6,-317.67 -216.1,0 -414.5,75.51 -570.5,201.47 l -85.2,-146.2 1,-0.18 z M 13444.5,7009 h 207 l 886.6,-1521.25 -206.8,-119.8 -783.6,1343.42 -385.3,-661.54 -206.5,120.29 z m -127.5,912.77 c -1196.1,0 -2165.7,-969.63 -2165.7,-2165.73 0,-1196.09 969.6,-2165.71 2165.7,-2165.71 1196.1,0 2165.7,969.62 2165.7,2165.71 0,1196.1 -969.6,2165.73 -2165.7,2165.73"
         style="fill:#3f92d3;fill-opacity:1;fill-rule:nonzero;stroke:none"
         id="path70"
         inkscape:connector-curvature="0" /></g></g></svg>