<?xml version="1.0" encoding="UTF-8" standalone="no"?>
<!-- Generator: Adobe Illustrator 19.0.0, SVG Export Plug-In . SVG Version: 6.00 Build 0)  -->

<svg
   xmlns:dc="http://purl.org/dc/elements/1.1/"
   xmlns:cc="http://creativecommons.org/ns#"
   xmlns:rdf="http://www.w3.org/1999/02/22-rdf-syntax-ns#"
   xmlns:svg="http://www.w3.org/2000/svg"
   xmlns="http://www.w3.org/2000/svg"
   xmlns:sodipodi="http://sodipodi.sourceforge.net/DTD/sodipodi-0.dtd"
   xmlns:inkscape="http://www.inkscape.org/namespaces/inkscape"
   version="1.1"
   id="Layer_1"
   x="0px"
   y="0px"
   viewBox="0 0 845.48824 686.92537"
   xml:space="preserve"
   sodipodi:docname="thesis_defense.svg"
   inkscape:version="0.92.3 (2405546, 2018-03-11)"
   width="845.48822"
   height="686.92535"><metadata
   id="metadata47"><rdf:RDF><cc:Work
       rdf:about=""><dc:format>image/svg+xml</dc:format><dc:type
         rdf:resource="http://purl.org/dc/dcmitype/StillImage" /><dc:title></dc:title></cc:Work></rdf:RDF></metadata><defs
   id="defs45" /><sodipodi:namedview
   pagecolor="#ffffff"
   bordercolor="#666666"
   borderopacity="1"
   objecttolerance="10"
   gridtolerance="10"
   guidetolerance="10"
   inkscape:pageopacity="0"
   inkscape:pageshadow="2"
   inkscape:window-width="1920"
   inkscape:window-height="1017"
   id="namedview43"
   showgrid="false"
   inkscape:zoom="0.66204956"
   inkscape:cx="158.32445"
   inkscape:cy="361.60534"
   inkscape:window-x="1920"
   inkscape:window-y="30"
   inkscape:window-maximized="1"
   inkscape:current-layer="Layer_1"
   fit-margin-top="0"
   fit-margin-left="0"
   fit-margin-right="0"
   fit-margin-bottom="0" />



<g
   id="g2067"
   style="fill:#fdf6e3"
   transform="matrix(1.0219076,0,0,1.0219076,173.80042,184.65808)"><path
     style="fill:#fdf6e3;stroke-width:1.40424728"
     id="path94"
     d="M 628.2213,-84.082977 471.93138,-8.614513 c -3.2059,1.547481 -4.77725,5.500437 -3.69176,8.89029 10.92785,34.100743 3.79427,59.556943 -11.37862,78.493223 12.88678,32.81164 19.58504,68.36578 19.58504,104.86778 l -0.004,0.57153 c -0.052,3.06407 -1.04897,34.8787 -17.31717,78.67296 20.54835,-9.03212 33.56853,-28.17482 39.05211,-37.75319 1.77076,-3.08935 5.8824,-5.67597 9.43655,-5.94278 55.62364,-4.17623 72.29205,-62.18147 76.3405,-81.68928 0.72178,-3.48393 3.93189,-7.00859 7.34,-8.03089 104.31311,-31.33016 56.64734,-178.617455 45.02719,-210.325359 -1.21468,-3.343513 -4.8924,-4.770228 -8.0997,-3.222748 z"
     inkscape:connector-curvature="0" /><path
     style="fill:#fdf6e3;stroke-width:1.40424728"
     id="path96"
     d="m 18.981583,0.275777 c 1.086887,-3.389853 -0.48587,-7.342809 -3.691767,-8.89029 L -141.00432,-84.082977 c -3.20589,-1.54748 -6.8794,-0.119361 -8.10391,3.222748 -11.61874,31.707904 -59.28592,178.995199 45.0286,210.325359 3.4067,1.0237 6.616812,4.54696 7.342808,8.03089 4.04704,19.50921 20.715456,77.51446 76.340501,81.68928 3.548533,0.26681 7.665786,2.85343 9.432329,5.94278 5.410565,9.44497 18.15411,28.18745 38.217992,37.36562 C 11.123415,218.90165 10.134825,187.26255 10.082867,184.20691 l -0.0042,-0.57153 c 0,-36.70001 6.785323,-72.44653 19.812523,-105.41685 C 15.027222,59.34685 8.15624,34.03669 18.981583,0.275777 Z"
     inkscape:connector-curvature="0" /></g><path
   inkscape:connector-curvature="0"
   id="path821"
   d="m 401.56658,235.88918 c -42.98718,-3.45237 -83.89506,-16.9339 -95.7844,-31.56654 -1.22455,-1.50711 -2.48158,-3.62847 -2.79338,-4.71413 -0.31181,-1.08565 -0.53912,-18.94477 -0.50516,-39.68691 0.0612,-37.35617 0.0748,-37.71218 1.43231,-37.62818 1.54374,0.0955 14.73247,4.77452 43.51449,15.43776 4.71121,1.74542 12.26629,4.48818 16.78906,6.09503 4.52276,1.60684 11.76947,4.22896 16.10378,5.82692 4.33433,1.59797 11.58103,4.2216 16.10379,5.83027 11.65954,4.14713 21.18018,7.62267 26.5924,9.70762 l 4.66383,1.79665 7.67098,-2.91461 c 4.21905,-1.60303 8.5961,-3.16671 9.7268,-3.47485 1.13069,-0.30814 2.36417,-0.74926 2.74107,-0.98028 0.37689,-0.23102 3.61478,-1.4071 7.19531,-2.61353 6.35373,-2.14081 15.92101,-5.59298 25.80879,-9.31259 2.69948,-1.01549 7.47922,-2.71495 10.62165,-3.77657 3.14243,-1.06163 9.87652,-3.46915 14.96463,-5.35005 5.08812,-1.8809 14.49341,-5.28846 20.90066,-7.57236 6.40725,-2.2839 14.36097,-5.13227 17.67493,-6.32973 3.31396,-1.19745 6.47475,-2.17718 7.024,-2.17718 0.86489,0 0.99861,5.07577 0.99861,37.90753 0,27.27672 -0.22266,38.43621 -0.79396,39.79275 -5.77787,13.71934 -40.95717,28.17539 -82.80869,34.02811 -17.16038,2.39979 -49.02109,3.18638 -67.8415,1.67487 z M 608.1748,207.08122 c -9.75556,-1.25237 -14.06933,-2.61162 -18.39211,-5.79527 -4.65983,-3.43188 -4.82539,-5.61763 -1.45268,-19.17739 2.90886,-11.69476 7.06274,-21.7228 13.21071,-31.89251 l 4.52627,-7.48713 0.0956,-28.28475 c 0.0525,-15.556603 0.14138,-28.602203 0.1973,-28.990223 0.0791,-0.54894 2.9529,-0.67201 12.95043,-0.5546 l 12.84876,0.15089 0.34266,29.393933 0.34265,29.39395 3.18567,4.43683 c 6.78764,9.45341 13.62756,27.07826 16.0256,41.29412 1.33874,7.93625 1.05514,8.89965 -3.59535,12.21264 -4.53869,3.23334 -11.51044,4.92671 -22.90144,5.56254 -10.96662,0.61213 -10.51352,0.61899 -17.38412,-0.26303 z M 420.06881,143.9004 c -3.58052,-1.29041 -7.58934,-2.7483 -8.90848,-3.23975 -1.31914,-0.49145 -6.71562,-2.50388 -11.99218,-4.47207 -5.27656,-1.96819 -13.2942,-4.88354 -17.81697,-6.47857 -7.73884,-2.72922 -11.02465,-3.92843 -30.42406,-11.1038 -4.29564,-1.58885 -9.8463,-3.58276 -12.33483,-4.43091 -4.65401,-1.58623 -12.70242,-4.52068 -28.85157,-10.51931 -5.08811,-1.88999 -12.02644,-4.383833 -15.41852,-5.541883 -3.39208,-1.15806 -7.86344,-2.7423 -9.93638,-3.52055 -15.5418,-5.8349 -23.6219,-8.81436 -27.11765,-9.99935 -2.23412,-0.75733 -7.4541,-2.62331 -11.59997,-4.14663 -4.14587,-1.52333 -10.23465,-3.73141 -13.53062,-4.90684 -3.79776,-1.3544 -5.93117,-2.41944 -5.82477,-2.90784 0.1477,-0.67795 4.96989,-2.52609 21.75382,-8.33732 2.44984,-0.84822 6.61284,-2.36464 9.25112,-3.36981 7.8194,-2.97915 19.47469,-7.17425 25.51162,-9.18244 3.10137,-1.03167 6.9245,-2.40659 8.49584,-3.05537 1.57131,-0.64878 5.20124,-2.00528 8.06648,-3.01445 2.86524,-1.00915 9.83508,-3.50377 15.48854,-5.54358 5.65346,-2.03981 12.07692,-4.32004 14.27436,-5.06718 2.19743,-0.74714 6.82299,-2.43189 10.27901,-3.7439 3.45603,-1.31202 9.52156,-3.53609 13.47898,-4.94239 6.50386,-2.3112 19.02779,-6.78922 39.06025,-13.96631 3.95743,-1.41783 8.73717,-3.1688301 10.62165,-3.8910801 1.88449,-0.72226 6.81842,-2.48088 10.96429,-3.90804 4.14586,-1.42715 8.68205,-3.06676 10.08039,-3.64357004 3.41353,-1.40805 4.68835,-1.33017 9.34104,0.57066004 2.18012,0.89067 6.87398,2.61231 10.43079,3.82585 3.55683,1.21356 10.62997,3.75186 15.71807,5.6406801 5.08812,1.88882 15.11016,5.54377 22.2712,8.12212 15.00716,5.40335 21.1912,7.66441 33.57812,12.27711 4.89966,1.82457 12.60892,4.62154 17.13169,6.2155 4.52277,1.59395 11.4611,4.09275 15.41852,5.55288 15.63645,5.76921 21.2768,7.82045 30.49441,11.09003 15.74757,5.58582 29.1239,10.73395 29.1239,11.2089 0,0.24489 -31.37672,0.45073 -69.72601,0.45743 -66.39339,0.0116 -69.85957,0.0613 -72.52091,1.03953 -8.72334,3.20649 -9.15803,13.10647 -0.71781,16.34792 2.1185,0.81361 8.74839,0.90226 67.47707,0.90226 43.02796,0 65.27258,0.18972 65.55469,0.5591 0.23483,0.3075 -0.96438,1.04176 -2.66489,1.63169 -4.42123,1.5338 -17.82036,6.461 -22.91359,8.42591 -2.38247,0.91912 -7.1622,2.63096 -10.62165,3.80408 -3.45945,1.17314 -10.4529,3.664953 -15.54102,5.537373 -5.08811,1.87243 -14.18503,5.17295 -20.21539,7.33448 -6.03035,2.16154 -16.51495,5.92863 -23.2991,8.3713 -6.78415,2.44268 -16.34363,5.87245 -21.2433,7.62171 -11.05323,3.9462 -19.30763,6.93945 -34.26337,12.42476 -12.41601,4.5538 -18.07916,6.4313 -19.1875,6.36121 -0.3769,-0.0238 -3.61479,-1.09913 -7.19531,-2.38954 z"
   style="fill:#268bd2;stroke-width:0.61648303"
   sodipodi:nodetypes="ssssccsssscsccccccsssscsscssscccsccccccccscssscscsccccscsccscccsssssssssscsssscscsscsssssss" /><g
   id="g2073"
   transform="translate(170.68311,182.80236)"><path
     id="path2"
     d="m 456.861,78.769 c 0.394,0 -199.68,-76.8 -204.8,-78.769 -3.938,1.575 -205.194,78.769 -204.8,78.769 v 144.935 c 0,100.431 28.751,231.582 204.8,280.418 175.655,-48.837 204.406,-182.351 204.406,-280.418 0.394,-49.624 0.394,-144.935 0.394,-144.935 z"
     style="fill:#93a1a1"
     inkscape:connector-curvature="0" /><path
     id="path4"
     d="m 47.261,223.705 c 0,100.431 28.751,231.582 204.8,280.418 V 0 c -7.483,2.757 -204.8,78.769 -204.8,78.769 0,0 10e-4,144.936 0,144.936 z"
     style="fill:#839496"
     inkscape:connector-curvature="0" /><path
     id="path6"
     d="m 417.082,105.945 c 0.394,0 -161.083,-64.985 -165.415,-66.56 -3.545,1.182 -165.809,63.803 -165.415,63.409 v 121.698 c 0,84.283 16.542,199.286 165.415,240.246 148.48,-40.96 165.415,-157.932 165.415,-240.246 0.394,-41.747 0.394,-118.547 0,-118.547 z"
     style="fill:#657b83"
     inkscape:connector-curvature="0" /><path
     id="path8"
     d="m 252.061,39.385 c -3.545,1.182 -165.809,63.803 -165.415,63.409 v 121.698 c 0,84.283 16.542,199.286 165.415,240.246 z"
     style="fill:#586e75"
     inkscape:connector-curvature="0" /></g>

<g
   id="g12"
   transform="translate(170.68311,182.80236)">
</g>
<g
   id="g14"
   transform="translate(170.68311,182.80236)">
</g>
<g
   id="g16"
   transform="translate(170.68311,182.80236)">
</g>
<g
   id="g18"
   transform="translate(170.68311,182.80236)">
</g>
<g
   id="g20"
   transform="translate(170.68311,182.80236)">
</g>
<g
   id="g22"
   transform="translate(170.68311,182.80236)">
</g>
<g
   id="g24"
   transform="translate(170.68311,182.80236)">
</g>
<g
   id="g26"
   transform="translate(170.68311,182.80236)">
</g>
<g
   id="g28"
   transform="translate(170.68311,182.80236)">
</g>
<g
   id="g30"
   transform="translate(170.68311,182.80236)">
</g>
<g
   id="g32"
   transform="translate(170.68311,182.80236)">
</g>
<g
   id="g34"
   transform="translate(170.68311,182.80236)">
</g>
<g
   id="g36"
   transform="translate(170.68311,182.80236)">
</g>
<g
   id="g38"
   transform="translate(170.68311,182.80236)">
</g>
<g
   id="g40"
   transform="translate(170.68311,182.80236)">
</g>
<path
   style="fill:#d33682"
   d="m 372.69361,272.4477 c 29.881,0 43.286,16.747 48.561,26.585 0.663,1.235 2.461,1.233 3.121,-0.003 5.257,-9.838 18.589,-26.582 48.466,-26.582 34.035,0 63.975,23.233 63.975,65.659 0,17.168 -3.498,31.876 -13.208,48.289 -19.789,33.45 -84.977,76.812 -98.368,85.357 -1.48,0.945 -3.355,0.948 -4.838,0.006 -13.401,-8.504 -78.602,-51.651 -98.546,-85.363 -9.71,-16.414 -13.185,-31.121 -13.185,-48.289 -0.002,-42.426 29.985,-65.659 64.022,-65.659 z"
   id="path49"
   inkscape:connector-curvature="0" /><path
   inkscape:connector-curvature="0"
   id="path819"
   d="m 419.27529,582.40701 c -12.87528,-1.59471 -26.14419,-4.30936 -48.73683,-9.97092 -7.94551,-1.9911 -21.36673,-5.49253 -25.60052,-6.67891 -1.43062,-0.40091 -3.64842,-1.01897 -4.92845,-1.37346 -1.28003,-0.3545 -4.85315,-1.34417 -7.94027,-2.19929 -3.08712,-0.85512 -7.52272,-2.10949 -9.85689,-2.78751 -2.33416,-0.67797 -6.15371,-1.78097 -8.48787,-2.45109 -2.33417,-0.67006 -5.22963,-1.51419 -6.43436,-1.87575 -1.20473,-0.36151 -3.41679,-1.01505 -4.91569,-1.45227 -1.4989,-0.43721 -2.76479,-0.91348 -2.8131,-1.05842 -0.0483,-0.14495 0.99324,-0.76693 2.31456,-1.38226 1.32132,-0.61533 4.43539,-2.06492 6.92015,-3.22134 2.48475,-1.15648 4.98357,-2.33825 5.55292,-2.62618 0.56936,-0.28794 1.20616,-0.52352 1.41513,-0.52352 0.20896,0 2.14574,0.48571 4.30395,1.07935 2.15822,0.59364 5.58738,1.50631 7.62036,2.02821 2.03298,0.52185 7.26945,1.8943 11.6366,3.04977 12.39253,3.27905 21.07174,5.56635 24.50532,6.4582 1.7318,0.44982 5.92098,1.55852 9.30928,2.46386 3.38831,0.90528 8.25515,2.1956 10.8152,2.86727 2.56005,0.67172 6.81083,1.79261 9.44618,2.49096 8.77523,2.32539 12.9866,3.35993 15.01325,3.6881 2.52077,0.40816 8.53889,0.15434 10.99798,-0.4639 3.44791,-0.86683 9.03548,-3.89343 9.03548,-4.89421 0,-0.34962 -2.18036,-0.97006 -9.99378,-2.84385 -1.95769,-0.46943 -7.07096,-1.71013 -11.36281,-2.75703 -4.29185,-1.04696 -9.83635,-2.39777 -12.32111,-3.00193 -2.48475,-0.60415 -9.87742,-2.40651 -16.42814,-4.00521 -6.55072,-1.5987 -13.69697,-3.33717 -15.88054,-3.86323 -2.18357,-0.52604 -6.74238,-1.63458 -10.13069,-2.46341 -14.58849,-3.56857 -18.7593,-4.58713 -23.41011,-5.71703 -18.84177,-4.57756 -18.68674,-4.52941 -19.91212,-6.18441 -1.15792,-1.56389 -1.124,-4.33766 0.0736,-6.01956 0.71819,-1.00861 2.62473,-1.89953 4.06491,-1.89953 0.6414,0 3.96,0.6826 7.37468,1.51689 8.87496,2.16837 15.1737,3.70836 22.22595,5.43406 3.3883,0.82913 8.9328,2.181 12.3211,3.00417 3.38831,0.82317 12.25951,2.98545 19.71378,4.80508 7.45427,1.81963 16.87992,4.1139 20.94588,5.09839 4.06597,0.98448 9.67207,2.34767 12.45802,3.02926 2.78593,0.68165 7.52956,1.84153 10.54139,2.57761 3.01182,0.73603 7.79007,1.91094 10.61832,2.61089 2.82825,0.6999 5.31526,1.20623 5.5267,1.12505 0.21144,-0.0811 0.77929,-1.35575 1.26188,-2.8325 0.78541,-2.40336 0.88062,-3.04401 0.90766,-6.10752 l 0.0302,-3.42253 -7.94028,-1.98461 c -4.36714,-1.09154 -12.56068,-3.10185 -18.20786,-4.46735 -5.64717,-1.3655 -13.53268,-3.28382 -17.52335,-4.26291 -3.99067,-0.97909 -9.78159,-2.39225 -12.86871,-3.14035 -3.08713,-0.7481 -7.58433,-1.8446 -9.99379,-2.43668 -2.40946,-0.59207 -7.15309,-1.75119 -10.54139,-2.57581 -3.38831,-0.82462 -8.93281,-2.17626 -12.32112,-3.00365 -3.3883,-0.82738 -8.43995,-2.05929 -11.22589,-2.73758 -2.78594,-0.67828 -8.57687,-2.09457 -12.86871,-3.14731 -4.29186,-1.05275 -8.72746,-2.12249 -9.85689,-2.3772 -2.68485,-0.6055 -3.84381,-1.2176 -4.72736,-2.49671 -1.35293,-1.95861 -1.24949,-4.3289 0.26759,-6.13184 0.8714,-1.03561 2.53055,-1.89765 3.65233,-1.89765 0.74535,0 5.96616,1.22853 25.58655,6.02091 2.40946,0.58852 7.1531,1.7473 10.5414,2.57504 3.3883,0.82776 8.99441,2.19648 12.45801,3.04161 3.4636,0.84512 8.51525,2.07902 11.2259,2.74196 2.71064,0.66296 6.96143,1.69705 9.44618,2.29798 2.48476,0.60094 7.59802,1.84468 11.3628,2.76387 3.76479,0.9192 8.81644,2.15087 11.2259,2.73703 11.91703,2.89916 16.32578,3.97748 21.33826,5.21902 5.47125,1.35518 6.72649,1.56197 6.72649,1.10814 0,-0.53881 -2.50332,-3.57236 -4.54376,-5.50617 -2.93969,-2.78606 -6.60797,-5.23006 -10.50675,-7.00016 -6.71472,-3.04857 -37.74324,-11.17941 -113.02057,-29.61634 -2.89889,-0.71001 -5.2707,-1.37647 -5.2707,-1.48104 0,-0.29378 1.26361,-0.99214 8.35097,-4.61538 3.6142,-1.84766 6.69447,-3.44906 6.84506,-3.55866 0.15059,-0.10961 3.23088,-1.71127 6.84506,-3.55924 6.36717,-3.25561 19.5158,-10.08223 32.17179,-16.70326 10.14739,-5.30863 14.76475,-7.66637 15.01372,-7.66637 0.12955,0 0.31277,1.34969 0.40715,2.99931 0.1085,1.89615 0.38245,3.63332 0.74486,4.72309 1.4786,4.44622 5.10013,8.68868 10.53001,12.33544 9.01636,6.0555 20.29987,9.75536 35.86812,11.76118 3.71563,0.47872 20.65277,0.47872 24.36841,0 8.40967,-1.0835 16.34216,-2.85722 22.41689,-5.01244 3.89979,-1.3836 9.98321,-4.39302 13.31432,-6.58651 2.48961,-1.63936 6.76914,-5.58452 8.25132,-7.60661 l 0.68884,-0.93976 2.16963,0.44888 c 1.1933,0.24689 3.58656,0.70417 5.31836,1.01618 9.16745,1.65163 16.6358,4.40217 22.34971,8.23127 2.75299,1.8449 6.85726,5.83465 8.71757,8.47443 4.06321,5.76564 6.03239,12.42697 5.96285,20.17134 -0.0398,4.46665 -0.31598,6.32725 -1.47253,9.93204 -2.04685,6.37977 -5.44624,11.22197 -11.35145,16.16923 -2.59229,2.17183 -10.20969,8.2215 -14.32506,11.37691 -25.16217,19.29275 -43.09181,31.24146 -58.26842,38.83148 -6.10047,3.0509 -11.97048,5.2254 -16.38708,6.07042 -1.8777,0.35931 -6.63102,0.47591 -8.74154,0.21448 z"
   style="fill:#859900;stroke-width:0.27380243" /></svg>