<?xml version="1.0" encoding="UTF-8" standalone="no"?>
<svg
   xmlns:dc="http://purl.org/dc/elements/1.1/"
   xmlns:cc="http://creativecommons.org/ns#"
   xmlns:rdf="http://www.w3.org/1999/02/22-rdf-syntax-ns#"
   xmlns:svg="http://www.w3.org/2000/svg"
   xmlns="http://www.w3.org/2000/svg"
   xmlns:sodipodi="http://sodipodi.sourceforge.net/DTD/sodipodi-0.dtd"
   xmlns:inkscape="http://www.inkscape.org/namespaces/inkscape"
   viewBox="0 0 765.27246 270.78189"
   version="1.1"
   id="svg927"
   sodipodi:docname="graphic.svg"
   width="765.27246"
   height="270.78189"
   inkscape:version="0.92.3 (2405546, 2018-03-11)">
  <metadata
     id="metadata931">
    <rdf:RDF>
      <cc:Work
         rdf:about="">
        <dc:format>image/svg+xml</dc:format>
        <dc:type
           rdf:resource="http://purl.org/dc/dcmitype/StillImage" />
        <dc:title></dc:title>
      </cc:Work>
    </rdf:RDF>
  </metadata>
  <sodipodi:namedview
     pagecolor="#ffffff"
     bordercolor="#666666"
     borderopacity="1"
     objecttolerance="10"
     gridtolerance="10"
     guidetolerance="10"
     inkscape:pageopacity="0"
     inkscape:pageshadow="2"
     inkscape:window-width="1920"
     inkscape:window-height="1017"
     id="namedview929"
     showgrid="false"
     fit-margin-top="0"
     fit-margin-left="0"
     fit-margin-right="0"
     fit-margin-bottom="0"
     inkscape:zoom="0.92709556"
     inkscape:cx="414.59773"
     inkscape:cy="222.0687"
     inkscape:window-x="1920"
     inkscape:window-y="30"
     inkscape:window-maximized="1"
     inkscape:current-layer="svg927" />
  <defs
     id="defs106">
    <style
       type="text/css"
       id="style104"><![CDATA[
    line, polyline, polygon, path, rect, circle {
      fill: none;
      stroke: #000000;
      stroke-linecap: round;
      stroke-linejoin: round;
      stroke-miterlimit: 10.00;
    }
  ]]></style>
    <clipPath
       id="cpMzA4LjUzfDQ5Mi4wNHwxNDIuMDN8MTEuOTY=-3">
      <rect
         x="308.53"
         y="11.96"
         width="183.50999"
         height="130.07001"
         id="rect313-6"
         style="fill:none;stroke:#000000;stroke-linecap:round;stroke-linejoin:round;stroke-miterlimit:10" />
    </clipPath>
    <clipPath
       id="clipPath3379">
      <rect
         x="308.53"
         y="11.96"
         width="183.50999"
         height="130.07001"
         id="rect3377"
         style="fill:none;stroke:#000000;stroke-linecap:round;stroke-linejoin:round;stroke-miterlimit:10" />
    </clipPath>
    <clipPath
       id="clipPath3383">
      <rect
         x="308.53"
         y="11.96"
         width="183.50999"
         height="130.07001"
         id="rect3381"
         style="fill:none;stroke:#000000;stroke-linecap:round;stroke-linejoin:round;stroke-miterlimit:10" />
    </clipPath>
    <clipPath
       id="clipPath3387">
      <rect
         x="308.53"
         y="11.96"
         width="183.50999"
         height="130.07001"
         id="rect3385"
         style="fill:none;stroke:#000000;stroke-linecap:round;stroke-linejoin:round;stroke-miterlimit:10" />
    </clipPath>
    <clipPath
       id="clipPath3391">
      <rect
         x="308.53"
         y="11.96"
         width="183.50999"
         height="130.07001"
         id="rect3389"
         style="fill:none;stroke:#000000;stroke-linecap:round;stroke-linejoin:round;stroke-miterlimit:10" />
    </clipPath>
    <clipPath
       id="clipPath3395">
      <rect
         x="308.53"
         y="11.96"
         width="183.50999"
         height="130.07001"
         id="rect3393"
         style="fill:none;stroke:#000000;stroke-linecap:round;stroke-linejoin:round;stroke-miterlimit:10" />
    </clipPath>
    <clipPath
       id="clipPath3399">
      <rect
         x="308.53"
         y="11.96"
         width="183.50999"
         height="130.07001"
         id="rect3397"
         style="fill:none;stroke:#000000;stroke-linecap:round;stroke-linejoin:round;stroke-miterlimit:10" />
    </clipPath>
    <clipPath
       id="clipPath3403">
      <rect
         x="308.53"
         y="11.96"
         width="183.50999"
         height="130.07001"
         id="rect3401"
         style="fill:none;stroke:#000000;stroke-linecap:round;stroke-linejoin:round;stroke-miterlimit:10" />
    </clipPath>
    <clipPath
       id="clipPath3407">
      <rect
         x="308.53"
         y="11.96"
         width="183.50999"
         height="130.07001"
         id="rect3405"
         style="fill:none;stroke:#000000;stroke-linecap:round;stroke-linejoin:round;stroke-miterlimit:10" />
    </clipPath>
    <clipPath
       id="clipPath3411">
      <rect
         x="308.53"
         y="11.96"
         width="183.50999"
         height="130.07001"
         id="rect3409"
         style="fill:none;stroke:#000000;stroke-linecap:round;stroke-linejoin:round;stroke-miterlimit:10" />
    </clipPath>
    <clipPath
       id="clipPath3415">
      <rect
         x="308.53"
         y="11.96"
         width="183.50999"
         height="130.07001"
         id="rect3413"
         style="fill:none;stroke:#000000;stroke-linecap:round;stroke-linejoin:round;stroke-miterlimit:10" />
    </clipPath>
    <clipPath
       id="clipPath3419">
      <rect
         x="308.53"
         y="11.96"
         width="183.50999"
         height="130.07001"
         id="rect3417"
         style="fill:none;stroke:#000000;stroke-linecap:round;stroke-linejoin:round;stroke-miterlimit:10" />
    </clipPath>
    <clipPath
       id="clipPath3423">
      <rect
         x="308.53"
         y="11.96"
         width="183.50999"
         height="130.07001"
         id="rect3421"
         style="fill:none;stroke:#000000;stroke-linecap:round;stroke-linejoin:round;stroke-miterlimit:10" />
    </clipPath>
    <clipPath
       id="clipPath3427">
      <rect
         x="308.53"
         y="11.96"
         width="183.50999"
         height="130.07001"
         id="rect3425"
         style="fill:none;stroke:#000000;stroke-linecap:round;stroke-linejoin:round;stroke-miterlimit:10" />
    </clipPath>
  </defs>
  <defs
     id="defs115">
    <clipPath
       id="cpNzAuOTl8NDkyLjA0fDE0Mi4wM3wxMS45Ng==">
      <rect
         x="70.989998"
         y="11.96"
         width="421.06"
         height="130.07001"
         id="rect112"
         style="fill:none;stroke:#000000;stroke-linecap:round;stroke-linejoin:round;stroke-miterlimit:10" />
    </clipPath>
  </defs>
  <defs
     id="defs120">
    <clipPath
       id="cpMC4wMHw1MDQuMDB8MzYwLjAwfDAuMDA=">
      <rect
         x="0"
         y="0"
         width="504"
         height="360"
         id="rect117"
         style="fill:none;stroke:#000000;stroke-linecap:round;stroke-linejoin:round;stroke-miterlimit:10" />
    </clipPath>
  </defs>
  <defs
     id="defs125">
    <clipPath
       id="cpNS45OHwyNjAuNDh8MTgwLjAwfDUuOTg=">
      <rect
         x="5.98"
         y="5.98"
         width="254.5"
         height="174.02"
         id="rect122"
         style="fill:none;stroke:#000000;stroke-linecap:round;stroke-linejoin:round;stroke-miterlimit:10" />
    </clipPath>
  </defs>
  <defs
     id="defs133">
    <clipPath
       id="clipPath131">
      <rect
         x="0"
         y="0"
         width="504"
         height="360"
         id="rect129"
         style="fill:none;stroke:#000000;stroke-linecap:round;stroke-linejoin:round;stroke-miterlimit:10" />
    </clipPath>
  </defs>
  <defs
     id="defs138">
    <clipPath
       id="cpNzAuOTl8MjU0LjUwfDE0Mi4wM3wxMS45Ng==">
      <rect
         x="70.989998"
         y="11.96"
         width="183.50999"
         height="130.07001"
         id="rect135"
         style="fill:none;stroke:#000000;stroke-linecap:round;stroke-linejoin:round;stroke-miterlimit:10" />
    </clipPath>
  </defs>
  <defs
     id="defs220">
    <clipPath
       id="clipPath218">
      <rect
         x="0"
         y="0"
         width="504"
         height="360"
         id="rect216"
         style="fill:none;stroke:#000000;stroke-linecap:round;stroke-linejoin:round;stroke-miterlimit:10" />
    </clipPath>
  </defs>
  <defs
     id="defs303">
    <clipPath
       id="cpMjYwLjQ4fDQ5OC4wMnwxODAuMDB8NS45OA==">
      <rect
         x="260.48001"
         y="5.98"
         width="237.53999"
         height="174.02"
         id="rect300"
         style="fill:none;stroke:#000000;stroke-linecap:round;stroke-linejoin:round;stroke-miterlimit:10" />
    </clipPath>
  </defs>
  <defs
     id="defs311">
    <clipPath
       id="clipPath309">
      <rect
         x="0"
         y="0"
         width="504"
         height="360"
         id="rect307"
         style="fill:none;stroke:#000000;stroke-linecap:round;stroke-linejoin:round;stroke-miterlimit:10" />
    </clipPath>
  </defs>
  <defs
     id="defs316">
    <clipPath
       id="cpMzA4LjUzfDQ5Mi4wNHwxNDIuMDN8MTEuOTY=">
      <rect
         x="308.53"
         y="11.96"
         width="183.50999"
         height="130.07001"
         id="rect313"
         style="fill:none;stroke:#000000;stroke-linecap:round;stroke-linejoin:round;stroke-miterlimit:10" />
    </clipPath>
  </defs>
  <defs
     id="defs354">
    <clipPath
       id="clipPath352">
      <rect
         x="0"
         y="0"
         width="504"
         height="360"
         id="rect350"
         style="fill:none;stroke:#000000;stroke-linecap:round;stroke-linejoin:round;stroke-miterlimit:10" />
    </clipPath>
  </defs>
  <defs
     id="defs443">
    <clipPath
       id="cpNzAuOTl8NDkyLjA0fDMxNi4wNXwxODUuOTg=">
      <rect
         x="70.989998"
         y="185.98"
         width="421.06"
         height="130.07001"
         id="rect440"
         style="fill:none;stroke:#000000;stroke-linecap:round;stroke-linejoin:round;stroke-miterlimit:10" />
    </clipPath>
  </defs>
  <defs
     id="defs449">
    <clipPath
       id="clipPath447">
      <rect
         x="0"
         y="0"
         width="504"
         height="360"
         id="rect445"
         style="fill:none;stroke:#000000;stroke-linecap:round;stroke-linejoin:round;stroke-miterlimit:10" />
    </clipPath>
  </defs>
  <defs
     id="defs454">
    <clipPath
       id="cpNS45OHwyNjEuODd8MzU0LjAyfDE4MC4wMA==">
      <rect
         x="5.98"
         y="180"
         width="255.89"
         height="174.02"
         id="rect451"
         style="fill:none;stroke:#000000;stroke-linecap:round;stroke-linejoin:round;stroke-miterlimit:10" />
    </clipPath>
  </defs>
  <defs
     id="defs462">
    <clipPath
       id="clipPath460">
      <rect
         x="0"
         y="0"
         width="504"
         height="360"
         id="rect458"
         style="fill:none;stroke:#000000;stroke-linecap:round;stroke-linejoin:round;stroke-miterlimit:10" />
    </clipPath>
  </defs>
  <defs
     id="defs467">
    <clipPath
       id="cpNzAuOTl8MjU1Ljg5fDMxNi4wNXwxODUuOTg=">
      <rect
         x="70.989998"
         y="185.98"
         width="184.89999"
         height="130.07001"
         id="rect464"
         style="fill:none;stroke:#000000;stroke-linecap:round;stroke-linejoin:round;stroke-miterlimit:10" />
    </clipPath>
  </defs>
  <defs
     id="defs611">
    <clipPath
       id="clipPath609">
      <rect
         x="0"
         y="0"
         width="504"
         height="360"
         id="rect607"
         style="fill:none;stroke:#000000;stroke-linecap:round;stroke-linejoin:round;stroke-miterlimit:10" />
    </clipPath>
  </defs>
  <defs
     id="defs676">
    <clipPath
       id="cpMjYxLjg3fDQ5OC4wMnwzNTQuMDJ8MTgwLjAw">
      <rect
         x="261.87"
         y="180"
         width="236.14999"
         height="174.02"
         id="rect673"
         style="fill:none;stroke:#000000;stroke-linecap:round;stroke-linejoin:round;stroke-miterlimit:10" />
    </clipPath>
  </defs>
  <defs
     id="defs684">
    <clipPath
       id="clipPath682">
      <rect
         x="0"
         y="0"
         width="504"
         height="360"
         id="rect680"
         style="fill:none;stroke:#000000;stroke-linecap:round;stroke-linejoin:round;stroke-miterlimit:10" />
    </clipPath>
  </defs>
  <defs
     id="defs689">
    <clipPath
       id="cpMzA3LjE0fDQ5Mi4wNHwzMTYuMDV8MTg1Ljk4">
      <rect
         x="307.14001"
         y="185.98"
         width="184.89999"
         height="130.07001"
         id="rect686"
         style="fill:none;stroke:#000000;stroke-linecap:round;stroke-linejoin:round;stroke-miterlimit:10" />
    </clipPath>
  </defs>
  <defs
     id="defs859">
    <clipPath
       id="clipPath857">
      <rect
         x="0"
         y="0"
         width="504"
         height="360"
         id="rect855"
         style="fill:none;stroke:#000000;stroke-linecap:round;stroke-linejoin:round;stroke-miterlimit:10" />
    </clipPath>
  </defs>
  <g
     id="g3545"
     transform="matrix(1.0124439,0,0,1.0124439,253.0247,-66.164801)">
    <polyline
       id="polyline320"
       clip-path="url(#cpMzA4LjUzfDQ5Mi4wNHwxNDIuMDN8MTEuOTY=-3)"
       style="fill:none;stroke:#eee8d5;stroke-width:1.07000005;stroke-linecap:butt;stroke-linejoin:round;stroke-miterlimit:10;stroke-dasharray:5.69, 5.69"
       points="308.53,136.12 492.04,136.12 "
       transform="matrix(1.9992282,0,0,1.9992282,-477.74847,48.854913)" />
    <polyline
       id="polyline322"
       clip-path="url(#cpMzA4LjUzfDQ5Mi4wNHwxNDIuMDN8MTEuOTY=-3)"
       style="fill:none;stroke:#eee8d5;stroke-width:1.07000005;stroke-linecap:butt;stroke-linejoin:round;stroke-miterlimit:10;stroke-dasharray:5.69, 5.69"
       points="308.53,111.48 492.04,111.48 "
       transform="matrix(1.9992282,0,0,1.9992282,-477.74847,48.854913)" />
    <polyline
       id="polyline324"
       clip-path="url(#cpMzA4LjUzfDQ5Mi4wNHwxNDIuMDN8MTEuOTY=-3)"
       style="fill:none;stroke:#eee8d5;stroke-width:1.07000005;stroke-linecap:butt;stroke-linejoin:round;stroke-miterlimit:10;stroke-dasharray:5.69, 5.69"
       points="308.53,86.85 492.04,86.85 "
       transform="matrix(1.9992282,0,0,1.9992282,-477.74847,48.854913)" />
    <polyline
       id="polyline326"
       clip-path="url(#cpMzA4LjUzfDQ5Mi4wNHwxNDIuMDN8MTEuOTY=-3)"
       style="fill:none;stroke:#eee8d5;stroke-width:1.07000005;stroke-linecap:butt;stroke-linejoin:round;stroke-miterlimit:10;stroke-dasharray:5.69, 5.69"
       points="308.53,62.21 492.04,62.21 "
       transform="matrix(1.9992282,0,0,1.9992282,-477.74847,48.854913)" />
    <polyline
       id="polyline328"
       clip-path="url(#cpMzA4LjUzfDQ5Mi4wNHwxNDIuMDN8MTEuOTY=-3)"
       style="fill:none;stroke:#eee8d5;stroke-width:1.07000005;stroke-linecap:butt;stroke-linejoin:round;stroke-miterlimit:10;stroke-dasharray:5.69, 5.69"
       points="308.53,37.58 492.04,37.58 "
       transform="matrix(1.9992282,0,0,1.9992282,-477.74847,48.854913)" />
    <polyline
       id="polyline330"
       clip-path="url(#cpMzA4LjUzfDQ5Mi4wNHwxNDIuMDN8MTEuOTY=-3)"
       style="fill:none;stroke:#eee8d5;stroke-width:1.07000005;stroke-linecap:butt;stroke-linejoin:round;stroke-miterlimit:10;stroke-dasharray:5.69, 5.69"
       points="308.53,12.95 492.04,12.95 "
       transform="matrix(1.9992282,0,0,1.9992282,-477.74847,48.854913)" />
    <polyline
       id="polyline334"
       clip-path="url(#cpMzA4LjUzfDQ5Mi4wNHwxNDIuMDN8MTEuOTY=-3)"
       style="fill:none;stroke:#eee8d5;stroke-width:1.07000005;stroke-linecap:butt;stroke-linejoin:round;stroke-miterlimit:10;stroke-dasharray:5.69, 5.69"
       points="349.53,142.03 349.53,11.96 "
       transform="matrix(1.9992282,0,0,1.9992282,-477.74847,48.854913)" />
    <polyline
       id="polyline336"
       clip-path="url(#cpMzA4LjUzfDQ5Mi4wNHwxNDIuMDN8MTEuOTY=-3)"
       style="fill:none;stroke:#eee8d5;stroke-width:1.07000005;stroke-linecap:butt;stroke-linejoin:round;stroke-miterlimit:10;stroke-dasharray:5.69, 5.69"
       points="385.02,142.03 385.02,11.96 "
       transform="matrix(1.9992282,0,0,1.9992282,-477.74847,48.854913)" />
    <polyline
       id="polyline338"
       clip-path="url(#cpMzA4LjUzfDQ5Mi4wNHwxNDIuMDN8MTEuOTY=-3)"
       style="fill:none;stroke:#eee8d5;stroke-width:1.07000005;stroke-linecap:butt;stroke-linejoin:round;stroke-miterlimit:10;stroke-dasharray:5.69, 5.69"
       points="420.52,142.03 420.52,11.96 "
       transform="matrix(1.9992282,0,0,1.9992282,-477.74847,48.854913)" />
    <polyline
       id="polyline340"
       clip-path="url(#cpMzA4LjUzfDQ5Mi4wNHwxNDIuMDN8MTEuOTY=-3)"
       style="fill:none;stroke:#eee8d5;stroke-width:1.07000005;stroke-linecap:butt;stroke-linejoin:round;stroke-miterlimit:10;stroke-dasharray:5.69, 5.69"
       points="456.02,142.03 456.02,11.96 "
       transform="matrix(1.9992282,0,0,1.9992282,-477.74847,48.854913)" />
    <polyline
       id="polyline342"
       clip-path="url(#cpMzA4LjUzfDQ5Mi4wNHwxNDIuMDN8MTEuOTY=-3)"
       style="fill:none;stroke:#eee8d5;stroke-width:1.07000005;stroke-linecap:butt;stroke-linejoin:round;stroke-miterlimit:10;stroke-dasharray:5.69, 5.69"
       points="491.51,142.03 491.51,11.96 "
       transform="matrix(1.9992282,0,0,1.9992282,-477.74847,48.854913)" />
    <polygon
       id="polygon344"
       clip-path="url(#cpMzA4LjUzfDQ5Mi4wNHwxNDIuMDN8MTEuOTY=-3)"
       style="fill:#d33682;stroke:#dc322f;stroke-width:1.07000005;stroke-linecap:round;stroke-linejoin:round;stroke-miterlimit:10"
       points="319.81,136.11 320.14,136.11 320.46,136.11 320.79,136.11 321.12,136.11 321.44,136.11 321.77,136.11 322.1,136.11 322.42,136.11 322.75,136.11 323.08,136.11 323.4,136.11 323.73,136.11 324.06,136.11 324.38,136.11 324.71,136.11 325.03,136.11 325.36,136.11 325.69,136.11 326.01,136.11 326.34,136.11 326.67,136.11 326.99,136.11 327.32,136.11 327.65,136.1 327.97,136.1 328.3,136.1 328.63,136.1 328.95,136.1 329.28,136.1 329.61,136.1 329.93,136.1 330.26,136.1 330.58,136.09 330.91,136.09 331.24,136.09 331.56,136.09 331.89,136.09 332.22,136.09 332.54,136.08 332.87,136.08 333.2,136.08 333.52,136.08 333.85,136.07 334.18,136.07 334.5,136.07 334.83,136.06 335.16,136.06 335.48,136.06 335.81,136.05 336.13,136.05 336.46,136.04 336.79,136.04 337.11,136.04 337.44,136.03 337.77,136.02 338.09,136.02 338.42,136.01 338.75,136.01 339.07,136 339.4,135.99 339.73,135.99 340.05,135.98 340.38,135.97 340.71,135.96 341.03,135.95 341.36,135.94 341.68,135.93 342.01,135.92 342.34,135.91 342.66,135.9 342.99,135.89 343.32,135.87 343.64,135.86 343.97,135.84 344.3,135.83 344.62,135.81 344.95,135.8 345.28,135.78 345.6,135.76 345.93,135.74 346.26,135.72 346.58,135.7 346.91,135.68 347.24,135.66 347.56,135.63 347.89,135.61 348.21,135.58 348.54,135.55 348.87,135.52 349.19,135.49 349.52,135.46 349.85,135.43 350.17,135.4 350.5,135.36 350.83,135.32 351.15,135.28 351.48,135.24 351.81,135.2 352.13,135.16 352.46,135.11 352.79,135.07 353.11,135.02 353.44,134.97 353.76,134.91 354.09,134.86 354.42,134.8 354.74,134.74 355.07,134.68 355.4,134.62 355.72,134.55 356.05,134.48 356.38,134.41 356.7,134.34 357.03,134.26 357.36,134.19 357.68,134.1 358.01,134.02 358.34,133.93 358.66,133.84 358.99,133.75 359.31,133.66 359.64,133.56 359.97,133.46 360.29,133.35 360.62,133.24 360.95,133.13 361.27,133.02 361.6,132.9 361.93,132.78 362.25,132.65 362.58,132.52 362.91,132.39 363.23,132.25 363.56,132.11 363.89,131.97 364.21,131.82 364.54,131.67 364.86,131.51 365.19,131.35 365.52,131.19 365.84,131.02 366.17,130.85 366.5,130.67 366.82,130.49 367.15,130.31 367.48,130.12 367.8,129.92 368.13,129.73 368.46,129.53 368.78,129.32 369.11,129.11 369.44,128.89 369.76,128.67 370.09,128.45 370.42,128.22 370.74,127.99 371.07,127.75 371.39,127.51 371.72,127.27 372.05,127.02 372.37,126.76 372.7,126.51 373.03,126.24 373.35,125.98 373.68,125.7 374.01,125.43 374.33,125.15 374.66,124.87 374.99,124.58 375.31,124.29 375.64,124 375.97,123.7 376.29,123.4 376.62,123.09 376.94,122.78 377.27,122.47 377.6,122.16 377.92,121.84 378.25,121.51 378.58,121.19 378.9,120.86 379.23,120.53 379.56,120.2 379.88,119.86 380.21,119.52 380.54,119.18 380.86,118.84 381.19,118.5 381.52,118.15 381.84,117.8 382.17,117.45 382.49,117.1 382.82,116.75 383.15,116.4 383.47,116.05 383.8,115.69 384.13,115.34 384.45,114.98 384.78,114.63 385.11,114.27 385.43,113.91 385.76,113.56 386.09,113.2 386.41,112.85 386.74,112.5 387.07,112.14 387.39,111.79 387.72,111.44 388.04,111.1 388.37,110.75 388.7,110.41 389.02,110.06 389.35,109.72 389.68,109.39 390,109.05 390.33,108.72 390.66,108.39 390.98,108.06 391.31,107.74 391.64,107.42 391.96,107.11 392.29,106.8 392.62,106.49 392.94,106.19 393.27,105.89 393.6,105.6 393.92,105.3 394.25,105.02 394.57,104.74 394.9,104.47 395.23,104.2 395.55,103.93 395.88,103.68 396.21,103.42 396.53,103.18 396.86,102.93 397.19,102.7 397.51,102.47 397.84,102.25 398.17,102.03 398.49,101.82 398.82,101.61 399.15,101.42 399.47,101.22 399.8,101.04 400.12,100.86 400.45,100.69 400.78,100.52 401.1,100.36 401.43,100.21 401.76,100.07 402.08,99.93 402.41,99.8 402.74,99.67 403.06,99.56 403.39,99.45 403.72,99.34 404.04,99.25 404.37,99.15 404.7,99.07 405.02,98.99 405.35,98.92 405.67,98.86 406,98.8 406.33,98.75 406.65,98.71 406.98,98.67 407.31,98.64 407.63,98.62 407.96,98.6 408.29,98.59 408.61,98.58 408.94,98.58 409.27,98.58 409.59,98.59 409.92,98.61 410.25,98.63 410.57,98.66 410.9,98.69 411.22,98.73 411.55,98.78 411.88,98.83 412.2,98.88 412.53,98.94 412.86,99 413.18,99.07 413.51,99.14 413.84,99.21 414.16,99.29 414.49,99.38 414.82,99.47 415.14,99.56 415.47,99.65 415.8,99.75 416.12,99.85 416.45,99.96 416.78,100.06 417.1,100.17 417.43,100.29 417.75,100.4 418.08,100.52 418.41,100.64 418.73,100.77 419.06,100.89 419.39,101.02 419.71,101.15 420.04,101.28 420.37,101.41 420.69,101.54 421.02,101.68 421.35,101.81 421.67,101.95 422,102.09 422.33,102.22 422.65,102.36 422.98,102.5 423.3,102.64 423.63,102.78 423.96,102.92 424.28,103.06 424.61,103.2 424.94,103.34 425.26,103.48 425.59,103.62 425.92,103.76 426.24,103.89 426.57,104.03 426.9,104.17 427.22,104.3 427.55,104.43 427.88,104.57 428.2,104.7 428.53,104.83 428.85,104.96 429.18,105.09 429.51,105.21 429.83,105.34 430.16,105.46 430.49,105.58 430.81,105.7 431.14,105.82 431.47,105.93 431.79,106.04 432.12,106.16 432.45,106.26 432.77,106.37 433.1,106.48 433.43,106.58 433.75,106.68 434.08,106.78 434.4,106.87 434.73,106.97 435.06,107.06 435.38,107.15 435.71,107.23 436.04,107.31 436.36,107.4 436.69,107.47 437.02,107.55 437.34,107.62 437.67,107.69 438,107.76 438.32,107.83 438.65,107.89 438.98,107.95 439.3,108.01 439.63,108.06 439.96,108.11 440.28,108.16 440.61,108.21 440.93,108.26 441.26,108.3 441.59,108.34 441.91,108.38 442.24,108.41 442.57,108.44 442.89,108.48 443.22,108.5 443.55,108.53 443.87,108.55 444.2,108.58 444.53,108.59 444.85,108.61 445.18,108.63 445.51,108.64 445.83,108.65 446.16,108.67 446.48,108.67 446.81,108.68 447.14,108.69 447.46,108.69 447.79,108.69 448.12,108.69 448.44,108.69 448.77,108.69 449.1,108.69 449.42,108.69 449.75,108.68 450.08,108.68 450.4,108.67 450.73,108.66 451.06,108.66 451.38,108.65 451.71,108.64 452.03,108.63 452.36,108.63 452.69,108.62 453.01,108.61 453.34,108.6 453.67,108.59 453.99,108.58 454.32,108.57 454.65,108.57 454.97,108.56 455.3,108.55 455.63,108.55 455.95,108.54 456.28,108.54 456.61,108.54 456.93,108.54 457.26,108.54 457.58,108.54 457.91,108.54 458.24,108.54 458.56,108.55 458.89,108.56 459.22,108.57 459.54,108.58 459.87,108.59 460.2,108.61 460.52,108.62 460.85,108.64 461.18,108.66 461.5,108.69 461.83,108.71 462.16,108.74 462.48,108.77 462.81,108.81 463.14,108.84 463.46,108.88 463.79,108.93 464.11,108.97 464.44,109.02 464.77,109.07 465.09,109.12 465.42,109.18 465.75,109.24 466.07,109.3 466.4,109.37 466.73,109.44 467.05,109.51 467.38,109.59 467.71,109.67 468.03,109.75 468.36,109.83 468.69,109.92 469.01,110.01 469.34,110.11 469.66,110.21 469.99,110.31 470.32,110.42 470.64,110.53 470.97,110.64 471.3,110.76 471.62,110.88 471.95,111 472.28,111.13 472.6,111.26 472.93,111.39 473.26,111.53 473.58,111.67 473.91,111.81 474.24,111.95 474.56,112.1 474.89,112.26 475.21,112.41 475.54,112.57 475.87,112.73 476.19,112.9 476.52,113.06 476.85,113.23 477.17,113.41 477.5,113.58 477.83,113.76 478.15,113.94 478.48,114.13 478.81,114.31 479.13,114.5 479.46,114.69 479.79,114.89 480.11,115.08 480.44,115.28 480.76,115.48 481.09,115.68 481.42,115.89 481.74,116.09 482.07,116.3 482.4,116.51 482.72,116.72 483.05,116.94 483.38,117.15 483.7,117.37 483.7,136.12 483.38,136.12 483.05,136.12 482.72,136.12 482.4,136.12 482.07,136.12 481.74,136.12 481.42,136.12 481.09,136.12 480.76,136.12 480.44,136.12 480.11,136.12 479.79,136.12 479.46,136.12 479.13,136.12 478.81,136.12 478.48,136.12 478.15,136.12 477.83,136.12 477.5,136.12 477.17,136.12 476.85,136.12 476.52,136.12 476.19,136.12 475.87,136.12 475.54,136.12 475.21,136.12 474.89,136.12 474.56,136.12 474.24,136.12 473.91,136.12 473.58,136.12 473.26,136.12 472.93,136.12 472.6,136.12 472.28,136.12 471.95,136.12 471.62,136.12 471.3,136.12 470.97,136.12 470.64,136.12 470.32,136.12 469.99,136.12 469.66,136.12 469.34,136.12 469.01,136.12 468.69,136.12 468.36,136.12 468.03,136.12 467.71,136.12 467.38,136.12 467.05,136.12 466.73,136.12 466.4,136.12 466.07,136.12 465.75,136.12 465.42,136.12 465.09,136.12 464.77,136.12 464.44,136.12 464.11,136.12 463.79,136.12 463.46,136.12 463.14,136.12 462.81,136.12 462.48,136.12 462.16,136.12 461.83,136.12 461.5,136.12 461.18,136.12 460.85,136.12 460.52,136.12 460.2,136.12 459.87,136.12 459.54,136.12 459.22,136.12 458.89,136.12 458.56,136.12 458.24,136.12 457.91,136.12 457.58,136.12 457.26,136.12 456.93,136.12 456.61,136.12 456.28,136.12 455.95,136.12 455.63,136.12 455.3,136.12 454.97,136.12 454.65,136.12 454.32,136.12 453.99,136.12 453.67,136.12 453.34,136.12 453.01,136.12 452.69,136.12 452.36,136.12 452.03,136.12 451.71,136.12 451.38,136.12 451.06,136.12 450.73,136.12 450.4,136.12 450.08,136.12 449.75,136.12 449.42,136.12 449.1,136.12 448.77,136.12 448.44,136.12 448.12,136.12 447.79,136.12 447.46,136.12 447.14,136.12 446.81,136.12 446.48,136.12 446.16,136.12 445.83,136.12 445.51,136.12 445.18,136.12 444.85,136.12 444.53,136.12 444.2,136.12 443.87,136.12 443.55,136.12 443.22,136.12 442.89,136.12 442.57,136.12 442.24,136.12 441.91,136.12 441.59,136.12 441.26,136.12 440.93,136.12 440.61,136.12 440.28,136.12 439.96,136.12 439.63,136.12 439.3,136.12 438.98,136.12 438.65,136.12 438.32,136.12 438,136.12 437.67,136.12 437.34,136.12 437.02,136.12 436.69,136.12 436.36,136.12 436.04,136.12 435.71,136.12 435.38,136.12 435.06,136.12 434.73,136.12 434.4,136.12 434.08,136.12 433.75,136.12 433.43,136.12 433.1,136.12 432.77,136.12 432.45,136.12 432.12,136.12 431.79,136.12 431.47,136.12 431.14,136.12 430.81,136.12 430.49,136.12 430.16,136.12 429.83,136.12 429.51,136.12 429.18,136.12 428.85,136.12 428.53,136.12 428.2,136.12 427.88,136.12 427.55,136.12 427.22,136.12 426.9,136.12 426.57,136.12 426.24,136.12 425.92,136.12 425.59,136.12 425.26,136.12 424.94,136.12 424.61,136.12 424.28,136.12 423.96,136.12 423.63,136.12 423.3,136.12 422.98,136.12 422.65,136.12 422.33,136.12 422,136.12 421.67,136.12 421.35,136.12 421.02,136.12 420.69,136.12 420.37,136.12 420.04,136.12 419.71,136.12 419.39,136.12 419.06,136.12 418.73,136.12 418.41,136.12 418.08,136.12 417.75,136.12 417.43,136.12 417.1,136.12 416.78,136.12 416.45,136.12 416.12,136.12 415.8,136.12 415.47,136.12 415.14,136.12 414.82,136.12 414.49,136.12 414.16,136.12 413.84,136.12 413.51,136.12 413.18,136.12 412.86,136.12 412.53,136.12 412.2,136.12 411.88,136.12 411.55,136.12 411.22,136.12 410.9,136.12 410.57,136.12 410.25,136.12 409.92,136.12 409.59,136.12 409.27,136.12 408.94,136.12 408.61,136.12 408.29,136.12 407.96,136.12 407.63,136.12 407.31,136.12 406.98,136.12 406.65,136.12 406.33,136.12 406,136.12 405.67,136.12 405.35,136.12 405.02,136.12 404.7,136.12 404.37,136.12 404.04,136.12 403.72,136.12 403.39,136.12 403.06,136.12 402.74,136.12 402.41,136.12 402.08,136.12 401.76,136.12 401.43,136.12 401.1,136.12 400.78,136.12 400.45,136.12 400.12,136.12 399.8,136.12 399.47,136.12 399.15,136.12 398.82,136.12 398.49,136.12 398.17,136.12 397.84,136.12 397.51,136.12 397.19,136.12 396.86,136.12 396.53,136.12 396.21,136.12 395.88,136.12 395.55,136.12 395.23,136.12 394.9,136.12 394.57,136.12 394.25,136.12 393.92,136.12 393.6,136.12 393.27,136.12 392.94,136.12 392.62,136.12 392.29,136.12 391.96,136.12 391.64,136.12 391.31,136.12 390.98,136.12 390.66,136.12 390.33,136.12 390,136.12 389.68,136.12 389.35,136.12 389.02,136.12 388.7,136.12 388.37,136.12 388.04,136.12 387.72,136.12 387.39,136.12 387.07,136.12 386.74,136.12 386.41,136.12 386.09,136.12 385.76,136.12 385.43,136.12 385.11,136.12 384.78,136.12 384.45,136.12 384.13,136.12 383.8,136.12 383.47,136.12 383.15,136.12 382.82,136.12 382.49,136.12 382.17,136.12 381.84,136.12 381.52,136.12 381.19,136.12 380.86,136.12 380.54,136.12 380.21,136.12 379.88,136.12 379.56,136.12 379.23,136.12 378.9,136.12 378.58,136.12 378.25,136.12 377.92,136.12 377.6,136.12 377.27,136.12 376.94,136.12 376.62,136.12 376.29,136.12 375.97,136.12 375.64,136.12 375.31,136.12 374.99,136.12 374.66,136.12 374.33,136.12 374.01,136.12 373.68,136.12 373.35,136.12 373.03,136.12 372.7,136.12 372.37,136.12 372.05,136.12 371.72,136.12 371.39,136.12 371.07,136.12 370.74,136.12 370.42,136.12 370.09,136.12 369.76,136.12 369.44,136.12 369.11,136.12 368.78,136.12 368.46,136.12 368.13,136.12 367.8,136.12 367.48,136.12 367.15,136.12 366.82,136.12 366.5,136.12 366.17,136.12 365.84,136.12 365.52,136.12 365.19,136.12 364.86,136.12 364.54,136.12 364.21,136.12 363.89,136.12 363.56,136.12 363.23,136.12 362.91,136.12 362.58,136.12 362.25,136.12 361.93,136.12 361.6,136.12 361.27,136.12 360.95,136.12 360.62,136.12 360.29,136.12 359.97,136.12 359.64,136.12 359.31,136.12 358.99,136.12 358.66,136.12 358.34,136.12 358.01,136.12 357.68,136.12 357.36,136.12 357.03,136.12 356.7,136.12 356.38,136.12 356.05,136.12 355.72,136.12 355.4,136.12 355.07,136.12 354.74,136.12 354.42,136.12 354.09,136.12 353.76,136.12 353.44,136.12 353.11,136.12 352.79,136.12 352.46,136.12 352.13,136.12 351.81,136.12 351.48,136.12 351.15,136.12 350.83,136.12 350.5,136.12 350.17,136.12 349.85,136.12 349.52,136.12 349.19,136.12 348.87,136.12 348.54,136.12 348.21,136.12 347.89,136.12 347.56,136.12 347.24,136.12 346.91,136.12 346.58,136.12 346.26,136.12 345.93,136.12 345.6,136.12 345.28,136.12 344.95,136.12 344.62,136.12 344.3,136.12 343.97,136.12 343.64,136.12 343.32,136.12 342.99,136.12 342.66,136.12 342.34,136.12 342.01,136.12 341.68,136.12 341.36,136.12 341.03,136.12 340.71,136.12 340.38,136.12 340.05,136.12 339.73,136.12 339.4,136.12 339.07,136.12 338.75,136.12 338.42,136.12 338.09,136.12 337.77,136.12 337.44,136.12 337.11,136.12 336.79,136.12 336.46,136.12 336.13,136.12 335.81,136.12 335.48,136.12 335.16,136.12 334.83,136.12 334.5,136.12 334.18,136.12 333.85,136.12 333.52,136.12 333.2,136.12 332.87,136.12 332.54,136.12 332.22,136.12 331.89,136.12 331.56,136.12 331.24,136.12 330.91,136.12 330.58,136.12 330.26,136.12 329.93,136.12 329.61,136.12 329.28,136.12 328.95,136.12 328.63,136.12 328.3,136.12 327.97,136.12 327.65,136.12 327.32,136.12 326.99,136.12 326.67,136.12 326.34,136.12 326.01,136.12 325.69,136.12 325.36,136.12 325.03,136.12 324.71,136.12 324.38,136.12 324.06,136.12 323.73,136.12 323.4,136.12 323.08,136.12 322.75,136.12 322.42,136.12 322.1,136.12 321.77,136.12 321.44,136.12 321.12,136.12 320.79,136.12 320.46,136.12 320.14,136.12 319.81,136.12 319.48,136.12 319.16,136.12 318.83,136.12 318.5,136.12 318.18,136.12 317.85,136.12 317.53,136.12 317.2,136.12 316.87,136.12 317.2,136.12 317.53,136.12 317.85,136.12 318.18,136.12 318.5,136.12 318.83,136.11 319.16,136.11 319.48,136.11 "
       transform="matrix(1.9992282,0,0,1.9992282,-477.74847,48.854913)" />
    <polygon
       id="polygon346"
       clip-path="url(#cpMzA4LjUzfDQ5Mi4wNHwxNDIuMDN8MTEuOTY=-3)"
       style="fill:#859900;stroke:#b58900;stroke-width:1.07000005;stroke-linecap:round;stroke-linejoin:round;stroke-miterlimit:10"
       points="319.81,136.12 320.14,136.12 320.46,136.12 320.79,136.12 321.12,136.12 321.44,136.12 321.77,136.12 322.1,136.12 322.42,136.12 322.75,136.12 323.08,136.12 323.4,136.12 323.73,136.12 324.06,136.12 324.38,136.12 324.71,136.12 325.03,136.12 325.36,136.12 325.69,136.12 326.01,136.12 326.34,136.12 326.67,136.12 326.99,136.12 327.32,136.12 327.65,136.12 327.97,136.12 328.3,136.12 328.63,136.12 328.95,136.12 329.28,136.12 329.61,136.12 329.93,136.12 330.26,136.12 330.58,136.12 330.91,136.12 331.24,136.12 331.56,136.12 331.89,136.12 332.22,136.12 332.54,136.12 332.87,136.12 333.2,136.12 333.52,136.12 333.85,136.12 334.18,136.12 334.5,136.12 334.83,136.12 335.16,136.12 335.48,136.12 335.81,136.12 336.13,136.12 336.46,136.12 336.79,136.12 337.11,136.12 337.44,136.12 337.77,136.12 338.09,136.12 338.42,136.12 338.75,136.12 339.07,136.12 339.4,136.12 339.73,136.12 340.05,136.12 340.38,136.12 340.71,136.12 341.03,136.12 341.36,136.11 341.68,136.11 342.01,136.11 342.34,136.11 342.66,136.11 342.99,136.11 343.32,136.11 343.64,136.11 343.97,136.11 344.3,136.1 344.62,136.1 344.95,136.1 345.28,136.09 345.6,136.08 345.93,136.08 346.26,136.07 346.58,136.06 346.91,136.05 347.24,136.03 347.56,136.02 347.89,136 348.21,135.97 348.54,135.94 348.87,135.91 349.19,135.87 349.52,135.83 349.85,135.77 350.17,135.71 350.5,135.64 350.83,135.56 351.15,135.47 351.48,135.36 351.81,135.23 352.13,135.1 352.46,134.94 352.79,134.75 353.11,134.55 353.44,134.32 353.76,134.06 354.09,133.76 354.42,133.43 354.74,133.07 355.07,132.67 355.4,132.22 355.72,131.72 356.05,131.17 356.38,130.58 356.7,129.93 357.03,129.2 357.36,128.42 357.68,127.58 358.01,126.67 358.34,125.68 358.66,124.61 358.99,123.47 359.31,122.27 359.64,120.97 359.97,119.6 360.29,118.14 360.62,116.62 360.95,115.02 361.27,113.32 361.6,111.56 361.93,109.73 362.25,107.85 362.58,105.87 362.91,103.85 363.23,101.77 363.56,99.66 363.89,97.49 364.21,95.29 364.54,93.06 364.86,90.82 365.19,88.56 365.52,86.31 365.84,84.06 366.17,81.82 366.5,79.6 366.82,77.42 367.15,75.28 367.48,73.18 367.8,71.14 368.13,69.16 368.46,67.25 368.78,65.41 369.11,63.65 369.44,61.96 369.76,60.38 370.09,58.88 370.42,57.46 370.74,56.12 371.07,54.9 371.39,53.76 371.72,52.7 372.05,51.72 372.37,50.85 372.7,50.05 373.03,49.33 373.35,48.67 373.68,48.09 374.01,47.58 374.33,47.12 374.66,46.71 374.99,46.35 375.31,46.05 375.64,45.78 375.97,45.54 376.29,45.33 376.62,45.16 376.94,45 377.27,44.85 377.6,44.72 377.92,44.59 378.25,44.47 378.58,44.35 378.9,44.22 379.23,44.09 379.56,43.95 379.88,43.8 380.21,43.63 380.54,43.44 380.86,43.23 381.19,42.99 381.52,42.73 381.84,42.44 382.17,42.12 382.49,41.75 382.82,41.36 383.15,40.93 383.47,40.47 383.8,39.96 384.13,39.42 384.45,38.84 384.78,38.23 385.11,37.58 385.43,36.91 385.76,36.21 386.09,35.49 386.41,34.76 386.74,34.01 387.07,33.27 387.39,32.54 387.72,31.82 388.04,31.13 388.37,30.48 388.7,29.87 389.02,29.31 389.35,28.85 389.68,28.45 390,28.15 390.33,27.93 390.66,27.85 390.98,27.9 391.31,28.07 391.64,28.37 391.96,28.82 392.29,29.45 392.62,30.23 392.94,31.16 393.27,32.25 393.6,33.55 393.92,35 394.25,36.61 394.57,38.36 394.9,40.3 395.23,42.39 395.55,44.61 395.88,46.95 396.21,49.43 396.53,52.03 396.86,54.72 397.19,57.5 397.51,60.35 397.84,63.28 398.17,66.24 398.49,69.24 398.82,72.26 399.15,75.29 399.47,78.31 399.8,81.31 400.12,84.29 400.45,87.22 400.78,90.08 401.1,92.89 401.43,95.64 401.76,98.3 402.08,100.86 402.41,103.33 402.74,105.71 403.06,108 403.39,110.16 403.72,112.21 404.04,114.16 404.37,116.02 404.7,117.75 405.02,119.37 405.35,120.89 405.67,122.31 406,123.64 406.33,124.85 406.65,125.97 406.98,127.01 407.31,127.97 407.63,128.83 407.96,129.62 408.29,130.35 408.61,131.01 408.94,131.6 409.27,132.13 409.59,132.61 409.92,133.04 410.25,133.43 410.57,133.76 410.9,134.07 411.22,134.34 411.55,134.58 411.88,134.78 412.2,134.97 412.53,135.13 412.86,135.27 413.18,135.39 413.51,135.5 413.84,135.59 414.16,135.67 414.49,135.74 414.82,135.8 415.14,135.85 415.47,135.89 415.8,135.93 416.12,135.96 416.45,135.98 416.78,136.01 417.1,136.03 417.43,136.04 417.75,136.05 418.08,136.07 418.41,136.07 418.73,136.08 419.06,136.09 419.39,136.09 419.71,136.1 420.04,136.1 420.37,136.1 420.69,136.11 421.02,136.11 421.35,136.11 421.67,136.11 422,136.11 422.33,136.11 422.65,136.11 422.98,136.11 423.3,136.11 423.63,136.12 423.96,136.12 424.28,136.12 424.61,136.12 424.94,136.12 425.26,136.12 425.59,136.12 425.92,136.12 426.24,136.12 426.57,136.12 426.9,136.12 427.22,136.12 427.55,136.12 427.88,136.12 428.2,136.12 428.53,136.12 428.85,136.12 429.18,136.12 429.51,136.12 429.83,136.12 430.16,136.12 430.49,136.12 430.81,136.12 431.14,136.12 431.47,136.12 431.79,136.12 432.12,136.12 432.45,136.12 432.77,136.12 433.1,136.12 433.43,136.12 433.75,136.12 434.08,136.12 434.4,136.12 434.73,136.12 435.06,136.12 435.38,136.12 435.71,136.12 436.04,136.12 436.36,136.12 436.69,136.12 437.02,136.12 437.34,136.12 437.67,136.12 438,136.12 438.32,136.12 438.65,136.12 438.98,136.12 439.3,136.12 439.63,136.12 439.96,136.12 440.28,136.12 440.61,136.12 440.93,136.12 441.26,136.12 441.59,136.12 441.91,136.12 442.24,136.12 442.57,136.12 442.89,136.12 443.22,136.12 443.55,136.12 443.87,136.12 444.2,136.12 444.53,136.12 444.85,136.12 445.18,136.12 445.51,136.12 445.83,136.12 446.16,136.12 446.48,136.12 446.81,136.12 447.14,136.12 447.46,136.12 447.79,136.12 448.12,136.12 448.44,136.12 448.77,136.12 449.1,136.12 449.42,136.12 449.75,136.12 450.08,136.12 450.4,136.12 450.73,136.12 451.06,136.12 451.38,136.12 451.71,136.12 452.03,136.12 452.36,136.12 452.69,136.12 453.01,136.12 453.34,136.12 453.67,136.12 453.99,136.12 454.32,136.12 454.65,136.12 454.97,136.12 455.3,136.12 455.63,136.12 455.95,136.12 456.28,136.12 456.61,136.12 456.93,136.12 457.26,136.12 457.58,136.12 457.91,136.12 458.24,136.12 458.56,136.12 458.89,136.12 459.22,136.12 459.54,136.12 459.87,136.12 460.2,136.12 460.52,136.12 460.85,136.12 461.18,136.12 461.5,136.12 461.83,136.12 462.16,136.12 462.48,136.12 462.81,136.12 463.14,136.12 463.46,136.12 463.79,136.12 464.11,136.12 464.44,136.12 464.77,136.12 465.09,136.12 465.42,136.12 465.75,136.12 466.07,136.12 466.4,136.12 466.73,136.12 467.05,136.12 467.38,136.12 467.71,136.12 468.03,136.12 468.36,136.12 468.69,136.12 469.01,136.12 469.34,136.12 469.66,136.12 469.99,136.12 470.32,136.12 470.64,136.12 470.97,136.12 471.3,136.12 471.62,136.12 471.95,136.12 472.28,136.12 472.6,136.12 472.93,136.12 473.26,136.12 473.58,136.12 473.91,136.12 474.24,136.12 474.56,136.12 474.89,136.12 475.21,136.12 475.54,136.12 475.87,136.12 476.19,136.12 476.52,136.12 476.85,136.12 477.17,136.12 477.5,136.12 477.83,136.12 478.15,136.12 478.48,136.12 478.81,136.12 479.13,136.12 479.46,136.12 479.79,136.12 480.11,136.12 480.44,136.12 480.76,136.12 481.09,136.12 481.42,136.12 481.74,136.12 482.07,136.12 482.4,136.12 482.72,136.12 483.05,136.12 483.38,136.12 483.7,136.12 483.7,136.12 483.38,136.12 483.05,136.12 482.72,136.12 482.4,136.12 482.07,136.12 481.74,136.12 481.42,136.12 481.09,136.12 480.76,136.12 480.44,136.12 480.11,136.12 479.79,136.12 479.46,136.12 479.13,136.12 478.81,136.12 478.48,136.12 478.15,136.12 477.83,136.12 477.5,136.12 477.17,136.12 476.85,136.12 476.52,136.12 476.19,136.12 475.87,136.12 475.54,136.12 475.21,136.12 474.89,136.12 474.56,136.12 474.24,136.12 473.91,136.12 473.58,136.12 473.26,136.12 472.93,136.12 472.6,136.12 472.28,136.12 471.95,136.12 471.62,136.12 471.3,136.12 470.97,136.12 470.64,136.12 470.32,136.12 469.99,136.12 469.66,136.12 469.34,136.12 469.01,136.12 468.69,136.12 468.36,136.12 468.03,136.12 467.71,136.12 467.38,136.12 467.05,136.12 466.73,136.12 466.4,136.12 466.07,136.12 465.75,136.12 465.42,136.12 465.09,136.12 464.77,136.12 464.44,136.12 464.11,136.12 463.79,136.12 463.46,136.12 463.14,136.12 462.81,136.12 462.48,136.12 462.16,136.12 461.83,136.12 461.5,136.12 461.18,136.12 460.85,136.12 460.52,136.12 460.2,136.12 459.87,136.12 459.54,136.12 459.22,136.12 458.89,136.12 458.56,136.12 458.24,136.12 457.91,136.12 457.58,136.12 457.26,136.12 456.93,136.12 456.61,136.12 456.28,136.12 455.95,136.12 455.63,136.12 455.3,136.12 454.97,136.12 454.65,136.12 454.32,136.12 453.99,136.12 453.67,136.12 453.34,136.12 453.01,136.12 452.69,136.12 452.36,136.12 452.03,136.12 451.71,136.12 451.38,136.12 451.06,136.12 450.73,136.12 450.4,136.12 450.08,136.12 449.75,136.12 449.42,136.12 449.1,136.12 448.77,136.12 448.44,136.12 448.12,136.12 447.79,136.12 447.46,136.12 447.14,136.12 446.81,136.12 446.48,136.12 446.16,136.12 445.83,136.12 445.51,136.12 445.18,136.12 444.85,136.12 444.53,136.12 444.2,136.12 443.87,136.12 443.55,136.12 443.22,136.12 442.89,136.12 442.57,136.12 442.24,136.12 441.91,136.12 441.59,136.12 441.26,136.12 440.93,136.12 440.61,136.12 440.28,136.12 439.96,136.12 439.63,136.12 439.3,136.12 438.98,136.12 438.65,136.12 438.32,136.12 438,136.12 437.67,136.12 437.34,136.12 437.02,136.12 436.69,136.12 436.36,136.12 436.04,136.12 435.71,136.12 435.38,136.12 435.06,136.12 434.73,136.12 434.4,136.12 434.08,136.12 433.75,136.12 433.43,136.12 433.1,136.12 432.77,136.12 432.45,136.12 432.12,136.12 431.79,136.12 431.47,136.12 431.14,136.12 430.81,136.12 430.49,136.12 430.16,136.12 429.83,136.12 429.51,136.12 429.18,136.12 428.85,136.12 428.53,136.12 428.2,136.12 427.88,136.12 427.55,136.12 427.22,136.12 426.9,136.12 426.57,136.12 426.24,136.12 425.92,136.12 425.59,136.12 425.26,136.12 424.94,136.12 424.61,136.12 424.28,136.12 423.96,136.12 423.63,136.12 423.3,136.12 422.98,136.12 422.65,136.12 422.33,136.12 422,136.12 421.67,136.12 421.35,136.12 421.02,136.12 420.69,136.12 420.37,136.12 420.04,136.12 419.71,136.12 419.39,136.12 419.06,136.12 418.73,136.12 418.41,136.12 418.08,136.12 417.75,136.12 417.43,136.12 417.1,136.12 416.78,136.12 416.45,136.12 416.12,136.12 415.8,136.12 415.47,136.12 415.14,136.12 414.82,136.12 414.49,136.12 414.16,136.12 413.84,136.12 413.51,136.12 413.18,136.12 412.86,136.12 412.53,136.12 412.2,136.12 411.88,136.12 411.55,136.12 411.22,136.12 410.9,136.12 410.57,136.12 410.25,136.12 409.92,136.12 409.59,136.12 409.27,136.12 408.94,136.12 408.61,136.12 408.29,136.12 407.96,136.12 407.63,136.12 407.31,136.12 406.98,136.12 406.65,136.12 406.33,136.12 406,136.12 405.67,136.12 405.35,136.12 405.02,136.12 404.7,136.12 404.37,136.12 404.04,136.12 403.72,136.12 403.39,136.12 403.06,136.12 402.74,136.12 402.41,136.12 402.08,136.12 401.76,136.12 401.43,136.12 401.1,136.12 400.78,136.12 400.45,136.12 400.12,136.12 399.8,136.12 399.47,136.12 399.15,136.12 398.82,136.12 398.49,136.12 398.17,136.12 397.84,136.12 397.51,136.12 397.19,136.12 396.86,136.12 396.53,136.12 396.21,136.12 395.88,136.12 395.55,136.12 395.23,136.12 394.9,136.12 394.57,136.12 394.25,136.12 393.92,136.12 393.6,136.12 393.27,136.12 392.94,136.12 392.62,136.12 392.29,136.12 391.96,136.12 391.64,136.12 391.31,136.12 390.98,136.12 390.66,136.12 390.33,136.12 390,136.12 389.68,136.12 389.35,136.12 389.02,136.12 388.7,136.12 388.37,136.12 388.04,136.12 387.72,136.12 387.39,136.12 387.07,136.12 386.74,136.12 386.41,136.12 386.09,136.12 385.76,136.12 385.43,136.12 385.11,136.12 384.78,136.12 384.45,136.12 384.13,136.12 383.8,136.12 383.47,136.12 383.15,136.12 382.82,136.12 382.49,136.12 382.17,136.12 381.84,136.12 381.52,136.12 381.19,136.12 380.86,136.12 380.54,136.12 380.21,136.12 379.88,136.12 379.56,136.12 379.23,136.12 378.9,136.12 378.58,136.12 378.25,136.12 377.92,136.12 377.6,136.12 377.27,136.12 376.94,136.12 376.62,136.12 376.29,136.12 375.97,136.12 375.64,136.12 375.31,136.12 374.99,136.12 374.66,136.12 374.33,136.12 374.01,136.12 373.68,136.12 373.35,136.12 373.03,136.12 372.7,136.12 372.37,136.12 372.05,136.12 371.72,136.12 371.39,136.12 371.07,136.12 370.74,136.12 370.42,136.12 370.09,136.12 369.76,136.12 369.44,136.12 369.11,136.12 368.78,136.12 368.46,136.12 368.13,136.12 367.8,136.12 367.48,136.12 367.15,136.12 366.82,136.12 366.5,136.12 366.17,136.12 365.84,136.12 365.52,136.12 365.19,136.12 364.86,136.12 364.54,136.12 364.21,136.12 363.89,136.12 363.56,136.12 363.23,136.12 362.91,136.12 362.58,136.12 362.25,136.12 361.93,136.12 361.6,136.12 361.27,136.12 360.95,136.12 360.62,136.12 360.29,136.12 359.97,136.12 359.64,136.12 359.31,136.12 358.99,136.12 358.66,136.12 358.34,136.12 358.01,136.12 357.68,136.12 357.36,136.12 357.03,136.12 356.7,136.12 356.38,136.12 356.05,136.12 355.72,136.12 355.4,136.12 355.07,136.12 354.74,136.12 354.42,136.12 354.09,136.12 353.76,136.12 353.44,136.12 353.11,136.12 352.79,136.12 352.46,136.12 352.13,136.12 351.81,136.12 351.48,136.12 351.15,136.12 350.83,136.12 350.5,136.12 350.17,136.12 349.85,136.12 349.52,136.12 349.19,136.12 348.87,136.12 348.54,136.12 348.21,136.12 347.89,136.12 347.56,136.12 347.24,136.12 346.91,136.12 346.58,136.12 346.26,136.12 345.93,136.12 345.6,136.12 345.28,136.12 344.95,136.12 344.62,136.12 344.3,136.12 343.97,136.12 343.64,136.12 343.32,136.12 342.99,136.12 342.66,136.12 342.34,136.12 342.01,136.12 341.68,136.12 341.36,136.12 341.03,136.12 340.71,136.12 340.38,136.12 340.05,136.12 339.73,136.12 339.4,136.12 339.07,136.12 338.75,136.12 338.42,136.12 338.09,136.12 337.77,136.12 337.44,136.12 337.11,136.12 336.79,136.12 336.46,136.12 336.13,136.12 335.81,136.12 335.48,136.12 335.16,136.12 334.83,136.12 334.5,136.12 334.18,136.12 333.85,136.12 333.52,136.12 333.2,136.12 332.87,136.12 332.54,136.12 332.22,136.12 331.89,136.12 331.56,136.12 331.24,136.12 330.91,136.12 330.58,136.12 330.26,136.12 329.93,136.12 329.61,136.12 329.28,136.12 328.95,136.12 328.63,136.12 328.3,136.12 327.97,136.12 327.65,136.12 327.32,136.12 326.99,136.12 326.67,136.12 326.34,136.12 326.01,136.12 325.69,136.12 325.36,136.12 325.03,136.12 324.71,136.12 324.38,136.12 324.06,136.12 323.73,136.12 323.4,136.12 323.08,136.12 322.75,136.12 322.42,136.12 322.1,136.12 321.77,136.12 321.44,136.12 321.12,136.12 320.79,136.12 320.46,136.12 320.14,136.12 319.81,136.12 319.48,136.12 319.16,136.12 318.83,136.12 318.5,136.12 318.18,136.12 317.85,136.12 317.53,136.12 317.2,136.12 316.87,136.12 317.2,136.12 317.53,136.12 317.85,136.12 318.18,136.12 318.5,136.12 318.83,136.12 319.16,136.12 319.48,136.12 "
       transform="matrix(1.9992282,0,0,1.9992282,-477.74847,48.854913)" />
    <polygon
       id="polygon348"
       clip-path="url(#cpMzA4LjUzfDQ5Mi4wNHwxNDIuMDN8MTEuOTY=-3)"
       style="fill:#268bd2;stroke:#2aa198;stroke-width:1.07000005;stroke-linecap:round;stroke-linejoin:round;stroke-miterlimit:10"
       points="319.81,103.39 320.14,104.57 320.46,105.83 320.79,107.14 321.12,108.5 321.44,109.88 321.77,111.29 322.1,112.7 322.42,114.1 322.75,115.48 323.08,116.83 323.4,118.15 323.73,119.4 324.06,120.59 324.38,121.72 324.71,122.77 325.03,123.76 325.36,124.63 325.69,125.43 326.01,126.13 326.34,126.74 326.67,127.27 326.99,127.68 327.32,127.99 327.65,128.22 327.97,128.35 328.3,128.4 328.63,128.33 328.95,128.18 329.28,127.95 329.61,127.64 329.93,127.25 330.26,126.76 330.58,126.21 330.91,125.59 331.24,124.91 331.56,124.17 331.89,123.36 332.22,122.49 332.54,121.58 332.87,120.62 333.2,119.62 333.52,118.57 333.85,117.49 334.18,116.37 334.5,115.22 334.83,114.04 335.16,112.83 335.48,111.59 335.81,110.31 336.13,109.01 336.46,107.68 336.79,106.3 337.11,104.89 337.44,103.44 337.77,101.94 338.09,100.41 338.42,98.8 338.75,97.14 339.07,95.42 339.4,93.63 339.73,91.77 340.05,89.83 340.38,87.8 340.71,85.69 341.03,83.5 341.36,81.23 341.68,78.86 342.01,76.4 342.34,73.87 342.66,71.26 342.99,68.58 343.32,65.83 343.64,63.02 343.97,60.17 344.3,57.29 344.62,54.39 344.95,51.48 345.28,48.58 345.6,45.72 345.93,42.9 346.26,40.13 346.58,37.46 346.91,34.9 347.24,32.45 347.56,30.13 347.89,27.95 348.21,25.98 348.54,24.2 348.87,22.61 349.19,21.22 349.52,20.04 349.85,19.14 350.17,18.48 350.5,18.06 350.83,17.87 351.15,17.91 351.48,18.24 351.81,18.83 352.13,19.63 352.46,20.65 352.79,21.87 353.11,23.34 353.44,25 353.76,26.83 354.09,28.82 354.42,30.94 354.74,33.22 355.07,35.61 355.4,38.08 355.72,40.63 356.05,43.23 356.38,45.88 356.7,48.55 357.03,51.23 357.36,53.91 357.68,56.57 358.01,59.19 358.34,61.76 358.66,64.29 358.99,66.75 359.31,69.15 359.64,71.47 359.97,73.7 360.29,75.85 360.62,77.92 360.95,79.91 361.27,81.8 361.6,83.6 361.93,85.31 362.25,86.95 362.58,88.51 362.91,89.98 363.23,91.36 363.56,92.68 363.89,93.93 364.21,95.11 364.54,96.21 364.86,97.24 365.19,98.22 365.52,99.13 365.84,99.99 366.17,100.77 366.5,101.48 366.82,102.14 367.15,102.74 367.48,103.27 367.8,103.73 368.13,104.12 368.46,104.44 368.78,104.7 369.11,104.89 369.44,105 369.76,105.03 370.09,105 370.42,104.91 370.74,104.75 371.07,104.52 371.39,104.23 371.72,103.9 372.05,103.52 372.37,103.1 372.7,102.64 373.03,102.16 373.35,101.67 373.68,101.18 374.01,100.68 374.33,100.21 374.66,99.76 374.99,99.35 375.31,98.99 375.64,98.67 375.97,98.43 376.29,98.26 376.62,98.18 376.94,98.17 377.27,98.25 377.6,98.44 377.92,98.73 378.25,99.12 378.58,99.6 378.9,100.17 379.23,100.85 379.56,101.63 379.88,102.49 380.21,103.43 380.54,104.44 380.86,105.53 381.19,106.68 381.52,107.87 381.84,109.11 382.17,110.38 382.49,111.67 382.82,112.98 383.15,114.29 383.47,115.6 383.8,116.89 384.13,118.17 384.45,119.42 384.78,120.64 385.11,121.82 385.43,122.96 385.76,124.04 386.09,125.08 386.41,126.06 386.74,126.99 387.07,127.87 387.39,128.69 387.72,129.44 388.04,130.14 388.37,130.79 388.7,131.39 389.02,131.94 389.35,132.43 389.68,132.87 390,133.28 390.33,133.65 390.66,133.97 390.98,134.26 391.31,134.51 391.64,134.74 391.96,134.94 392.29,135.11 392.62,135.26 392.94,135.39 393.27,135.51 393.6,135.6 393.92,135.69 394.25,135.76 394.57,135.82 394.9,135.87 395.23,135.91 395.55,135.95 395.88,135.98 396.21,136 396.53,136.03 396.86,136.04 397.19,136.06 397.51,136.07 397.84,136.08 398.17,136.09 398.49,136.09 398.82,136.1 399.15,136.1 399.47,136.1 399.8,136.11 400.12,136.11 400.45,136.11 400.78,136.11 401.1,136.11 401.43,136.11 401.76,136.11 402.08,136.12 402.41,136.12 402.74,136.12 403.06,136.12 403.39,136.12 403.72,136.12 404.04,136.12 404.37,136.12 404.7,136.12 405.02,136.12 405.35,136.12 405.67,136.12 406,136.12 406.33,136.12 406.65,136.12 406.98,136.12 407.31,136.12 407.63,136.12 407.96,136.12 408.29,136.12 408.61,136.12 408.94,136.12 409.27,136.12 409.59,136.12 409.92,136.12 410.25,136.12 410.57,136.12 410.9,136.12 411.22,136.12 411.55,136.12 411.88,136.12 412.2,136.12 412.53,136.12 412.86,136.12 413.18,136.12 413.51,136.12 413.84,136.12 414.16,136.12 414.49,136.12 414.82,136.12 415.14,136.12 415.47,136.12 415.8,136.12 416.12,136.12 416.45,136.12 416.78,136.12 417.1,136.12 417.43,136.12 417.75,136.12 418.08,136.12 418.41,136.12 418.73,136.12 419.06,136.12 419.39,136.12 419.71,136.12 420.04,136.12 420.37,136.12 420.69,136.12 421.02,136.12 421.35,136.12 421.67,136.12 422,136.12 422.33,136.12 422.65,136.12 422.98,136.12 423.3,136.12 423.63,136.12 423.96,136.12 424.28,136.12 424.61,136.12 424.94,136.12 425.26,136.12 425.59,136.12 425.92,136.12 426.24,136.12 426.57,136.12 426.9,136.12 427.22,136.12 427.55,136.12 427.88,136.12 428.2,136.12 428.53,136.12 428.85,136.12 429.18,136.12 429.51,136.12 429.83,136.12 430.16,136.12 430.49,136.12 430.81,136.12 431.14,136.12 431.47,136.12 431.79,136.12 432.12,136.12 432.45,136.12 432.77,136.12 433.1,136.12 433.43,136.12 433.75,136.12 434.08,136.12 434.4,136.12 434.73,136.12 435.06,136.12 435.38,136.12 435.71,136.12 436.04,136.12 436.36,136.12 436.69,136.12 437.02,136.12 437.34,136.12 437.67,136.12 438,136.12 438.32,136.12 438.65,136.12 438.98,136.12 439.3,136.12 439.63,136.12 439.96,136.12 440.28,136.12 440.61,136.12 440.93,136.12 441.26,136.12 441.59,136.12 441.91,136.12 442.24,136.12 442.57,136.12 442.89,136.12 443.22,136.12 443.55,136.12 443.87,136.12 444.2,136.12 444.53,136.12 444.85,136.12 445.18,136.12 445.51,136.12 445.83,136.12 446.16,136.12 446.48,136.12 446.81,136.12 447.14,136.12 447.46,136.12 447.79,136.12 448.12,136.12 448.44,136.12 448.77,136.12 449.1,136.12 449.42,136.12 449.75,136.12 450.08,136.12 450.4,136.12 450.73,136.12 451.06,136.12 451.38,136.12 451.71,136.12 452.03,136.12 452.36,136.12 452.69,136.12 453.01,136.12 453.34,136.12 453.67,136.12 453.99,136.12 454.32,136.12 454.65,136.12 454.97,136.12 455.3,136.12 455.63,136.12 455.95,136.12 456.28,136.12 456.61,136.12 456.93,136.12 457.26,136.12 457.58,136.12 457.91,136.12 458.24,136.12 458.56,136.12 458.89,136.12 459.22,136.12 459.54,136.12 459.87,136.12 460.2,136.12 460.52,136.12 460.85,136.12 461.18,136.12 461.5,136.12 461.83,136.12 462.16,136.12 462.48,136.12 462.81,136.12 463.14,136.12 463.46,136.12 463.79,136.12 464.11,136.12 464.44,136.12 464.77,136.12 465.09,136.12 465.42,136.12 465.75,136.12 466.07,136.12 466.4,136.12 466.73,136.12 467.05,136.12 467.38,136.12 467.71,136.12 468.03,136.12 468.36,136.12 468.69,136.12 469.01,136.12 469.34,136.12 469.66,136.12 469.99,136.12 470.32,136.12 470.64,136.12 470.97,136.12 471.3,136.12 471.62,136.12 471.95,136.12 472.28,136.12 472.6,136.12 472.93,136.12 473.26,136.12 473.58,136.12 473.91,136.12 474.24,136.12 474.56,136.12 474.89,136.12 475.21,136.12 475.54,136.12 475.87,136.12 476.19,136.12 476.52,136.12 476.85,136.12 477.17,136.12 477.5,136.12 477.83,136.12 478.15,136.12 478.48,136.12 478.81,136.12 479.13,136.12 479.46,136.12 479.79,136.12 480.11,136.12 480.44,136.12 480.76,136.12 481.09,136.12 481.42,136.12 481.74,136.12 482.07,136.12 482.4,136.12 482.72,136.12 483.05,136.12 483.38,136.12 483.7,136.12 483.7,136.12 483.38,136.12 483.05,136.12 482.72,136.12 482.4,136.12 482.07,136.12 481.74,136.12 481.42,136.12 481.09,136.12 480.76,136.12 480.44,136.12 480.11,136.12 479.79,136.12 479.46,136.12 479.13,136.12 478.81,136.12 478.48,136.12 478.15,136.12 477.83,136.12 477.5,136.12 477.17,136.12 476.85,136.12 476.52,136.12 476.19,136.12 475.87,136.12 475.54,136.12 475.21,136.12 474.89,136.12 474.56,136.12 474.24,136.12 473.91,136.12 473.58,136.12 473.26,136.12 472.93,136.12 472.6,136.12 472.28,136.12 471.95,136.12 471.62,136.12 471.3,136.12 470.97,136.12 470.64,136.12 470.32,136.12 469.99,136.12 469.66,136.12 469.34,136.12 469.01,136.12 468.69,136.12 468.36,136.12 468.03,136.12 467.71,136.12 467.38,136.12 467.05,136.12 466.73,136.12 466.4,136.12 466.07,136.12 465.75,136.12 465.42,136.12 465.09,136.12 464.77,136.12 464.44,136.12 464.11,136.12 463.79,136.12 463.46,136.12 463.14,136.12 462.81,136.12 462.48,136.12 462.16,136.12 461.83,136.12 461.5,136.12 461.18,136.12 460.85,136.12 460.52,136.12 460.2,136.12 459.87,136.12 459.54,136.12 459.22,136.12 458.89,136.12 458.56,136.12 458.24,136.12 457.91,136.12 457.58,136.12 457.26,136.12 456.93,136.12 456.61,136.12 456.28,136.12 455.95,136.12 455.63,136.12 455.3,136.12 454.97,136.12 454.65,136.12 454.32,136.12 453.99,136.12 453.67,136.12 453.34,136.12 453.01,136.12 452.69,136.12 452.36,136.12 452.03,136.12 451.71,136.12 451.38,136.12 451.06,136.12 450.73,136.12 450.4,136.12 450.08,136.12 449.75,136.12 449.42,136.12 449.1,136.12 448.77,136.12 448.44,136.12 448.12,136.12 447.79,136.12 447.46,136.12 447.14,136.12 446.81,136.12 446.48,136.12 446.16,136.12 445.83,136.12 445.51,136.12 445.18,136.12 444.85,136.12 444.53,136.12 444.2,136.12 443.87,136.12 443.55,136.12 443.22,136.12 442.89,136.12 442.57,136.12 442.24,136.12 441.91,136.12 441.59,136.12 441.26,136.12 440.93,136.12 440.61,136.12 440.28,136.12 439.96,136.12 439.63,136.12 439.3,136.12 438.98,136.12 438.65,136.12 438.32,136.12 438,136.12 437.67,136.12 437.34,136.12 437.02,136.12 436.69,136.12 436.36,136.12 436.04,136.12 435.71,136.12 435.38,136.12 435.06,136.12 434.73,136.12 434.4,136.12 434.08,136.12 433.75,136.12 433.43,136.12 433.1,136.12 432.77,136.12 432.45,136.12 432.12,136.12 431.79,136.12 431.47,136.12 431.14,136.12 430.81,136.12 430.49,136.12 430.16,136.12 429.83,136.12 429.51,136.12 429.18,136.12 428.85,136.12 428.53,136.12 428.2,136.12 427.88,136.12 427.55,136.12 427.22,136.12 426.9,136.12 426.57,136.12 426.24,136.12 425.92,136.12 425.59,136.12 425.26,136.12 424.94,136.12 424.61,136.12 424.28,136.12 423.96,136.12 423.63,136.12 423.3,136.12 422.98,136.12 422.65,136.12 422.33,136.12 422,136.12 421.67,136.12 421.35,136.12 421.02,136.12 420.69,136.12 420.37,136.12 420.04,136.12 419.71,136.12 419.39,136.12 419.06,136.12 418.73,136.12 418.41,136.12 418.08,136.12 417.75,136.12 417.43,136.12 417.1,136.12 416.78,136.12 416.45,136.12 416.12,136.12 415.8,136.12 415.47,136.12 415.14,136.12 414.82,136.12 414.49,136.12 414.16,136.12 413.84,136.12 413.51,136.12 413.18,136.12 412.86,136.12 412.53,136.12 412.2,136.12 411.88,136.12 411.55,136.12 411.22,136.12 410.9,136.12 410.57,136.12 410.25,136.12 409.92,136.12 409.59,136.12 409.27,136.12 408.94,136.12 408.61,136.12 408.29,136.12 407.96,136.12 407.63,136.12 407.31,136.12 406.98,136.12 406.65,136.12 406.33,136.12 406,136.12 405.67,136.12 405.35,136.12 405.02,136.12 404.7,136.12 404.37,136.12 404.04,136.12 403.72,136.12 403.39,136.12 403.06,136.12 402.74,136.12 402.41,136.12 402.08,136.12 401.76,136.12 401.43,136.12 401.1,136.12 400.78,136.12 400.45,136.12 400.12,136.12 399.8,136.12 399.47,136.12 399.15,136.12 398.82,136.12 398.49,136.12 398.17,136.12 397.84,136.12 397.51,136.12 397.19,136.12 396.86,136.12 396.53,136.12 396.21,136.12 395.88,136.12 395.55,136.12 395.23,136.12 394.9,136.12 394.57,136.12 394.25,136.12 393.92,136.12 393.6,136.12 393.27,136.12 392.94,136.12 392.62,136.12 392.29,136.12 391.96,136.12 391.64,136.12 391.31,136.12 390.98,136.12 390.66,136.12 390.33,136.12 390,136.12 389.68,136.12 389.35,136.12 389.02,136.12 388.7,136.12 388.37,136.12 388.04,136.12 387.72,136.12 387.39,136.12 387.07,136.12 386.74,136.12 386.41,136.12 386.09,136.12 385.76,136.12 385.43,136.12 385.11,136.12 384.78,136.12 384.45,136.12 384.13,136.12 383.8,136.12 383.47,136.12 383.15,136.12 382.82,136.12 382.49,136.12 382.17,136.12 381.84,136.12 381.52,136.12 381.19,136.12 380.86,136.12 380.54,136.12 380.21,136.12 379.88,136.12 379.56,136.12 379.23,136.12 378.9,136.12 378.58,136.12 378.25,136.12 377.92,136.12 377.6,136.12 377.27,136.12 376.94,136.12 376.62,136.12 376.29,136.12 375.97,136.12 375.64,136.12 375.31,136.12 374.99,136.12 374.66,136.12 374.33,136.12 374.01,136.12 373.68,136.12 373.35,136.12 373.03,136.12 372.7,136.12 372.37,136.12 372.05,136.12 371.72,136.12 371.39,136.12 371.07,136.12 370.74,136.12 370.42,136.12 370.09,136.12 369.76,136.12 369.44,136.12 369.11,136.12 368.78,136.12 368.46,136.12 368.13,136.12 367.8,136.12 367.48,136.12 367.15,136.12 366.82,136.12 366.5,136.12 366.17,136.12 365.84,136.12 365.52,136.12 365.19,136.12 364.86,136.12 364.54,136.12 364.21,136.12 363.89,136.12 363.56,136.12 363.23,136.12 362.91,136.12 362.58,136.12 362.25,136.12 361.93,136.12 361.6,136.12 361.27,136.12 360.95,136.12 360.62,136.12 360.29,136.12 359.97,136.12 359.64,136.12 359.31,136.12 358.99,136.12 358.66,136.12 358.34,136.12 358.01,136.12 357.68,136.12 357.36,136.12 357.03,136.12 356.7,136.12 356.38,136.12 356.05,136.12 355.72,136.12 355.4,136.12 355.07,136.12 354.74,136.12 354.42,136.12 354.09,136.12 353.76,136.12 353.44,136.12 353.11,136.12 352.79,136.12 352.46,136.12 352.13,136.12 351.81,136.12 351.48,136.12 351.15,136.12 350.83,136.12 350.5,136.12 350.17,136.12 349.85,136.12 349.52,136.12 349.19,136.12 348.87,136.12 348.54,136.12 348.21,136.12 347.89,136.12 347.56,136.12 347.24,136.12 346.91,136.12 346.58,136.12 346.26,136.12 345.93,136.12 345.6,136.12 345.28,136.12 344.95,136.12 344.62,136.12 344.3,136.12 343.97,136.12 343.64,136.12 343.32,136.12 342.99,136.12 342.66,136.12 342.34,136.12 342.01,136.12 341.68,136.12 341.36,136.12 341.03,136.12 340.71,136.12 340.38,136.12 340.05,136.12 339.73,136.12 339.4,136.12 339.07,136.12 338.75,136.12 338.42,136.12 338.09,136.12 337.77,136.12 337.44,136.12 337.11,136.12 336.79,136.12 336.46,136.12 336.13,136.12 335.81,136.12 335.48,136.12 335.16,136.12 334.83,136.12 334.5,136.12 334.18,136.12 333.85,136.12 333.52,136.12 333.2,136.12 332.87,136.12 332.54,136.12 332.22,136.12 331.89,136.12 331.56,136.12 331.24,136.12 330.91,136.12 330.58,136.12 330.26,136.12 329.93,136.12 329.61,136.12 329.28,136.12 328.95,136.12 328.63,136.12 328.3,136.12 327.97,136.12 327.65,136.12 327.32,136.12 326.99,136.12 326.67,136.12 326.34,136.12 326.01,136.12 325.69,136.12 325.36,136.12 325.03,136.12 324.71,136.12 324.38,136.12 324.06,136.12 323.73,136.12 323.4,136.12 323.08,136.12 322.75,136.12 322.42,136.12 322.1,136.12 321.77,136.12 321.44,136.12 321.12,136.12 320.79,136.12 320.46,136.12 320.14,136.12 319.81,136.12 319.48,136.12 319.16,136.12 318.83,136.12 318.5,136.12 318.18,136.12 317.85,136.12 317.53,136.12 317.2,136.12 316.87,136.12 316.87,97.8 317.2,97.89 317.53,98.12 317.85,98.49 318.18,98.99 318.5,99.62 318.83,100.41 319.16,101.31 319.48,102.3 "
       transform="matrix(1.9992282,0,0,1.9992282,-477.74847,48.854913)" />
  </g>
  <g
     transform="translate(274.12929,-46.675574)"
     id="g3610">
    <path
       inkscape:connector-curvature="0"
       style="fill:#d33682;stroke:none;stroke-linecap:round;stroke-linejoin:round;stroke-miterlimit:10"
       d="m 100.50564,86.300292 c -0.809995,0 -1.529995,0.42 -1.969995,1.06 h -4.56 l 4.45,-5.19 c 0.06,0.01 0.13,0.02 0.19,0.02 1.35,0 2.449995,-1.16 2.449995,-2.58 0,-1.42 -1.099995,-2.58 -2.449995,-2.58 -1.35,0 -2.45,1.16 -2.45,2.58 0,0.16 0.02,0.32 0.05,0.47 l -5.73,6.68 -3.6,-6.24 c 0.11,-0.29 0.17,-0.6 0.17,-0.92 0,-1.42 -1.1,-2.58 -2.45,-2.58 -1.35,0 -2.45,1.16 -2.45,2.58 0,1.32 0.95,2.4 2.17,2.55 l 3,5.2 h -4.07 c -0.45,-0.64 -1.16,-1.06 -1.97,-1.06 -1.35,0 -2.45,1.16 -2.45,2.58 0,1.42 1.1,2.58 2.45,2.58 0.81,0 1.53,-0.42 1.97,-1.06 h 4.12 l -4.46,5.19 c -0.06,-0.01 -0.13,-0.02 -0.19,-0.02 -1.35,0 -2.45,1.16 -2.45,2.58 0,1.42 1.1,2.579998 2.45,2.579998 1.35,0 2.45,-1.159998 2.45,-2.579998 0,-0.16 -0.02,-0.32 -0.05,-0.47 l 4.87,-5.68 3.14,5.44 c -0.06,0.23 -0.11,0.46 -0.11,0.71 0,1.42 1.1,2.579998 2.45,2.579998 1.35,0 2.45,-1.159998 2.45,-2.579998 0,-1.39 -1.06,-2.52 -2.37,-2.57 l -2.99,-5.18 h 5.95 c 0.45,0.64 1.16,1.06 1.969995,1.06 1.35,0 2.45,-1.16 2.45,-2.58 0,-1.42 -1.08,-2.57 -2.43,-2.57 z"
       class="st0"
       id="sprite-4_1_" />
    <ellipse
       style="fill:none;stroke:#268bd2;stroke-width:7.0999999;stroke-miterlimit:4;stroke-dasharray:none"
       ry="9.2799997"
       rx="8.7600002"
       cy="150.83029"
       cx="16.635645"
       class="st1"
       id="sprite-14_1_" />
    <path
       inkscape:connector-curvature="0"
       style="fill:#b58900;stroke:none;stroke-linecap:round;stroke-linejoin:round;stroke-miterlimit:10"
       d="m 158.33659,168.60617 -3.8608,-0.0566 -0.16264,-3.88201 c -0.0636,-1.43543 -1.27279,-2.54558 -2.70822,-2.48194 -1.43542,0.0636 -2.54558,1.27279 -2.48194,2.70821 l 0.14849,3.58503 -3.55674,-0.0495 c -1.43543,-0.0212 -2.60923,1.1243 -2.63751,2.55265 -0.0212,1.43543 1.1243,2.60923 2.55972,2.63044 l 3.86081,0.0566 0.16263,3.88201 c 0.0636,1.43543 1.27279,2.54559 2.70822,2.48195 0.67882,-0.0283 1.27986,-0.3182 1.71827,-0.75661 0.49497,-0.49497 0.79196,-1.18793 0.7566,-1.94454 l -0.14849,-3.58503 3.55675,0.0495 c 0.72832,0.007 1.40007,-0.28285 1.87383,-0.75661 0.45962,-0.45962 0.74953,-1.08894 0.76368,-1.79605 0.0283,-1.4425 -1.11723,-2.61629 -2.55266,-2.63751 z"
       class="st2"
       id="sprite-3_1_" />
    <path
       inkscape:connector-curvature="0"
       style="fill:#dc322f;stroke:none;stroke-linecap:round;stroke-linejoin:round;stroke-miterlimit:10"
       d="m 7.145645,98.860292 -2.69,-2.77 2.63,-2.86 c 0.97,-1.06 0.9,-2.7 -0.16,-3.67 -1.06,-0.97 -2.7,-0.9 -3.67,0.16 l -2.43000003,2.64 -2.47999997,-2.55 c -1,-1.03 -2.64,-1.05 -3.67,-0.06 -1.03,1 -1.05,2.64 -0.05,3.67 l 2.69,2.77 -2.63,2.86 c -0.97,1.059998 -0.9,2.699998 0.16,3.669998 0.5,0.46 1.13,0.68 1.75,0.68 0.7,0 1.4,-0.28 1.91,-0.84 L 0.93564497,99.920292 3.415645,102.47029 c 0.51,0.52 1.19,0.79 1.86,0.79 0.65,0 1.3,-0.24 1.81,-0.73 1.03,-1 1.06,-2.639998 0.06,-3.669998 z"
       class="st0"
       id="sprite-3_3_" />
    <ellipse
       style="fill:#6c71c4"
       ry="3.6400001"
       rx="3.4400001"
       cy="113.89029"
       cx="60.365646"
       class="st2"
       id="sprite-17_1_" />
    <ellipse
       style="fill:#859900"
       ry="6.54"
       rx="6.1700001"
       cy="144.3503"
       cx="138.83565"
       class="st3"
       id="sprite-16_1_" />
    <path
       id="sprite-3_2_"
       class="st0"
       d="m 99.879105,130.90496 -2.69,-2.77 2.63,-2.86 c 0.969995,-1.06 0.899995,-2.7 -0.16,-3.67 -1.06,-0.97 -2.7,-0.9 -3.67,0.16 l -2.43,2.64 -2.48,-2.55 c -1,-1.03 -2.64,-1.05 -3.67,-0.06 -1.03,1 -1.05,2.64 -0.05,3.67 l 2.69,2.77 -2.63,2.86 c -0.97,1.06 -0.9,2.7 0.16,3.67 0.5,0.46 1.13,0.68 1.75,0.68 0.7,0 1.4,-0.28 1.91,-0.84 l 2.43,-2.64 2.48,2.55 c 0.51,0.52 1.19,0.79 1.86,0.79 0.65,0 1.3,-0.24 1.81,-0.73 1.029995,-1 1.059995,-2.64 0.06,-3.67 z"
       inkscape:connector-curvature="0"
       style="fill:#839496;stroke:none;stroke-linecap:round;stroke-linejoin:round;stroke-miterlimit:10" />
    <ellipse
       id="sprite-14_6_"
       class="st1"
       cx="74.810493"
       cy="169.89388"
       rx="8.7600002"
       ry="9.2799997"
       style="fill:none;stroke:#cb4b16;stroke-width:2.82800007;stroke-linecap:round;stroke-miterlimit:10" />
    <path
       id="sprite-2_6_"
       class="st2"
       d="m -26.279491,116.23388 c 5.24,0 5.24,6.77 10.49,6.77 5.24,0 5.24,-6.77 10.49,-6.77 5.23999997,0 5.23999997,6.77 10.49,6.77 5.25,0 5.25,-6.77 10.49,-6.77 5.24,0 5.25,6.77 10.49,6.77"
       inkscape:connector-curvature="0"
       style="fill:none;stroke:#b58900;stroke-width:3.57620001;stroke-linecap:round;stroke-linejoin:round;stroke-miterlimit:10" />
    <ellipse
       id="sprite-17_2_"
       class="st3"
       cx="178.98125"
       cy="190.63272"
       rx="3.4400001"
       ry="3.6400001"
       style="fill:#f03330" />
    <ellipse
       id="sprite-16_2_"
       class="st0"
       cx="162.33739"
       cy="110.00858"
       rx="6.1700001"
       ry="6.54"
       style="fill:#2aa198" />
  </g>
  <path
     inkscape:connector-curvature="0"
     style="fill:#268bd2;stroke:none;stroke-linecap:round;stroke-linejoin:round;stroke-miterlimit:10"
     d="M 330.595,0 H 10.669 C 4.7790002,0 1.568751e-7,4.78 1.568751e-7,10.669 1.568751e-7,16.559 4.7800002,21.339 10.669,21.339 h 319.926 c 5.889,0 10.67,-4.78 10.67,-10.67 C 341.265,4.78 336.483,0 330.595,0 Z"
     id="path14" />
  <path
     inkscape:connector-curvature="0"
     style="fill:#859900;stroke:none;stroke-linecap:round;stroke-linejoin:round;stroke-miterlimit:10"
     d="m 10.669,63.986 h 170.632 c 5.89,0 10.654,-4.765 10.654,-10.654 0,-5.905 -4.764,-10.669 -10.654,-10.669 H 10.669 C 4.7790002,42.663 1.568751e-7,47.427 1.568751e-7,53.332 -9.9984312e-4,59.221 4.7790002,63.986 10.669,63.986 Z"
     id="path16" />
  <path
     inkscape:connector-curvature="0"
     style="fill:#d33682;stroke:none;stroke-linecap:round;stroke-linejoin:round;stroke-miterlimit:10"
     d="m 10.669,106.646 h 234.618 c 5.89,0 10.654,-4.78 10.654,-10.669 0,-5.889 -4.765,-10.653 -10.654,-10.653 H 10.669 C 4.7790002,85.324 1.568751e-7,90.088 1.568751e-7,95.977 -9.9984312e-4,101.866 4.7790002,106.646 10.669,106.646 Z"
     id="path18" />
  <path
     inkscape:connector-curvature="0"
     style="fill:#2aa198;stroke:none;stroke-linecap:round;stroke-linejoin:round;stroke-miterlimit:10"
     d="m 10.669,149.294 149.293,0.016 c 5.905,0 10.669,-4.78 10.669,-10.669 0,-5.889 -4.764,-10.669 -10.669,-10.669 H 10.669 C 4.7790002,127.972 1.568751e-7,132.752 1.568751e-7,138.641 -9.9984312e-4,144.529 4.7790002,149.294 10.669,149.294 Z"
     id="path20" />
  <path
     inkscape:connector-curvature="0"
     style="fill:#b58900;stroke:none;stroke-linecap:round;stroke-linejoin:round;stroke-miterlimit:10"
     d="M 287.933,170.631 H 10.669 C 4.7790002,170.631 1.568751e-7,175.411 1.568751e-7,181.285 1.568751e-7,187.19 4.7800002,191.955 10.669,191.955 h 277.264 c 5.905,0 10.67,-4.765 10.67,-10.654 0,-5.888 -4.765,-10.67 -10.67,-10.67 z"
     id="path22" />
  <path
     inkscape:connector-curvature="0"
     style="fill:#dc322f;stroke:none;stroke-linecap:round;stroke-linejoin:round;stroke-miterlimit:10"
     d="M 95.977,213.286 H 10.669 C 4.7790002,213.286 1.5687516e-7,218.067 1.5687516e-7,223.94 1.5687516e-7,229.845 4.7800002,234.626 10.669,234.626 h 85.309 c 5.905,0 10.669,-4.78 10.669,-10.686 0,-5.873 -4.765,-10.654 -10.67,-10.654 z"
     id="path24" />
</svg>
