<?xml version="1.0" encoding="UTF-8" standalone="no"?>
<!-- Created with Inkscape (http://www.inkscape.org/) -->

<svg
   xmlns:dc="http://purl.org/dc/elements/1.1/"
   xmlns:cc="http://creativecommons.org/ns#"
   xmlns:rdf="http://www.w3.org/1999/02/22-rdf-syntax-ns#"
   xmlns:svg="http://www.w3.org/2000/svg"
   xmlns="http://www.w3.org/2000/svg"
   xmlns:sodipodi="http://sodipodi.sourceforge.net/DTD/sodipodi-0.dtd"
   xmlns:inkscape="http://www.inkscape.org/namespaces/inkscape"
   version="1.1"
   id="svg837"
   width="3840"
   height="2400"
   viewBox="0 0 3840 2400"
   sodipodi:docname="pyramid.svg"
   inkscape:version="0.92.3 (2405546, 2018-03-11)">
  <metadata
     id="metadata843">
    <rdf:RDF>
      <cc:Work
         rdf:about="">
        <dc:format>image/svg+xml</dc:format>
        <dc:type
           rdf:resource="http://purl.org/dc/dcmitype/StillImage" />
        <dc:title></dc:title>
      </cc:Work>
    </rdf:RDF>
  </metadata>
  <defs
     id="defs841" />
  <sodipodi:namedview
     pagecolor="#ffffff"
     bordercolor="#666666"
     borderopacity="1"
     objecttolerance="10"
     gridtolerance="10"
     guidetolerance="10"
     inkscape:pageopacity="0"
     inkscape:pageshadow="2"
     inkscape:window-width="1920"
     inkscape:window-height="1017"
     id="namedview839"
     showgrid="false"
     inkscape:zoom="0.19322917"
     inkscape:cx="2484.0589"
     inkscape:cy="1801.7738"
     inkscape:window-x="1920"
     inkscape:window-y="30"
     inkscape:window-maximized="1"
     inkscape:current-layer="svg837" />
  <g
     id="g6180">
    <path
       style="fill:#fda5a2;stroke-width:1.33333337"
       d="m 0,2251.6595 v -148.3406 l 7.958698,-13.9928 C 77.251379,1967.4972 814.82195,692.57116 816.15097,692.32704 c 1.18115,-0.21696 16.7074,25.42877 42.98432,71 22.6244,39.23679 41.55847,71.33963 42.0757,71.33963 0.51721,0 26.14578,-43.64939 56.95237,-96.99863 30.80659,-53.34924 56.87264,-97.16437 57.92464,-97.36696 1.2855,-0.24756 81.4897,137.44728 244.579,419.89402 133.4665,231.1444 243.3338,420.482 244.1495,420.7502 0.8158,0.2684 58.0372,-97.4845 127.159,-217.2287 69.1217,-119.7441 126.2042,-218.2866 126.8502,-218.9833 0.7352,-0.793 1.7716,-0.6693 2.7718,0.3308 0.8785,0.8786 19.6954,32.9209 41.8153,71.2051 22.12,38.2843 40.7857,69.797 41.4795,70.0282 0.6937,0.2313 25.9601,-42.3537 56.1476,-94.6331 30.1874,-52.2795 55.7682,-96.24105 56.8462,-97.6923 1.9522,-2.62792 1.9704,-2.6278 4.4951,0.028 1.3943,1.46667 85.5476,146.5167 187.0076,322.3333 C 2250.8487,1492.15 2334.2228,1636 2334.6647,1636 c 0.4417,0 40.9729,-69.5908 90.0693,-154.6461 49.0963,-85.0555 89.9223,-154.6555 90.7244,-154.6667 0.8021,-0.011 19.3459,31.0295 41.2081,68.9795 21.8623,37.95 40.6659,70.0686 41.7858,71.3748 1.6386,1.9113 2.3368,2.0414 3.5766,0.6666 0.8474,-0.9394 26.36,-44.7785 56.6948,-97.4201 35.5979,-61.7746 55.8062,-95.5777 56.9927,-95.3333 1.0111,0.2082 64.1921,108.3786 140.4024,240.3786 76.2104,132 139.7351,241.5 141.166,243.3334 1.4309,1.8333 21.0677,35.2318 43.6373,74.219 22.5696,38.9871 41.471,70.6167 42.003,70.2879 0.532,-0.3288 3.5868,-5.2273 6.7884,-10.8857 5.9137,-10.4518 47.9269,-83.2302 65.5906,-113.6212 12.5866,-21.6555 34.3878,-59.4656 41.1307,-71.3334 2.9167,-5.1333 6.1217,-10.0066 7.1225,-10.8296 1.0007,-0.8229 6.9852,-10.4229 13.299,-21.3333 6.3137,-10.9104 19.6225,-33.9371 29.575,-51.1704 9.9526,-17.2333 23.1235,-40.0333 29.2688,-50.6667 6.1452,-10.6333 18.157,-31.4833 26.6927,-46.3333 8.5356,-14.85 16.2304,-27 17.0996,-27 1.5535,0 8.6715,11.6823 34.5265,56.6667 7.1652,12.4666 17.5494,30.4666 23.0756,40 5.5263,9.5333 16.4486,28.4333 24.2716,42 7.8231,13.5666 20.1206,34.8666 27.3276,47.3333 7.2072,12.4667 19.5072,33.7667 27.3334,47.3333 7.8262,13.5667 20.1262,34.8667 27.3333,47.3334 7.2072,12.4666 19.5072,33.7666 27.3333,47.3333 7.8263,13.5667 20.1263,34.8667 27.3334,47.3333 13.5789,23.4883 32.1053,55.593 54.6286,94.6667 7.1863,12.4667 15.4592,26.5667 18.3844,31.3333 19.7652,32.2078 228.9599,395.861 228.9599,398.012 0,0.36 -864,0.6547 -1920,0.6547 H 0 Z"
       id="path6202"
       inkscape:connector-curvature="0" />
    <path
       style="fill:#d8c27e;stroke-width:1.33333337"
       d="m 0,2252.0267 v -147.9732 l 407.65443,-706.0308 c 224.20993,-388.317 408.20272,-705.8481 408.87288,-705.62471 0.67014,0.22338 19.57565,32.3117 42.01224,71.30738 24.64469,42.83348 41.4949,70.78116 42.56485,70.59794 0.97408,-0.16682 10.77201,-15.90331 21.77317,-34.96998 76.89054,-133.26286 92.27993,-159.39217 93.61593,-158.94862 1.755,0.58266 3.487,3.48062 43.1997,72.28196 45.7808,79.31422 100.8474,174.6977 131.6287,228 15.2455,26.4 44.3455,76.80003 64.6666,112.00003 20.3211,35.2 49.4211,85.6 64.6667,112 15.2456,26.4 44.3436,76.8 64.6621,112 20.3187,35.2 54.9843,95.2 77.0347,133.3333 22.0504,38.1333 59.5145,102.9333 83.2536,144 23.7392,41.0667 43.8736,74.6667 44.7432,74.6667 0.8697,0 58.0259,-97.8 127.0139,-217.3334 68.9878,-119.5333 126.5781,-218.8333 127.9782,-220.6666 1.4003,-1.8334 27.6214,-46.6803 58.2691,-99.66 30.6479,-52.9796 56.2505,-96.1539 56.8948,-95.94283 0.6443,0.21105 84.418,144.55173 186.1639,320.75713 101.7457,176.2054 185.5192,320.9002 186.163,321.5441 0.6722,0.6721 39.5046,-65.2387 91.1695,-154.7434 49.4993,-85.7526 90.6551,-155.9232 91.4572,-155.9345 0.8021,-0.011 19.3459,31.0295 41.2081,68.9795 21.8623,37.95 40.6659,70.0686 41.7858,71.3748 1.6386,1.9113 2.3368,2.0414 3.5766,0.6666 0.8474,-0.9394 26.36,-44.7785 56.6948,-97.4201 35.5979,-61.7746 55.8062,-95.5777 56.9927,-95.3333 1.0111,0.2082 64.1921,108.3786 140.4024,240.3786 76.2104,132 139.7351,241.5 141.166,243.3334 1.4309,1.8333 21.0677,35.2318 43.6373,74.219 22.5696,38.9871 41.471,70.6167 42.003,70.2879 0.532,-0.3288 3.5868,-5.2273 6.7884,-10.8857 5.9137,-10.4518 47.9269,-83.2302 65.5906,-113.6212 12.5866,-21.6555 34.3878,-59.4656 41.1307,-71.3334 2.9167,-5.1333 6.1217,-10.0066 7.1225,-10.8296 1.0007,-0.8229 6.9852,-10.4229 13.299,-21.3333 6.3137,-10.9104 19.6225,-33.9371 29.575,-51.1704 9.9526,-17.2333 23.1235,-40.0333 29.2688,-50.6667 6.1452,-10.6333 18.157,-31.4833 26.6927,-46.3333 8.5356,-14.85 16.2304,-27 17.0996,-27 1.5535,0 8.6715,11.6823 34.5265,56.6667 7.1652,12.4666 17.5494,30.4666 23.0756,40 5.5263,9.5333 16.4486,28.4333 24.2716,42 7.8231,13.5666 20.1206,34.8666 27.3276,47.3333 7.2072,12.4667 19.5072,33.7667 27.3334,47.3333 7.8262,13.5667 20.1262,34.8667 27.3333,47.3334 7.2072,12.4666 19.5072,33.7666 27.3333,47.3333 7.8263,13.5667 20.1263,34.8667 27.3334,47.3333 13.5789,23.4883 32.1053,55.593 54.6286,94.6667 7.1863,12.4667 15.4592,26.5667 18.3844,31.3333 19.7652,32.2078 228.9599,395.861 228.9599,398.012 0,0.36 -864,0.6547 -1920,0.6547 H 0 Z"
       id="path6200"
       inkscape:connector-curvature="0" />
    <path
       style="fill:#949bc6;stroke-width:1.33333337"
       d="M 0.22222223,2398.8875 C 1.7230445,2395.1308 900.69473,839.08147 901.98907,838 c 0.87768,-0.73333 26.35209,-44.23333 56.60982,-96.66667 30.25772,-52.43333 55.75261,-96.11336 56.65521,-97.06673 1.3175,-1.39143 49.2097,80.67956 242.7552,416 132.6126,229.7534 242.3404,419.5075 243.8395,421.6759 1.4991,2.1684 21.4651,36.3684 44.3687,76 22.9037,39.6316 42.385,72.0575 43.292,72.0575 0.9069,0 58.744,-98.8757 128.5268,-219.7237 69.7829,-120.8482 127.5921,-220.438 128.4649,-221.3108 0.8728,-0.8729 26.6172,-44.9442 57.2096,-97.9362 30.5924,-52.9921 56.1497,-96.1765 56.794,-95.96543 0.6443,0.21105 84.418,144.55173 186.1639,320.75713 101.7457,176.2054 185.5192,320.9002 186.163,321.5441 0.6722,0.6721 39.5046,-65.2387 91.1695,-154.7434 49.4993,-85.7526 90.6551,-155.9232 91.4572,-155.9345 0.8021,-0.011 19.3459,31.0295 41.2081,68.9795 21.8623,37.95 40.6659,70.0686 41.7858,71.3748 1.6386,1.9113 2.3368,2.0414 3.5766,0.6666 0.8474,-0.9394 26.36,-44.7785 56.6948,-97.4201 35.5979,-61.7746 55.8062,-95.5777 56.9927,-95.3333 1.0111,0.2082 64.1921,108.3786 140.4024,240.3786 76.2104,132 139.7351,241.5 141.166,243.3334 1.4309,1.8333 21.0677,35.2318 43.6373,74.219 22.5696,38.9871 41.471,70.6167 42.003,70.2879 0.532,-0.3288 3.5868,-5.2273 6.7884,-10.8857 5.9137,-10.4518 47.9269,-83.2302 65.5906,-113.6212 12.5866,-21.6555 34.3878,-59.4656 41.1307,-71.3334 2.9167,-5.1333 6.1217,-10.0066 7.1225,-10.8296 1.0007,-0.8229 6.9852,-10.4229 13.299,-21.3333 6.3137,-10.9104 19.6225,-33.9371 29.575,-51.1704 9.9526,-17.2333 23.1235,-40.0333 29.2688,-50.6667 6.1452,-10.6333 18.157,-31.4833 26.6927,-46.3333 8.5356,-14.85 16.2304,-27 17.0996,-27 1.5535,0 8.6715,11.6823 34.5265,56.6667 7.1652,12.4666 17.5494,30.4666 23.0756,40 5.5263,9.5333 16.4486,28.4333 24.2716,42 7.8231,13.5666 20.1206,34.8666 27.3276,47.3333 7.2072,12.4667 19.5072,33.7667 27.3334,47.3333 7.8262,13.5667 20.1262,34.8667 27.3333,47.3334 7.2072,12.4666 19.5072,33.7666 27.3333,47.3333 7.8263,13.5667 20.1263,34.8667 27.3334,47.3333 7.2072,12.4667 19.5072,33.7667 27.3333,47.3334 32.2083,55.8325 39.8248,69.0008 43.8001,75.7253 2.2951,3.8823 4.1728,7.9443 4.1728,9.0265 0,1.0823 1.3988,4.2059 3.1084,6.9414 1.7096,2.7353 51.9302,89.5734 111.6014,192.9734 59.671,103.4 109.2722,188.7928 110.2249,189.7619 0.9525,0.9691 1.732,2.0191 1.732,2.3333 0,0.3143 -864.05,0.5715 -1920.1111,0.5715 -1056.06113,0 -1919.91112223,-0.5007 -1919.66667777,-1.1125 z"
       id="path6198"
       inkscape:connector-curvature="0" />
    <path
       style="fill:#6b6fc2;stroke-width:1.33333337"
       d="M 0.22222223,2398.8875 C 1.7230445,2395.1308 900.69473,839.08147 901.98907,838 c 0.87768,-0.73333 26.35209,-44.23333 56.60982,-96.66667 30.25772,-52.43333 55.75261,-96.11336 56.65521,-97.06673 1.3175,-1.39143 49.2097,80.67956 242.7552,416 132.6126,229.7534 242.3404,419.5075 243.8395,421.6759 1.4991,2.1684 21.4651,36.3684 44.3687,76 22.9037,39.6316 42.385,72.0575 43.292,72.0575 0.9069,0 58.744,-98.8757 128.5268,-219.7237 69.7829,-120.8482 127.5921,-220.438 128.4649,-221.3108 0.8728,-0.8729 26.6172,-44.9442 57.2096,-97.9362 30.5924,-52.9921 56.1497,-96.1765 56.794,-95.96543 0.6443,0.21105 84.3777,144.48203 186.0743,320.60213 101.6966,176.12 185.8458,321.2944 186.9982,322.6095 1.1523,1.3152 20.2387,33.8912 42.4142,72.3912 22.1753,38.5 41.0205,70.75 41.8781,71.6668 1.2159,1.2997 3.3527,-1.4894 9.7045,-12.6667 7.6399,-13.444 23.591,-41.0935 54.4215,-94.3335 7.2193,-12.4666 19.522,-33.7666 27.3395,-47.3333 13.0528,-22.6527 26.609,-46.1305 61.9745,-107.3333 7.2037,-12.4667 16.0165,-27.7667 19.584,-34 3.5675,-6.2334 8.0003,-12.6756 9.8507,-14.3162 1.8505,-1.6405 7.7553,-10.6405 13.1218,-20 5.3666,-9.3594 14.4394,-25.1172 20.1619,-35.0172 5.7225,-9.9 12.3079,-21.3 14.6341,-25.3333 2.3263,-4.0333 10.1216,-17.5333 17.3231,-30 14.6644,-25.3865 28.5356,-49.4464 39.9725,-69.3333 4.2174,-7.3334 8.1319,-13.8331 8.6988,-14.4438 1.051,-1.1318 5.6136,6.156 25.3206,40.4438 6.1114,10.6333 15.1145,26.2333 20.0068,34.6666 4.8921,8.4334 12.5226,21.6334 16.9566,29.3334 13.3954,23.2618 28.3284,49.1272 37.7195,65.3333 4.8869,8.4333 12.5132,21.6333 16.9472,29.3333 13.3953,23.2619 28.3284,49.1272 37.7195,65.3334 4.8869,8.4333 12.5132,21.6333 16.9472,29.3333 13.3953,23.2619 28.3284,49.1272 37.7194,65.3333 4.887,8.4334 12.5132,21.6334 16.9472,29.3334 32.765,56.8984 46.8648,81.2041 51.4363,88.6666 2.2463,3.6667 22.6371,38.7667 45.3131,78 22.6758,39.2334 41.9624,72.102 42.8586,73.0415 1.319,1.3824 2.0243,1.2553 3.6986,-0.6667 1.138,-1.3061 28.009,-47.3748 59.7137,-102.3748 31.7047,-55 59.6599,-103 62.1225,-106.6666 2.4628,-3.6667 28.7076,-48.6354 58.322,-99.9306 29.6143,-51.295 54.3882,-93.4421 55.0528,-93.6602 0.6647,-0.2182 65.7086,111.3314 144.5419,247.888 78.8333,136.5564 146.0865,252.8345 149.4516,258.3957 3.3652,5.5612 54.9357,94.6804 114.6013,198.0425 59.6656,103.3622 109.2624,188.724 110.2151,189.6931 0.9525,0.9691 1.732,2.0191 1.732,2.3333 0,0.3143 -864.05,0.5715 -1920.1111,0.5715 -1056.06113,0 -1919.91112223,-0.5007 -1919.66667777,-1.1125 z"
       id="path6196"
       inkscape:connector-curvature="0" />
    <path
       style="fill:#d13581;stroke-width:1.33333337"
       d="M 0.22222223,2398.8875 C 1.7230445,2395.1308 900.69473,839.08147 901.98907,838 c 0.87768,-0.73333 26.35209,-44.23333 56.60982,-96.66667 30.25772,-52.43333 55.75261,-96.11336 56.65521,-97.06673 1.3175,-1.39143 49.2097,80.67956 242.7552,416 132.6126,229.7534 242.3404,419.5075 243.8395,421.6759 1.4991,2.1684 21.4651,36.3684 44.3687,76 22.9037,39.6316 42.385,72.0575 43.292,72.0575 0.9069,0 58.744,-98.8757 128.5268,-219.7237 69.7829,-120.8482 127.5921,-220.438 128.4649,-221.3108 0.8728,-0.8729 26.6172,-44.9442 57.2096,-97.9362 30.5924,-52.9921 56.1497,-96.1765 56.794,-95.96543 0.6443,0.21105 84.3443,144.39303 186,320.40433 101.6557,176.0114 186.0285,321.5575 187.4952,323.4359 1.4667,1.8786 21.7827,36.6436 45.1467,77.2556 23.364,40.6122 119.8056,207.8526 214.3146,371.6454 94.5091,163.7928 173.6871,301.0428 175.9512,305 l 4.1166,7.1949 H 1386.6535 C 623.87181,2400 -0.02222223,2399.4993 0.22222223,2398.8875 Z M 2800.4159,2398.1727 c 0.5597,-1.4586 274.3184,-476.0211 282.1228,-489.0618 1.1704,-1.9557 28.804,-49.6557 61.408,-106 32.6041,-56.3444 60.9364,-104.8442 62.9609,-107.7776 2.0244,-2.9333 27.9045,-47.302 57.5113,-98.5972 29.6068,-51.295 54.3746,-93.4421 55.0392,-93.6602 0.6647,-0.2182 65.7086,111.3314 144.5419,247.888 78.8333,136.5564 146.0865,252.8345 149.4516,258.3957 3.3652,5.5612 54.9357,94.6804 114.6013,198.0425 59.6656,103.3622 109.2624,188.724 110.2151,189.6931 0.9525,0.9691 1.732,2.0191 1.732,2.3333 0,0.3143 -234.0641,0.5715 -520.1427,0.5715 -439.9508,0 -520.0345,-0.2817 -519.4414,-1.8273 z"
       id="path6194"
       inkscape:connector-curvature="0" />
    <path
       style="fill:#2589d0;stroke-width:1.33333337"
       d="M 0.22222223,2398.8875 C 1.7230445,2395.1308 900.69473,839.08147 901.98907,838 c 0.87768,-0.73333 26.35209,-44.23333 56.60982,-96.66667 30.25772,-52.43333 55.75261,-96.11336 56.65521,-97.06673 1.3175,-1.39143 49.2097,80.67956 242.7552,416 132.6126,229.7534 242.3404,419.5075 243.8395,421.6759 1.4991,2.1684 21.4651,36.3684 44.3687,76 28.8766,49.967 42.3282,72.0575 43.8781,72.0575 1.5685,0 39.6968,-64.8697 127.8823,-217.5733 69.106,-119.6655 127.3946,-220.2116 129.5304,-223.4359 2.1356,-3.2243 28.17,-47.9566 57.854,-99.4053 29.6841,-51.4486 54.4746,-93.38462 55.0901,-93.19118 0.6155,0.19343 83.7565,143.43388 184.758,318.31198 101.0015,174.8782 203.548,352.4038 227.8811,394.5014 24.3329,42.0976 44.2418,77.3903 44.2418,78.428 0,1.0378 -79.3018,139.2443 -176.2262,307.1255 L 2064.8809,2400 H 1032.3293 C 464.42597,2400 -0.02222223,2399.4993 0.22222223,2398.8875 Z M 2800.4159,2398.1727 c 0.5597,-1.4586 274.3184,-476.0211 282.1228,-489.0618 1.1704,-1.9557 28.804,-49.6557 61.408,-106 32.6041,-56.3444 60.9364,-104.8442 62.9609,-107.7776 2.0244,-2.9333 27.9045,-47.302 57.5113,-98.5972 29.6068,-51.295 54.3746,-93.4421 55.0392,-93.6602 0.6647,-0.2182 65.7086,111.3314 144.5419,247.888 78.8333,136.5564 146.0865,252.8345 149.4516,258.3957 3.3652,5.5612 54.9357,94.6804 114.6013,198.0425 59.6656,103.3622 109.2624,188.724 110.2151,189.6931 0.9525,0.9691 1.732,2.0191 1.732,2.3333 0,0.3143 -234.0641,0.5715 -520.1427,0.5715 -439.9508,0 -520.0345,-0.2817 -519.4414,-1.8273 z"
       id="path6192"
       inkscape:connector-curvature="0" />
    <path
       style="fill:#2d9f96;stroke-width:1.33333337"
       d="M 0.22222223,2398.8875 C 1.7230445,2395.1308 900.69473,839.08147 901.98907,838 c 0.87768,-0.73333 26.35209,-44.23333 56.60982,-96.66667 30.25772,-52.43333 55.75261,-96.11336 56.65521,-97.06673 1.3175,-1.39143 49.2097,80.67956 242.7552,416 132.6126,229.7534 242.3404,419.5075 243.8395,421.6759 1.4991,2.1684 21.4651,36.3684 44.3687,76 28.8766,49.967 42.3282,72.0575 43.8781,72.0575 1.5685,0 39.6968,-64.8697 127.8823,-217.5733 69.106,-119.6655 127.3946,-220.2116 129.5304,-223.4359 2.1356,-3.2243 28.17,-47.9566 57.854,-99.4053 29.6841,-51.4486 54.4746,-93.38462 55.0901,-93.19118 0.6155,0.19343 83.7565,143.43388 184.758,318.31198 101.0015,174.8782 203.548,352.4038 227.8811,394.5014 24.3329,42.0976 44.2418,77.3903 44.2418,78.428 0,1.0378 -79.3018,139.2443 -176.2262,307.1255 L 2064.8809,2400 H 1032.3293 C 464.42597,2400 -0.02222223,2399.4993 0.22222223,2398.8875 Z M 3224.228,2154.3057 c -110.3171,-191.139 -141.4671,-246.0828 -140.3973,-247.639 0.7562,-1.1 27.9296,-47.9 60.3854,-104 32.4559,-56.1 60.667,-104.4 62.6915,-107.3334 2.0244,-2.9333 27.9045,-47.302 57.5113,-98.5972 29.6068,-51.295 54.3746,-93.4421 55.0392,-93.6602 0.6647,-0.2182 65.7086,111.3314 144.5419,247.888 78.8333,136.5564 146.0865,252.8345 149.4516,258.3957 3.3652,5.5612 54.9357,94.6804 114.6013,198.0425 59.6656,103.3622 109.2624,188.724 110.2151,189.6931 0.9525,0.9691 1.732,2.0191 1.732,2.3333 0,0.3143 -106.65,0.5591 -237,0.5439 l -237,-0.028 -141.772,-245.6391 z"
       id="path6190"
       inkscape:connector-curvature="0" />
    <path
       style="fill:#b58700;stroke-width:1.33333337"
       d="M 0.22222223,2398.8875 C 1.7230445,2395.1308 900.69473,839.08147 901.98907,838 c 0.87768,-0.73333 26.35209,-44.23333 56.60982,-96.66667 30.25772,-52.43333 55.75261,-96.11336 56.65521,-97.06673 1.3175,-1.39143 49.2097,80.67956 242.7552,416 132.6126,229.7534 242.3404,419.5075 243.8395,421.6759 1.4991,2.1684 21.4651,36.3684 44.3687,76 28.8766,49.967 42.3282,72.0575 43.8781,72.0575 1.5685,0 39.6968,-64.8697 127.8823,-217.5733 69.106,-119.6655 127.3946,-220.2116 129.5304,-223.4359 2.1356,-3.2243 28.17,-47.9566 57.854,-99.4053 29.6841,-51.4486 54.4746,-93.38462 55.0901,-93.19118 0.6155,0.19343 83.7565,143.43388 184.758,318.31198 101.0015,174.8782 203.548,352.4038 227.8811,394.5014 24.3329,42.0976 44.2418,77.3903 44.2418,78.428 0,1.0378 -79.3018,139.2443 -176.2262,307.1255 L 2064.8809,2400 H 1032.3293 C 464.42597,2400 -0.02222223,2399.4993 0.22222223,2398.8875 Z M 3387.0885,2399 c 0.3187,-0.55 47.8354,-82.9 105.5927,-183 132.998,-230.5008 119.2736,-207.3 121.3451,-205.1309 0.9441,0.9886 51.3954,87.8976 112.1141,193.1309 60.7187,105.2333 111.1764,192.1261 112.1285,193.0952 0.9522,0.9691 1.7311,2.0191 1.7311,2.3333 0,0.3143 -102.0355,0.5715 -226.7453,0.5715 -124.71,0 -226.4847,-0.45 -226.1662,-1 z"
       id="path6188"
       inkscape:connector-curvature="0" />
    <path
       style="fill:#db2f2d;stroke-width:1.33333337"
       d="m 1147.6706,2398.3333 c 1.9795,-2.4798 440.2707,-761.9538 441.2901,-764.6704 0.4808,-1.2813 1.6289,-2.9296 2.5513,-3.6629 0.9225,-0.7333 58.3177,-99.4333 127.5448,-219.3333 69.2271,-119.9 127.3095,-220.1175 129.072,-222.7055 1.7625,-2.5881 27.5045,-46.8285 57.2045,-98.3121 29.7,-51.4836 54.5036,-93.44822 55.1191,-93.25478 0.6155,0.19343 83.7565,143.43388 184.758,318.31198 101.0015,174.8782 203.548,352.4038 227.8811,394.5014 24.3329,42.0976 44.2418,77.3903 44.2418,78.428 0,1.0378 -79.3018,139.2443 -176.2262,307.1255 L 2064.8809,2400 h -459.2704 c -367.2369,0 -459.0038,-0.334 -457.9399,-1.6667 z M 3387.0885,2399 c 0.3187,-0.55 47.8354,-82.9 105.5927,-183 132.998,-230.5008 119.2736,-207.3 121.3451,-205.1309 0.9441,0.9886 51.3954,87.8976 112.1141,193.1309 60.7187,105.2333 111.1764,192.1261 112.1285,193.0952 0.9522,0.9691 1.7311,2.0191 1.7311,2.3333 0,0.3143 -102.0355,0.5715 -226.7453,0.5715 -124.71,0 -226.4847,-0.45 -226.1662,-1 z"
       id="path6186"
       inkscape:connector-curvature="0" />
    <path
       style="fill:#ca4912;stroke-width:1.33333337"
       d="m 1147.6706,2398.3333 c 2.7599,-3.4574 440.7477,-762.9781 441.3834,-765.409 0.5697,-2.1788 0.8992,-1.9904 2.2859,1.3074 0.891,2.1192 100.4041,174.9548 221.1401,384.0792 120.736,209.1244 219.52,380.5552 219.52,380.9576 0,0.4023 -199.2735,0.7315 -442.8299,0.7315 -354.0846,0 -442.5633,-0.334 -441.4995,-1.6667 z M 3387.0885,2399 c 0.3187,-0.55 47.8354,-82.9 105.5927,-183 132.998,-230.5008 119.2736,-207.3 121.3451,-205.1309 0.9441,0.9886 51.3954,87.8976 112.1141,193.1309 60.7187,105.2333 111.1764,192.1261 112.1285,193.0952 0.9522,0.9691 1.7311,2.0191 1.7311,2.3333 0,0.3143 -102.0355,0.5715 -226.7453,0.5715 -124.71,0 -226.4847,-0.45 -226.1662,-1 z"
       id="path6184"
       inkscape:connector-curvature="0" />
    <path
       style="fill:#859800;stroke-width:1.33333337"
       d="m 3387.0885,2399 c 0.3187,-0.55 47.8354,-82.9 105.5927,-183 132.998,-230.5008 119.2736,-207.3 121.3451,-205.1309 0.9441,0.9886 51.3954,87.8976 112.1141,193.1309 60.7187,105.2333 111.1764,192.1261 112.1285,193.0952 0.9522,0.9691 1.7311,2.0191 1.7311,2.3333 0,0.3143 -102.0355,0.5715 -226.7453,0.5715 -124.71,0 -226.4847,-0.45 -226.1662,-1 z"
       id="path6182"
       inkscape:connector-curvature="0" />
  </g>
</svg>
