<?xml version="1.0" encoding="UTF-8" standalone="no"?>
<!-- Created with Inkscape (http://www.inkscape.org/) -->

<svg
   xmlns:dc="http://purl.org/dc/elements/1.1/"
   xmlns:cc="http://creativecommons.org/ns#"
   xmlns:rdf="http://www.w3.org/1999/02/22-rdf-syntax-ns#"
   xmlns:svg="http://www.w3.org/2000/svg"
   xmlns="http://www.w3.org/2000/svg"
   xmlns:sodipodi="http://sodipodi.sourceforge.net/DTD/sodipodi-0.dtd"
   xmlns:inkscape="http://www.inkscape.org/namespaces/inkscape"
   version="1.1"
   id="svg2"
   width="1920"
   height="1080"
   viewBox="0 0 1920 1080"
   sodipodi:docname="LOADING.svg"
   inkscape:version="0.92.3 (2405546, 2018-03-11)">
  <metadata
     id="metadata8">
    <rdf:RDF>
      <cc:Work
         rdf:about="">
        <dc:format>image/svg+xml</dc:format>
        <dc:type
           rdf:resource="http://purl.org/dc/dcmitype/StillImage" />
        <dc:title></dc:title>
      </cc:Work>
    </rdf:RDF>
  </metadata>
  <defs
     id="defs6" />
  <sodipodi:namedview
     pagecolor="#ffffff"
     bordercolor="#666666"
     borderopacity="1"
     objecttolerance="10"
     gridtolerance="10"
     guidetolerance="10"
     inkscape:pageopacity="0"
     inkscape:pageshadow="2"
     inkscape:window-width="1920"
     inkscape:window-height="1017"
     id="namedview4"
     showgrid="false"
     inkscape:zoom="0.38645833"
     inkscape:cx="1006.2634"
     inkscape:cy="394.33106"
     inkscape:window-x="1920"
     inkscape:window-y="30"
     inkscape:window-maximized="1"
     inkscape:current-layer="g817" />
  <g
     id="g817"
     transform="translate(-36.226459,20.700809)">
    <path
       style="fill:#eee8d5"
       d="m 501.8887,596.69157 c -3.50852,-34.58448 -3.66903,-69.53769 -0.93371,-104.17704 3.81467,-9.672 -1.97455,-28.85753 8.90103,-32.23317 40.63958,10.15083 81.15554,21.02281 121.42064,32.61842 1.62358,12.88318 -2.33818,26.16833 -1.39064,39.28135 0.48255,13.88757 -1.15297,28.11315 1.09376,41.78109 -0.42671,13.7508 -21.29539,7.73348 -30.97978,11.42382 -12.26347,2.00992 -24.95367,2.40705 -36.9624,5.1372 -15.52217,1.23905 -30.95592,4.37544 -46.54504,5.5083 -4.59214,1.0483 -10.12559,2.74016 -14.60386,0.66003 z"
       id="path849"
       inkscape:connector-curvature="0"
       sodipodi:nodetypes="cccccccccc" />
    <path
       style="fill:#93a1a1"
       d="M 555.68283,761.25 C 544.303,739.36849 536.23394,721.79015 531.00975,707.5 c -1.80963,-4.95 -3.85674,-10.35 -4.54916,-12 -2.11115,-5.03082 -7.16403,-21.47788 -10.46728,-34.07087 -1.72102,-6.56102 -3.35378,-12.71628 -3.62836,-13.67835 -0.65552,-2.29681 2.02192,-3.27088 12.68641,-4.61537 9.27209,-1.16896 57.47463,-7.4648 77.44864,-10.11574 33.15065,-4.39974 37.01946,-4.77515 37.74268,-3.66238 0.40847,0.62849 1.91257,4.96771 3.34244,9.64271 4.20015,13.73256 13.08436,35.44251 20.75912,50.72819 7.10221,14.14533 7.13221,14.23913 5.14979,16.10511 -3.1575,2.97206 -106.448,62.1667 -108.47652,62.1667 -1.23877,0 -2.95088,-2.16634 -5.33468,-6.75 z"
       id="path847"
       inkscape:connector-curvature="0"
       sodipodi:nodetypes="ccccscsccscsc" />
    <path
       style="fill:#839496"
       d="m 668,894.89125 c -22.00331,-18.15791 -43.25638,-39.20335 -60.32859,-59.73922 -9.80693,-11.79658 -18.67499,-23.55493 -18.65954,-24.74105 0.007,-0.50104 2.77069,-2.48598 6.14258,-4.41098 3.3719,-1.925 7.75406,-4.49103 9.73814,-5.70229 1.98408,-1.21126 4.28241,-2.52226 5.10741,-2.91332 0.825,-0.39107 5.03106,-2.77504 9.3468,-5.29771 4.31574,-2.52268 9.38826,-5.48668 11.27227,-6.58668 1.88402,-1.1 6.22796,-3.51266 9.65321,-5.36147 3.42524,-1.84882 8.16278,-4.66132 10.52785,-6.25 2.36507,-1.58869 4.51799,-2.88853 4.78425,-2.88853 0.38153,0 16.54186,-9.25062 24.41562,-13.97617 0.825,-0.49514 5.5328,-3.20925 10.46178,-6.03136 l 8.96179,-5.13112 2.03539,2.81933 c 6.92499,9.59214 36.14586,39.12015 47.32192,47.81932 2.8264,2.2 5.15696,4.32085 5.17901,4.713 0.0321,0.57065 -19.90442,27.02299 -33.74311,44.7713 -1.49423,1.91637 -8.91466,11.59137 -16.48985,21.5 -7.5752,9.90864 -15.72043,20.4907 -18.10052,23.5157 -2.38009,3.025 -5.12146,6.7375 -6.09193,8.25 -0.97048,1.5125 -2.05025,2.72879 -2.39949,2.70287 -0.34924,-0.0259 -4.45999,-3.20365 -9.13499,-7.06162 z"
       id="path845"
       inkscape:connector-curvature="0"
       sodipodi:nodetypes="ssccscccccscsccscsssccs" />
    <path
       style="fill:#729298"
       d="M 676,900.55902 C 676,899.70156 676.45,899 677,899 c 0.55,0 1,0.42344 1,0.94098 0,0.51754 -0.45,1.2191 -1,1.55902 -0.55,0.33992 -1,-0.0835 -1,-0.94098 z M 666.5,893 c -0.33992,-0.55 -0.14148,-1 0.44098,-1 0.58246,0 1.05902,0.45 1.05902,1 0,0.55 -0.19844,1 -0.44098,1 -0.24254,0 -0.7191,-0.45 -1.05902,-1 z m -6.92857,-5.57143 c -2.16047,-2.16047 -1.96936,-2.69403 0.42857,-1.1965 1.1,0.68696 2,1.59078 2,2.00848 0,1.153 -0.69645,0.92014 -2.42857,-0.81198 z M 686,888 c 0,-0.55 0.47656,-1 1.05902,-1 0.58246,0 0.7809,0.45 0.44098,1 -0.33992,0.55 -0.81648,1 -1.05902,1 C 686.19844,889 686,888.55 686,888 Z m -33.5,-6.76531 c -0.55,-0.40408 -1.675,-1.60078 -2.5,-2.65934 -1.46901,-1.88487 -1.44318,-1.88766 1.25,-0.13499 1.5125,0.98431 2.75,2.18791 2.75,2.67465 0,1.0622 -0.19584,1.07783 -1.5,0.11968 z M 699,871 c 0,-0.55 0.47656,-1 1.05902,-1 0.58246,0 0.7809,0.45 0.44098,1 -0.33992,0.55 -0.81648,1 -1.05902,1 C 699.19844,872 699,871.55 699,871 Z m -64.47412,-5.97385 c -3.25133,-3.28562 -5.58798,-6.29738 -5.19255,-6.69282 C 630.06676,857.59991 642,868.79709 642,870.2187 c 0,1.77035 -1.86834,0.47234 -7.47412,-5.19255 z M 702,867 c 0,-0.55 0.47656,-1 1.05902,-1 0.58246,0 0.7809,0.45 0.44098,1 -0.33992,0.55 -0.81648,1 -1.05902,1 C 702.19844,868 702,867.55 702,867 Z m 7,-9 c 0,-0.55 0.47656,-1 1.05902,-1 0.58246,0 0.7809,0.45 0.44098,1 -0.33992,0.55 -0.81648,1 -1.05902,1 C 709.19844,859 709,858.55 709,858 Z m -89.81144,-10.03896 c -2.28527,-2.12905 -2.70442,-2.98265 -1.43856,-2.92962 0.73271,0.0307 4.69334,4.96858 3.98525,4.96858 -0.19697,0 -1.34298,-0.91753 -2.54669,-2.03896 z M 719,845 c 0,-0.55 0.47656,-1 1.05902,-1 0.58246,0 0.7809,0.45 0.44098,1 -0.33992,0.55 -0.81648,1 -1.05902,1 C 719.19844,846 719,845.55 719,845 Z m -108.36163,-6.5 c -0.31658,-0.825 -0.18787,-1.5 0.28603,-1.5 0.47389,0 1.12064,0.675 1.43723,1.5 0.31658,0.825 0.18787,1.5 -0.28603,1.5 -0.47389,0 -1.12064,-0.675 -1.43723,-1.5 z M 732,828 c 0,-0.55 0.47656,-1 1.05902,-1 0.58246,0 0.7809,0.45 0.44098,1 -0.33992,0.55 -0.81648,1 -1.05902,1 C 732.19844,829 732,828.55 732,828 Z m 3,-4 c 0,-0.55 0.47656,-1 1.05902,-1 0.58246,0 0.7809,0.45 0.44098,1 -0.33992,0.55 -0.81648,1 -1.05902,1 C 735.19844,825 735,824.55 735,824 Z m 7,-9 c 0,-0.55 0.47656,-1 1.05902,-1 0.58246,0 0.7809,0.45 0.44098,1 -0.33992,0.55 -0.81648,1 -1.05902,1 C 742.19844,816 742,815.55 742,815 Z m -152.5,-5 c 0.33992,-0.55 1.06803,-1 1.61803,-1 0.55,0 0.72189,0.45 0.38197,1 -0.33992,0.55 -1.06803,1 -1.61803,1 -0.55,0 -0.72189,-0.45 -0.38197,-1 z m 12.94113,-7.5318 c 1.06762,-0.80751 2.39113,-1.4682 2.94113,-1.4682 0.55,0 0.12649,0.66069 -0.94113,1.4682 -1.06762,0.8075 -2.39113,1.46819 -2.94113,1.46819 -0.55,0 -0.12649,-0.66069 0.94113,-1.46819 z M 752,801.44098 c 0,-0.85746 0.45734,-1.27636 1.01631,-0.9309 0.55897,0.34546 0.75742,1.04702 0.44098,1.55902 C 752.60006,803.45614 752,803.19751 752,801.44098 Z m -143.26667,-2.56507 c 0.67834,-0.68342 1.48524,-0.99067 1.79313,-0.68278 0.30789,0.30789 -0.24711,0.86705 -1.23333,1.24258 -1.4252,0.54268 -1.54006,0.42782 -0.5598,-0.5598 z m 138.29563,-1.83685 c -0.80907,-0.51167 -1.2107,-1.19066 -0.8925,-1.50885 0.3182,-0.3182 1.14776,0.10733 1.84348,0.94562 1.4426,1.73822 1.16599,1.90204 -0.95098,0.56323 z M 616,795 c 0,-0.55 0.47656,-1 1.05902,-1 0.58246,0 0.7809,0.45 0.44098,1 -0.33992,0.55 -0.81648,1 -1.05902,1 C 616.19844,796 616,795.55 616,795 Z m 123.66667,-3.66667 c -1.21466,-1.21466 -0.69095,-2.27988 0.83333,-1.69496 0.825,0.31659 1.5,0.97746 1.5,1.46862 0,1.0484 -1.37764,1.18204 -2.33333,0.22634 z M 627,788.53518 c 0,-0.25565 1.0125,-1.00432 2.25,-1.66372 2.04022,-1.08712 2.12204,-1.04378 0.87756,0.46482 C 628.84973,788.8853 627,789.59437 627,788.53518 Z m 100.32637,-9.02902 c -2.79144,-2.47161 -6.81933,-6.6285 -8.95086,-9.23754 -3.64232,-4.45827 -3.695,-4.61375 -0.87551,-2.58394 C 721.79023,770.7733 734.21271,784 732.8233,784 c -0.23187,0 -2.70549,-2.02223 -5.49693,-4.49384 z M 642,780 c 0,-0.55 0.47656,-1 1.05902,-1 0.58246,0 0.7809,0.45 0.44098,1 -0.33992,0.55 -0.81648,1 -1.05902,1 C 642.19844,781 642,780.55 642,780 Z m 11.5,-7 c 0.33992,-0.55 1.06803,-1 1.61803,-1 0.55,0 0.72189,0.45 0.38197,1 -0.33992,0.55 -1.06803,1 -1.61803,1 -0.55,0 -0.72189,-0.45 -0.38197,-1 z m 7.5,-4 c 0,-0.55 0.47656,-1 1.05902,-1 0.58246,0 0.7809,0.45 0.44098,1 -0.33992,0.55 -0.81648,1 -1.05902,1 C 661.19844,770 661,769.55 661,769 Z m 46.5841,-10.64144 c -0.52667,-1.37248 -0.38034,-1.43434 0.89301,-0.37756 1.73524,1.44013 1.91584,2.019 0.62988,2.019 -0.49116,0 -1.17646,-0.73865 -1.52289,-1.64144 z M 687,754 c 0,-0.55 0.47656,-1 1.05902,-1 0.58246,0 0.7809,0.45 0.44098,1 -0.33992,0.55 -0.81648,1 -1.05902,1 C 687.19844,755 687,754.55 687,754 Z m 15,-2.05902 c 0,-0.58246 0.45,-0.7809 1,-0.44098 0.55,0.33992 1,0.81648 1,1.05902 0,0.24254 -0.45,0.44098 -1,0.44098 -0.55,0 -1,-0.47656 -1,-1.05902 z M 698,748 c 0,-0.55 0.45,-1 1,-1 0.55,0 1,0.45 1,1 0,0.55 -0.45,1 -1,1 -0.55,0 -1,-0.45 -1,-1 z"
       id="path843"
       inkscape:connector-curvature="0"
       sodipodi:nodetypes="ssssssssssssssssssscccscsssssscssssssssssssccscssssscscscsssssssssssssssssssscscscsscscsccsccssssssccscsccssccsssssssssssssssssccscsssssssssssssss" />
    <path
       style="fill:#6c71c4"
       d="m 1284.4085,768.32518 c -26.8997,-20.61974 -49.7201,-38.2774 -50.7122,-39.23925 -1.7323,-1.67968 -1.5314,-2.18044 5.0827,-12.66737 8.8528,-14.03654 14.3592,-24.14024 20.8878,-38.32698 2.8875,-6.27463 5.6537,-11.81209 6.1471,-12.30547 0.7702,-0.77017 123.6942,31.38862 125.0101,32.70454 1.3299,1.32992 -10.2122,27.75964 -22.7058,51.99265 -11.5059,22.31745 -30.7587,53.66207 -33.7097,54.88133 -0.6004,0.24805 -23.1004,-16.41971 -50,-37.03945 z"
       id="path841"
       inkscape:connector-curvature="0"
       sodipodi:nodetypes="ccccssccc" />
    <path
       style="fill:#d33682"
       d="m 656.409,286.47737 c -26.89995,-20.63744 -49.05678,-38.1993 -49.2374,-39.02634 -0.66147,-3.02886 31.05418,-36.38281 51.40817,-54.06371 11.76918,-10.22352 27.40629,-22.37032 39.7512,-30.87844 8.31886,-5.73336 10.03675,-6.56274 11.16884,-5.3922 1.3706,1.41716 60.95699,104.30419 62.03679,107.11811 0.43267,1.1275 -2.75468,4.11306 -11.53649,10.80611 -15.88401,12.10598 -27.97476,22.94654 -41.58277,37.2831 -6.09546,6.4218 -11.53641,11.676 -12.091,11.676 -0.55459,0 -23.01739,-16.88518 -49.91734,-37.52263 z"
       id="path839"
       inkscape:connector-curvature="0"
       sodipodi:nodetypes="scssccssss" />
    <path
       style="fill:#268bd2"
       d="m 1343.5,633.25441 c -33.55,-9.01807 -61.2962,-16.70203 -61.6582,-17.07545 -0.362,-0.37343 0.41,-6.07896 1.7156,-12.67896 2.6543,-13.41875 5.0606,-32.46439 6.1908,-49 l 0.7518,-11 61.5,-8.17702 c 33.825,-4.49736 62.8053,-8.20986 64.4006,-8.25 l 2.9005,-0.073 -0.6081,24.25 c -0.8093,32.26929 -3.3365,55.05223 -9.2899,83.75 -1.4262,6.875 -3.1129,12.98396 -3.7481,13.57546 -0.8343,0.77688 -18.09,-3.4766 -62.155,-15.32105 z"
       id="path837"
       inkscape:connector-curvature="0"
       sodipodi:nodetypes="cccccsccccccc" />
    <path
       style="fill:#657b83"
       d="M 827,979.14147 C 815.86695,975.93082 805.00445,971.77082 794.0853,968 c -17.87413,-6.76107 -35.17732,-15.24536 -52.22401,-23.94388 -7.58762,-4.14035 -15.53428,-7.84246 -22.38498,-13.16367 2.35508,-6.13176 8.81296,-12.16868 12.91168,-18.19926 6.95739,-9.19541 14.26527,-18.12001 20.98823,-27.50178 5.68708,-6.86257 10.7652,-14.1929 16.38853,-21.10778 5.99008,-8.00382 12.29751,-15.7682 18.16417,-23.87489 4.28008,-5.01086 8.10626,-14.09701 15.46973,-7.31599 10.02859,4.38715 19.57196,9.91435 29.65275,14.10725 9.81621,3.73381 19.39941,8.13059 29.65046,10.65066 4.58734,3.84451 -2.00953,12.92386 -2.69249,18.84934 -8.47913,32.31401 -17.20454,64.56807 -25.85131,96.83945 -0.88502,3.74046 -2.31389,8.26741 -7.15806,5.80202 z"
       id="path835"
       inkscape:connector-curvature="0" />
    <path
       style="fill:#299f97"
       d="m 1286.5198,490.75 c -0.2296,-0.6875 -1.1502,-5.3 -2.0457,-10.25 -2.4571,-13.5809 -7.7862,-33.48371 -12.8177,-47.87057 -2.4756,-7.07882 -4.291,-13.37882 -4.0341,-14 0.4435,-1.07285 108.4668,-63.79817 110.9599,-64.43054 1.9313,-0.48988 13.0084,27.32135 20.453,51.35139 6.8751,22.19154 16.8544,68.78187 14.9807,69.9399 C 1413.1424,476.03005 1292.3851,492 1289.1764,492 c -1.2315,0 -2.427,-0.5625 -2.6566,-1.25 z"
       id="path833"
       inkscape:connector-curvature="0"
       sodipodi:nodetypes="sccccccss" />
    <path
       style="fill:#b58900"
       d="m 1142.0446,264.99755 c -15.5673,-10.56015 -33.4222,-20.68504 -47.393,-26.87487 -4.8016,-2.12741 -8.9564,-4.09412 -9.2327,-4.37047 -0.2764,-0.27635 6.9413,-28.25362 16.0393,-62.1717 9.098,-33.91809 16.5418,-61.87428 16.5418,-62.12488 0,-3.2578 45.3355,17.17571 71.8148,32.36819 20.0709,11.51565 46.1852,29.11803 46.1852,31.13118 0,1.47796 -77.0642,101.53293 -78.3287,101.69673 -0.6442,0.0835 -7.6762,-4.26093 -15.6267,-9.65418 z"
       id="path831"
       inkscape:connector-curvature="0"
       sodipodi:nodetypes="sccsssscs" />
    <path
       style="fill:#586e75"
       d="m 939.83185,997.98847 c -8.30026,-1.82962 -16.96871,-0.34271 -25.37069,-1.71978 -8.43086,-1.56054 -17.20664,-0.97552 -25.48055,-3.27907 -3.27454,-0.60506 -6.96933,-0.8972 -4.80827,-5.49024 5.76395,-25.3738 13.02313,-50.38503 19.65874,-75.54117 4.1675,-13.83398 6.93034,-28.11319 12.04811,-41.64278 5.3301,-2.08898 12.01188,1.32409 17.96191,0.59588 6.07163,0.48531 12.57643,-0.99738 18.24788,1.64892 6.90597,1.76434 13.36391,-1.1861 20.11341,-1.36799 4.63066,1.17958 15.45571,-2.8903 14.78743,4.69985 1.71515,17.09008 4.64896,34.03448 6.53138,51.10793 2.94635,20.85297 5.37652,41.77307 8.3552,62.62159 1.9498,4.96967 -0.943,8.21157 -6.21057,7.2607 -18.07361,1.2078 -36.2328,2.25005 -54.34262,1.41656 l -0.6858,-0.0912 -0.80556,-0.2192 z"
       id="path829"
       inkscape:connector-curvature="0" />
    <path
       style="fill:#cb4b16"
       d="M 813.6179,235.75 C 795.48617,204.50624 753,130.65572 753,130.38245 c 0,-0.7268 15.95759,-8.35397 28.72014,-13.72723 16.31161,-6.86747 37.91248,-14.36609 55.3193,-19.203767 16.29382,-4.528357 45.23227,-10.582102 46.08701,-9.641116 0.34454,0.379315 4.31904,28.765233 8.83222,63.079823 8.64423,65.72375 8.54686,64.05371 3.7369,64.09453 -3.49741,0.0297 -26.57212,5.94744 -39.16419,10.04408 -7.00877,2.2802 -18.63337,6.58154 -25.83243,9.55852 C 823.49988,237.56428 817.26652,240 816.84702,240 c -0.41949,0 -1.8726,-1.9125 -3.22912,-4.25 z"
       id="path827"
       inkscape:connector-curvature="0"
       sodipodi:nodetypes="cssscscsssc" />
    <path
       style="fill:#dc322f"
       d="m 1026.5,215.90518 c -14.1656,-3.28167 -34.49983,-5.87929 -55,-7.02605 -11,-0.61533 -20.19174,-1.2941 -20.42609,-1.50838 C 950.39854,206.75322 934.19539,82.584418 934.68129,81.75 c 0.80189,-1.377054 50.41994,-0.805328 66.86931,0.770506 30.5824,2.929755 68.0393,9.852699 67.8456,12.539532 -0.057,0.791979 -7.3696,28.542232 -16.25,61.667232 -8.8804,33.125 -16.1462,60.4625 -16.1462,60.75 0,0.74104 -1.4564,0.52299 -10.5,-1.57209 z"
       id="path825"
       inkscape:connector-curvature="0"
       sodipodi:nodetypes="ssssscsss" />
    <path
       style="fill:#7b9114"
       d="m 1054.2438,987.69056 c -0.7466,-0.98483 -16.4446,-116.93176 -16.6723,-123.14221 -0.06,-1.62661 1.5107,-2.39552 9.4285,-4.61673 5.225,-1.4658 13.775,-4.11662 19,-5.89072 8.1578,-2.76991 14.0305,-5.14751 33.6968,-13.64243 l 3.1969,-1.38089 5.4188,9.24121 c 5.2696,8.98673 13.7604,23.6775 35.6844,61.74121 5.8606,10.175 13.2088,22.90342 16.3294,28.28538 3.1205,5.38196 5.6737,10.25067 5.6737,10.81934 0,0.56867 -5.0722,3.42642 -11.2715,6.35055 -26.6298,12.56094 -61.689,24.6793 -89.7285,31.01508 -4.125,0.93208 -8.0296,1.85581 -8.6769,2.05273 -0.6473,0.19692 -1.583,-0.17771 -2.0793,-0.83252 z m 181.5537,-628.3616 c -10.1065,-15.27052 -19.371,-27.32334 -31.1995,-40.58962 -5.46,-6.12363 -8.4306,-10.22246 -7.9723,-11 2.6985,-4.57796 77.9459,-101.74238 78.802,-101.75441 1.4314,-0.0201 21.7452,20.9182 33.446,34.47439 18.043,20.90391 47.1263,62.22421 47.1263,66.95501 0,1.28706 -105.9314,63.23196 -109.9129,64.27315 -1.3953,0.36488 -3.7041,-2.40813 -10.2896,-12.35852 z m -82.2975,-86.91657 -3,-2.57768 3.1592,2.0861 c 1.9102,1.26131 3.853,1.81985 4.9141,1.4127 1.1981,-0.45977 1.5254,-0.30224 1.0317,0.49655 -1.1118,1.799 -2.8241,1.4014 -6.105,-1.41767 z m 6.5,-0.78995 c 0,-0.20765 0.7875,-0.99515 1.75,-1.75 1.5861,-1.24387 1.6214,-1.2085 0.3776,0.37756 -1.3064,1.66575 -2.1276,2.19548 -2.1276,1.37244 z m -13,-3.71179 c -2.1538,-1.76168 -2.1961,-1.89635 -0.3057,-0.97239 1.2069,0.58987 2.4709,1.52008 2.809,2.06712 0.9026,1.4604 0.2964,1.19531 -2.5033,-1.09473 z m 17.8852,-2.74946 c 1.1118,-1.56135 2.812,-3.47385 3.7783,-4.25 0.9662,-0.77616 0.2369,0.50131 -1.6207,2.83881 -3.815,4.80052 -5.23,5.72601 -2.1576,1.41119 z m -30.1428,-5.0752 c -4.1096,-2.63459 -4.679,-3.56232 -1.0558,-1.72028 1.7526,0.89104 3.4667,2.07327 3.809,2.62718 0.8019,1.29748 0.5623,1.21855 -2.7532,-0.9069 z M 1170,258.62244 c 0,-0.20765 0.7875,-0.99515 1.75,-1.75 1.5861,-1.24387 1.6214,-1.2085 0.3776,0.37756 -1.3064,1.66575 -2.1276,2.19548 -2.1276,1.37244 z m 4.8852,-6.46125 c 1.1118,-1.56135 2.812,-3.47385 3.7783,-4.25 0.9662,-0.77616 0.2369,0.50131 -1.6207,2.83881 -3.815,4.80052 -5.23,5.72601 -2.1576,1.41119 z m -58.1352,-2.73316 c -3.7384,-2.02814 -3.5109,-2.87286 0.25,-0.92803 1.65,0.85325 3,1.7648 3,2.02568 0,0.6435 -0.1074,0.60721 -3.25,-1.09765 z m 63.25,-3.80559 c 0,-0.20765 0.7875,-0.99515 1.75,-1.75 1.5861,-1.24387 1.6214,-1.2085 0.3776,0.37756 -1.3064,1.66575 -2.1276,2.19548 -2.1276,1.37244 z m 6.1042,-8.11794 c 1.7756,-2.47253 4.1238,-5.28503 5.2183,-6.25 1.0944,-0.96498 -0.1777,1.058 -2.8268,4.4955 -5.5623,7.21755 -7.1528,8.38436 -2.3915,1.7545 z m -100.7591,-4.04763 c -0.3257,-0.84872 -0.3687,-1.76657 -0.096,-2.03966 0.2731,-0.2731 0.7365,0.42131 1.0299,1.54313 0.6231,2.38293 -0.069,2.75089 -0.9343,0.49653 z m 0.7338,-5.0402 c 0.048,-1.16495 0.285,-1.4019 0.6042,-0.60417 0.2889,0.72187 0.2534,1.58437 -0.079,1.91667 -0.3323,0.33229 -0.5687,-0.25834 -0.5253,-1.3125 z M 1193,228.62244 c 0,-0.20765 0.7875,-0.99515 1.75,-1.75 1.5861,-1.24387 1.6214,-1.2085 0.3776,0.37756 -1.3064,1.66575 -2.1276,2.19548 -2.1276,1.37244 z m 4.785,-6.13363 c 0.5663,-1.10615 2.0839,-2.90293 3.3724,-3.99284 2.2601,-1.91186 2.2551,-1.87624 -0.1424,1.01118 -3.9824,4.79624 -4.3175,5.10557 -3.23,2.98166 z m -108.7061,-5.07214 c 0.048,-1.16495 0.285,-1.4019 0.6042,-0.60417 0.2889,0.72187 0.2534,1.58437 -0.079,1.91667 -0.3323,0.33229 -0.5687,-0.25834 -0.5253,-1.3125 z M 1203,215.62244 c 0,-0.20765 0.7875,-0.99515 1.75,-1.75 1.5861,-1.24387 1.6214,-1.2085 0.3776,0.37756 -1.3064,1.66575 -2.1276,2.19548 -2.1276,1.37244 z m -112.9211,-2.20577 c 0.048,-1.16495 0.285,-1.4019 0.6042,-0.60417 0.2889,0.72187 0.2534,1.58437 -0.079,1.91667 -0.3323,0.33229 -0.5687,-0.25834 -0.5253,-1.3125 z m 117.78,-4.16667 c 1.0972,-1.5125 3.4143,-4.325 5.1491,-6.25 1.7348,-1.925 1.0263,-0.6875 -1.5745,2.75 -4.6164,6.10182 -7.536,8.9604 -3.5746,3.5 z m -114.78,-6.83333 c 0.048,-1.16495 0.285,-1.4019 0.6042,-0.60417 0.2889,0.72187 0.2534,1.58437 -0.079,1.91667 -0.3323,0.33229 -0.5687,-0.25834 -0.5253,-1.3125 z m 126.0253,-7.91217 c 1.7756,-2.47253 4.1238,-5.28503 5.2183,-6.25 1.0944,-0.96498 -0.1777,1.058 -2.8268,4.4955 -5.5623,7.21755 -7.1528,8.38436 -2.3915,1.7545 z m -122.0253,-7.08783 c 0.048,-1.16495 0.285,-1.4019 0.6042,-0.60417 0.2889,0.72187 0.2534,1.58437 -0.079,1.91667 -0.3323,0.33229 -0.5687,-0.25834 -0.5253,-1.3125 z M 1226,185.62244 c 0,-0.20765 0.7875,-0.99515 1.75,-1.75 1.5861,-1.24387 1.6214,-1.2085 0.3776,0.37756 -1.3064,1.66575 -2.1276,2.19548 -2.1276,1.37244 z m 4.9785,-6.5922 c 1.163,-1.63337 2.6253,-3.28538 3.2495,-3.67115 0.6242,-0.38576 -0.1252,0.95063 -1.6653,2.96976 -3.3426,4.38248 -4.6026,4.94029 -1.5842,0.70139 z m -130.8996,-2.61357 c 0.048,-1.16495 0.285,-1.4019 0.6042,-0.60417 0.2889,0.72187 0.2534,1.58437 -0.079,1.91667 -0.3323,0.33229 -0.5687,-0.25834 -0.5253,-1.3125 z m 1,-4 c 0.048,-1.16495 0.285,-1.4019 0.6042,-0.60417 0.2889,0.72187 0.2534,1.58437 -0.079,1.91667 -0.3323,0.33229 -0.5687,-0.25834 -0.5253,-1.3125 z m 132.3272,-0.86612 c -1.1516,-1.1278 -3.6266,-3.29917 -5.5,-4.82526 -1.8734,-1.52609 -1.0444,-1.14699 1.842,0.84246 4.9498,3.41153 6.9006,5.26559 6.102,5.79933 -0.1925,0.12872 -1.2924,-0.68872 -2.444,-1.81653 z m -18.165,-13.06801 c -4.5326,-3.0346 -8.2411,-5.74831 -8.2411,-6.03047 0,-0.49711 14.5352,8.94349 16.45,10.68427 2.2941,2.08563 -0.5563,0.46965 -8.2089,-4.6538 z m -111.1622,2.93413 c 0.048,-1.16495 0.285,-1.4019 0.6042,-0.60417 0.2889,0.72187 0.2534,1.58437 -0.079,1.91667 -0.3323,0.33229 -0.5687,-0.25834 -0.5253,-1.3125 z m 98.1711,-11.40571 c -1.7875,-1.08986 -3.25,-2.198 -3.25,-2.46254 0,-0.26453 1.575,0.4483 3.5,1.58408 1.925,1.13578 3.5,2.2456 3.5,2.46628 0,0.63971 -0.3161,0.50588 -3.75,-1.58782 z m -94.1711,-3.59429 c 0.048,-1.16495 0.285,-1.4019 0.6042,-0.60417 0.2889,0.72187 0.2534,1.58437 -0.079,1.91667 -0.3323,0.33229 -0.5687,-0.25834 -0.5253,-1.3125 z m 82.4282,-3.40522 c -0.3504,-0.56686 0.051,-0.7345 0.941,-0.39301 1.7324,0.66479 2.0493,1.38156 0.6109,1.38156 -0.5175,0 -1.2159,-0.44485 -1.5519,-0.98855 z m -7,-4 c -0.3504,-0.56686 0.051,-0.7345 0.941,-0.39301 1.7324,0.66479 2.0493,1.38156 0.6109,1.38156 -0.5175,0 -1.2159,-0.44485 -1.5519,-0.98855 z m -10.066,-5.56662 c -1.8303,-1.46637 -1.7984,-1.48719 0.5589,-0.36454 3.061,1.45781 3.6283,1.91971 2.3578,1.91971 -0.5365,0 -1.849,-0.69982 -2.9167,-1.55517 z m -61.3622,-2.02816 c 0.048,-1.16495 0.285,-1.4019 0.6042,-0.60417 0.2889,0.72187 0.2534,1.58437 -0.079,1.91667 -0.3323,0.33229 -0.5687,-0.25834 -0.5253,-1.3125 z m 43.3622,-6.97184 c -1.8303,-1.46637 -1.7984,-1.48719 0.5589,-0.36454 3.061,1.45781 3.6283,1.91971 2.3578,1.91971 -0.5365,0 -1.849,-0.69982 -2.9167,-1.55517 z m -40.3622,-4.02816 c 0.048,-1.16495 0.285,-1.4019 0.6042,-0.60417 0.2889,0.72187 0.2534,1.58437 -0.079,1.91667 -0.3323,0.33229 -0.5687,-0.25834 -0.5253,-1.3125 z m 28.4282,-1.40522 c -0.3504,-0.56686 0.051,-0.7345 0.941,-0.39301 1.7324,0.66479 2.0493,1.38156 0.6109,1.38156 -0.5175,0 -1.2159,-0.44485 -1.5519,-0.98855 z m -27.4282,-2.59478 c 0.048,-1.16495 0.285,-1.4019 0.6042,-0.60417 0.2889,0.72187 0.2534,1.58437 -0.079,1.91667 -0.3323,0.33229 -0.5687,-0.25834 -0.5253,-1.3125 z M 1136,116 c -0.825,-0.53316 -1.05,-0.96937 -0.5,-0.96937 0.55,0 1.675,0.43621 2.5,0.96937 0.825,0.53316 1.05,0.96937 0.5,0.96937 -0.55,0 -1.675,-0.43621 -2.5,-0.96937 z m -17.9977,-6.25 c 0,-1.00892 3.1716,-0.92611 4.8313,0.12603 0.8801,0.55785 0.2856,0.80774 -1.7477,0.73468 -1.6947,-0.0609 -3.0824,-0.44821 -3.0836,-0.86071 z"
       id="path823"
       inkscape:connector-curvature="0" />
    <path
       style="fill:#839700"
       d="m 1239.3864,361.71873 c -8.0969,-12.79476 -21.7402,-30.73927 -32.4551,-42.68692 -5.684,-6.33791 -8.7546,-10.52305 -8.2899,-11.29915 1.5008,-2.50676 75.4836,-98.69188 76.2981,-99.19529 1.9397,-1.1988 30.8065,29.76621 46.6838,50.07709 11.3091,14.46699 32.528,46.35816 32.1525,48.32393 -0.2215,1.15954 -84.3875,50.87757 -105.9157,62.56581 l -2.6398,1.43325 z"
       id="path821"
       inkscape:connector-curvature="0"
       sodipodi:nodetypes="ccccccccc" />
    <path
       style="fill:#073642"
       d="m 1054.2438,987.69056 c -5.8814,-37.57719 -10.6411,-75.33286 -15.5485,-113.05088 -1.1636,-5.85654 -2.9818,-13.85829 5.6238,-13.93867 19.7106,-5.16022 38.616,-12.79406 57.1874,-21.08425 2.4618,-1.56091 2.8821,3.11481 4.3787,4.50247 19.6146,33.71631 39.1573,67.48038 58.4481,101.3808 4.2648,7.06953 -9.1489,8.25477 -13.4036,11.71815 -30.3308,13.69293 -62.1092,24.15451 -94.6066,31.3049 l -1.0963,-0.0969 z"
       id="path819"
       inkscape:connector-curvature="0" />
    <path
       style="fill:#002b36"
       d="m 1214.023,922.53833 c -18.9317,-32.98828 -36.8797,-66.54438 -54.9522,-100.01252 -3.1812,-5.05301 -7.741,-11.87523 0.2667,-15.02806 16.5613,-11.86832 31.4861,-25.75868 45.8641,-40.14252 1.7408,-2.33812 3.8055,1.87802 5.6994,2.63864 30.3758,24.47114 60.7014,49.01259 90.8406,73.77149 6.5111,5.07661 -5.5915,10.98077 -8.3261,15.73677 -23.4274,23.635 -49.3623,44.76996 -77.153,63.06998 l -1.0584,0.3015 z"
       id="path819-3"
       inkscape:connector-curvature="0" />
    <path
       inkscape:connector-curvature="0"
       id="path874"
       d="m 636.7862,446.45287 c -38.1248,-10.88789 -76.72389,-20.27608 -114.85489,-31.15211 -9.99458,-6.23283 2.79338,-21.5948 3.80447,-31.29662 12.26955,-33.95922 28.30511,-66.63057 48.42319,-96.64092 10.64852,1.49871 21.43846,15.05426 32.00657,21.17259 24.17215,18.48905 48.6452,36.62095 72.23367,55.84836 -3.97381,13.33702 -13.76509,24.46076 -18.59154,37.65937 -6.37508,14.19762 -11.63721,28.86589 -17.04206,43.42794 -1.08095,2.24782 -4.13678,1.63264 -5.97941,0.98139 z"
       style="fill:#fdf6e3"
       sodipodi:nodetypes="ccccccccc" />
  </g>
</svg>
