<?xml version="1.0" encoding="UTF-8" standalone="no"?>
<!-- Generator: Adobe Illustrator 22.0.1, SVG Export Plug-In . SVG Version: 6.00 Build 0)  -->

<svg
   xmlns:dc="http://purl.org/dc/elements/1.1/"
   xmlns:cc="http://creativecommons.org/ns#"
   xmlns:rdf="http://www.w3.org/1999/02/22-rdf-syntax-ns#"
   xmlns:svg="http://www.w3.org/2000/svg"
   xmlns="http://www.w3.org/2000/svg"
   xmlns:xlink="http://www.w3.org/1999/xlink"
   xmlns:sodipodi="http://sodipodi.sourceforge.net/DTD/sodipodi-0.dtd"
   xmlns:inkscape="http://www.inkscape.org/namespaces/inkscape"
   version="1.1"
   id="Layer_1"
   x="0px"
   y="0px"
   viewBox="0 0 700 700"
   style="enable-background:new 0 0 700 700;"
   xml:space="preserve"
   sodipodi:docname="good_boy.svg"
   inkscape:version="0.92.3 (2405546, 2018-03-11)"><metadata
   id="metadata47"><rdf:RDF><cc:Work
       rdf:about=""><dc:format>image/svg+xml</dc:format><dc:type
         rdf:resource="http://purl.org/dc/dcmitype/StillImage" /></cc:Work></rdf:RDF></metadata><defs
   id="defs45" /><sodipodi:namedview
   pagecolor="#ffffff"
   bordercolor="#666666"
   borderopacity="1"
   objecttolerance="10"
   gridtolerance="10"
   guidetolerance="10"
   inkscape:pageopacity="0"
   inkscape:pageshadow="2"
   inkscape:window-width="1920"
   inkscape:window-height="1017"
   id="namedview43"
   showgrid="false"
   inkscape:zoom="0.67428571"
   inkscape:cx="183.3588"
   inkscape:cy="133.22762"
   inkscape:window-x="0"
   inkscape:window-y="30"
   inkscape:window-maximized="1"
   inkscape:current-layer="Layer_1" />
<style
   type="text/css"
   id="style2">
	.st0{fill:#DFE5F4;}
	.st1{clip-path:url(#SVGID_2_);fill:#D0D9EC;}
	.st2{fill:#D48B4D;}
	.st3{fill:#754114;}
	.st4{fill:#9C571A;}
	.st5{fill:#11201C;}
	.st6{fill:#5A2A00;}
</style>
<circle
   class="st0"
   cx="350"
   cy="350"
   r="350"
   id="circle4"
   style="fill:#fdf6e3" />
<g
   id="g14">
	<defs
   id="defs7">
		<circle
   id="SVGID_1_"
   cx="350"
   cy="350"
   r="350" />
	</defs>
	<clipPath
   id="SVGID_2_">
		<use
   xlink:href="#SVGID_1_"
   style="overflow:visible;"
   id="use9" />
	</clipPath>
	<polygon
   class="st1"
   points="497,876 161,516 487,261 794,607  "
   clip-path="url(#SVGID_2_)"
   id="polygon12"
   style="fill:#eee8d5" />
</g>
<g
   id="g40">
	<path
   class="st2"
   d="M249.4,605.8c0,0-69.7,14.4-97.6-66.7h17.5c0,0-22.1-35.7-17.5-90.8h17.5c0,0-18.2-52.3,21.2-99.9   c0,0,29.7,44.8,36.7,83.7h45.9L249.4,605.8z"
   id="path16" />
	<path
   class="st3"
   d="M353.7,297.4c124.4-7.9,99.4,106.6,99.4,106.6v225l-157.3,1.3c-80.5,0-96.3-26.3-96.3-82.1   C199.4,472.7,229.3,305.3,353.7,297.4z"
   id="path18" />
	<path
   class="st4"
   d="M350.7,630.3c0.1-0.8,0.1-1.6,0.1-2.5v-174c1.1-19.3,16.8-34.6,36.2-34.6c19.9,0,36.1,16.3,36.3,36.5v140.5   c0,13.9,0.2,25.1,0.5,34.1h65.3V378.9c0-46.9-45.1-96.5-92.1-96.5h7c-65.7,0-119,46.2-119,111.8v236.1H350.7z"
   id="path20" />
	<path
   class="st2"
   d="M344,631c5.6,0,9.7-5.4,8.1-10.7c-5.1-16.7-20.4-28.8-38.5-28.8c-18.1,0-33.4,12.1-38.5,28.8   c-1.6,5.3,2.5,10.7,8.1,10.7H344z"
   id="path22" />
	<path
   class="st2"
   d="M495.7,631c4,0,6.8-3.7,6-7.5c-4-18.3-20.1-32-39.4-32c-19.3,0-35.4,13.7-39.4,32c-0.8,3.9,2,7.5,6,7.5H495.7z   "
   id="path24" />
	<path
   class="st2"
   d="M462.6,336.2h-68.5h-75l-61.6-196.8c0-38.7,31.7-70.4,70.4-70.4h119.4c38.7,0,70.4,31.7,70.4,70.4L462.6,336.2   z"
   id="path26" />
	<path
   class="st5"
   d="M435.5,179.6c0,9.2,4.7,16.7,10.4,16.7c5.8,0,10.4-7.5,10.4-16.7s-4.7-16.7-10.4-16.7   C440.2,162.9,435.5,170.4,435.5,179.6z"
   id="path28"
   style="fill:#073642" />
	<path
   class="st5"
   d="M316.3,182.3c0,9.2,4.7,16.7,10.4,16.7c5.8,0,10.4-7.5,10.4-16.7s-4.7-16.7-10.4-16.7   C320.9,165.5,316.3,173,316.3,182.3z"
   id="path30"
   style="fill:#073642" />
	<path
   class="st4"
   d="M461.2,261.1l-27.7-33.4c-16.4-19-73.7-19-90.1,0l-28.3,33c-6.3,7.3-9.8,16.9-9.8,26.5v20.8   c0,22.1,17.5,40.3,39.7,40.3c14.4,0,27.6,2.7,34.7-7h16.8c7.1,9.7,20.1,7,34.5,7c22.1,0,39.7-18.2,39.7-40.3v-20.8   C470.6,277.7,467.5,268.4,461.2,261.1z"
   id="path32" />
	<path
   class="st6"
   d="M386.3,237.3L386.3,237.3c0,0,1.4,0,1.6,0c0.2,0-1.6,0,1.6,0v0c22.7,0.5,40,13.7,27,36   c-23.9,41.1-44.7,20.5-59.7,0C342.1,253.1,360.3,237.8,386.3,237.3z"
   id="path34" />
	<path
   class="st3"
   d="M309.4,72.4l-47.6,23.3c-22.7,11.1-36.8,34.6-35.9,59.9l0.3,8.4c0.7,21.3,6.4,42.2,16.5,61l13.4,25   c0,0,44.9-51,43.5-111.5C298.2,77.9,309.4,72.4,309.4,72.4z"
   id="path36" />
	<path
   class="st3"
   d="M465.2,72.4l47.6,23.3c22.7,11.1,36.8,34.6,35.9,59.9l-0.3,8.4c-0.7,21.3-6.4,42.2-16.5,61l-13.4,25   c0,0-44.9-51-43.5-111.5S465.2,72.4,465.2,72.4z"
   id="path38" />
</g>
</svg>