<?xml version="1.0" encoding="UTF-8" standalone="no"?>
<svg
   xmlns:ooo="http://xml.openoffice.org/svg/export"
   xmlns:dc="http://purl.org/dc/elements/1.1/"
   xmlns:cc="http://creativecommons.org/ns#"
   xmlns:rdf="http://www.w3.org/1999/02/22-rdf-syntax-ns#"
   xmlns:svg="http://www.w3.org/2000/svg"
   xmlns="http://www.w3.org/2000/svg"
   xmlns:sodipodi="http://sodipodi.sourceforge.net/DTD/sodipodi-0.dtd"
   xmlns:inkscape="http://www.inkscape.org/namespaces/inkscape"
   version="1.2"
   width="185.00999mm"
   height="81.019997mm"
   viewBox="0 0 18500.999 8101.9997"
   preserveAspectRatio="xMidYMid"
   xml:space="preserve"
   id="svg710"
   sodipodi:docname="lollipop_example.svg"
   style="fill-rule:evenodd;stroke-width:28.22200012;stroke-linejoin:round"
   inkscape:version="0.92.3 (2405546, 2018-03-11)"
   inkscape:dataloss="true"><metadata
   id="metadata714"><rdf:RDF><cc:Work
       rdf:about=""><dc:format>image/svg+xml</dc:format><dc:type
         rdf:resource="http://purl.org/dc/dcmitype/StillImage" /><dc:title></dc:title></cc:Work></rdf:RDF></metadata><sodipodi:namedview
   pagecolor="#ffffff"
   bordercolor="#666666"
   borderopacity="1"
   objecttolerance="10"
   gridtolerance="10"
   guidetolerance="10"
   inkscape:pageopacity="0"
   inkscape:pageshadow="2"
   inkscape:window-width="1920"
   inkscape:window-height="1017"
   id="namedview712"
   showgrid="false"
   fit-margin-top="0"
   fit-margin-left="0"
   fit-margin-right="0"
   fit-margin-bottom="0"
   inkscape:zoom="0.84096521"
   inkscape:cx="68.891228"
   inkscape:cy="-86.887563"
   inkscape:window-x="1920"
   inkscape:window-y="30"
   inkscape:window-maximized="1"
   inkscape:current-layer="svg710" />
 <defs
   class="ClipPathGroup"
   id="defs8">
  <clipPath
   id="presentation_clip_path"
   clipPathUnits="userSpaceOnUse">
   <rect
   x="0"
   y="0"
   width="21000"
   height="29700"
   id="rect2" />
  </clipPath>
  <clipPath
   id="presentation_clip_path_shrink"
   clipPathUnits="userSpaceOnUse">
   <rect
   x="21"
   y="29"
   width="20958"
   height="29641"
   id="rect5" />
  </clipPath>
 </defs>
 <defs
   id="defs31">
  
 </defs>
 <defs
   id="defs74">
  
 </defs>
 <defs
   id="defs139">
  
 </defs>
 <defs
   id="defs156">
  
 </defs>
 <defs
   id="defs195">
  
 </defs>
 <defs
   id="defs204">
  
 </defs>
 <defs
   id="defs213">
  
 </defs>
 <defs
   id="defs222">
  
 </defs>
 <defs
   class="TextShapeIndex"
   id="defs226">
  <g
   ooo:slide="id1"
   ooo:id-list="id3 id4 id5 id6 id7 id8 id9 id10 id11 id12 id13 id14 id15 id16 id17 id18 id19 id20 id21"
   id="g224" />
 </defs>
 <defs
   class="EmbeddedBulletChars"
   id="defs258">
  <g
   id="bullet-char-template-57356"
   transform="matrix(4.8828125e-4,0,0,-4.8828125e-4,0,0)">
   <path
   d="M 580,1141 1163,571 580,0 -4,571 Z"
   id="path228"
   inkscape:connector-curvature="0" />
  </g>
  <g
   id="bullet-char-template-57354"
   transform="matrix(4.8828125e-4,0,0,-4.8828125e-4,0,0)">
   <path
   d="M 8,1128 H 1137 V 0 H 8 Z"
   id="path231"
   inkscape:connector-curvature="0" />
  </g>
  <g
   id="bullet-char-template-10146"
   transform="matrix(4.8828125e-4,0,0,-4.8828125e-4,0,0)">
   <path
   d="M 174,0 602,739 174,1481 1456,739 Z M 1358,739 309,1346 659,739 Z"
   id="path234"
   inkscape:connector-curvature="0" />
  </g>
  <g
   id="bullet-char-template-10132"
   transform="matrix(4.8828125e-4,0,0,-4.8828125e-4,0,0)">
   <path
   d="M 2015,739 1276,0 H 717 l 543,543 H 174 v 393 h 1086 l -543,545 h 557 z"
   id="path237"
   inkscape:connector-curvature="0" />
  </g>
  <g
   id="bullet-char-template-10007"
   transform="matrix(4.8828125e-4,0,0,-4.8828125e-4,0,0)">
   <path
   d="m 0,-2 c -7,16 -16,29 -25,39 l 381,530 c -94,256 -141,385 -141,387 0,25 13,38 40,38 9,0 21,-2 34,-5 21,4 42,12 65,25 l 27,-13 111,-251 280,301 64,-25 24,25 c 21,-10 41,-24 62,-43 C 886,937 835,863 770,784 769,783 710,716 594,584 L 774,223 c 0,-27 -21,-55 -63,-84 l 16,-20 C 717,90 699,76 672,76 641,76 570,178 457,381 L 164,-76 c -22,-34 -53,-51 -92,-51 -42,0 -63,17 -64,51 -7,9 -10,24 -10,44 0,9 1,19 2,30 z"
   id="path240"
   inkscape:connector-curvature="0" />
  </g>
  <g
   id="bullet-char-template-10004"
   transform="matrix(4.8828125e-4,0,0,-4.8828125e-4,0,0)">
   <path
   d="M 285,-33 C 182,-33 111,30 74,156 52,228 41,333 41,471 c 0,78 14,145 41,201 34,71 87,106 158,106 53,0 88,-31 106,-94 l 23,-176 c 8,-64 28,-97 59,-98 l 735,706 c 11,11 33,17 66,17 42,0 63,-15 63,-46 V 965 c 0,-36 -10,-64 -30,-84 L 442,47 C 390,-6 338,-33 285,-33 Z"
   id="path243"
   inkscape:connector-curvature="0" />
  </g>
  <g
   id="bullet-char-template-9679"
   transform="matrix(4.8828125e-4,0,0,-4.8828125e-4,0,0)">
   <path
   d="M 813,0 C 632,0 489,54 383,161 276,268 223,411 223,592 c 0,181 53,324 160,431 106,107 249,161 430,161 179,0 323,-54 432,-161 108,-107 162,-251 162,-431 0,-180 -54,-324 -162,-431 C 1136,54 992,0 813,0 Z"
   id="path246"
   inkscape:connector-curvature="0" />
  </g>
  <g
   id="bullet-char-template-8226"
   transform="matrix(4.8828125e-4,0,0,-4.8828125e-4,0,0)">
   <path
   d="m 346,457 c -73,0 -137,26 -191,78 -54,51 -81,114 -81,188 0,73 27,136 81,188 54,52 118,78 191,78 73,0 134,-26 185,-79 51,-51 77,-114 77,-187 0,-75 -25,-137 -76,-188 -50,-52 -112,-78 -186,-78 z"
   id="path249"
   inkscape:connector-curvature="0" />
  </g>
  <g
   id="bullet-char-template-8211"
   transform="matrix(4.8828125e-4,0,0,-4.8828125e-4,0,0)">
   <path
   d="M -4,459 H 1135 V 606 H -4 Z"
   id="path252"
   inkscape:connector-curvature="0" />
  </g>
  <g
   id="bullet-char-template-61548"
   transform="matrix(4.8828125e-4,0,0,-4.8828125e-4,0,0)">
   <path
   d="m 173,740 c 0,163 58,303 173,419 116,115 255,173 419,173 163,0 302,-58 418,-173 116,-116 174,-256 174,-419 0,-163 -58,-303 -174,-418 C 1067,206 928,148 765,148 601,148 462,206 346,322 231,437 173,577 173,740 Z"
   id="path255"
   inkscape:connector-curvature="0" />
  </g>
 </defs>
 <defs
   class="TextEmbeddedBitmaps"
   id="defs260" />
 <g
   id="g265"
   transform="translate(-800,-700)">
  <g
   id="id2"
   class="Master_Slide">
   <g
   id="bg-id2"
   class="Background" />
   <g
   id="bo-id2"
   class="BackgroundObjects" />
  </g>
 </g>
 <g
   class="SlideGroup"
   id="g708"
   transform="translate(-800,-700)">
  <g
   id="g706">
   <g
   id="container-id1">
    <g
   id="id1"
   class="Slide"
   clip-path="url(#presentation_clip_path)">
     <g
   class="Page"
   id="g702">
      <g
   class="Group"
   id="g700">
       <g
   class="Graphic"
   id="g288">
        <g
   id="id3">
         <rect
   class="BoundingBox"
   x="1377"
   y="4600"
   width="2001"
   height="2001"
   id="rect267"
   style="fill:none;stroke:none" />
         <path
   d="m 2377,5257 c 46,0 83,-37 83,-83 v -208 c 0,-46 -37,-83 -83,-83 -46,0 -83,37 -83,83 v 208 c 0,46 37,83 83,83 z"
   id="path269"
   inkscape:connector-curvature="0"
   style="fill:#657b83;stroke:none" />
         <path
   d="m 2525,4892 c -16,28 -35,47 -63,63 -27,16 -54,23 -85,23 -31,0 -58,-7 -85,-23 -28,-16 -47,-35 -63,-63 -16,-27 -23,-54 -23,-85 0,-31 7,-58 23,-85 16,-28 35,-47 63,-63 27,-16 54,-23 85,-23 31,0 58,7 85,23 28,16 47,35 63,63 16,27 23,54 23,85 0,31 -7,58 -23,85 z"
   id="path271"
   inkscape:connector-curvature="0"
   style="fill:#073642;stroke:none" />
         <path
   d="m 2377,6126 h 821 c 50,0 90,-40 90,-90 v -245 c 0,-50 -40,-90 -90,-90 H 1556 c -50,0 -90,40 -90,90 v 245 c 0,50 40,90 90,90 z"
   id="path273"
   inkscape:connector-curvature="0"
   style="fill:#586e75;stroke:none" />
         <path
   d="m 2377,6465 h 554 c 111,0 201,-90 201,-201 v -550 c 0,-111 -90,-201 -201,-201 H 1823 c -111,0 -201,90 -201,201 v 550 c 0,111 90,201 201,201 z"
   id="path275"
   inkscape:connector-curvature="0"
   style="fill:#93a1a1;stroke:none" />
         <path
   d="m 2377,6224 h 44 c 393,0 711,-216 711,-483 v -120 c 0,-267 -318,-484 -711,-484 h -88 c -393,0 -711,217 -711,484 v 120 c 0,267 318,483 711,483 z"
   id="path277"
   inkscape:connector-curvature="0"
   style="fill:#93a1a1;stroke:none" />
         <path
   d="m 2686,6162 c -137,0 -248,-111 -248,-248 0,-137 111,-249 248,-249 137,0 248,112 248,249 0,137 -111,248 -248,248 z"
   id="path279"
   inkscape:connector-curvature="0"
   style="fill:#eee8d5;stroke:none" />
         <path
   d="m 2438,5914 c 0,-137 110,-248 247,-249 137,0 249,111 249,248 0,1 0,2 0,4 l -248,-3 z"
   id="path281"
   inkscape:connector-curvature="0"
   style="fill:#ffffff;fill-opacity:0.27099998;stroke:#ffffff;stroke-opacity:0.27099998" />
         <path
   d="m 2068,6162 c -137,0 -248,-111 -248,-248 0,-137 111,-249 248,-249 137,0 248,112 248,249 0,137 -111,248 -248,248 z"
   id="path283"
   inkscape:connector-curvature="0"
   style="fill:#eee8d5;stroke:none" />
         <path
   d="m 1820,5914 c -1,-137 110,-248 247,-249 137,0 249,111 249,248 0,1 0,2 0,4 l -248,-3 z"
   id="path285"
   inkscape:connector-curvature="0"
   style="fill:#ffffff;fill-opacity:0.27099998;stroke:#ffffff;stroke-opacity:0.27099998" />
        </g>
       </g>
       <g
   class="com.sun.star.drawing.CustomShape"
   id="g295">
        <g
   id="id4">
         <rect
   class="BoundingBox"
   x="936"
   y="759"
   width="6983"
   height="6983"
   id="rect290"
   style="fill:none;stroke:none" />
         <path
   d="M 4427,7700 H 977 V 800 h 6900 v 6900 z"
   id="path292"
   inkscape:connector-curvature="0"
   style="fill:none;stroke:#839496;stroke-width:81;stroke-linejoin:round" />
        </g>
       </g>
       <g
   class="com.sun.star.drawing.LineShape"
   id="g302">
        <g
   id="id5">
         <rect
   class="BoundingBox"
   x="3836"
   y="4459"
   width="83"
   height="3283"
   id="rect297"
   style="fill:none;stroke:none" />
         <path
   d="M 3877,4500 V 7700"
   id="path299"
   inkscape:connector-curvature="0"
   style="fill:none;stroke:#839496;stroke-width:81;stroke-linejoin:round" />
        </g>
       </g>
       <g
   class="com.sun.star.drawing.LineShape"
   id="g309">
        <g
   id="id6">
         <rect
   class="BoundingBox"
   x="2636"
   y="3212"
   width="5310"
   height="83"
   id="rect304"
   style="fill:none;stroke:none" />
         <path
   d="M 2677,3253 H 7904"
   id="path306"
   inkscape:connector-curvature="0"
   style="fill:none;stroke:#839496;stroke-width:81;stroke-linejoin:round" />
        </g>
       </g>
       <g
   class="com.sun.star.drawing.TextShape"
   id="g322">
        <g
   id="id7">
         <rect
   class="BoundingBox"
   x="800"
   y="6952"
   width="3178"
   height="997"
   id="rect311"
   style="fill:none;stroke:none" />
         <text
   class="TextShape"
   id="text319"><tspan
     class="TextParagraph"
     font-size="494px"
     font-weight="400"
     id="tspan317"
     style="font-weight:400;font-size:494px;font-family:'Aller Display'"><tspan
       class="TextPosition"
       x="1050"
       y="7534"
       id="tspan315"><tspan
         id="tspan313"
         style="fill:#839496;stroke:none">Corridor</tspan></tspan></tspan></text>


        </g>
       </g>
       <g
   class="com.sun.star.drawing.TextShape"
   id="g335">
        <g
   id="id8">
         <rect
   class="BoundingBox"
   x="4777"
   y="6952"
   width="4063"
   height="997"
   id="rect324"
   style="fill:none;stroke:none" />
         <text
   class="TextShape"
   id="text332"><tspan
     class="TextParagraph"
     font-size="494px"
     font-weight="400"
     id="tspan330"
     style="font-weight:400;font-size:494px;font-family:'Aller Display'"><tspan
       class="TextPosition"
       x="5027"
       y="7534"
       id="tspan328"><tspan
         id="tspan326"
         style="fill:#839496;stroke:none">Living-room</tspan></tspan></tspan></text>


        </g>
       </g>
       <g
   class="com.sun.star.drawing.TextShape"
   id="g348">
        <g
   id="id9">
         <rect
   class="BoundingBox"
   x="877"
   y="700"
   width="2785"
   height="997"
   id="rect337"
   style="fill:none;stroke:none" />
         <text
   class="TextShape"
   id="text345"><tspan
     class="TextParagraph"
     font-size="494px"
     font-weight="400"
     id="tspan343"
     style="font-weight:400;font-size:494px;font-family:'Aller Display'"><tspan
       class="TextPosition"
       x="1127"
       y="1282"
       id="tspan341"><tspan
         id="tspan339"
         style="fill:#839496;stroke:none">Kitchen</tspan></tspan></tspan></text>


        </g>
       </g>
       <g
   class="com.sun.star.drawing.TextShape"
   id="g361">
        <g
   id="id10">
         <rect
   class="BoundingBox"
   x="1277"
   y="3791"
   width="2213"
   height="1010"
   id="rect350"
   style="fill:none;stroke:none" />
         <text
   class="TextShape"
   id="text358"><tspan
     class="TextParagraph"
     font-size="635px"
     font-weight="400"
     id="tspan356"
     style="font-weight:400;font-size:635px;font-family:Aller"><tspan
       class="TextPosition"
       x="1527"
       y="4509"
       id="tspan354"><tspan
         id="tspan352"
         style="fill:#839496;stroke:none">Robot</tspan></tspan></tspan></text>


        </g>
       </g>
       <g
   class="com.sun.star.drawing.CustomShape"
   id="g368">
        <g
   id="id11">
         <rect
   class="BoundingBox"
   x="977"
   y="2900"
   width="1801"
   height="401"
   id="rect363"
   style="fill:none;stroke:none" />
         <path
   d="M 1877,3300 H 977 v -400 h 1800 v 400 z"
   id="path365"
   inkscape:connector-curvature="0"
   style="fill:#839496;stroke:none" />
        </g>
       </g>
       <g
   class="Group"
   id="g386">
        <g
   class="com.sun.star.drawing.CustomShape"
   id="g375">
         <g
   id="id12">
          <rect
   class="BoundingBox"
   x="1377"
   y="2600"
   width="1002"
   height="1002"
   id="rect370"
   style="fill:none;stroke:none" />
          <path
   d="m 1877,2600 c 283,0 500,217 500,500 0,283 -217,500 -500,500 -283,0 -500,-217 -500,-500 0,-283 217,-500 500,-500 z m -500,0 z m 1001,1001 z"
   id="path372"
   inkscape:connector-curvature="0"
   style="fill:#ffffff;stroke:none" />
         </g>
        </g>
        <g
   class="Graphic"
   id="g384">
         <g
   id="id13">
          <rect
   class="BoundingBox"
   x="1277"
   y="2500"
   width="1201"
   height="1201"
   id="rect377"
   style="fill:none;stroke:none" />
          <path
   d="m 1877,2524 c -318,0 -576,258 -576,576 0,318 258,576 576,576 318,0 576,-258 576,-576 0,-318 -258,-576 -576,-576 z m -152,888 c 90,-329 0,0 90,-329 -56,-22 -95,-77 -95,-142 0,-84 68,-153 153,-153 84,0 153,69 153,153 0,58 -32,108 -79,134 87,337 87,337 87,337 0,0 -298,0 -309,0 z"
   id="path379"
   inkscape:connector-curvature="0"
   style="fill:#839496;stroke:none" />
          <path
   d="m 1877,3688 c -324,0 -588,-264 -588,-588 0,-324 264,-588 588,-588 324,0 588,264 588,588 0,324 -264,588 -588,588 z m 0,-1152 c -311,0 -564,253 -564,564 0,311 253,564 564,564 311,0 564,-253 564,-564 0,-311 -253,-564 -564,-564 z m 173,887 h -341 l 92,-333 c -57,-27 -93,-85 -93,-149 0,-91 74,-165 165,-165 91,0 165,74 165,165 0,57 -30,110 -77,140 z m -310,-23 h 279 l -86,-331 8,-4 c 45,-25 73,-72 73,-124 0,-77 -64,-141 -141,-141 -78,0 -141,64 -141,141 0,58 34,110 88,131 l 10,4 z"
   id="path381"
   inkscape:connector-curvature="0"
   style="fill:#839496;stroke:none" />
         </g>
        </g>
       </g>
       <g
   class="Graphic"
   id="g397">
        <g
   id="id14">
         <rect
   class="BoundingBox"
   x="4977"
   y="4700"
   width="1701"
   height="1701"
   id="rect388"
   style="fill:none;stroke:none" />
         <path
   d="m 5810,5179 c -47,-10 -97,-8 -146,7 -149,48 -230,208 -181,357 10,31 26,59 44,84 l -89,80 43,133 -129,42 46,143 -93,54 51,155 151,-49 268,-450 c 2,0 4,0 7,0 -124,-86 -176,-252 -115,-397 29,-69 80,-124 143,-159 z"
   id="path390"
   inkscape:connector-curvature="0"
   style="fill:#839496;stroke:none" />
         <path
   d="m 5972,5181 c -110,0 -215,65 -260,173 -62,144 6,310 151,371 30,13 61,20 93,22 l 2,120 129,54 -52,124 139,58 -20,106 152,64 60,-145 -164,-497 c 12,-17 23,-36 31,-57 61,-144 -6,-310 -151,-370 -36,-16 -73,-23 -110,-23 z m -38,100 c 43,0 78,35 78,78 0,43 -35,78 -78,78 -43,0 -78,-35 -78,-78 0,-43 35,-78 78,-78 z"
   id="path392"
   inkscape:connector-curvature="0"
   style="fill:#839496;stroke:none" />
         <path
   d="m 6057,5179 c 8,-176 -128,-326 -304,-334 -177,-9 -326,128 -334,304 -3,59 11,115 36,164 17,-35 40,-68 68,-96 -5,-20 -7,-42 -5,-63 5,-122 109,-216 231,-211 122,6 216,110 210,232 -2,52 -23,99 -55,136 -4,4 -7,9 -9,13 -11,25 0,54 25,65 20,8 43,2 56,-12 47,-52 77,-121 81,-198 z"
   id="path394"
   inkscape:connector-curvature="0"
   style="fill:#839496;stroke:none" />
        </g>
       </g>
       <g
   class="com.sun.star.drawing.TextShape"
   id="g410">
        <g
   id="id15">
         <rect
   class="BoundingBox"
   x="4800"
   y="3891"
   width="2201"
   height="1010"
   id="rect399"
   style="fill:none;stroke:none" />
         <text
   class="TextShape"
   id="text407"><tspan
     class="TextParagraph"
     font-size="635px"
     font-weight="400"
     id="tspan405"
     style="font-weight:400;font-size:635px;font-family:Aller"><tspan
       class="TextPosition"
       x="5050"
       y="4609"
       id="tspan403"><tspan
         id="tspan401"
         style="fill:#839496;stroke:none">Keys</tspan></tspan></tspan></text>


        </g>
       </g>
       <g
   class="com.sun.star.drawing.TextShape"
   id="g613">
        <g
   id="id16">
         <rect
   class="BoundingBox"
   x="8200"
   y="800"
   width="11101"
   height="7953"
   id="rect412"
   style="fill:none;stroke:none" />
         <path
   d="M 13750,8752 H 8200 V 800 h 11100 v 7952 z"
   id="path414"
   inkscape:connector-curvature="0"
   style="fill:#fdf6e3;stroke:none" />
         <text
   class="TextShape"
   id="text610"><tspan
     class="TextParagraph"
     font-size="388px"
     font-weight="400"
     id="tspan422"
     style="font-weight:400;font-size:388px;font-family:Hack, monospace"><tspan
       class="TextPosition"
       x="8450"
       y="1285"
       id="tspan420"><tspan
         font-weight="700"
         id="tspan416"
         style="font-weight:700;fill:#dc322f;stroke:none">go</tspan><tspan
         id="tspan418"
         style="fill:#586e75;stroke:none">(?movable, ?room) </tspan></tspan></tspan><tspan
     class="TextParagraph"
     font-size="388px"
     font-weight="400"
     id="tspan436"
     style="font-weight:400;font-size:388px;font-family:Hack, monospace"><tspan
       class="TextPosition"
       x="9700"
       y="1738"
       id="tspan434"><tspan
         id="tspan424"
         style="fill:#586e75;stroke:none">?movable </tspan><tspan
         font-weight="700"
         id="tspan426"
         style="font-weight:700;fill:#586e75;stroke:none">is</tspan><tspan
         id="tspan428"
         style="fill:#586e75;stroke:none"> Movable, ?room </tspan><tspan
         font-weight="700"
         id="tspan430"
         style="font-weight:700;fill:#586e75;stroke:none">is</tspan><tspan
         id="tspan432"
         style="fill:#586e75;stroke:none"> Room</tspan></tspan></tspan><tspan
     class="TextParagraph"
     font-size="388px"
     font-weight="400"
     id="tspan448"
     style="font-weight:400;font-size:388px;font-family:Hack, monospace"><tspan
       class="TextPosition"
       x="9700"
       y="2191"
       id="tspan446"><tspan
         id="tspan438"
         style="fill:#268bd2;stroke:none">pre</tspan><tspan
         id="tspan440"
         style="fill:#586e75;stroke:none"> ?movable </tspan><tspan
         id="tspan442"
         style="fill:#859900;stroke:none">room</tspan><tspan
         id="tspan444"
         style="fill:#586e75;stroke:none"> != ?room,</tspan></tspan></tspan><tspan
     class="TextParagraph"
     font-size="388px"
     font-weight="400"
     id="tspan462"
     style="font-weight:400;font-size:388px;font-family:Hack, monospace"><tspan
       class="TextPosition"
       x="9700"
       y="2644"
       id="tspan460"><tspan
         id="tspan450"
         style="fill:#586e75;stroke:none">    </tspan><tspan
         id="tspan452"
         style="fill:#586e75;stroke:none">?room </tspan><tspan
         id="tspan454"
         style="fill:#859900;stroke:none">locked</tspan><tspan
         id="tspan456"
         style="fill:#586e75;stroke:none"> </tspan><tspan
         font-style="italic"
         id="tspan458"
         style="font-style:italic;fill:#d33682;stroke:none">false</tspan></tspan></tspan><tspan
     class="TextParagraph"
     font-size="388px"
     font-weight="400"
     id="tspan474"
     style="font-weight:400;font-size:388px;font-family:Hack, monospace"><tspan
       class="TextPosition"
       x="9700"
       y="3097"
       id="tspan472"><tspan
         id="tspan464"
         style="fill:#268bd2;stroke:none">eff</tspan><tspan
         id="tspan466"
         style="fill:#586e75;stroke:none"> ?movable </tspan><tspan
         id="tspan468"
         style="fill:#859900;stroke:none">room</tspan><tspan
         id="tspan470"
         style="fill:#586e75;stroke:none"> ?room</tspan></tspan></tspan><tspan
     class="TextParagraph"
     font-size="388px"
     font-weight="700"
     id="tspan482"
     style="font-weight:700;font-size:388px;font-family:Hack, monospace"><tspan
       class="TextPosition"
       x="8450"
       y="4003"
       id="tspan480"><tspan
         id="tspan476"
         style="fill:#dc322f;stroke:none">grab</tspan><tspan
         font-weight="400"
         id="tspan478"
         style="font-weight:400;fill:#586e75;stroke:none">(?graber, ?pickable)</tspan></tspan></tspan><tspan
     class="TextParagraph"
     font-size="388px"
     font-weight="400"
     id="tspan496"
     style="font-weight:400;font-size:388px;font-family:Hack, monospace"><tspan
       class="TextPosition"
       x="9700"
       y="4456"
       id="tspan494"><tspan
         id="tspan484"
         style="fill:#586e75;stroke:none">?graber </tspan><tspan
         font-weight="700"
         id="tspan486"
         style="font-weight:700;fill:#586e75;stroke:none">is</tspan><tspan
         id="tspan488"
         style="fill:#586e75;stroke:none"> Graber, ?pickable </tspan><tspan
         font-weight="700"
         id="tspan490"
         style="font-weight:700;fill:#586e75;stroke:none">is</tspan><tspan
         id="tspan492"
         style="fill:#586e75;stroke:none"> Pickable</tspan></tspan></tspan><tspan
     class="TextParagraph"
     font-size="388px"
     font-weight="400"
     id="tspan512"
     style="font-weight:400;font-size:388px;font-family:Hack, monospace"><tspan
       class="TextPosition"
       x="9700"
       y="4909"
       id="tspan510"><tspan
         id="tspan498"
         style="fill:#268bd2;stroke:none">pre</tspan><tspan
         id="tspan500"
         style="fill:#586e75;stroke:none"> ?graber </tspan><tspan
         id="tspan502"
         style="fill:#859900;stroke:none">holds</tspan><tspan
         id="tspan504"
         style="fill:#586e75;stroke:none"> </tspan><tspan
         font-weight="700"
         id="tspan506"
         style="font-weight:700;fill:#cb4b16;stroke:none">nothing</tspan><tspan
         id="tspan508"
         style="fill:#586e75;stroke:none">, </tspan></tspan></tspan><tspan
     class="TextParagraph"
     font-size="388px"
     font-weight="400"
     id="tspan526"
     style="font-weight:400;font-size:388px;font-family:Hack, monospace"><tspan
       class="TextPosition"
       x="9700"
       y="5362"
       id="tspan524"><tspan
         id="tspan514"
         style="fill:#586e75;stroke:none">    </tspan><tspan
         id="tspan516"
         style="fill:#586e75;stroke:none">?graber </tspan><tspan
         id="tspan518"
         style="fill:#859900;stroke:none">room</tspan><tspan
         id="tspan520"
         style="fill:#586e75;stroke:none"> = ?pickable </tspan><tspan
         id="tspan522"
         style="fill:#859900;stroke:none">room</tspan></tspan></tspan><tspan
     class="TextParagraph"
     font-size="388px"
     font-weight="400"
     id="tspan538"
     style="font-weight:400;font-size:388px;font-family:Hack, monospace"><tspan
       class="TextPosition"
       x="9700"
       y="5815"
       id="tspan536"><tspan
         id="tspan528"
         style="fill:#268bd2;stroke:none">eff</tspan><tspan
         id="tspan530"
         style="fill:#586e75;stroke:none"> ?graber </tspan><tspan
         id="tspan532"
         style="fill:#859900;stroke:none">holds</tspan><tspan
         id="tspan534"
         style="fill:#586e75;stroke:none"> ?pickable</tspan></tspan></tspan><tspan
     class="TextParagraph"
     font-size="388px"
     font-weight="700"
     id="tspan546"
     style="font-weight:700;font-size:388px;font-family:Hack, monospace"><tspan
       class="TextPosition"
       x="8450"
       y="6721"
       id="tspan544"><tspan
         id="tspan540"
         style="fill:#dc322f;stroke:none">unlock</tspan><tspan
         font-weight="400"
         id="tspan542"
         style="font-weight:400;fill:#586e75;stroke:none">(?graber, ?room)</tspan></tspan></tspan><tspan
     class="TextParagraph"
     font-size="388px"
     font-weight="400"
     id="tspan560"
     style="font-weight:400;font-size:388px;font-family:Hack, monospace"><tspan
       class="TextPosition"
       x="9700"
       y="7174"
       id="tspan558"><tspan
         id="tspan548"
         style="fill:#586e75;stroke:none">?graber </tspan><tspan
         font-weight="700"
         id="tspan550"
         style="font-weight:700;fill:#586e75;stroke:none">is</tspan><tspan
         id="tspan552"
         style="fill:#586e75;stroke:none"> Graber, ?room </tspan><tspan
         font-weight="700"
         id="tspan554"
         style="font-weight:700;fill:#586e75;stroke:none">is</tspan><tspan
         id="tspan556"
         style="fill:#586e75;stroke:none"> Room</tspan></tspan></tspan><tspan
     class="TextParagraph"
     font-size="388px"
     font-weight="400"
     id="tspan578"
     style="font-weight:400;font-size:388px;font-family:Hack, monospace"><tspan
       class="TextPosition"
       x="9700"
       y="7627"
       id="tspan576"><tspan
         id="tspan562"
         style="fill:#268bd2;stroke:none">pre</tspan><tspan
         id="tspan564"
         style="fill:#586e75;stroke:none"> ?room </tspan><tspan
         id="tspan566"
         style="fill:#859900;stroke:none">locked</tspan><tspan
         id="tspan568"
         style="fill:#586e75;stroke:none">, ?graber </tspan><tspan
         id="tspan570"
         style="fill:#859900;stroke:none">holds</tspan><tspan
         id="tspan572"
         style="fill:#586e75;stroke:none"> </tspan><tspan
         font-weight="700"
         id="tspan574"
         style="font-weight:700;fill:#cb4b16;stroke:none">keys</tspan></tspan></tspan><tspan
     class="TextParagraph"
     font-size="388px"
     font-weight="400"
     id="tspan594"
     style="font-weight:400;font-size:388px;font-family:Hack, monospace"><tspan
       class="TextPosition"
       x="9700"
       y="8080"
       id="tspan592"><tspan
         id="tspan580"
         style="fill:#268bd2;stroke:none">eff</tspan><tspan
         id="tspan582"
         style="fill:#586e75;stroke:none"> ?graber </tspan><tspan
         id="tspan584"
         style="fill:#859900;stroke:none">holds</tspan><tspan
         id="tspan586"
         style="fill:#586e75;stroke:none"> </tspan><tspan
         font-weight="700"
         id="tspan588"
         style="font-weight:700;fill:#cb4b16;stroke:none">nothing</tspan><tspan
         id="tspan590"
         style="fill:#586e75;stroke:none">, </tspan></tspan></tspan><tspan
     class="TextParagraph"
     font-size="388px"
     font-weight="400"
     id="tspan608"
     style="font-weight:400;font-size:388px;font-family:Hack, monospace"><tspan
       class="TextPosition"
       x="9700"
       y="8533"
       id="tspan606"><tspan
         id="tspan596"
         style="fill:#586e75;stroke:none">    </tspan><tspan
         id="tspan598"
         style="fill:#586e75;stroke:none">?room </tspan><tspan
         id="tspan600"
         style="fill:#859900;stroke:none">locked</tspan><tspan
         id="tspan602"
         style="fill:#586e75;stroke:none"> </tspan><tspan
         font-style="italic"
         id="tspan604"
         style="font-style:italic;fill:#d33682;stroke:none">false</tspan></tspan></tspan></text>


        </g>
       </g>
       <g
   class="com.sun.star.drawing.CustomShape"
   id="g630">
        <g
   id="id17">
         <rect
   class="BoundingBox"
   x="936"
   y="7609"
   width="6983"
   height="1183"
   id="rect615"
   style="fill:none;stroke:none" />
         <path
   d="M 4427,8750 H 977 V 7650 h 6900 v 1100 z"
   id="path617"
   inkscape:connector-curvature="0"
   style="fill:#073642;stroke:none" />
         <path
   d="M 4427,8750 H 977 V 7650 h 6900 v 1100 z"
   id="path619"
   inkscape:connector-curvature="0"
   style="fill:none;stroke:#073642;stroke-width:81;stroke-linejoin:round" />
         <text
   class="TextShape"
   id="text627"><tspan
     class="TextParagraph"
     font-size="459px"
     font-weight="400"
     id="tspan625"
     style="font-weight:400;font-size:459px;font-family:'Liberation Sans', sans-serif"><tspan
       class="TextPosition"
       x="7460"
       y="8359"
       id="tspan623"><tspan
         id="tspan621"
         style="fill:#ffffff;stroke:none"> </tspan></tspan></tspan></text>


        </g>
       </g>
       <g
   class="com.sun.star.drawing.TextShape"
   id="g649">
        <g
   id="id18">
         <rect
   class="BoundingBox"
   x="2000"
   y="7910"
   width="6006"
   height="791"
   id="rect632"
   style="fill:none;stroke:none" />
         <text
   class="TextShape"
   id="text646"><tspan
     class="TextParagraph"
     font-size="459px"
     font-weight="400"
     id="tspan644"
     style="font-weight:400;font-size:459px;font-family:Hack, monospace"><tspan
       class="TextPosition"
       x="2253"
       y="8458"
       id="tspan642"><tspan
         id="tspan634"
         style="fill:#ffffff;stroke:none">robot </tspan><tspan
         id="tspan636"
         style="fill:#ffffff;stroke:none">holds</tspan><tspan
         id="tspan638"
         style="fill:#4a8e00;stroke:none"> </tspan><tspan
         id="tspan640"
         style="fill:#ffffff;stroke:none">lollipop</tspan></tspan></tspan></text>


        </g>
       </g>
       <g
   class="Graphic"
   id="g666">
        <g
   id="id19">
         <rect
   class="BoundingBox"
   x="5700"
   y="1000"
   width="1501"
   height="1501"
   id="rect651"
   style="fill:none;stroke:none" />
         <path
   d="m 6443,2434 h 23 c 28,0 50,-22 50,-49 v -266 c 0,-27 -22,-49 -50,-49 h -46 c -28,0 -50,22 -50,49 v 266 c 0,27 22,49 50,49 z"
   id="path653"
   inkscape:connector-curvature="0"
   style="fill:#eee8d5;stroke:none" />
         <path
   d="m 6420,2070 c -28,0 -50,22 -50,49 v 265 c 0,28 22,50 50,50 h 18 v -364 z"
   id="path655"
   inkscape:connector-curvature="0"
   style="fill:#fdf6e3;stroke:none" />
         <path
   d="m 5927,1595 c 0,-292 236,-529 529,-529 292,0 529,237 529,529 0,292 -237,529 -529,529 -293,0 -529,-237 -529,-529 z"
   id="path657"
   inkscape:connector-curvature="0"
   style="fill:#eca5c7;stroke:none" />
         <path
   d="m 6084,1971 748,-748 c -96,-97 -229,-157 -376,-157 -293,0 -529,237 -529,529 0,147 60,280 157,376 z"
   id="path659"
   inkscape:connector-curvature="0"
   style="fill:#edb7d2;stroke:none" />
         <path
   d="m 6450,1489 h -505 c -28,0 -50,22 -50,49 v 143 c 0,28 22,50 50,50 h 1011 c 27,0 49,-22 49,-50 v -143 c 0,-27 -22,-49 -49,-49 z"
   id="path661"
   inkscape:connector-curvature="0"
   style="fill:#d33682;stroke:none" />
         <path
   d="m 5909,1716 1088,-206 c -9,-13 -24,-21 -41,-21 H 5945 c -28,0 -50,22 -50,49 v 143 c 0,14 5,26 14,35 z"
   id="path663"
   inkscape:connector-curvature="0"
   style="fill:#da5696;stroke:none" />
        </g>
       </g>
       <g
   class="com.sun.star.drawing.TextShape"
   id="g679">
        <g
   id="id20">
         <rect
   class="BoundingBox"
   x="5000"
   y="2400"
   width="2933"
   height="1010"
   id="rect668"
   style="fill:none;stroke:none" />
         <text
   class="TextShape"
   id="text676"><tspan
     class="TextParagraph"
     font-size="635px"
     font-weight="400"
     id="tspan674"
     style="font-weight:400;font-size:635px;font-family:'Aller Display'"><tspan
       class="TextPosition"
       x="5250"
       y="3113"
       id="tspan672"><tspan
         id="tspan670"
         style="fill:#d33682;stroke:none">Lollipop</tspan></tspan></tspan></text>


        </g>
       </g>
       <g
   class="com.sun.star.drawing.CustomShape"
   id="g698">
        <g
   id="id21">
         <rect
   class="BoundingBox"
   x="999"
   y="7600"
   width="1213"
   height="1202"
   id="rect681"
   style="fill:none;stroke:none" />
         <path
   d="m 1605,7600 c 343,0 605,260 605,600 0,340 -262,600 -605,600 -343,0 -605,-260 -605,-600 0,-340 262,-600 605,-600 z m -605,0 z m 1211,1201 z"
   id="path683"
   inkscape:connector-curvature="0"
   style="fill:#d33682;stroke:none" />
         <text
   class="TextShape"
   id="text695"><tspan
     class="TextParagraph"
     font-size="573px"
     font-weight="400"
     id="tspan693"
     style="font-weight:400;font-size:573px;font-family:'STIX Two Math'"><tspan
       class="TextPosition"
       x="1226"
       y="8465"
       id="tspan687"><tspan
         font-size="988px"
         font-style="italic"
         id="tspan685"
         style="font-style:italic;font-size:988px;font-family:'STIX Two Text';fill:#fdf6e3;stroke:none">a</tspan></tspan><tspan
       class="TextPosition"
       x="1751"
       y="8139"
       id="tspan691"><tspan
         id="tspan689"
         style="fill:#fdf6e3;stroke:none">*</tspan></tspan></tspan></text>


        </g>
       </g>
      </g>
     </g>
    </g>
   </g>
  </g>
 </g>
</svg>