<?xml version="1.0" encoding="UTF-8" standalone="no"?>
<!-- Created with Inkscape (http://www.inkscape.org/) -->

<svg
   xmlns:dc="http://purl.org/dc/elements/1.1/"
   xmlns:cc="http://creativecommons.org/ns#"
   xmlns:rdf="http://www.w3.org/1999/02/22-rdf-syntax-ns#"
   xmlns:svg="http://www.w3.org/2000/svg"
   xmlns="http://www.w3.org/2000/svg"
   xmlns:sodipodi="http://sodipodi.sourceforge.net/DTD/sodipodi-0.dtd"
   xmlns:inkscape="http://www.inkscape.org/namespaces/inkscape"
   version="1.1"
   id="svg2"
   xml:space="preserve"
   width="101.84181"
   height="134.31779"
   viewBox="0 0 101.84181 134.31779"
   sodipodi:docname="planning_vs_ir.svg"
   inkscape:version="0.92.3 (2405546, 2018-03-11)"><metadata
     id="metadata8"><rdf:RDF><cc:Work
         rdf:about=""><dc:format>image/svg+xml</dc:format><dc:type
           rdf:resource="http://purl.org/dc/dcmitype/StillImage" /><dc:title /></cc:Work></rdf:RDF></metadata><defs
     id="defs6"><clipPath
       clipPathUnits="userSpaceOnUse"
       id="clipPath18"><path
         d="M 0,0 H 595.2 V 841.8 H 0 Z"
         id="path16"
         inkscape:connector-curvature="0"
         style="clip-rule:evenodd" /></clipPath></defs><sodipodi:namedview
     pagecolor="#ffffff"
     bordercolor="#666666"
     borderopacity="1"
     objecttolerance="10"
     gridtolerance="10"
     guidetolerance="10"
     inkscape:pageopacity="0"
     inkscape:pageshadow="2"
     inkscape:window-width="3840"
     inkscape:window-height="2034"
     id="namedview4"
     showgrid="false"
     fit-margin-top="0"
     fit-margin-left="0"
     fit-margin-right="0"
     fit-margin-bottom="0"
     inkscape:zoom="9.5147552"
     inkscape:cx="-8.8074134"
     inkscape:cy="26.419563"
     inkscape:window-x="1920"
     inkscape:window-y="60"
     inkscape:window-maximized="1"
     inkscape:current-layer="g14" /><g
     id="g10"
     inkscape:groupmode="layer"
     inkscape:label="Planning vs IR"
     transform="matrix(1.3333333,0,0,-1.3333333,-51.393915,1077.1753)"><g
       id="g12"><g
         id="g14"
         clip-path="url(#clipPath18)"><rect
           style="opacity:1;fill:#fdf6e3;fill-opacity:1;stroke:none;stroke-width:0.71251678;stroke-linecap:round;stroke-linejoin:miter;stroke-miterlimit:10;stroke-dasharray:none;stroke-dashoffset:0;stroke-opacity:1"
           id="rect875-3"
           width="76.14489"
           height="50.369144"
           x="38.545437"
           y="-807.88147"
           transform="scale(1,-1)" /><rect
           style="opacity:1;fill:#002b36;fill-opacity:1;stroke:none;stroke-width:0.71251678;stroke-linecap:round;stroke-linejoin:miter;stroke-miterlimit:10;stroke-dasharray:none;stroke-dashoffset:0;stroke-opacity:1"
           id="rect875"
           width="76.14489"
           height="50.369144"
           x="38.78191"
           y="-757.51227"
           transform="scale(1,-1)" /><g
           id="g22"
           transform="translate(0,-1.5)"
           style="fill:#073642"><text
   transform="matrix(1,0,0,-1,55.8,792.3)"
   style="font-style:italic;font-variant:normal;font-weight:normal;font-size:12px;font-family:'STIX Two Text';-inkscape-font-specification:STIXTwoTextItalic;writing-mode:lr-tb;fill:#073642;fill-opacity:1;fill-rule:nonzero;stroke:none"
   id="text26"><tspan
     sodipodi:role="line"
     id="tspan24"
     x="0"
     y="0">Planning</tspan></text>

</g><g
           id="g28"
           style="fill:#eee8d5"><text
   transform="matrix(1,0,0,-1,63,724.2)"
   style="font-style:italic;font-variant:normal;font-weight:normal;font-size:12px;font-family:'STIX Two Text';-inkscape-font-specification:STIXTwoTextItalic;writing-mode:lr-tb;fill:#eee8d5;fill-opacity:1;fill-rule:nonzero;stroke:none"
   id="text32"><tspan
     x="0 3.9960001 10.788 14.376 19.271999 25.968"
     y="0"
     sodipodi:role="line"
     id="tspan30">Intent</tspan></text>

</g><g
           id="g34"
           style="fill:#eee8d5"><text
   transform="matrix(1,0,0,-1,50.2,712.2)"
   style="font-style:italic;font-variant:normal;font-weight:normal;font-size:12px;font-family:'STIX Two Text';-inkscape-font-specification:STIXTwoTextItalic;writing-mode:lr-tb;fill:#eee8d5;fill-opacity:1;fill-rule:nonzero;stroke:none"
   id="text38"><tspan
     x="0 4.5 9.3959999 14.292 20.087999 25.488001 32.279999 35.580002 39.167999 42.551998 48.348 55.139999"
     y="0"
     sodipodi:role="line"
     id="tspan36">recognition </tspan></text>

</g><g
           id="g40"><text
   transform="matrix(1,0,0,-1,44.8,759)"
   style="font-variant:normal;font-weight:normal;font-size:12px;font-family:'STIX Two Text';-inkscape-font-specification:STIXTwoTextBold;writing-mode:lr-tb;fill:#268bd2;fill-opacity:1;fill-rule:nonzero;stroke:none"
   id="text44"><tspan
     sodipodi:role="line"
     id="tspan42"
     x="0"
     y="0"
     style="font-style:normal;font-variant:normal;font-weight:bold;font-stretch:normal;font-family:'STIX Two Text';-inkscape-font-specification:'STIX Two Text Bold'">Plan</tspan></text>

</g><g
           id="g46"><text
   transform="matrix(1,0,0,-1,85.5,758.3)"
   style="font-variant:normal;font-weight:normal;font-size:12px;font-family:'STIX Two Text';-inkscape-font-specification:STIXTwoText;writing-mode:lr-tb;fill:#dc322f;fill-opacity:1;fill-rule:nonzero;stroke:none"
   id="text50"><tspan
     x="0"
     y="0"
     id="tspan48">G</tspan></text>

</g><g
           id="g52"><text
   transform="matrix(1,0,0,-1,94.2,758.3)"
   style="font-variant:normal;font-weight:normal;font-size:9px;font-family:'STIX Two Text';-inkscape-font-specification:STIXTwoText;writing-mode:lr-tb;fill:#dc322f;fill-opacity:1;fill-rule:nonzero;stroke:none"
   id="text56"><tspan
     x="0 6.2010002 12.69"
     y="0"
     sodipodi:role="line"
     id="tspan54">OAL</tspan></text>

</g><g
           id="g850"
           transform="matrix(-1,0,0,1,156.99995,0)"><g
             id="g58"><path
               inkscape:connector-curvature="0"
               id="path60"
               style="fill:none;stroke:#859900;stroke-width:2.99979997;stroke-linecap:round;stroke-linejoin:round;stroke-miterlimit:10;stroke-dasharray:none;stroke-opacity:1"
               d="m 59.2,768.1 c 0,20.3 23,19.3 34,10.9" /></g><path
             inkscape:connector-curvature="0"
             id="path62"
             style="fill:#859900;fill-opacity:1;fill-rule:evenodd;stroke:none"
             d="m 86.9,776.3 11.2,-8.8 0.4,-0.2 0.4,0.1 0.3,0.3 0.1,0.4 -1,14.2 -0.1,0.2 v 0.1 l -0.2,0.2 -0.3,0.2 h -0.2 l -0.3,-0.1 -10.2,-5.4 -0.2,-0.2 -0.2,-0.2 v -0.4 l 0.1,-0.2 v -0.1 z" /></g><g
           id="g845"
           transform="matrix(-1,0,0,1,159.20005,0)"><g
             id="g64"><path
               inkscape:connector-curvature="0"
               id="path66"
               style="fill:none;stroke:#d33682;stroke-width:2.99979997;stroke-linecap:round;stroke-linejoin:round;stroke-miterlimit:10;stroke-dasharray:none;stroke-opacity:1"
               d="M 98.9,755.3 C 98.9,734.1 75.4,735 64.6,744.2" /></g><path
             inkscape:connector-curvature="0"
             id="path68"
             style="fill:#d33682;fill-opacity:1;fill-rule:evenodd;stroke:none"
             d="m 70.9,746.8 -10.8,9.1 -0.5,0.2 h -0.4 l -0.3,-0.4 -0.1,-0.4 0.6,-14.2 v -0.2 -0.1 l 0.2,-0.2 0.2,-0.1 0.3,-0.1 0.3,0.1 10.4,5.1 0.2,0.1 0.2,0.3 v 0.3 l -0.1,0.3 v 0 z" /></g></g></g></g></svg>