<?xml version="1.0" encoding="UTF-8" standalone="no"?>
<svg
   xmlns:ooo="http://xml.openoffice.org/svg/export"
   xmlns:dc="http://purl.org/dc/elements/1.1/"
   xmlns:cc="http://creativecommons.org/ns#"
   xmlns:rdf="http://www.w3.org/1999/02/22-rdf-syntax-ns#"
   xmlns:svg="http://www.w3.org/2000/svg"
   xmlns="http://www.w3.org/2000/svg"
   xmlns:sodipodi="http://sodipodi.sourceforge.net/DTD/sodipodi-0.dtd"
   xmlns:inkscape="http://www.inkscape.org/namespaces/inkscape"
   version="1.2"
   width="85.919998mm"
   height="32.427807mm"
   viewBox="0 0 8592.0002 3242.7807"
   preserveAspectRatio="xMidYMid"
   xml:space="preserve"
   id="svg335"
   sodipodi:docname="scope.svg"
   style="fill-rule:evenodd;stroke-width:28.22200012;stroke-linejoin:round"
   inkscape:version="0.92.3 (2405546, 2018-03-11)"><metadata
   id="metadata339"><rdf:RDF><cc:Work
       rdf:about=""><dc:format>image/svg+xml</dc:format><dc:type
         rdf:resource="http://purl.org/dc/dcmitype/StillImage" /><dc:title></dc:title></cc:Work></rdf:RDF></metadata><sodipodi:namedview
   pagecolor="#ffffff"
   bordercolor="#666666"
   borderopacity="1"
   objecttolerance="10"
   gridtolerance="10"
   guidetolerance="10"
   inkscape:pageopacity="0"
   inkscape:pageshadow="2"
   inkscape:window-width="1920"
   inkscape:window-height="1017"
   id="namedview337"
   showgrid="false"
   fit-margin-top="0"
   fit-margin-left="0"
   fit-margin-right="0"
   fit-margin-bottom="0"
   inkscape:zoom="2.3786088"
   inkscape:cx="115.62329"
   inkscape:cy="160.11956"
   inkscape:window-x="1920"
   inkscape:window-y="31"
   inkscape:window-maximized="1"
   inkscape:current-layer="g273" />
 <defs
   class="ClipPathGroup"
   id="defs8">
  <clipPath
   id="presentation_clip_path"
   clipPathUnits="userSpaceOnUse">
   <rect
   x="0"
   y="0"
   width="21000"
   height="29700"
   id="rect2" />
  </clipPath>
  <clipPath
   id="presentation_clip_path_shrink"
   clipPathUnits="userSpaceOnUse">
   <rect
   x="21"
   y="29"
   width="20958"
   height="29641"
   id="rect5" />
  </clipPath>
 </defs>

 <defs
   class="TextShapeIndex"
   id="defs120">
  <g
   ooo:slide="id1"
   ooo:id-list="id3 id4 id5 id6 id7 id8 id9 id10"
   id="g118" />
 </defs>
 <defs
   class="EmbeddedBulletChars"
   id="defs152">
  <g
   id="bullet-char-template-57356"
   transform="matrix(4.8828125e-4,0,0,-4.8828125e-4,0,0)">
   <path
   d="M 580,1141 1163,571 580,0 -4,571 Z"
   id="path122"
   inkscape:connector-curvature="0" />
  </g>
  <g
   id="bullet-char-template-57354"
   transform="matrix(4.8828125e-4,0,0,-4.8828125e-4,0,0)">
   <path
   d="M 8,1128 H 1137 V 0 H 8 Z"
   id="path125"
   inkscape:connector-curvature="0" />
  </g>
  <g
   id="bullet-char-template-10146"
   transform="matrix(4.8828125e-4,0,0,-4.8828125e-4,0,0)">
   <path
   d="M 174,0 602,739 174,1481 1456,739 Z M 1358,739 309,1346 659,739 Z"
   id="path128"
   inkscape:connector-curvature="0" />
  </g>
  <g
   id="bullet-char-template-10132"
   transform="matrix(4.8828125e-4,0,0,-4.8828125e-4,0,0)">
   <path
   d="M 2015,739 1276,0 H 717 l 543,543 H 174 v 393 h 1086 l -543,545 h 557 z"
   id="path131"
   inkscape:connector-curvature="0" />
  </g>
  <g
   id="bullet-char-template-10007"
   transform="matrix(4.8828125e-4,0,0,-4.8828125e-4,0,0)">
   <path
   d="m 0,-2 c -7,16 -16,29 -25,39 l 381,530 c -94,256 -141,385 -141,387 0,25 13,38 40,38 9,0 21,-2 34,-5 21,4 42,12 65,25 l 27,-13 111,-251 280,301 64,-25 24,25 c 21,-10 41,-24 62,-43 C 886,937 835,863 770,784 769,783 710,716 594,584 L 774,223 c 0,-27 -21,-55 -63,-84 l 16,-20 C 717,90 699,76 672,76 641,76 570,178 457,381 L 164,-76 c -22,-34 -53,-51 -92,-51 -42,0 -63,17 -64,51 -7,9 -10,24 -10,44 0,9 1,19 2,30 z"
   id="path134"
   inkscape:connector-curvature="0" />
  </g>
  <g
   id="bullet-char-template-10004"
   transform="matrix(4.8828125e-4,0,0,-4.8828125e-4,0,0)">
   <path
   d="M 285,-33 C 182,-33 111,30 74,156 52,228 41,333 41,471 c 0,78 14,145 41,201 34,71 87,106 158,106 53,0 88,-31 106,-94 l 23,-176 c 8,-64 28,-97 59,-98 l 735,706 c 11,11 33,17 66,17 42,0 63,-15 63,-46 V 965 c 0,-36 -10,-64 -30,-84 L 442,47 C 390,-6 338,-33 285,-33 Z"
   id="path137"
   inkscape:connector-curvature="0" />
  </g>
  <g
   id="bullet-char-template-9679"
   transform="matrix(4.8828125e-4,0,0,-4.8828125e-4,0,0)">
   <path
   d="M 813,0 C 632,0 489,54 383,161 276,268 223,411 223,592 c 0,181 53,324 160,431 106,107 249,161 430,161 179,0 323,-54 432,-161 108,-107 162,-251 162,-431 0,-180 -54,-324 -162,-431 C 1136,54 992,0 813,0 Z"
   id="path140"
   inkscape:connector-curvature="0" />
  </g>
  <g
   id="bullet-char-template-8226"
   transform="matrix(4.8828125e-4,0,0,-4.8828125e-4,0,0)">
   <path
   d="m 346,457 c -73,0 -137,26 -191,78 -54,51 -81,114 -81,188 0,73 27,136 81,188 54,52 118,78 191,78 73,0 134,-26 185,-79 51,-51 77,-114 77,-187 0,-75 -25,-137 -76,-188 -50,-52 -112,-78 -186,-78 z"
   id="path143"
   inkscape:connector-curvature="0" />
  </g>
  <g
   id="bullet-char-template-8211"
   transform="matrix(4.8828125e-4,0,0,-4.8828125e-4,0,0)">
   <path
   d="M -4,459 H 1135 V 606 H -4 Z"
   id="path146"
   inkscape:connector-curvature="0" />
  </g>
  <g
   id="bullet-char-template-61548"
   transform="matrix(4.8828125e-4,0,0,-4.8828125e-4,0,0)">
   <path
   d="m 173,740 c 0,163 58,303 173,419 116,115 255,173 419,173 163,0 302,-58 418,-173 116,-116 174,-256 174,-419 0,-163 -58,-303 -174,-418 C 1067,206 928,148 765,148 601,148 462,206 346,322 231,437 173,577 173,740 Z"
   id="path149"
   inkscape:connector-curvature="0" />
  </g>
 </defs>
 <defs
   class="TextEmbeddedBitmaps"
   id="defs154" />
 <g
   id="g159"
   transform="translate(-2000,-1314)">
  <g
   id="id2"
   class="Master_Slide">
   <g
   id="bg-id2"
   class="Background" />
   <g
   id="bo-id2"
   class="BackgroundObjects" />
  </g>
 </g>
 <g
   class="SlideGroup"
   id="g333"
   transform="translate(-2000,-1314)">
  <g
   id="g331">
   <g
   id="container-id1">
    <g
   id="id1"
   class="Slide"
   clip-path="url(#presentation_clip_path)">
     <g
   class="Page"
   id="g327">
      <g
   class="com.sun.star.drawing.CustomShape"
   id="g234">
       <g
   id="id3">
        <rect
   class="BoundingBox"
   x="2000"
   y="2000"
   width="5701"
   height="2501"
   id="rect161"
   style="fill:none;stroke:none" />
        <path
   d="M 4850,4500 H 2000 V 2000 h 5700 v 2500 z"
   id="path163"
   inkscape:connector-curvature="0"
   style="fill:#fdf6e3;stroke:none" />
        <text
   class="TextShape"
   id="text231"><tspan
     class="TextParagraph"
     font-size="635px"
     font-weight="400"
     id="tspan187"
     style="font-weight:400;font-size:635px;font-family:Hack, monospace"><tspan
       class="TextPosition"
       x="2250"
       y="2713"
       id="tspan185"><tspan
         font-weight="700"
         id="tspan165"
         style="font-weight:700;fill:#268bd2;stroke:none">f</tspan><tspan
         id="tspan167"
         style="fill:#073642;stroke:none">(</tspan><tspan
         id="tspan169"
         style="fill:#93a1a1;stroke:none">x</tspan><tspan
         id="tspan171"
         style="fill:#073642;stroke:none">) </tspan><tspan
         id="tspan173"
         style="fill:#859900;stroke:none">=</tspan><tspan
         id="tspan175"
         style="fill:#073642;stroke:none"> (</tspan><tspan
         id="tspan177"
         style="fill:#93a1a1;stroke:none">x</tspan><tspan
         id="tspan179"
         style="fill:#859900;stroke:none">+</tspan><tspan
         font-style="italic"
         id="tspan181"
         style="font-style:italic;fill:#d33682;stroke:none">2</tspan><tspan
         id="tspan183"
         style="fill:#073642;stroke:none">) ;</tspan></tspan></tspan><tspan
     class="TextParagraph"
     font-size="635px"
     font-weight="400"
     id="tspan209"
     style="font-weight:400;font-size:635px;font-family:Hack, monospace"><tspan
       class="TextPosition"
       x="2250"
       y="3450"
       id="tspan207"><tspan
         font-weight="700"
         id="tspan189"
         style="font-weight:700;fill:#268bd2;stroke:none">g</tspan><tspan
         id="tspan191"
         style="fill:#073642;stroke:none">(</tspan><tspan
         id="tspan193"
         style="fill:#93a1a1;stroke:none">x</tspan><tspan
         id="tspan195"
         style="fill:#073642;stroke:none">) </tspan><tspan
         id="tspan197"
         style="fill:#859900;stroke:none">=</tspan><tspan
         id="tspan199"
         style="fill:#073642;stroke:none"> </tspan><tspan
         id="tspan201"
         style="fill:#93a1a1;stroke:none">x</tspan><tspan
         id="tspan203"
         style="fill:#268bd2;stroke:none"> </tspan><tspan
         id="tspan205"
         style="fill:#073642;stroke:none">;</tspan></tspan></tspan><tspan
     class="TextParagraph"
     font-size="635px"
     font-weight="400"
     id="tspan229"
     style="font-weight:400;font-size:635px;font-family:Hack, monospace"><tspan
       class="TextPosition"
       x="2250"
       y="4187"
       id="tspan227"><tspan
         font-weight="700"
         id="tspan211"
         style="font-weight:700;fill:#268bd2;stroke:none">h</tspan><tspan
         id="tspan213"
         style="fill:#073642;stroke:none">(</tspan><tspan
         font-weight="700"
         id="tspan215"
         style="font-weight:700;fill:#268bd2;stroke:none">x</tspan><tspan
         id="tspan217"
         style="fill:#073642;stroke:none">) </tspan><tspan
         id="tspan219"
         style="fill:#859900;stroke:none">=</tspan><tspan
         id="tspan221"
         style="fill:#073642;stroke:none"> </tspan><tspan
         font-style="italic"
         id="tspan223"
         style="font-style:italic;fill:#d33682;stroke:none">42</tspan><tspan
         id="tspan225"
         style="fill:#073642;stroke:none"> ;</tspan></tspan></tspan></text>

       </g>
      </g>
      <g
   class="com.sun.star.drawing.OpenBezierShape"
   id="g253">
       <g
   id="id4">
        <rect
   class="BoundingBox"
   x="3147"
   y="1507"
   width="2265"
   height="747"
   id="rect236"
   style="fill:none;stroke:none" />
        <path
   d="m 3200,2200 c 0,-76 14,-144 40,-206"
   id="path238"
   inkscape:connector-curvature="0"
   style="fill:none;stroke:#93a1a1;stroke-width:106;stroke-linecap:round;stroke-linejoin:round" />
        <path
   d="m 3358,1823 c 48,-47 105,-87 169,-121"
   id="path240"
   inkscape:connector-curvature="0"
   style="fill:none;stroke:#93a1a1;stroke-width:106;stroke-linecap:round;stroke-linejoin:round" />
        <path
   d="m 3721,1625 c 64,-19 133,-34 204,-44"
   id="path242"
   inkscape:connector-curvature="0"
   style="fill:none;stroke:#93a1a1;stroke-width:106;stroke-linecap:round;stroke-linejoin:round" />
        <path
   d="m 4134,1562 c 69,-2 140,-1 210,3"
   id="path244"
   inkscape:connector-curvature="0"
   style="fill:none;stroke:#93a1a1;stroke-width:106;stroke-linecap:round;stroke-linejoin:round" />
        <path
   d="m 4552,1588 c 70,12 139,26 205,44"
   id="path246"
   inkscape:connector-curvature="0"
   style="fill:none;stroke:#93a1a1;stroke-width:106;stroke-linecap:round;stroke-linejoin:round" />
        <path
   d="m 4956,1700 c 68,28 131,60 186,96"
   id="path248"
   inkscape:connector-curvature="0"
   style="fill:none;stroke:#93a1a1;stroke-width:106;stroke-linecap:round;stroke-linejoin:round" />
        <path
   d="m 5075,1946 301,249 12,6 11,-1 9,-9 3,-11 -17,-392 -1,-5 -1,-3 -5,-6 -7,-4 -7,-2 -8,2 -286,142 -6,5 -5,7 v 8 l 3,8 1,2 z"
   id="path250"
   inkscape:connector-curvature="0"
   style="fill:#93a1a1;stroke:none" />
       </g>
      </g>
      <g
   class="com.sun.star.drawing.TextShape"
   id="g266">
       <g
   id="id5">
        <rect
   class="BoundingBox"
   x="7900"
   y="1314"
   width="2692"
   height="887"
   id="rect255"
   style="fill:none;stroke:none" />
        <text
   class="TextShape"
   id="text263"><tspan
     class="TextParagraph"
     font-size="635px"
     font-weight="700"
     id="tspan261"
     style="font-weight:700;font-size:635px;font-family:'STIX Two Text'"><tspan
       class="TextPosition"
       x="8150"
       y="1922"
       id="tspan259"><tspan
         id="tspan257"
         style="fill:#839496;stroke:none">Legend</tspan></tspan></tspan></text>

       </g>
      </g>
      <g
   class="com.sun.star.drawing.LineShape"
   id="g273">
       <g
   id="id6"
   transform="translate(-22.327183,2.7808622)">
        <rect
   class="BoundingBox"
   x="8247"
   y="1847"
   width="107"
   height="2707"
   id="rect268"
   style="fill:none;stroke:none" />
        <path
   d="M 8300,1900 V 4500"
   id="path270"
   inkscape:connector-curvature="0"
   style="fill:none;stroke:#839496;stroke-width:106;stroke-linejoin:round" />
       </g>
      </g>
      <g
   class="com.sun.star.drawing.TextShape"
   id="g286">
       <g
   id="id7">
        <rect
   class="BoundingBox"
   x="8594"
   y="4046"
   width="1901"
   height="455"
   id="rect275"
   style="fill:none;stroke:none" />
        <text
   class="TextShape"
   id="text283"><tspan
     class="TextParagraph"
     font-size="388px"
     font-weight="400"
     id="tspan281"
     style="font-weight:400;font-size:388px;font-family:Hack, monospace"><tspan
       class="TextPosition"
       x="8594"
       y="4406"
       id="tspan279"><tspan
         id="tspan277"
         style="fill:#93a1a1;stroke:none">variable</tspan></tspan></tspan></text>

       </g>
      </g>
      <g
   class="com.sun.star.drawing.TextShape"
   id="g299">
       <g
   id="id8">
        <rect
   class="BoundingBox"
   x="8594"
   y="2100"
   width="1501"
   height="455"
   id="rect288"
   style="fill:none;stroke:none" />
        <text
   class="TextShape"
   id="text296"><tspan
     class="TextParagraph"
     font-size="388px"
     font-weight="700"
     id="tspan294"
     style="font-weight:700;font-size:388px;font-family:Hack, monospace"><tspan
       class="TextPosition"
       x="8594"
       y="2460"
       id="tspan292"><tspan
         id="tspan290"
         style="fill:#268bd2;stroke:none">global</tspan></tspan></tspan></text>

       </g>
      </g>
      <g
   class="com.sun.star.drawing.TextShape"
   id="g312">
       <g
   id="id9">
        <rect
   class="BoundingBox"
   x="8581"
   y="2749"
   width="1914"
   height="455"
   id="rect301"
   style="fill:none;stroke:none" />
        <text
   class="TextShape"
   id="text309"><tspan
     class="TextParagraph"
     font-size="388px"
     font-weight="400"
     id="tspan307"
     style="font-weight:400;font-size:388px;font-family:Hack, monospace"><tspan
       class="TextPosition"
       x="8594"
       y="3109"
       id="tspan305"><tspan
         id="tspan303"
         style="fill:#859900;stroke:none">property</tspan></tspan></tspan></text>

       </g>
      </g>
      <g
   class="com.sun.star.drawing.TextShape"
   id="g325">
       <g
   id="id10">
        <rect
   class="BoundingBox"
   x="8581"
   y="3397"
   width="1914"
   height="455"
   id="rect314"
   style="fill:none;stroke:none" />
        <text
   class="TextShape"
   id="text322"><tspan
     class="TextParagraph"
     font-size="388px"
     font-style="italic"
     font-weight="400"
     id="tspan320"
     style="font-style:italic;font-weight:400;font-size:388px;font-family:Hack, monospace"><tspan
       class="TextPosition"
       x="8594"
       y="3757"
       id="tspan318"><tspan
         id="tspan316"
         style="fill:#d33682;stroke:none">literal</tspan></tspan></tspan></text>

       </g>
      </g>
     </g>
    </g>
   </g>
  </g>
 </g>
</svg>
