<?xml version="1.0" encoding="UTF-8" standalone="no"?>
<svg
   xmlns:dc="http://purl.org/dc/elements/1.1/"
   xmlns:cc="http://creativecommons.org/ns#"
   xmlns:rdf="http://www.w3.org/1999/02/22-rdf-syntax-ns#"
   xmlns:svg="http://www.w3.org/2000/svg"
   xmlns="http://www.w3.org/2000/svg"
   id="svg360"
   preserveAspectRatio="xMidYMid meet"
   viewBox="0 0 1956.000000 1400.000000"
   height="1400.000000pt"
   width="1956.000000pt"
   version="1.0">
  <defs
     id="defs364" />
  <metadata
     id="metadata2">
Created by potrace 1.14, written by Peter Selinger 2001-2017
<rdf:RDF>
  <cc:Work
     rdf:about="">
    <dc:format>image/svg+xml</dc:format>
    <dc:type
       rdf:resource="http://purl.org/dc/dcmitype/StillImage" />
    <dc:title></dc:title>
  </cc:Work>
</rdf:RDF>
</metadata>
  <rect
     y="-4.2227707"
     x="-4.3016253"
     height="1408.4456"
     width="1964.6033"
     id="rect1728"
     style="opacity:1;fill:#002b36;fill-opacity:1;fill-rule:evenodd;stroke:none;stroke-width:3.01357841;stroke-linecap:round;stroke-linejoin:round;stroke-miterlimit:4;stroke-dasharray:12.05431292, 12.05431292;stroke-dashoffset:0;stroke-opacity:1" />
  <g
     style="fill:#fdf6e3;stroke:none"
     id="g358"
     transform="matrix(0.1,0,0,-0.1,1.0659354e-5,1398.4275)">
    <path
       style="fill:#fdf6e3"
       d="m 17800,244 c -21,-54 23,-95 86,-80 31,8 30,31 -2,73 -32,42 -70,45 -84,7 z M 5202,668 c -7,-7 -12,-40 -12,-77 0,-78 -23,-132 -60,-142 -45,-12 -130,-10 -135,4 -2,6 -6,38 -10,69 -4,33 -14,67 -25,80 -34,42 -43,13 -46,-149 -2,-81 -6,-169 -9,-194 -4,-37 -1,-51 14,-70 15,-18 23,-21 31,-13 15,15 29,78 30,131 0,49 4,51 110,55 65,3 65,3 70,-92 6,-107 26,-153 64,-148 20,3 21,7 17,129 -2,87 1,133 9,149 15,27 14,234 -1,262 -11,21 -30,23 -47,6 z m 11668,15 c -31,-28 -31,-28 -37,-190 -3,-90 -9,-163 -13,-163 -15,0 -100,149 -100,175 0,3 -21,42 -46,86 -33,56 -53,81 -71,85 -13,4 -28,3 -33,-2 -12,-12 -30,-240 -30,-379 0,-99 2,-114 21,-134 37,-39 46,-15 54,137 3,75 10,147 15,159 12,29 38,20 47,-16 12,-51 96,-197 136,-238 45,-47 54,-50 82,-29 17,12 19,31 20,218 1,175 3,209 18,231 23,35 21,49 -8,70 -24,17 -25,17 -55,-10 z m -6052,-78 c 11,-13 22,-43 26,-67 9,-55 -8,-68 -90,-68 -53,0 -62,3 -67,19 -5,21 37,121 56,133 23,15 56,8 75,-17 z m -108,87 c -63,-43 -95,-121 -115,-277 -8,-60 -20,-137 -28,-170 -14,-58 -9,-105 11,-105 5,0 18,11 31,24 22,24 31,49 51,148 6,32 18,65 26,73 20,19 169,21 181,3 4,-7 10,-52 13,-101 7,-97 25,-132 58,-111 40,27 3,376 -49,461 -41,66 -125,92 -179,55 z m -867,7 c -7,-9 -13,-93 -17,-219 -4,-113 -7,-218 -8,-234 -1,-29 15,-46 43,-46 24,0 29,21 42,167 8,102 7,152 -2,218 -14,91 -38,138 -58,114 z m -4430,-8 c -45,-9 -84,-19 -88,-22 -11,-12 -16,-460 -5,-500 12,-42 32,-50 72,-28 11,6 71,16 132,23 111,11 111,11 111,41 0,30 0,30 -110,31 -61,0 -116,3 -122,7 -6,4 -14,29 -18,56 -9,68 9,104 54,111 63,9 70,70 8,70 -44,0 -57,15 -57,66 0,72 18,82 141,87 110,4 129,9 129,31 0,48 -93,58 -247,27 z m -2933,2 c -36,-8 -82,-24 -104,-35 -31,-16 -40,-18 -47,-7 -5,8 -9,17 -9,22 0,4 -11,7 -25,7 -34,0 -45,-27 -45,-109 0,-113 -17,-131 -125,-131 -52,0 -62,11 -64,73 -1,55 -15,87 -36,87 -24,0 -35,-35 -35,-117 -1,-43 -7,-105 -15,-138 -29,-119 -15,-191 36,-183 23,3 24,6 27,90 2,55 7,90 16,97 21,17 167,35 176,21 4,-7 10,-43 13,-81 8,-96 44,-146 85,-120 11,6 11,16 3,47 -13,48 -14,353 -1,374 20,33 30,-11 36,-175 6,-136 11,-179 27,-214 19,-44 19,-44 96,-36 42,4 107,10 145,14 48,4 72,11 79,23 28,43 -48,66 -156,47 -70,-13 -70,-13 -93,15 -18,20 -24,39 -24,76 0,56 18,80 59,80 41,0 91,20 91,36 0,22 -38,36 -93,32 -52,-3 -52,-3 -52,57 0,56 2,61 30,74 19,9 64,15 125,16 52,0 101,4 108,8 15,10 16,39 0,55 -16,16 -146,14 -228,-5 z m 9275,-113 c 4,-6 22,-9 41,-8 26,2 41,-5 62,-25 24,-25 27,-34 27,-101 0,-64 -4,-78 -28,-114 -28,-40 -84,-72 -127,-72 -31,0 -57,33 -64,84 -9,56 10,192 30,224 15,23 48,30 59,12 z m 328,13 c 4,-3 29,-14 55,-22 42,-14 50,-22 76,-73 36,-74 31,-110 -27,-173 -36,-40 -49,-48 -89,-52 -41,-5 -50,-2 -73,21 -26,26 -27,28 -23,152 3,111 5,127 22,140 21,15 48,18 59,7 z m 445,25 c 36,-22 62,-64 62,-100 0,-47 -42,-153 -75,-194 -21,-25 -50,-47 -71,-54 -62,-21 -66,-9 -65,186 1,149 3,170 18,182 23,17 87,7 131,-20 z m -191,76 c -48,-32 -63,-68 -42,-100 17,-26 20,-64 5,-64 -5,0 -10,5 -10,10 0,19 -84,89 -120,101 -19,7 -52,25 -73,40 -36,26 -41,27 -66,15 -27,-15 -71,-67 -71,-86 0,-23 -32,-22 -58,2 -31,28 -140,78 -170,78 -39,0 -78,-46 -111,-132 -18,-46 -34,-84 -36,-86 -2,-2 -17,4 -35,13 -26,14 -40,14 -85,5 -59,-12 -68,-19 -59,-44 4,-11 19,-16 50,-16 38,0 46,-4 56,-25 24,-54 -55,-175 -106,-159 -32,10 -71,45 -99,89 -35,55 -40,79 -32,140 13,109 97,160 221,136 35,-7 71,-11 79,-7 23,8 18,32 -11,55 -23,18 -41,21 -116,21 -110,0 -155,-22 -208,-102 -29,-45 -35,-63 -38,-123 -3,-60 0,-77 21,-117 34,-65 54,-88 110,-131 55,-42 93,-47 143,-19 39,21 79,68 88,105 3,15 10,27 14,27 4,0 18,-20 31,-44 37,-71 53,-81 131,-81 61,0 72,3 112,33 80,61 83,61 127,11 38,-43 40,-44 97,-43 67,1 98,15 169,73 27,23 53,41 57,41 12,0 10,-48 -2,-71 -14,-26 16,-79 45,-79 11,0 53,11 93,25 120,41 183,119 216,267 14,58 14,73 1,115 -36,121 -219,194 -318,127 z m -2249,12 c -52,-28 -71,-45 -94,-86 -30,-52 -30,-98 -3,-144 26,-45 65,-53 149,-32 73,19 93,12 110,-38 20,-61 -23,-129 -113,-177 -46,-24 -62,-18 -112,51 -38,52 -54,60 -74,36 -27,-32 64,-167 123,-182 69,-17 230,108 255,199 18,64 1,126 -46,167 -42,37 -75,46 -123,31 -20,-6 -54,-11 -74,-11 -33,0 -36,2 -36,29 0,18 11,40 29,60 28,30 32,31 114,31 94,0 111,11 78,52 -15,18 -30,23 -87,26 -48,2 -78,-2 -96,-12 z M 6296,693 c -42,-30 -86,-114 -86,-163 0,-40 31,-89 60,-95 22,-5 60,3 145,29 28,9 83,-28 91,-60 10,-37 -21,-122 -60,-168 -26,-32 -39,-39 -79,-43 -47,-6 -49,-5 -92,43 -38,41 -48,47 -63,38 -42,-27 28,-135 100,-154 73,-20 116,-5 179,61 65,66 89,123 89,208 0,81 -24,115 -95,137 -47,15 -63,16 -101,6 -89,-24 -109,-9 -79,59 21,45 29,48 134,51 84,3 96,14 57,53 -22,22 -34,25 -93,25 -58,0 -74,-4 -107,-27 z m 10778,26 c -11,-6 -33,-29 -47,-52 -21,-32 -27,-53 -27,-99 0,-49 4,-61 28,-83 24,-24 33,-26 79,-22 42,5 57,2 78,-15 35,-27 52,-65 55,-118 6,-108 -6,-130 -72,-130 -35,0 -46,6 -82,43 -22,24 -50,59 -61,78 -42,71 -85,37 -44,-37 54,-100 135,-154 231,-154 47,0 54,3 90,42 21,23 39,39 41,37 2,-2 9,-19 17,-37 20,-50 38,-55 128,-37 44,10 108,15 151,13 63,-3 75,0 85,15 9,15 7,22 -12,37 -32,26 -97,34 -182,21 -99,-16 -104,-10 -96,88 8,86 17,101 57,101 34,0 71,33 63,55 -6,14 -28,20 -68,16 -35,-3 -46,18 -46,84 0,48 4,64 16,69 9,3 63,6 120,6 115,0 128,7 105,57 -12,26 -12,26 -145,20 -74,-3 -143,-10 -155,-16 -20,-11 -21,-19 -21,-180 0,-168 -6,-231 -20,-231 -4,0 -11,16 -15,36 -3,20 -15,53 -26,73 -10,20 -19,41 -19,46 0,28 -62,69 -127,86 -60,14 -68,20 -71,42 -2,17 7,36 26,58 30,33 30,33 90,7 54,-23 63,-24 73,-11 18,21 2,41 -60,74 -55,30 -100,35 -137,18 z m -7817,0 c -73,-10 -124,-31 -134,-55 -3,-9 4,-29 16,-45 21,-29 22,-34 15,-234 -5,-152 -4,-208 5,-219 10,-12 44,-14 176,-12 177,2 192,6 181,50 -6,26 -6,26 -132,26 -69,0 -134,5 -145,10 -16,9 -19,22 -19,75 0,74 14,95 66,95 27,0 35,4 40,24 8,33 -2,46 -34,46 -48,0 -57,13 -57,86 0,66 1,68 30,76 17,5 67,10 112,12 48,2 89,8 98,16 20,16 19,46 -1,54 -21,8 -134,5 -217,-5 z M 8759,466 c 36,-38 88,-50 140,-32 89,32 131,13 131,-61 0,-92 -93,-173 -159,-138 -16,8 -41,29 -56,47 -19,23 -39,35 -64,38 -36,5 -36,5 -39,88 -3,91 6,102 47,58 z m -88,240 c -31,-33 -42,-97 -40,-239 0,-65 -2,-121 -5,-124 -15,-16 -101,99 -141,187 -30,67 -34,75 -43,105 -11,38 -31,42 -61,14 -21,-20 -23,-27 -16,-78 4,-31 9,-119 11,-196 3,-165 9,-201 31,-209 29,-11 36,10 37,118 0,57 5,108 9,113 17,16 138,-137 151,-192 7,-30 42,-75 58,-75 13,0 48,63 48,86 0,45 23,45 68,-1 79,-81 172,-84 254,-7 26,25 48,50 48,56 0,6 6,22 13,36 25,48 26,72 5,134 -11,34 -25,66 -30,73 -22,27 -113,26 -204,-2 -13,-4 -29,1 -45,14 -31,25 -21,44 47,86 35,22 66,31 109,35 43,4 61,9 63,20 5,26 -21,50 -61,57 -31,5 -51,-1 -123,-37 -47,-24 -90,-52 -95,-62 -5,-10 -17,-18 -26,-18 -13,0 -15,9 -10,54 3,33 1,58 -6,65 -16,16 -21,14 -46,-13 z m -2896,-1 c -76,-52 -95,-81 -95,-148 0,-51 4,-62 29,-88 27,-27 35,-29 101,-29 45,0 82,6 101,16 28,14 33,14 55,-1 20,-13 24,-24 24,-64 0,-61 -28,-104 -95,-148 -74,-49 -99,-42 -160,40 -28,38 -40,43 -64,28 -31,-20 36,-128 101,-162 48,-24 59,-24 116,5 83,42 133,85 150,127 8,22 20,38 26,36 6,-2 13,-37 16,-78 5,-71 6,-74 31,-77 49,-6 52,9 52,274 0,209 -2,248 -15,261 -15,14 -18,13 -34,-12 -13,-20 -19,-55 -23,-129 -6,-104 -15,-121 -39,-71 -18,35 -75,59 -121,50 -20,-4 -65,-8 -100,-8 -51,-2 -66,1 -75,16 -24,38 63,125 114,112 14,-4 40,-9 58,-12 29,-5 32,-3 32,21 0,33 -37,58 -98,63 -39,4 -54,0 -87,-22 z m -2206,15 c -63,-8 -190,-39 -202,-50 -4,-4 -10,-108 -12,-231 -3,-123 -6,-235 -7,-249 -3,-23 0,-25 37,-24 22,0 76,8 119,17 48,11 95,15 120,12 33,-5 47,-2 66,14 24,19 24,21 8,37 -23,23 -113,30 -190,14 -57,-12 -62,-12 -75,6 -15,20 -9,98 9,121 5,7 33,13 61,15 38,2 53,7 55,19 5,25 -26,49 -63,49 -52,0 -66,21 -59,88 4,31 10,61 14,65 4,5 55,14 113,21 77,8 111,16 126,30 20,18 20,20 5,38 -18,19 -33,20 -125,8 z m -382,-80 c 30,-18 31,-21 22,-49 -12,-34 -44,-58 -84,-63 -67,-8 -50,-68 25,-88 96,-26 119,-93 55,-162 -31,-35 -38,-38 -90,-38 -97,0 -93,-8 -88,202 4,168 7,184 25,201 27,23 95,22 135,-3 z m -112,80 c -70,-9 -144,-46 -156,-77 -10,-27 -7,-36 24,-70 19,-21 20,-31 13,-193 -7,-171 -7,-171 49,-196 76,-35 165,-31 218,9 60,45 97,110 97,168 0,44 -4,54 -42,94 -41,46 -41,46 -20,68 26,28 36,68 28,112 -12,62 -103,99 -211,85 z m 12635,9 c -14,-4 -73,-7 -132,-8 -83,-1 -110,-5 -122,-17 -30,-30 -15,-490 18,-542 12,-21 45,-14 51,10 3,13 4,68 3,123 -3,100 -3,100 65,107 75,7 99,21 95,52 -3,19 -11,21 -85,24 -96,3 -99,7 -86,102 8,55 8,55 103,61 52,3 109,9 126,14 24,5 33,3 38,-10 3,-9 -1,-86 -9,-172 -18,-191 -19,-325 -3,-341 16,-16 47,-15 53,1 3,6 9,63 13,125 5,62 13,117 18,122 5,5 45,12 89,16 94,8 108,15 93,49 -10,22 -18,24 -92,27 -81,3 -81,3 -79,71 3,98 7,101 100,103 43,1 90,6 104,12 15,6 37,8 49,5 22,-6 23,-9 17,-93 -4,-48 -10,-151 -13,-228 -7,-141 -7,-142 19,-181 31,-47 72,-57 162,-42 33,6 87,15 119,20 33,6 66,17 74,25 12,11 9,17 -18,36 -34,24 -64,24 -198,1 -35,-7 -67,-9 -72,-6 -15,9 -12,179 2,193 7,7 35,12 64,12 68,0 114,10 114,24 0,7 -6,21 -14,32 -11,15 -30,20 -88,24 -73,5 -73,5 -76,54 -2,27 1,53 5,57 5,5 60,15 122,23 62,9 119,21 127,27 21,17 17,37 -11,55 -20,13 -31,15 -49,6 -13,-6 -57,-13 -97,-17 -41,-3 -89,-8 -107,-11 -29,-4 -34,-2 -43,25 -13,38 -40,44 -131,30 -40,-6 -96,-9 -124,-5 -29,3 -65,1 -84,-5 -26,-10 -38,-9 -59,3 -17,10 -35,12 -51,7 z m -10880,5 c -36,-7 -94,-18 -130,-24 -102,-18 -130,-29 -130,-51 0,-17 8,-19 84,-19 58,0 87,-4 95,-13 8,-10 7,-66 -4,-213 -8,-109 -18,-207 -21,-216 -6,-19 28,-58 51,-58 9,0 19,10 24,23 9,24 25,276 26,399 0,55 4,81 15,92 8,8 46,18 85,23 75,9 92,25 60,57 -19,19 -63,19 -155,0 z m -520,0 c -47,-7 -112,-18 -144,-24 -37,-6 -68,-17 -80,-30 -21,-21 -21,-21 -1,-36 12,-9 30,-12 52,-8 63,12 65,5 61,-223 -3,-177 -1,-204 13,-219 13,-13 21,-14 38,-5 20,11 21,18 21,225 0,245 -2,240 90,252 76,10 100,20 100,43 0,21 -28,42 -52,40 -7,0 -51,-7 -98,-15 z m -2512,-4 c -69,-10 -131,-21 -137,-24 -17,-11 -13,-53 5,-60 8,-3 40,-3 69,0 78,10 79,6 71,-252 -5,-183 -4,-213 9,-224 12,-10 21,-10 40,-2 25,12 25,12 25,245 0,168 3,236 12,245 8,8 46,12 104,12 99,0 144,11 144,34 0,49 -112,58 -342,26 z m 13455,-63 c 24,-17 47,-106 53,-212 8,-112 -16,-186 -69,-222 -60,-41 -88,-29 -133,57 -26,50 -29,64 -29,155 0,92 2,104 28,148 48,79 105,108 150,74 z m -78,86 c -56,-15 -110,-65 -146,-135 -26,-52 -29,-68 -30,-157 0,-84 3,-107 26,-161 34,-82 62,-118 107,-141 97,-50 201,8 238,132 25,84 25,151 0,268 -24,107 -50,150 -114,180 -43,22 -47,22 -81,14 z m -753,-23 c -23,-16 -54,-49 -68,-72 -55,-87 -56,-158 -3,-197 35,-26 33,-26 149,18 71,27 84,26 109,-5 26,-33 27,-79 2,-135 -26,-57 -56,-85 -113,-105 -59,-20 -74,-12 -122,61 -32,48 -40,54 -57,45 -31,-17 -42,28 -36,140 7,123 -2,184 -27,188 -27,6 -34,-12 -41,-114 -5,-57 -13,-100 -22,-111 -10,-13 -16,-14 -19,-6 -14,32 -49,64 -83,74 -31,9 -49,8 -94,-5 -65,-19 -96,-14 -127,19 -22,23 -22,23 -3,67 15,33 30,48 65,66 56,27 73,27 121,2 40,-22 82,-26 92,-10 23,37 -70,100 -147,100 -43,0 -118,-30 -153,-61 -17,-16 -26,-17 -55,-8 -24,7 -81,8 -180,1 -135,-8 -146,-8 -159,10 -19,26 -51,24 -51,-4 -1,-13 -5,-57 -10,-98 -10,-89 -28,-110 -97,-110 -61,0 -86,15 -79,46 4,14 2,43 -4,65 -9,33 -15,40 -33,37 -20,-3 -23,-11 -28,-83 -4,-44 -13,-135 -20,-202 -14,-133 -9,-153 36,-153 30,0 35,16 35,108 0,42 4,82 8,88 10,16 136,26 151,11 6,-6 11,-45 11,-94 0,-77 2,-84 26,-99 15,-10 29,-13 34,-8 5,5 11,71 13,147 3,85 9,143 16,150 6,6 11,7 12,1 0,-5 4,-78 8,-161 7,-141 9,-154 31,-178 28,-29 81,-33 151,-11 24,8 61,17 81,21 39,6 64,35 54,61 -7,19 -91,19 -146,-1 -23,-8 -53,-15 -66,-15 -22,0 -24,5 -26,48 -4,78 1,134 13,149 8,9 23,11 44,7 23,-4 37,-1 49,11 31,31 16,50 -44,55 -55,5 -55,5 -55,60 0,55 0,55 45,67 25,6 73,12 108,12 62,1 62,1 62,-55 0,-77 21,-109 84,-130 44,-15 60,-15 122,-5 82,14 94,11 117,-28 40,-69 -3,-178 -77,-197 -29,-7 -92,28 -101,57 -9,26 -45,59 -65,59 -16,0 -20,-7 -20,-33 0,-68 96,-157 170,-157 58,0 139,56 155,108 9,32 33,27 48,-10 8,-18 21,-39 30,-46 13,-11 18,-9 31,10 9,12 16,35 16,50 0,16 5,28 10,28 6,0 10,-4 10,-8 0,-5 16,-29 36,-55 45,-58 76,-69 146,-53 97,22 165,85 198,182 24,69 24,82 4,156 -17,58 -17,58 -71,74 -46,13 -63,14 -102,4 -25,-7 -56,-19 -69,-27 -58,-36 -74,41 -21,102 28,32 36,35 83,35 30,0 60,-6 72,-15 29,-22 53,-18 66,10 6,14 9,27 7,28 -2,2 -25,15 -51,30 -66,38 -131,37 -186,-3 z m -1334,20 c -26,-4 -51,-11 -56,-14 -5,-3 -39,-10 -75,-15 -74,-11 -150,-52 -145,-79 4,-19 43,-28 61,-14 25,20 65,22 82,6 14,-15 15,-34 8,-158 -4,-77 -8,-170 -8,-206 0,-57 2,-65 20,-68 11,-1 25,1 32,6 16,10 33,176 33,319 0,65 5,125 10,133 7,11 33,16 100,19 74,2 92,6 100,21 24,45 -54,70 -162,50 z M 7162,655 c 30,-20 38,-33 44,-70 14,-95 -16,-187 -84,-258 -62,-64 -149,-106 -166,-79 -3,5 -6,97 -7,206 -1,143 2,200 11,211 9,11 34,15 89,15 65,0 82,-4 113,-25 z m -167,96 c -91,-26 -155,-78 -155,-128 0,-14 9,-36 20,-50 18,-23 20,-41 20,-169 0,-86 -5,-153 -11,-168 -10,-20 -9,-30 5,-51 14,-22 24,-25 73,-25 113,0 241,95 303,225 27,57 34,85 38,152 9,158 22,70 22,-142 0,-215 0,-215 26,-231 35,-23 113,-29 187,-14 70,15 87,25 87,50 0,37 -26,44 -90,27 -118,-33 -140,-20 -140,82 0,77 9,91 61,91 21,0 41,5 44,10 11,18 -19,52 -55,64 -33,10 -35,13 -38,64 -3,49 -1,53 25,64 15,6 71,12 123,12 52,1 100,5 107,9 27,17 34,-42 36,-283 2,-156 4,-185 17,-188 9,-1 24,4 35,12 16,11 20,30 24,122 6,109 6,109 41,112 59,4 79,11 90,33 18,33 -4,49 -65,49 -59,0 -65,6 -65,70 0,37 2,40 56,64 40,19 73,26 115,26 65,0 80,-12 53,-41 -15,-17 -16,-24 -6,-52 9,-24 9,-55 2,-117 -6,-47 -15,-123 -21,-170 -5,-47 -7,-95 -4,-107 7,-31 47,-39 125,-24 36,7 94,16 130,20 92,9 112,28 72,64 -23,21 -75,21 -157,1 -86,-22 -95,-14 -88,69 7,82 23,107 69,107 42,0 74,15 74,35 0,21 -40,45 -76,45 -38,0 -57,20 -52,56 6,50 47,68 161,74 102,5 102,5 102,40 0,35 0,35 -95,34 -69,0 -104,-5 -128,-18 -42,-22 -76,-13 -68,17 9,35 -11,47 -81,47 -64,0 -117,-16 -209,-63 -42,-20 -42,-20 -75,8 -34,28 -34,28 -184,20 -112,-5 -157,-11 -178,-23 -28,-17 -29,-17 -55,16 -49,59 -169,95 -247,73 z M 3845,735 c -53,-32 -87,-84 -92,-143 -5,-60 12,-92 60,-115 35,-18 41,-18 100,-3 61,16 62,16 80,-5 17,-22 22,-94 8,-151 -8,-34 -47,-64 -93,-73 -33,-6 -41,-3 -82,35 -49,46 -76,48 -76,6 0,-29 41,-81 81,-101 70,-36 177,-1 224,73 28,44 30,53 29,145 0,93 -2,99 -29,127 -24,25 -36,30 -79,30 -27,0 -65,-5 -83,-12 -30,-11 -36,-10 -55,10 -22,22 -22,22 -1,65 27,55 69,76 117,59 87,-32 117,11 41,58 -44,27 -101,26 -150,-5 z m 12001,6549 c -3,-9 -6,-31 -6,-49 0,-20 -6,-38 -15,-43 -9,-4 -18,-26 -22,-48 -3,-21 -14,-50 -25,-63 -10,-13 -18,-32 -18,-43 0,-10 -8,-36 -19,-56 -19,-37 -49,-103 -81,-177 -10,-22 -36,-77 -59,-123 -22,-46 -41,-92 -41,-103 0,-31 29,-22 44,15 8,18 19,37 25,40 6,4 11,15 11,25 0,10 9,30 20,44 11,14 20,34 20,45 0,10 9,29 20,42 11,13 20,30 20,39 0,9 9,30 20,46 11,17 20,37 20,45 0,8 9,32 20,53 11,20 20,47 20,59 0,13 9,37 20,53 11,17 20,45 20,63 0,19 9,45 20,59 23,30 27,93 6,93 -8,0 -17,-7 -20,-16 z m 41,69 c -11,-10 -8,-43 3,-43 9,0 30,31 30,44 0,8 -25,7 -33,-1 z m 403,93 c 0,-19 26,-38 46,-34 28,5 26,22 -3,36 -35,15 -43,15 -43,-2 z m 107,22 c -9,-5 -17,-14 -17,-19 0,-14 52,-7 57,7 5,16 -20,24 -40,12 z m 1023,-5623 c 0,-26 30,-77 43,-72 7,2 13,18 15,35 3,27 -1,34 -23,42 -34,13 -35,13 -35,-5 z m 70,130 c -13,-35 -13,-92 1,-100 17,-11 22,1 27,59 5,60 -12,84 -28,41 z m -73,118 c -11,-10 -8,-73 3,-73 6,0 10,18 10,40 0,41 -2,45 -13,33 z m 113,72 c -13,-34 -13,-122 0,-130 15,-9 30,39 30,95 0,56 -15,74 -30,35 z m 1760,60 c 0,-8 5,-15 10,-15 6,0 10,7 10,15 0,8 -4,15 -10,15 -5,0 -10,-7 -10,-15 z m -1840,11 c 0,-9 5,-16 10,-16 6,0 10,4 10,9 0,6 -4,13 -10,16 -5,3 -10,-1 -10,-9 z m 1716,20 c -8,-60 1,-183 14,-191 12,-7 22,108 14,167 -10,80 -20,89 -28,24 z m -1596,158 c -12,-32 -13,-161 -1,-168 14,-9 23,23 28,112 4,59 3,82 -6,82 -6,0 -16,-12 -21,-26 z m 40,147 c -13,-25 -13,-101 0,-101 16,0 30,37 30,79 0,44 -13,53 -30,22 z m 36,117 c -11,-42 -7,-78 9,-78 16,0 31,60 21,85 -8,22 -23,18 -30,-7 z m 1604,52 c 0,-47 4,-80 10,-80 6,0 10,33 10,80 0,47 -4,80 -10,80 -6,0 -10,-33 -10,-80 z m -1560,49 c 0,-24 4,-38 10,-34 6,3 10,22 10,41 0,19 -4,34 -10,34 -5,0 -10,-18 -10,-41 z m 40,125 c 0,-14 4,-23 10,-19 6,3 10,15 10,26 0,10 -4,19 -10,19 -5,0 -10,-12 -10,-26 z m 1407,56 c -10,-35 -7,-461 3,-485 9,-21 9,-18 15,210 4,138 -7,311 -18,275 z m -1451,374 c -9,-23 -7,-67 3,-83 13,-20 31,18 31,63 0,38 -22,51 -34,20 z m 1473,174 c -7,-27 -10,-102 -7,-205 3,-134 7,-165 20,-180 10,-11 20,-44 23,-78 9,-84 14,-105 26,-105 12,0 9,111 -14,410 -17,223 -14,200 -27,200 -5,0 -14,-19 -21,-42 z m 171,193 c -8,-5 -110,-14 -225,-21 -115,-6 -218,-13 -230,-15 -11,-3 -81,-12 -155,-20 -132,-15 -172,-27 -135,-41 22,-9 335,4 395,16 25,5 124,12 220,16 197,8 223,13 218,47 -2,17 -10,23 -38,24 -19,2 -42,-1 -50,-6 z m -1419,4 c -18,-9 -64,-15 -102,-15 -60,0 -69,-2 -69,-18 0,-11 9,-27 20,-37 16,-15 20,-30 19,-69 -1,-28 -4,-56 -6,-63 -10,-26 -35,-22 -70,12 -35,34 -53,43 -53,27 0,-4 21,-31 48,-60 40,-45 52,-52 83,-52 44,0 57,22 34,56 -9,14 -15,46 -15,78 0,44 4,57 19,65 30,17 109,42 154,49 28,5 43,13 45,25 3,14 -4,17 -35,17 -21,-1 -53,-7 -72,-15 z m 1410,192 c -8,-10 -56,-16 -175,-20 -90,-4 -176,-11 -191,-17 -15,-6 -66,-14 -114,-19 -47,-5 -99,-16 -116,-25 -16,-9 -52,-16 -80,-16 -54,0 -82,-11 -71,-29 12,-18 117,-12 161,9 22,11 57,19 79,20 21,0 75,9 120,19 97,23 422,36 433,18 4,-6 6,-24 5,-39 -1,-15 2,-28 8,-28 19,0 11,80 -12,110 -24,34 -31,36 -47,17 z m -543,2773 c -10,-6 -18,-18 -18,-26 0,-8 -9,-32 -20,-52 -18,-34 -32,-65 -92,-202 -11,-25 -24,-53 -29,-63 -21,-39 -56,-143 -52,-154 8,-23 31,-14 52,21 12,18 21,39 21,46 0,13 6,26 79,182 23,48 41,93 41,100 0,13 49,89 64,100 6,3 21,1 35,-6 72,-36 430,-72 446,-45 4,6 5,12 4,14 -2,2 -49,10 -104,19 -55,9 -129,21 -164,27 -36,6 -81,17 -100,25 -47,20 -141,28 -163,14 z m -1128,381 c -5,-11 -10,-43 -10,-72 0,-35 -6,-59 -16,-71 -20,-21 -32,-118 -16,-118 18,0 32,36 32,81 0,26 7,50 17,61 20,22 32,138 15,138 -6,0 -16,-9 -22,-19 z m 15,139 c -4,-7 -2,-17 4,-23 6,-6 11,-26 11,-44 0,-22 5,-33 15,-33 18,0 32,67 18,89 -13,20 -39,26 -48,11 z m -511,-1407 c 4,-10 -1,-28 -14,-45 -11,-15 -20,-33 -20,-41 0,-8 -9,-22 -20,-32 -11,-10 -20,-26 -20,-35 0,-18 -23,-33 -34,-23 -13,13 -5,51 14,73 11,13 20,29 20,36 0,7 8,19 19,26 10,7 21,23 25,36 9,26 21,29 30,5 z m 6,1447 c 0,-16 47,-30 102,-30 34,0 58,-6 70,-17 10,-9 44,-19 80,-22 63,-6 63,-6 66,-98 2,-77 0,-96 -18,-125 -11,-18 -20,-43 -20,-56 0,-12 -9,-40 -20,-62 -11,-22 -20,-50 -20,-62 0,-13 -9,-36 -20,-53 -11,-16 -20,-39 -20,-50 0,-11 -9,-33 -20,-50 -11,-16 -20,-39 -20,-50 0,-11 -9,-37 -20,-58 -11,-20 -20,-46 -20,-57 0,-11 -7,-37 -16,-59 -16,-41 -34,-113 -61,-241 -8,-41 -21,-89 -29,-107 -8,-17 -14,-38 -14,-47 0,-9 -9,-34 -20,-56 -11,-22 -20,-46 -20,-55 0,-15 -41,-93 -62,-120 -16,-20 -58,-86 -58,-91 0,-3 -11,-30 -25,-60 -14,-30 -25,-59 -25,-64 0,-4 16,-14 35,-20 29,-10 38,-9 58,7 14,10 33,31 43,48 11,16 27,41 37,55 9,14 24,40 33,59 8,19 22,40 30,48 8,8 14,22 14,32 0,10 9,28 20,41 11,13 20,31 20,40 0,9 9,27 20,40 11,13 20,32 20,42 0,11 9,31 20,45 11,14 20,33 20,42 0,9 9,30 20,46 11,17 20,37 20,45 0,8 9,32 20,53 11,20 20,45 20,54 0,10 9,32 20,48 11,17 20,41 20,55 0,14 9,39 20,55 11,17 20,44 20,60 0,17 9,44 20,60 11,17 20,41 20,53 0,13 9,35 20,49 11,14 20,37 20,50 0,14 9,36 20,50 21,26 28,83 10,83 -13,0 -30,-34 -30,-62 0,-13 -9,-31 -20,-41 -11,-9 -20,-29 -20,-43 0,-14 -9,-37 -20,-51 -11,-14 -20,-37 -20,-50 0,-14 -9,-36 -20,-50 -11,-14 -20,-38 -20,-53 0,-15 -9,-39 -20,-53 -11,-14 -20,-36 -20,-49 0,-13 -9,-40 -20,-61 -11,-20 -20,-45 -20,-54 0,-10 -9,-31 -20,-48 -11,-16 -20,-39 -20,-51 0,-12 -9,-31 -20,-44 -11,-13 -20,-33 -20,-45 0,-12 -9,-32 -20,-45 -11,-13 -20,-33 -20,-46 0,-13 -9,-29 -19,-36 -11,-8 -21,-27 -23,-43 -2,-19 -9,-30 -18,-30 -23,0 -24,42 -1,79 12,18 21,44 21,57 0,13 7,37 15,53 8,16 20,60 26,98 6,39 17,85 25,104 8,18 14,45 14,59 0,14 9,51 20,82 11,32 20,67 20,78 0,11 9,37 20,58 11,20 20,45 20,55 0,9 9,34 20,55 11,20 20,45 20,54 0,10 9,32 20,48 11,17 20,41 20,55 0,14 9,39 20,55 11,17 20,47 20,67 0,21 9,52 20,70 16,26 20,51 20,121 0,83 2,89 27,113 27,25 27,26 8,40 -26,19 -55,17 -90,-6 -19,-12 -47,-20 -75,-20 -28,0 -56,8 -75,20 -22,14 -47,20 -92,20 -37,0 -63,-4 -63,-10 z m -7989,3743 c -1,-6 -10,-14 -20,-18 -10,-3 -45,-32 -78,-64 -89,-87 -140,-207 -169,-396 -15,-97 -15,-130 -4,-278 12,-167 10,-228 -15,-342 -34,-157 -134,-285 -371,-471 -132,-104 -154,-128 -134,-148 31,-31 317,196 434,343 67,85 90,125 121,214 25,72 25,78 25,388 0,173 5,330 10,349 44,167 79,244 138,305 44,45 76,100 68,118 -3,9 -5,9 -5,0 z m 9365,523 c -88,-55 -133,-159 -87,-205 23,-23 75,-28 113,-10 61,27 108,163 74,214 -21,31 -49,32 -100,1 z m -498,6 c -23,-21 -40,-49 -52,-87 -17,-54 -17,-57 1,-93 49,-100 193,-56 193,58 0,30 -30,117 -44,129 -30,25 -63,23 -98,-7 z m -506,11 c -60,-56 -96,-120 -87,-155 4,-14 17,-37 31,-51 20,-22 34,-27 72,-27 91,0 172,76 172,159 0,54 -5,63 -50,96 -51,37 -79,33 -138,-22 z M 1807,8226 c -7,-18 12,-36 39,-36 25,0 38,22 21,39 -15,15 -54,14 -60,-3 z m 639,28 c -3,-9 -6,-44 -6,-79 0,-82 11,-92 82,-71 29,8 66,18 81,21 44,9 30,33 -53,91 -82,57 -95,62 -104,38 z m -360,30 c -3,-9 -6,-37 -6,-64 0,-68 18,-84 84,-75 28,4 89,10 136,13 80,7 85,9 88,31 5,35 -10,44 -88,47 -44,1 -81,9 -95,18 -14,9 -33,16 -43,16 -11,0 -25,7 -32,15 -16,20 -36,19 -44,-1 z m -602,2 c -3,-13 -4,-38 -2,-57 3,-32 5,-34 38,-31 19,1 70,2 113,2 69,-1 77,1 77,18 0,33 -32,52 -89,52 -38,0 -60,6 -78,20 -34,26 -51,25 -59,-4 z m 1341,217 c -6,-5 -18,-20 -28,-35 -10,-16 -26,-28 -36,-28 -10,0 -26,-9 -36,-20 -22,-24 -62,-26 -87,-3 -15,13 -23,14 -41,5 -22,-11 -42,-15 -63,-13 -7,0 -15,17 -18,36 -6,31 -11,35 -36,35 -23,0 -31,-5 -34,-22 -2,-13 -8,-44 -14,-70 -7,-38 -6,-50 5,-59 11,-9 19,-7 38,11 21,20 29,22 49,12 17,-7 35,-8 58,-2 18,6 60,9 93,8 33,-1 70,4 83,11 24,13 26,12 88,-34 21,-15 25,-3 27,86 2,77 0,84 -18,87 -11,1 -25,-1 -30,-5 z m -549,-40 c -9,-26 -19,-55 -22,-64 -6,-17 72,-82 91,-76 12,4 44,66 45,88 0,9 -11,21 -24,27 -16,7 -26,21 -28,39 -2,20 -9,29 -24,31 -17,2 -24,-6 -38,-45 z m -284,24 c -27,-28 -27,-32 -2,-67 38,-54 166,-44 158,13 -3,19 -9,22 -48,22 -39,0 -46,4 -58,28 -16,33 -22,34 -50,4 z m -761,88 c -29,-50 -28,-112 4,-150 24,-29 25,-29 40,-11 8,11 15,26 15,33 0,10 5,11 18,4 9,-5 73,-12 142,-16 69,-3 137,-11 153,-17 22,-9 31,-7 46,6 23,21 33,20 60,-3 17,-15 35,-18 93,-17 77,3 92,14 64,45 -9,10 -14,25 -10,35 4,11 1,16 -10,16 -10,0 -31,15 -47,33 -30,32 -30,32 -67,-10 -45,-51 -70,-55 -78,-13 -4,16 -13,35 -21,42 -22,18 -49,-3 -45,-36 3,-24 0,-27 -19,-24 -16,2 -25,12 -31,34 -4,17 -14,37 -22,44 -13,10 -18,5 -30,-24 -17,-40 -22,-43 -47,-20 -13,12 -22,13 -38,5 -11,-6 -34,-11 -51,-11 -20,0 -39,-9 -54,-25 -21,-22 -25,-23 -36,-10 -17,20 0,61 30,70 31,10 23,49 -11,53 -21,2 -31,-4 -48,-33 z m 685,229 c -9,-9 -15,-21 -13,-28 4,-13 134,-19 142,-6 7,12 -16,27 -50,32 -16,3 -37,8 -46,12 -10,4 -23,0 -33,-10 z m 214,15 c -15,-28 -3,-77 22,-90 13,-7 41,-9 72,-5 71,10 74,9 141,-10 50,-14 67,-15 103,-5 32,9 42,17 40,29 -3,14 -19,18 -83,23 -44,3 -93,1 -108,-4 -25,-8 -37,-4 -96,37 -37,25 -71,46 -74,46 -4,0 -11,-9 -17,-21 z m -485,21 c -8,-26 10,-57 37,-65 13,-4 40,-19 62,-33 37,-26 38,-26 52,-7 26,35 14,58 -40,71 -26,7 -58,22 -70,33 -28,26 -33,26 -41,1 z m 337,424 c -40,-28 -22,-74 29,-74 33,0 43,13 35,45 -9,35 -38,48 -64,29 z m 255,39 c -15,-15 -20,-16 -39,-4 -19,12 -23,11 -35,-5 -14,-20 -16,-37 -6,-72 5,-21 10,-23 38,-18 37,7 45,-6 45,-76 0,-31 4,-38 20,-38 11,0 20,6 20,13 0,29 21,36 54,17 19,-12 58,-20 103,-23 49,-3 77,-9 88,-21 11,-10 25,-14 37,-10 13,4 28,-2 43,-16 29,-28 59,-20 81,22 27,52 4,70 -58,43 -16,-6 -18,-1 -18,38 0,25 -3,52 -6,61 -9,24 -33,19 -44,-9 -14,-37 -50,-51 -86,-32 -16,8 -35,12 -43,9 -7,-2 -31,1 -53,9 -31,10 -44,10 -58,1 -26,-16 -35,0 -35,68 0,60 -16,75 -48,43 z m -995,135 c 3,-80 -2,-103 -28,-125 -46,-41 -54,-26 -46,90 5,77 5,77 38,77 33,0 34,-1 36,-42 z m -72,64 c 0,-5 -12,-14 -26,-21 -23,-10 -25,-16 -20,-49 3,-20 2,-66 -3,-102 -5,-41 -5,-70 2,-77 15,-20 81,-16 110,7 26,21 26,21 39,0 15,-24 41,-26 58,-5 7,8 23,15 36,15 19,0 24,-5 24,-24 0,-26 24,-51 40,-41 5,3 10,17 10,29 0,43 23,51 82,28 29,-12 66,-24 81,-27 34,-7 56,-47 38,-69 -18,-21 -5,-36 29,-36 21,0 35,8 46,26 10,14 41,41 71,60 29,18 53,40 53,48 0,8 -11,27 -24,43 -22,25 -26,26 -52,14 -44,-21 -108,-17 -133,8 -11,11 -31,23 -44,27 -14,3 -30,18 -37,32 -12,27 -12,27 -27,5 -11,-17 -21,-21 -43,-17 -15,4 -31,1 -34,-5 -11,-17 -43,-13 -50,5 -5,13 -15,15 -45,10 -45,-7 -71,11 -71,47 0,30 -52,77 -84,77 -14,0 -26,-4 -26,-8 z m 973,28 c -44,-42 -43,-72 3,-99 20,-12 46,-23 57,-24 19,-2 23,5 29,53 4,30 8,64 10,75 2,16 -3,21 -32,23 -28,2 -42,-4 -67,-28 z m 232,26 c -29,-12 -30,-13 -9,-24 31,-17 35,-37 18,-88 -16,-47 -12,-84 10,-84 7,0 21,-9 31,-20 23,-25 106,-28 125,-5 17,21 37,19 50,-6 9,-16 18,-19 37,-14 19,4 32,0 48,-15 13,-12 41,-24 64,-27 38,-5 40,-4 46,23 3,16 10,47 15,69 14,60 -19,84 -64,50 -25,-19 -45,-19 -67,1 -13,12 -22,13 -38,5 -29,-16 -126,-14 -140,3 -21,25 -31,77 -20,98 23,42 -40,63 -106,34 z m -940,257 c -11,-3 -23,-10 -27,-17 -9,-14 -10,-147 -2,-210 8,-52 34,-77 60,-55 19,16 18,26 -6,32 -21,5 -27,40 -11,66 13,20 28,6 35,-33 10,-52 50,-79 106,-73 48,6 140,-10 177,-31 12,-6 29,-12 38,-12 9,0 33,-9 55,-20 58,-29 76,-26 105,20 32,51 32,68 -2,81 -15,5 -33,19 -41,30 -12,17 -21,20 -48,14 -32,-6 -34,-4 -34,23 0,59 -64,73 -108,22 -36,-41 -52,-39 -52,9 0,73 -23,96 -38,39 -10,-41 -36,-47 -68,-18 -21,21 -26,21 -54,10 -28,-12 -33,-11 -56,11 -14,13 -24,32 -22,44 2,16 9,19 36,17 40,-3 56,23 27,44 -19,14 -34,16 -70,7 z m -390,97 c -10,-16 2,-27 34,-33 25,-5 29,-11 35,-51 4,-25 4,-51 1,-57 -4,-6 -4,-44 0,-85 6,-62 10,-74 25,-74 10,0 20,7 24,15 8,21 39,19 87,-6 48,-24 69,-19 69,16 0,61 -71,145 -122,145 -14,0 -18,8 -18,33 0,17 4,38 9,46 16,25 1,39 -50,50 -62,14 -86,14 -94,1 z m -300,1595 c 12,-7 52,-25 90,-39 39,-15 91,-36 118,-47 26,-10 68,-28 95,-38 26,-11 76,-31 112,-45 36,-14 97,-41 135,-62 120,-63 197,-101 275,-134 41,-17 102,-44 135,-60 33,-15 89,-40 125,-55 36,-15 162,-75 280,-133 298,-146 443,-212 463,-212 7,0 29,-9 50,-20 20,-11 42,-20 47,-20 13,0 148,-63 302,-141 64,-32 125,-59 135,-59 10,-1 36,-9 58,-20 22,-11 52,-19 66,-20 52,0 53,-3 46,-369 -5,-234 -11,-348 -19,-367 -10,-23 -12,-216 -9,-864 3,-459 5,-873 6,-920 16,-630 31,-1693 26,-1802 -2,-29 -88,-76 -256,-137 -33,-13 -78,-31 -101,-42 -23,-10 -45,-19 -49,-19 -4,0 -26,-8 -49,-19 -23,-10 -66,-29 -96,-41 -30,-12 -73,-30 -95,-40 -22,-10 -60,-27 -85,-38 -25,-11 -56,-23 -70,-27 -14,-4 -29,-11 -35,-15 -5,-4 -28,-13 -50,-20 -22,-7 -49,-19 -60,-26 -11,-8 -26,-14 -35,-14 -8,-1 -33,-9 -55,-20 -22,-11 -46,-19 -54,-20 -8,0 -35,-9 -60,-21 -95,-44 -107,-49 -148,-64 -109,-39 -130,-47 -160,-60 -17,-8 -36,-15 -43,-15 -7,0 -28,-7 -48,-16 -21,-9 -55,-25 -77,-34 -22,-10 -66,-30 -99,-44 -32,-14 -63,-26 -69,-26 -9,0 -112,-38 -162,-60 -11,-5 -49,-21 -85,-35 -69,-28 -93,-39 -232,-104 -48,-23 -94,-41 -103,-41 -8,0 -57,-20 -107,-45 -127,-60 -123,-65 -110,157 6,96 9,271 5,393 -4,163 -1,282 12,460 18,248 18,239 2,2730 0,132 4,416 11,630 12,394 4,898 -18,1125 -6,52 -14,200 -20,328 -5,128 -16,266 -25,306 -22,108 -32,331 -15,351 14,17 70,12 105,-10 z m 23,156 c 64,-33 147,-71 156,-71 4,0 58,-24 120,-53 152,-73 205,-97 216,-97 10,0 95,-39 345,-160 88,-43 189,-88 225,-100 36,-12 121,-49 190,-82 69,-32 143,-67 165,-77 22,-10 60,-27 85,-39 25,-11 56,-25 70,-31 14,-6 43,-22 65,-35 83,-48 137,-76 151,-76 8,0 62,-27 119,-60 57,-33 106,-60 109,-60 3,0 38,-15 78,-34 40,-18 100,-46 133,-60 33,-14 77,-35 97,-46 20,-11 45,-20 55,-20 10,0 31,-7 46,-15 16,-8 45,-19 66,-25 47,-13 90,-55 73,-72 -10,-10 -19,-9 -45,1 -17,7 -52,19 -77,26 -76,23 -148,51 -162,62 -11,9 -92,48 -253,122 -83,38 -132,59 -200,85 -38,15 -83,33 -100,41 -112,49 -165,75 -376,179 -129,64 -239,116 -243,116 -9,0 -25,7 -156,68 -36,17 -105,48 -155,70 -49,22 -117,54 -150,72 -104,57 -213,110 -226,110 -6,0 -30,8 -53,19 -111,50 -137,61 -149,61 -6,0 -24,6 -39,14 -14,8 -43,20 -64,26 -22,7 -76,30 -121,51 -70,32 -83,42 -83,62 0,26 17,47 38,47 7,0 30,-9 50,-19 z m -154,63 c 9,-4 16,-18 16,-34 0,-54 -57,-68 -71,-17 -11,40 17,66 55,51 z m -64,50 c -25,-14 -48,-31 -52,-37 -20,-32 0,-105 41,-146 16,-16 19,-42 24,-192 3,-105 11,-198 20,-234 13,-53 26,-266 32,-555 0,-36 4,-71 8,-77 6,-9 38,-630 39,-753 0,-14 -6,-214 -15,-445 -9,-265 -13,-564 -11,-810 10,-844 7,-2313 -4,-2515 -14,-246 -16,-430 -7,-565 5,-64 1,-168 -9,-288 -17,-197 -15,-216 24,-237 27,-14 61,-5 155,40 44,21 107,48 140,60 33,12 97,40 142,61 46,21 86,39 89,39 4,0 26,9 50,20 24,11 64,29 88,40 24,11 47,20 52,20 5,0 31,9 59,20 27,10 79,30 115,44 36,14 97,39 135,56 39,18 88,38 110,45 71,24 129,46 162,60 17,8 36,15 42,15 9,0 37,11 136,56 17,7 49,20 73,29 23,8 61,22 85,30 23,9 51,20 62,25 11,5 58,25 105,44 127,50 141,56 185,76 22,10 69,30 105,45 36,15 79,33 95,40 17,7 41,16 55,20 14,4 30,11 35,15 14,10 139,60 152,60 14,0 199,84 217,99 8,7 27,16 43,20 28,8 28,8 26,517 -1,280 -8,799 -17,1154 -21,891 -22,1774 -1,2035 10,127 15,280 13,417 -3,217 -3,217 23,245 42,44 50,67 38,101 -11,32 -70,85 -109,97 -14,4 -29,11 -35,15 -5,4 -33,15 -60,23 -28,8 -82,29 -120,47 -39,18 -95,44 -125,57 -55,25 -259,126 -315,156 -16,9 -70,36 -120,61 -49,24 -124,60 -165,81 -41,20 -93,45 -115,55 -22,10 -96,45 -165,78 -177,84 -218,102 -236,102 -17,0 -63,21 -284,127 -222,107 -228,110 -300,139 -36,14 -102,43 -147,65 -44,21 -85,39 -91,39 -5,0 -15,7 -22,15 -7,8 -21,15 -32,15 -11,0 -93,36 -182,80 -89,44 -168,80 -176,80 -8,0 -35,-12 -60,-26 z m 5700,-1267 c 0,-9 6,-20 13,-24 6,-4 17,-17 23,-27 13,-24 34,-33 34,-14 0,7 -16,28 -35,47 -24,24 -35,29 -35,18 z M 5522,6807 c -5,-7 -12,-19 -14,-27 -5,-12 -7,-12 -13,3 -4,10 -2,24 5,32 14,17 36,9 22,-8 z m 1302,504 c 7,-11 -19,-73 -96,-226 -100,-199 -127,-237 -228,-317 -140,-110 -326,-151 -475,-104 -150,46 -302,121 -313,153 -2,7 21,24 55,39 78,36 165,76 238,109 33,15 85,38 115,52 30,14 73,33 95,43 22,10 96,45 165,78 69,33 168,78 220,100 214,90 214,90 224,73 z m -1054,509 c -20,-13 -90,-13 -90,0 0,6 24,10 53,10 37,0 48,-3 37,-10 z m 390,90 c 0,-15 -36,-30 -74,-30 -20,0 -53,-9 -73,-20 -45,-24 -198,-30 -191,-8 6,17 42,26 111,27 36,1 71,8 94,21 39,21 133,28 133,10 z m 110,36 c 0,-15 -30,-26 -72,-26 -59,0 -15,38 45,39 17,1 27,-4 27,-13 z m 80,34 c 0,-5 -9,-10 -20,-10 -11,0 -20,5 -20,10 0,6 9,10 20,10 11,0 20,-4 20,-10 z m -1080,40 c 0,-5 -4,-10 -10,-10 -5,0 -10,5 -10,10 0,6 5,10 10,10 6,0 10,-4 10,-10 z m 1617,158 c 12,-13 33,-52 48,-88 27,-63 27,-68 22,-225 -3,-106 -10,-184 -22,-230 -51,-201 -53,-203 -161,-248 -207,-86 -269,-113 -369,-161 -60,-29 -132,-63 -160,-76 -65,-29 -134,-60 -217,-99 -38,-17 -98,-45 -135,-62 -38,-17 -86,-40 -109,-50 -23,-10 -45,-19 -50,-19 -5,-1 -27,-9 -49,-20 -58,-28 -77,-25 -137,24 -80,65 -223,235 -272,321 -9,17 -28,48 -41,70 -14,22 -30,51 -35,65 -6,14 -14,32 -19,41 -12,20 -51,164 -51,187 0,10 13,33 28,51 22,27 36,34 69,36 23,2 50,8 60,13 10,5 110,12 223,15 113,4 241,13 285,21 44,8 125,17 180,21 113,7 276,37 332,61 99,42 197,95 293,159 112,75 151,106 215,172 22,24 43,43 46,43 3,0 15,-10 26,-22 z m 1201,40 c 6,-6 39,-23 74,-39 54,-23 67,-34 90,-75 62,-110 13,-177 -101,-139 -55,18 -98,60 -106,103 -3,15 -12,47 -19,71 -13,40 -13,46 2,67 19,26 42,30 60,12 z m -1288,47 c 0,-8 -7,-15 -15,-15 -8,0 -15,7 -15,15 0,8 7,15 15,15 8,0 15,-7 15,-15 z m -1365,75 c -3,-5 -10,-10 -16,-10 -5,0 -9,5 -9,10 0,6 7,10 16,10 8,0 12,-4 9,-10 z m 2535,-10 c 24,-33 20,-66 -6,-56 -9,3 -19,6 -24,6 -4,0 -13,13 -20,29 -23,55 15,70 50,21 z m -1270,27 c 0,-37 -115,-123 -230,-171 -36,-15 -84,-36 -108,-47 -23,-10 -48,-19 -55,-19 -6,-1 -30,-9 -52,-20 -22,-11 -46,-19 -53,-20 -7,0 -34,-8 -60,-19 -26,-10 -78,-28 -117,-39 -38,-12 -101,-31 -138,-42 -65,-21 -117,-21 -117,0 0,5 10,11 23,15 12,3 47,18 77,32 69,32 98,45 180,78 36,15 79,33 95,40 17,7 80,34 140,60 129,55 148,63 240,106 112,53 175,69 175,46 z m 1014,15 c 2,-64 2,-64 -62,-150 -36,-48 -70,-91 -77,-97 -6,-5 -47,-55 -90,-110 -88,-113 -450,-478 -468,-472 -19,6 -20,49 -3,113 8,33 18,97 21,144 4,47 8,94 10,106 3,12 47,54 102,97 54,42 124,98 157,124 32,26 93,74 135,106 77,59 106,84 194,164 65,60 79,55 81,-25 z m -1090,63 c -1,-12 -12,-18 -194,-95 -80,-34 -163,-70 -185,-80 -22,-10 -65,-28 -95,-40 -30,-12 -68,-28 -85,-35 -16,-8 -59,-25 -95,-40 -105,-43 -115,-48 -341,-159 -158,-78 -225,-106 -253,-106 -50,0 -45,19 19,64 113,80 424,245 585,311 36,15 84,35 108,46 23,10 48,19 55,19 6,0 34,8 62,19 27,10 84,29 125,41 41,12 98,29 125,38 93,29 171,37 169,17 z m -136,99 c 33,-23 27,-42 -15,-49 -81,-13 -398,-113 -480,-150 -17,-8 -34,-15 -38,-15 -11,0 -347,-166 -404,-200 -29,-16 -62,-30 -73,-30 -19,0 -15,6 22,40 62,56 59,54 163,123 51,34 134,82 183,106 80,40 113,55 209,97 35,15 165,56 245,77 76,20 160,21 188,1 z m -404,11 c 0,-5 -14,-14 -30,-19 -46,-14 -267,-119 -347,-165 -128,-73 -275,-185 -392,-301 -24,-23 -35,-25 -35,-7 1,25 153,189 243,261 120,96 298,189 405,211 18,4 45,13 60,21 30,16 97,15 96,-1 z m 1678,18 c 27,-25 23,-45 -9,-41 -22,2 -29,9 -31,31 -4,31 12,35 40,10 z m -1902,27 c 20,-12 10,-20 -36,-27 -22,-3 -46,-11 -54,-18 -8,-7 -31,-20 -50,-29 -19,-8 -66,-33 -105,-55 -38,-22 -83,-48 -100,-57 -16,-9 -34,-23 -38,-30 -4,-8 -12,-14 -17,-14 -23,0 -6,26 58,87 68,66 149,113 196,113 15,0 43,9 63,20 41,22 61,24 83,10 z m 2098,445 c 3,-27 -7,-40 -65,-95 -37,-36 -99,-92 -137,-125 -38,-33 -74,-65 -80,-70 -6,-6 -33,-27 -61,-47 -27,-20 -63,-50 -79,-67 -17,-17 -34,-31 -39,-31 -12,0 -117,-87 -135,-112 -7,-10 -24,-18 -38,-18 -32,0 -44,30 -19,44 26,16 116,95 215,190 47,44 135,122 195,173 61,50 132,114 160,142 55,57 78,61 83,16 z m -2940,3091 c 20,-19 78,-69 127,-112 97,-83 122,-108 224,-225 85,-97 117,-138 219,-273 79,-105 149,-191 182,-226 8,-9 41,-50 73,-92 31,-41 89,-109 128,-149 67,-69 314,-373 369,-453 14,-20 52,-72 85,-114 33,-43 87,-115 120,-161 33,-46 79,-105 103,-133 23,-27 53,-66 66,-86 13,-20 61,-80 106,-132 45,-52 97,-119 117,-147 19,-29 55,-75 79,-102 24,-27 61,-71 81,-99 21,-27 60,-74 86,-103 26,-30 67,-83 90,-119 63,-96 79,-118 230,-308 76,-96 136,-179 134,-185 -6,-19 -54,-50 -66,-43 -6,4 -35,40 -65,80 -29,40 -72,92 -95,117 -23,24 -53,62 -68,84 -15,22 -59,74 -99,115 -62,65 -119,133 -182,219 -9,13 -25,32 -34,42 -9,10 -24,31 -32,46 -8,15 -40,57 -71,93 -32,36 -69,83 -84,104 -14,22 -33,49 -41,61 -63,95 -208,282 -257,332 -12,12 -24,31 -28,42 -3,10 -12,22 -20,25 -8,3 -15,12 -15,20 0,8 -8,21 -18,28 -10,7 -21,21 -25,31 -3,9 -13,17 -22,17 -8,0 -15,7 -15,15 0,8 -9,19 -20,25 -11,6 -20,17 -20,24 0,15 -28,42 -35,34 -9,-9 8,-48 21,-48 8,0 14,-6 14,-13 0,-10 41,-60 105,-128 8,-9 15,-20 15,-26 0,-6 19,-36 43,-67 136,-179 185,-247 196,-273 6,-13 15,-23 20,-23 5,0 13,-9 16,-20 3,-11 50,-76 103,-144 85,-108 148,-195 202,-276 32,-48 105,-138 160,-195 32,-33 95,-108 141,-167 148,-188 177,-250 124,-264 -19,-5 -31,0 -48,18 -46,50 -117,143 -174,228 -58,86 -154,208 -244,310 -47,54 -148,191 -202,274 -20,31 -140,178 -181,221 -71,75 -335,414 -359,460 -8,17 -46,70 -84,117 -37,48 -90,118 -118,155 -90,123 -194,257 -249,323 -30,36 -83,106 -118,157 -35,50 -115,156 -178,235 -113,141 -135,170 -221,298 -24,36 -46,67 -49,70 -3,3 -42,55 -87,117 -137,187 -246,403 -203,403 6,0 27,-15 48,-34 z m -206,192 c -14,-14 -16,-40 -3,-53 6,-6 61,-111 123,-235 63,-124 139,-261 169,-305 56,-82 74,-107 214,-289 44,-57 109,-143 145,-190 70,-94 151,-198 160,-206 3,-3 28,-39 55,-80 28,-41 74,-99 102,-130 29,-30 53,-58 53,-61 0,-4 30,-45 68,-93 37,-47 94,-122 127,-167 33,-44 77,-100 98,-125 20,-25 37,-49 37,-53 0,-21 318,-436 412,-537 29,-30 58,-65 67,-77 8,-12 33,-43 55,-68 23,-25 76,-97 119,-161 42,-63 101,-141 130,-174 74,-83 206,-249 249,-314 51,-76 104,-146 166,-220 29,-34 52,-68 50,-75 -2,-6 -39,-45 -83,-86 -83,-76 -115,-117 -115,-147 0,-20 86,-112 105,-112 7,0 49,36 94,80 108,105 168,153 181,145 5,-3 10,-32 10,-63 0,-56 -2,-59 -47,-103 -27,-25 -82,-71 -123,-102 -41,-31 -95,-75 -120,-97 -25,-23 -67,-56 -95,-75 -27,-19 -72,-55 -100,-79 -27,-25 -53,-46 -57,-46 -11,0 -48,52 -48,69 0,26 -49,119 -119,225 -50,77 -185,199 -284,258 -115,69 -174,91 -332,124 -124,27 -230,28 -274,5 -11,-6 -69,-14 -128,-17 -114,-7 -117,-8 -283,-87 -149,-71 -217,-118 -291,-199 -134,-149 -212,-218 -271,-241 -21,-8 -23,-28 -5,-46 10,-10 4,-19 -27,-46 -49,-43 -44,-65 15,-65 41,0 41,0 35,-31 -13,-65 -83,-207 -125,-251 -29,-31 -42,-38 -73,-38 -49,0 -59,-22 -28,-56 16,-16 34,-24 56,-24 44,0 49,-12 16,-43 -20,-19 -37,-25 -65,-24 -47,1 -61,-17 -41,-54 8,-16 14,-37 14,-48 0,-42 79,-55 123,-21 14,11 28,20 31,20 15,0 3,-56 -20,-96 -31,-52 -59,-74 -95,-74 -31,0 -43,-28 -28,-67 5,-14 7,-29 4,-33 -3,-5 7,-23 23,-41 28,-31 28,-31 82,-4 42,21 61,26 93,21 44,-7 107,-53 107,-78 0,-9 -18,-32 -40,-49 -41,-33 -49,-56 -28,-77 24,-24 54,-13 87,32 28,37 67,63 78,52 1,-1 -6,-20 -17,-41 -14,-27 -17,-43 -10,-56 16,-29 11,-79 -11,-115 -11,-19 -19,-44 -17,-56 7,-49 70,-25 81,30 4,15 18,41 32,57 25,30 25,30 40,10 9,-11 14,-28 11,-38 -8,-30 4,-47 33,-47 31,0 51,16 51,43 0,10 5,15 11,12 6,-4 9,-23 7,-43 -3,-31 1,-38 25,-50 15,-7 27,-20 27,-28 0,-8 -18,-53 -40,-100 -22,-47 -40,-91 -40,-97 -1,-7 -9,-30 -20,-52 -11,-22 -20,-49 -20,-60 0,-11 -7,-33 -15,-48 -8,-15 -19,-42 -24,-60 -6,-18 -22,-63 -36,-102 -26,-68 -50,-143 -80,-255 -8,-30 -21,-73 -29,-95 -18,-54 -51,-203 -77,-350 -11,-66 -29,-157 -40,-202 -10,-45 -19,-104 -19,-130 0,-43 -19,-106 -56,-188 -22,-49 -88,-237 -124,-355 -13,-41 -31,-96 -41,-122 -11,-26 -19,-57 -19,-70 0,-13 -9,-49 -20,-81 -11,-31 -20,-69 -20,-85 0,-26 -25,-123 -51,-197 -6,-16 -23,-68 -39,-115 -15,-47 -44,-134 -64,-195 -21,-60 -42,-130 -47,-155 -16,-74 -42,-92 -151,-101 -51,-4 -109,-12 -128,-18 -29,-9 -475,-28 -820,-35 -128,-3 -242,-17 -268,-32 -22,-15 -30,-48 -13,-58 5,-3 53,-2 108,4 54,5 278,15 498,20 264,7 427,15 480,25 44,8 109,15 145,15 97,1 168,34 197,91 12,24 25,62 28,84 4,22 16,59 26,82 11,23 19,48 19,55 0,13 17,66 71,223 32,93 103,363 129,490 5,22 16,54 24,70 9,17 16,36 16,44 0,18 49,178 66,218 8,17 14,37 14,45 1,7 9,31 20,53 11,22 19,47 20,55 0,25 39,80 55,80 16,0 52,-72 62,-125 3,-16 12,-41 19,-55 8,-14 29,-68 48,-120 19,-52 44,-117 56,-145 26,-58 67,-174 80,-226 5,-19 16,-49 25,-65 8,-16 15,-35 15,-41 0,-7 10,-34 21,-60 43,-97 74,-170 120,-285 53,-132 63,-156 80,-196 10,-23 19,-49 19,-57 0,-8 8,-34 19,-57 18,-41 48,-139 69,-223 6,-22 20,-71 32,-110 12,-38 28,-95 35,-125 7,-30 20,-73 28,-95 20,-56 50,-156 76,-250 33,-118 70,-247 120,-415 11,-36 22,-82 26,-103 9,-53 42,-126 60,-133 24,-10 47,16 41,45 -15,72 -36,157 -49,199 -8,26 -24,79 -36,117 -11,39 -30,98 -41,133 -11,34 -20,70 -20,80 0,9 -9,44 -19,77 -11,33 -29,94 -41,135 -12,41 -30,98 -40,125 -16,46 -25,80 -53,190 -5,22 -18,61 -28,87 -11,26 -19,58 -19,72 0,14 -9,48 -20,76 -11,28 -20,58 -20,68 -1,9 -9,35 -20,57 -11,22 -20,47 -20,55 0,8 -9,33 -20,55 -11,22 -19,46 -20,53 0,8 -6,26 -14,40 -14,25 -32,67 -88,207 -11,28 -29,68 -39,91 -11,23 -19,48 -19,55 0,8 -6,23 -13,34 -11,18 -35,79 -77,195 -7,19 -18,55 -25,80 -7,25 -20,61 -28,80 -8,19 -27,64 -42,100 -14,36 -30,74 -35,85 -11,23 -27,68 -77,210 -24,69 -47,115 -74,148 -40,47 -40,47 -33,120 3,39 13,90 20,112 8,22 19,72 24,110 10,67 26,153 50,260 33,146 42,179 52,198 6,11 16,46 23,76 18,77 49,175 75,241 12,30 38,100 57,155 19,55 41,114 49,132 7,17 14,36 14,43 0,6 18,49 40,96 22,47 40,90 40,96 0,22 42,78 59,78 9,0 41,-16 71,-35 51,-33 118,-67 212,-108 61,-27 197,-57 254,-57 66,0 200,31 262,61 111,53 211,139 273,233 58,89 213,408 234,483 5,17 65,79 110,112 12,8 114,99 165,146 121,112 299,308 439,483 107,133 168,202 181,202 18,0 100,-85 100,-104 0,-5 6,-17 13,-25 8,-9 21,-36 30,-61 42,-123 66,-165 100,-176 12,-3 50,-19 84,-35 76,-35 83,-36 118,-3 16,14 41,31 57,36 49,17 52,64 11,173 -32,85 -62,119 -120,139 -84,29 -223,156 -223,205 0,28 -42,91 -75,111 -34,21 -35,24 -35,83 0,70 -4,77 -42,94 -41,18 -34,44 25,92 90,73 187,171 187,187 0,9 -12,38 -27,64 -27,48 -66,80 -97,80 -9,0 -42,-28 -74,-61 -66,-71 -137,-123 -157,-115 -26,10 -280,334 -390,498 -25,37 -72,98 -105,135 -34,37 -93,110 -133,161 -40,51 -108,138 -152,193 -148,185 -160,200 -392,508 -261,347 -350,460 -474,596 -37,40 -156,185 -191,230 -4,6 -31,39 -60,74 -76,91 -118,144 -156,195 -18,24 -43,55 -56,68 -12,12 -49,59 -81,103 -68,93 -270,298 -400,405 -49,41 -97,82 -106,91 -28,27 -123,87 -149,94 -15,3 -30,1 -38,-7 z m 9716,14 c 39,-41 64,-86 79,-140 18,-67 20,-182 4,-220 -11,-27 -11,-27 -164,-29 -83,-1 -172,-3 -197,-5 -58,-4 -62,12 -20,84 46,79 41,72 146,225 64,95 115,123 152,85 z m -132,112 c -81,-62 -239,-290 -331,-479 -16,-33 -37,-71 -47,-84 -10,-13 -18,-39 -18,-57 0,-18 -8,-53 -19,-76 -27,-63 -61,-170 -61,-193 0,-11 -7,-33 -16,-50 -22,-42 -30,-121 -14,-140 17,-21 77,-30 95,-15 8,7 15,24 15,39 0,14 9,53 19,86 11,33 32,101 47,150 16,50 32,97 36,105 4,8 12,27 17,41 8,23 16,27 73,33 123,13 285,19 341,12 49,-6 58,-11 63,-31 9,-36 -42,-353 -67,-412 -17,-42 0,-63 52,-63 41,0 86,36 93,75 2,11 11,60 21,108 9,48 20,138 25,200 5,62 14,139 21,172 6,33 12,119 13,191 1,139 -2,153 -62,270 -52,102 -118,154 -198,154 -43,0 -58,-5 -98,-36 z m -4863,-75 c 39,-20 97,-82 120,-129 17,-34 22,-63 22,-120 0,-73 -1,-75 -25,-78 -14,-1 -54,-9 -90,-17 -74,-17 -275,-36 -296,-28 -21,8 -17,34 13,89 14,27 35,65 45,84 48,89 82,136 126,178 37,35 51,38 85,21 z m -58,143 c -79,-27 -162,-113 -241,-247 -25,-42 -113,-223 -138,-285 -15,-36 -31,-74 -36,-85 -5,-11 -21,-51 -35,-90 -14,-38 -35,-90 -45,-115 -10,-25 -28,-72 -40,-105 -13,-33 -31,-80 -41,-105 -52,-129 -50,-153 13,-158 31,-3 38,1 55,31 19,32 51,103 93,207 10,25 37,88 59,141 23,53 41,104 41,113 0,9 11,28 25,41 23,24 29,25 167,25 82,0 171,6 208,14 83,18 94,11 85,-58 -4,-28 -15,-80 -25,-116 -17,-63 -28,-118 -52,-262 -14,-86 -5,-100 61,-96 46,3 46,3 68,98 12,52 32,140 43,195 38,177 59,257 76,282 11,18 14,36 10,62 -4,20 -11,82 -16,139 -12,126 -39,188 -116,272 -74,79 -164,121 -219,102 z m 5926,-199 c 18,-44 21,-239 6,-333 -13,-85 -13,-85 -90,-82 -43,1 -121,-2 -174,-7 -116,-12 -139,-5 -118,37 7,15 18,38 25,52 14,32 45,87 68,121 58,87 75,109 123,155 89,86 142,104 160,57 z m 738,58 c 12,-16 21,-33 21,-39 0,-5 9,-29 19,-53 22,-50 38,-245 24,-293 -9,-30 -9,-30 -179,-27 -93,1 -173,6 -177,10 -7,7 108,244 133,274 18,21 60,88 60,94 0,12 54,63 66,63 7,0 22,-13 33,-29 z m -69,152 c -75,-31 -187,-196 -323,-474 -45,-92 -66,-124 -102,-153 -48,-40 -55,-62 -30,-100 17,-26 18,-20 -36,-144 -11,-23 -19,-48 -19,-55 0,-6 -7,-25 -15,-40 -8,-16 -20,-47 -25,-68 -7,-24 -16,-39 -23,-36 -19,6 -15,217 5,307 49,216 60,435 29,565 -17,69 -25,85 -60,117 -50,47 -79,49 -169,7 -118,-55 -257,-214 -360,-414 -43,-82 -62,-126 -62,-141 0,-8 -20,-35 -44,-60 -45,-45 -45,-45 -39,-112 4,-53 1,-78 -16,-122 -12,-30 -21,-63 -21,-73 0,-9 -9,-34 -20,-54 -11,-21 -20,-47 -20,-59 0,-12 -9,-33 -21,-48 -18,-23 -19,-29 -7,-53 10,-22 21,-29 50,-31 55,-5 77,34 150,258 50,158 60,182 78,200 14,14 45,18 171,24 85,4 168,3 184,-2 30,-9 30,-9 27,-146 -2,-76 -7,-167 -11,-204 -10,-79 -9,-83 27,-104 31,-18 50,-14 74,15 17,22 17,22 43,-7 23,-24 31,-28 63,-23 44,8 74,40 66,72 -3,13 5,53 19,91 14,38 31,85 37,104 7,19 21,53 31,76 11,23 19,46 19,52 0,7 12,36 27,66 19,39 36,59 57,68 44,18 360,18 378,0 10,-10 13,-68 13,-242 0,-156 4,-233 11,-240 19,-19 75,-7 95,20 16,22 19,57 26,295 11,409 8,562 -10,620 -37,120 -57,160 -113,222 -22,24 -102,40 -134,26 z m -4600,-1058 c 0,-14 -4,-25 -10,-25 -11,0 -14,33 -3,43 11,11 13,8 13,-18 z m -237,779 c 76,-40 123,-118 132,-226 6,-62 4,-79 -6,-82 -8,-2 -99,-7 -202,-9 -155,-4 -189,-3 -194,9 -3,8 17,58 43,111 51,100 145,213 178,213 10,0 31,-7 49,-16 z m 773,129 c 8,-10 28,-47 45,-83 17,-36 38,-81 48,-100 24,-47 45,-129 37,-138 -8,-7 -319,-20 -348,-13 -22,4 -23,20 -4,58 8,15 26,53 41,83 56,114 125,210 152,210 9,0 22,-8 29,-17 z m -44,157 c -58,-24 -154,-125 -209,-221 -42,-73 -153,-343 -153,-371 0,-9 -9,-40 -19,-70 -17,-47 -46,-165 -68,-281 -5,-21 -12,-39 -18,-40 -17,-3 -17,149 0,237 49,263 -22,467 -203,580 -59,36 -81,39 -145,14 -90,-35 -173,-127 -247,-273 -33,-64 -60,-122 -60,-128 0,-6 -9,-34 -19,-62 -11,-27 -29,-88 -40,-135 -12,-47 -28,-106 -36,-132 -9,-26 -19,-66 -24,-90 -5,-24 -16,-61 -24,-83 -8,-22 -18,-64 -22,-92 -6,-50 -6,-53 19,-65 44,-19 78,-1 95,52 8,25 22,68 32,95 9,28 27,86 39,130 34,122 49,161 70,180 24,22 171,33 325,25 100,-5 100,-5 100,-60 -1,-57 -29,-283 -46,-358 -12,-55 10,-101 48,-102 25,0 81,60 87,95 8,41 17,44 31,13 7,-17 20,-24 48,-26 47,-4 65,9 73,57 3,20 14,62 25,94 10,31 19,67 19,80 1,12 7,40 15,62 8,22 19,67 25,101 9,53 22,93 49,144 7,13 42,15 217,15 h 209 l 3,-155 c 2,-131 -1,-169 -19,-245 -11,-49 -27,-103 -35,-118 -24,-49 -18,-74 21,-87 63,-21 96,13 133,141 27,92 27,99 26,364 -1,270 -1,270 -28,340 -15,38 -33,81 -41,95 -7,14 -34,68 -60,121 -68,141 -123,186 -193,159 z m -1464,-117 c 12,-10 28,-44 36,-78 17,-67 24,-232 10,-245 -5,-4 -81,-10 -169,-13 -88,-4 -172,-9 -187,-13 -26,-6 -28,-4 -28,24 0,17 4,34 10,37 5,3 25,29 44,58 61,90 220,243 257,246 4,1 16,-7 27,-16 z m -103,115 c -63,-32 -158,-122 -249,-238 -53,-66 -66,-85 -131,-197 -20,-35 -51,-74 -68,-87 -28,-23 -31,-29 -32,-89 0,-36 -6,-71 -12,-78 -13,-17 -35,-97 -69,-252 -28,-135 -25,-147 36,-147 46,0 55,10 73,85 29,118 38,151 57,215 36,128 50,158 78,168 93,33 382,64 446,48 13,-3 27,-14 30,-24 6,-20 -6,-142 -28,-287 -19,-127 -20,-121 4,-145 25,-25 61,-26 89,-2 49,41 80,366 63,677 -14,247 -29,293 -116,357 -51,37 -94,36 -171,-4 z m -2505,-193 c 17,-92 19,-273 2,-284 -7,-4 -66,-11 -130,-14 -64,-4 -134,-10 -154,-13 -35,-6 -38,-5 -38,16 0,42 194,312 257,358 37,27 48,16 63,-63 z m -112,182 c -60,-49 -176,-187 -246,-292 -62,-92 -68,-103 -91,-152 -11,-23 -34,-56 -51,-74 -17,-18 -33,-44 -36,-58 -8,-33 -40,-125 -53,-148 -6,-10 -31,-66 -56,-124 -37,-84 -46,-115 -43,-150 3,-44 3,-44 46,-47 50,-4 72,10 72,46 0,13 9,46 21,71 12,25 30,66 41,91 11,25 29,62 39,82 11,20 19,42 19,48 0,7 9,25 21,41 16,23 28,29 59,29 21,0 72,7 112,15 82,18 216,24 236,12 29,-19 -8,-388 -42,-426 -41,-45 -5,-131 55,-131 69,0 101,86 119,320 6,68 16,142 22,165 16,55 17,500 1,540 -7,17 -17,48 -22,70 -6,23 -26,57 -45,78 -29,32 -39,37 -79,37 -40,0 -54,-6 -99,-43 z m -728,-87 c 61,-33 97,-187 76,-323 -7,-43 -17,-81 -22,-86 -5,-5 -100,-12 -211,-16 -178,-6 -204,-5 -209,8 -10,26 130,256 203,332 44,46 112,95 131,95 7,0 22,-5 32,-10 z m -68,130 c -95,-22 -269,-202 -350,-360 -7,-14 -30,-56 -52,-95 -21,-38 -64,-119 -95,-180 -32,-60 -77,-146 -101,-190 -24,-44 -50,-94 -58,-110 -8,-17 -40,-75 -71,-129 -31,-53 -55,-104 -53,-113 2,-9 15,-25 29,-35 46,-34 69,-13 166,156 47,83 108,194 135,246 27,52 57,103 65,113 14,15 39,17 235,17 239,0 241,0 221,-58 -6,-15 -20,-58 -31,-97 -12,-38 -31,-98 -42,-133 -27,-83 -27,-167 -1,-182 23,-12 71,-13 87,-2 6,4 15,23 19,42 4,19 13,55 20,80 43,146 60,200 76,245 9,28 22,69 28,93 25,98 34,130 49,177 22,74 19,234 -6,311 -41,120 -97,188 -170,205 -43,10 -55,10 -100,-1 z m 10028,-202 c 29,-92 53,-235 54,-313 1,-60 1,-60 -84,-62 -47,-1 -128,-6 -180,-11 -121,-13 -131,-6 -99,64 34,74 78,167 92,189 83,141 136,205 168,205 25,0 29,-6 49,-72 z m -75,212 c -90,-41 -199,-178 -289,-365 -78,-162 -103,-226 -127,-320 -6,-21 -14,-44 -19,-50 -4,-5 -11,-28 -15,-50 -4,-22 -15,-67 -25,-100 -24,-84 -52,-196 -54,-220 -1,-27 49,-51 82,-39 20,7 30,24 48,79 37,113 62,197 69,240 4,21 13,51 21,66 13,25 20,28 96,34 103,8 333,3 345,-8 4,-5 8,-86 8,-180 0,-163 -1,-174 -23,-204 -19,-28 -21,-37 -13,-74 11,-50 25,-61 70,-55 35,5 50,20 77,76 15,31 17,74 15,385 -2,364 0,342 -49,565 -24,107 -73,190 -132,220 -22,11 -41,20 -42,19 -2,0 -21,-9 -43,-19 z m -3241,-168 c 10,-20 22,-62 26,-92 5,-30 14,-89 20,-130 12,-81 6,-142 -15,-160 -8,-7 -67,-10 -166,-8 -177,3 -177,3 -139,92 89,202 161,315 215,336 29,11 39,4 59,-38 z m -721,50 c 21,-22 28,-42 33,-87 7,-73 -11,-294 -26,-309 -7,-7 -20,-6 -43,4 -22,10 -67,15 -147,15 -115,0 -115,0 -113,42 4,88 129,297 207,344 42,26 58,24 89,-9 z m -150,117 c -48,-28 -96,-77 -149,-154 -26,-38 -114,-221 -114,-238 0,-6 -6,-24 -14,-39 -8,-15 -17,-42 -21,-60 -3,-18 -15,-60 -25,-93 -10,-33 -28,-94 -40,-135 -38,-136 -71,-231 -100,-293 -29,-62 -29,-62 -8,-84 12,-13 31,-23 43,-23 25,0 80,54 90,90 4,14 14,34 21,45 8,11 14,26 14,35 0,8 9,37 19,65 21,53 55,164 65,205 9,42 58,62 160,67 72,3 102,0 141,-14 50,-19 50,-19 53,-202 2,-166 1,-186 -17,-214 -33,-54 -4,-117 54,-117 20,0 63,36 89,74 12,18 14,18 37,3 52,-37 99,-11 119,65 7,24 16,48 20,53 7,9 18,44 56,183 9,33 25,66 40,80 23,20 34,22 152,22 117,-1 205,-10 218,-23 3,-2 1,-65 -5,-138 -7,-107 -15,-148 -37,-203 -26,-66 -26,-70 -9,-82 24,-17 76,-18 98,-1 62,46 99,258 99,577 0,166 -4,228 -16,273 -9,32 -16,67 -16,78 0,28 -46,135 -71,163 -32,37 -89,51 -144,36 -89,-25 -208,-171 -284,-351 -18,-41 -36,-83 -41,-94 -13,-28 -39,-103 -51,-145 -21,-72 -49,-167 -69,-228 -11,-34 -20,-70 -20,-81 0,-10 -9,-30 -21,-45 -12,-15 -23,-45 -26,-66 -11,-81 -18,-35 -20,133 -2,111 2,206 12,267 36,239 43,391 21,483 -15,63 -30,85 -90,128 -33,25 -48,29 -100,28 -49,0 -71,-6 -113,-30 z m -4099,-111 c 41,-55 69,-153 74,-258 3,-73 1,-98 -9,-107 -9,-7 -90,-12 -224,-14 -210,-4 -210,-4 -209,27 1,26 20,65 77,159 52,87 201,225 242,225 15,0 33,-12 49,-32 z m -110,147 c -61,-28 -155,-113 -232,-210 -69,-86 -69,-86 -130,-210 -71,-146 -92,-193 -92,-213 -1,-9 -9,-35 -20,-57 -11,-22 -19,-50 -20,-62 0,-13 -7,-40 -15,-60 -8,-21 -21,-67 -29,-103 -8,-36 -21,-87 -30,-115 -8,-27 -18,-60 -21,-72 -8,-25 25,-63 55,-63 24,0 67,45 75,79 3,14 14,49 25,76 10,28 28,88 40,135 12,47 33,115 47,151 25,67 25,67 172,73 267,12 319,12 332,-1 8,-8 8,-24 0,-63 -6,-28 -11,-67 -11,-86 0,-19 -9,-69 -19,-112 -27,-106 -37,-218 -21,-237 15,-18 70,-20 93,-2 16,11 30,68 58,232 6,33 19,105 30,160 15,78 20,145 20,295 1,188 0,197 -26,265 -47,123 -83,173 -147,206 -47,24 -71,23 -134,-6 z m 10212,78 c -13,-21 -27,-55 -30,-75 -4,-20 -13,-50 -21,-65 -8,-15 -15,-38 -15,-51 0,-22 -20,-77 -57,-162 -9,-19 -19,-48 -24,-65 -4,-16 -19,-59 -32,-95 -14,-36 -31,-81 -37,-100 -7,-19 -19,-50 -27,-69 -23,-56 -37,-188 -24,-232 11,-36 15,-39 46,-39 52,0 75,28 75,93 0,63 20,127 165,527 26,71 34,99 71,260 19,80 9,110 -36,110 -23,0 -35,-8 -54,-37 z m -452,29 c -18,-12 -54,-78 -54,-99 0,-10 -8,-46 -19,-79 -10,-32 -28,-95 -40,-139 -13,-44 -27,-93 -33,-110 -6,-16 -17,-52 -24,-80 -8,-27 -21,-64 -29,-82 -8,-17 -15,-39 -15,-50 0,-10 -9,-47 -20,-81 -11,-35 -23,-94 -26,-132 -6,-60 -4,-70 15,-89 25,-25 58,-27 89,-5 18,12 22,25 22,69 0,29 9,82 20,117 11,34 20,71 20,81 0,11 7,33 15,50 14,31 30,81 56,177 6,25 18,68 26,95 9,28 21,75 29,105 7,30 20,84 29,120 22,95 10,140 -38,140 -7,0 -17,-4 -23,-8 z m -548,17 c -17,-20 -26,-42 -26,-67 0,-19 -9,-65 -19,-101 -21,-72 -36,-127 -56,-211 -7,-30 -20,-82 -28,-115 -30,-114 -70,-293 -83,-368 -5,-31 -2,-42 17,-63 30,-32 73,-32 94,0 9,14 23,61 30,105 8,44 21,102 28,128 8,27 24,89 35,138 11,50 28,122 38,160 9,39 22,99 29,135 7,36 18,83 24,105 14,54 14,158 -1,173 -21,21 -55,13 -82,-19 z m -5893,189 c -6,-7 -13,-24 -16,-38 -3,-14 -30,-51 -58,-83 -55,-62 -55,-76 0,-77 46,0 137,130 129,185 -3,23 -40,32 -55,13 z m -4493,430 c -15,-38 -30,-478 -17,-499 18,-29 36,-30 52,-6 20,32 25,487 6,511 -18,22 -30,20 -41,-6 z m 430,44 c -28,-10 -31,-27 -28,-182 2,-129 1,-155 -11,-155 -8,0 -21,12 -30,26 -21,35 -54,83 -61,89 -3,3 -29,41 -57,85 -64,98 -92,135 -104,135 -4,0 -16,-14 -25,-31 -14,-28 -15,-55 -4,-268 7,-130 16,-240 21,-245 5,-6 19,-5 35,3 26,12 26,12 19,172 -7,161 -7,161 18,147 24,-12 157,-197 157,-217 0,-5 18,-32 41,-61 46,-58 73,-63 98,-19 13,24 13,39 -2,132 -10,62 -17,161 -17,241 0,119 -2,136 -17,144 -10,5 -25,7 -33,4 z m 969,-148 c 30,-25 71,-101 71,-131 0,-27 -39,-90 -76,-123 -51,-44 -118,-73 -152,-65 -46,10 -75,68 -76,150 -1,87 24,138 69,143 16,2 45,15 64,28 45,30 62,30 100,-2 z m 2468,24 c 6,-7 19,-38 29,-68 25,-76 23,-183 -5,-231 -48,-81 -141,-112 -206,-68 -44,30 -50,51 -49,164 0,79 4,98 29,147 29,57 29,57 84,61 31,2 68,4 82,5 15,1 31,-4 36,-10 z m 480,183 c -35,-42 -50,-157 -41,-311 4,-74 3,-120 -3,-120 -27,0 -159,164 -201,251 -12,25 -22,59 -22,75 0,42 -13,56 -46,52 -29,-3 -29,-3 -34,-113 -3,-63 -9,-110 -15,-110 -5,0 -16,25 -23,55 -23,95 -79,132 -201,134 -63,1 -63,1 -107,-49 -25,-27 -49,-67 -55,-87 -20,-76 -49,-47 -49,51 0,50 -4,62 -22,75 -36,26 -48,5 -48,-88 0,-100 -10,-186 -21,-186 -5,0 -9,6 -9,13 0,24 -70,105 -101,118 -25,10 -43,9 -100,-3 -81,-17 -96,-9 -85,44 11,56 30,68 112,68 80,0 104,6 104,25 0,30 -40,48 -118,53 -68,4 -80,2 -105,-18 -30,-24 -71,-97 -82,-147 -9,-44 -23,-42 -31,5 -8,43 -54,146 -82,181 -15,19 -25,22 -46,17 -33,-8 -33,-17 7,-90 18,-34 41,-95 51,-137 18,-75 18,-78 0,-124 -26,-64 -117,-155 -179,-178 -43,-15 -50,-16 -71,-2 -44,29 -48,48 -46,256 2,163 0,198 -12,202 -29,11 -44,-26 -55,-137 -6,-60 -11,-135 -11,-167 0,-33 -5,-61 -12,-66 -7,-6 -48,-22 -92,-36 -71,-23 -81,-24 -101,-11 -31,20 -35,50 -35,239 0,90 -3,170 -6,179 -9,23 -30,20 -48,-6 -13,-18 -16,-54 -16,-185 0,-163 0,-163 -37,-187 -21,-13 -64,-32 -96,-42 -56,-17 -59,-17 -93,1 -20,10 -42,31 -50,46 -18,36 -17,143 2,194 8,22 18,49 21,60 10,34 54,85 73,85 21,0 34,-15 47,-55 11,-33 40,-45 49,-21 12,31 -7,108 -33,133 -20,21 -31,25 -65,20 -82,-11 -126,-85 -193,-326 -26,-91 -49,184 -24,287 11,46 10,55 -2,63 -28,17 -40,8 -66,-48 -25,-54 -26,-61 -20,-190 4,-86 3,-133 -4,-133 -14,0 -58,49 -80,90 -11,19 -33,58 -49,85 -16,28 -29,57 -29,66 -1,25 -40,69 -61,69 -21,0 -50,-46 -50,-78 0,-10 -7,-27 -15,-38 -13,-16 -16,-17 -24,-4 -23,37 -59,68 -101,84 -25,10 -64,27 -87,39 -40,20 -42,20 -70,2 -58,-39 -105,-120 -122,-215 -15,-82 -16,-94 -6,-152 6,-42 5,-48 -16,-62 -32,-20 -158,-40 -202,-32 -46,9 -77,58 -77,125 0,105 73,250 143,287 26,14 31,14 53,-1 14,-9 29,-27 34,-41 11,-28 22,-30 40,-9 17,20 5,64 -28,98 -55,57 -154,27 -217,-66 -44,-66 -67,-119 -81,-187 -18,-83 -17,-105 1,-168 13,-41 25,-59 57,-82 37,-27 49,-30 115,-30 59,0 88,6 142,29 69,29 69,29 121,4 79,-38 143,-22 245,59 33,27 63,48 67,48 7,0 15,-40 17,-90 2,-43 15,-58 39,-44 19,12 29,82 31,220 1,52 6,87 15,100 17,22 14,24 51,-41 16,-27 54,-81 86,-120 146,-179 171,-191 179,-88 6,75 15,87 34,42 32,-77 107,-109 204,-88 31,7 73,23 92,36 43,29 54,29 73,0 26,-40 69,-52 133,-38 31,7 75,22 100,32 49,22 78,15 89,-21 18,-57 143,-65 229,-15 74,43 154,139 173,207 18,63 33,71 87,47 20,-9 40,-8 96,7 64,16 74,17 98,3 24,-13 27,-22 30,-73 4,-78 -28,-128 -94,-146 -57,-16 -88,-4 -111,45 -18,38 -59,58 -73,35 -18,-29 27,-127 70,-150 24,-13 105,-13 150,0 39,11 95,59 105,90 9,27 39,22 43,-7 2,-11 12,-29 22,-38 34,-31 47,-13 54,74 4,45 11,81 16,81 4,0 11,-22 15,-48 3,-26 19,-69 35,-95 54,-86 147,-109 252,-63 55,24 118,88 118,119 0,8 9,25 19,38 19,24 19,24 31,-6 6,-16 8,-40 5,-53 -7,-28 10,-52 36,-52 28,0 33,17 35,128 1,57 5,106 9,110 4,4 21,-9 38,-29 164,-183 190,-209 210,-209 57,1 60,19 38,235 -12,112 -11,140 2,205 8,41 21,90 28,108 12,28 12,34 -1,42 -24,16 -37,12 -63,-19 z m 3005,-9481 c -1,-168 -7,-359 -12,-425 -6,-66 -15,-236 -20,-379 -6,-142 -15,-277 -20,-300 -6,-22 -13,-266 -16,-541 -6,-514 -28,-899 -55,-931 -17,-20 -44,-17 -74,9 -25,22 -25,22 -10,92 8,39 15,108 15,155 0,47 7,144 15,215 20,173 34,613 35,1145 0,239 4,473 9,520 5,51 4,124 -3,183 -7,71 -7,119 2,180 7,46 12,144 12,219 0,75 3,144 6,153 5,13 18,15 63,13 56,-3 56,-3 53,-308 z m 3104,339 c 3,-6 -7,-26 -22,-44 -113,-133 -155,-186 -178,-230 -31,-57 -79,-130 -129,-195 -34,-45 -87,-144 -142,-265 -47,-105 -50,-110 -72,-113 -18,-3 -23,3 -28,35 -3,21 -15,74 -27,117 -12,45 -21,106 -20,142 0,47 -4,69 -18,87 -10,12 -20,43 -22,67 -4,53 16,64 58,31 15,-12 33,-21 41,-21 8,0 26,-9 40,-20 27,-21 68,-27 78,-11 7,13 -27,31 -57,31 -13,0 -29,9 -36,20 -7,11 -22,20 -35,20 -12,0 -30,9 -40,20 -9,11 -23,20 -31,20 -18,0 -74,64 -80,93 -25,118 -31,168 -22,177 5,5 47,10 92,10 70,0 131,6 349,33 73,9 294,6 301,-4 z m 372,13 c 18,-12 8,-1678 -13,-2057 -8,-148 -15,-378 -16,-510 -1,-132 -4,-253 -8,-270 -8,-41 -47,-46 -81,-10 -25,26 -25,28 -28,263 -2,145 3,341 13,503 17,289 22,506 30,1453 3,340 8,623 11,627 7,11 75,11 92,1 z m 173,317 c 11,-5 53,-14 94,-18 42,-5 82,-14 90,-21 21,-18 17,-196 -5,-211 -9,-6 -56,-7 -125,-2 -198,14 -859,9 -965,-7 -99,-16 -230,-17 -1090,-12 -657,3 -1785,-7 -1848,-17 -31,-5 -64,-12 -72,-15 -32,-12 -43,10 -51,111 -9,115 -2,128 66,119 22,-3 146,-8 275,-11 129,-4 262,-11 295,-17 74,-14 863,-12 1045,2 69,5 373,14 675,20 518,9 679,17 1105,56 153,14 354,28 458,33 18,0 42,-4 53,-10 z m -5002,403 c 11,-20 -4,-171 -18,-185 -5,-5 -19,-7 -32,-5 -21,3 -24,9 -27,52 -4,59 1,80 28,124 22,36 35,40 49,14 z m 2168,531 c 13,-9 23,-23 23,-32 0,-17 -57,-61 -79,-61 -6,0 -29,-9 -49,-20 -110,-58 -182,-77 -355,-91 -123,-11 -235,-1 -263,22 -40,33 23,109 107,129 66,16 80,9 77,-36 -2,-28 3,-41 22,-56 21,-17 33,-19 90,-13 159,17 228,44 262,104 7,13 11,34 10,46 -2,16 3,25 15,28 29,8 116,-4 140,-20 z m -326,294 c 6,-120 26,-204 65,-279 25,-48 25,-48 -1,-72 -29,-27 -64,-36 -147,-36 -64,0 -82,15 -59,52 14,22 61,199 61,228 0,11 9,46 20,77 11,32 20,67 20,80 0,29 19,77 27,69 4,-4 10,-57 14,-119 z m 147,395 c 15,-20 12,-42 -8,-52 -125,-62 -214,-111 -282,-155 -82,-55 -82,-55 -105,-33 -13,12 -23,27 -23,33 0,17 39,51 80,69 19,9 47,24 62,33 34,24 151,93 191,115 34,19 65,15 85,-10 z m 472,53 c 9,-11 8,-19 -4,-37 -9,-12 -16,-30 -16,-38 0,-26 -103,-174 -124,-178 -10,-2 -46,10 -80,26 -34,17 -72,33 -86,37 -37,10 -70,34 -70,49 0,8 15,17 33,21 17,4 68,24 112,45 105,51 197,90 211,90 6,0 17,-7 24,-15 z m -3950,20 c 37,-26 37,-26 43,-237 4,-116 7,-451 7,-743 0,-523 0,-533 -21,-559 -29,-37 -57,-34 -63,7 -3,17 -8,336 -11,707 -4,371 -9,710 -13,753 -10,110 -5,116 58,72 z m 1438,96 c 9,-5 12,-26 11,-67 -2,-32 0,-64 3,-70 14,-21 137,-47 195,-41 73,8 92,25 74,70 -20,48 -24,84 -11,92 16,10 134,-13 195,-37 76,-31 80,-33 83,-56 4,-25 -37,-54 -108,-77 -25,-8 -63,-21 -85,-29 -48,-18 -310,-22 -365,-6 -19,6 -69,17 -110,24 -135,24 -186,79 -127,134 31,29 135,63 217,70 8,1 21,-2 28,-7 z m 6090,32 c 10,-19 5,-82 -8,-98 -5,-6 -27,-46 -51,-90 -68,-129 -79,-149 -89,-165 -5,-8 -24,-41 -42,-73 -18,-32 -41,-71 -50,-85 -10,-15 -27,-43 -38,-62 -11,-19 -26,-44 -33,-54 -6,-11 -24,-40 -39,-64 -15,-25 -48,-66 -73,-93 -25,-26 -86,-98 -136,-159 -91,-113 -108,-133 -214,-251 -33,-37 -73,-84 -88,-105 -46,-63 -179,-194 -201,-198 -12,-3 -57,-9 -101,-15 -44,-5 -111,-15 -150,-22 -69,-12 -71,-11 -140,21 -38,18 -95,43 -125,57 -30,14 -82,38 -115,53 -33,16 -80,37 -105,48 -146,64 -160,72 -160,97 0,18 13,31 58,56 31,18 75,45 97,59 22,15 57,33 78,39 20,7 67,28 103,47 36,19 72,34 79,34 8,0 49,19 92,42 103,55 300,154 321,162 9,4 35,17 57,31 22,13 57,33 77,44 20,12 39,25 43,31 3,5 13,10 22,10 27,0 134,73 215,148 43,39 96,81 116,92 38,21 82,50 211,142 41,29 140,117 220,195 80,78 149,142 153,143 4,0 11,-8 16,-17 z m -3622,75 c 22,-25 54,-92 54,-111 0,-15 -94,-57 -128,-57 -17,0 -22,6 -22,24 0,36 -10,56 -27,56 -12,0 -14,-8 -10,-36 10,-58 -5,-78 -80,-114 -37,-17 -76,-36 -85,-41 -33,-17 -64,-10 -86,21 -12,16 -22,37 -22,47 1,31 198,159 231,150 13,-4 25,3 35,19 9,13 22,24 29,24 7,0 23,9 36,20 31,26 51,25 75,-2 z m -2302,160 c 3,-18 7,-80 10,-138 3,-58 12,-129 20,-158 8,-30 12,-60 9,-68 -6,-16 -89,-20 -112,-5 -16,10 -11,67 19,226 10,55 22,117 25,138 7,46 22,48 29,5 z m -2004,106 c 19,-19 58,-48 85,-64 28,-16 81,-56 119,-90 37,-34 86,-73 109,-88 22,-15 50,-34 62,-42 12,-8 45,-34 72,-58 28,-23 70,-56 93,-73 35,-26 426,-339 585,-469 28,-23 59,-48 70,-57 11,-9 47,-40 80,-68 33,-29 82,-69 109,-90 27,-20 62,-49 80,-64 17,-16 76,-68 132,-117 55,-49 134,-117 175,-151 41,-34 119,-101 174,-148 89,-78 399,-315 530,-406 27,-19 56,-40 65,-47 26,-21 152,-110 212,-150 68,-45 88,-82 88,-162 0,-58 -1,-60 -25,-60 -19,0 -31,10 -46,35 -12,19 -29,35 -39,35 -10,0 -53,29 -97,65 -43,36 -114,94 -158,130 -44,36 -87,71 -95,79 -8,7 -62,50 -120,95 -58,45 -136,107 -174,139 -38,31 -88,71 -111,87 -98,70 -333,277 -540,476 -60,58 -153,143 -205,188 -52,46 -108,96 -125,110 -16,15 -70,60 -120,101 -49,41 -97,82 -105,90 -9,9 -34,29 -55,45 -45,33 -167,135 -175,145 -9,11 -150,123 -198,158 -26,19 -85,61 -132,95 -175,125 -375,295 -385,328 -7,22 1,39 18,39 7,0 28,-17 47,-36 z m 4639,47 c 63,-17 76,-26 140,-91 82,-84 86,-102 49,-208 -25,-71 -44,-89 -159,-151 -82,-44 -182,-67 -221,-52 -22,8 -26,18 -31,70 -8,73 -37,134 -85,178 -35,32 -35,32 -18,77 21,55 109,139 181,172 61,29 58,29 144,5 z m -4134,50 c 72,-5 148,-9 170,-9 184,0 565,-21 590,-32 17,-7 97,-16 178,-20 148,-7 148,-7 203,-46 73,-49 125,-51 205,-5 43,24 58,28 67,19 16,-16 15,-24 -8,-126 -10,-48 -22,-108 -25,-134 -7,-55 -4,-54 -139,-63 -150,-11 -247,-75 -250,-167 -1,-35 4,-44 39,-74 53,-44 126,-69 260,-90 194,-30 387,-19 490,27 22,10 49,19 61,19 11,0 38,13 61,30 86,63 79,135 -19,183 -70,34 -182,67 -228,67 -63,0 -68,11 -86,159 -8,73 -13,140 -10,148 5,12 33,14 158,11 153,-3 153,-3 209,-40 31,-21 61,-38 68,-38 7,0 29,-9 49,-19 20,-11 48,-24 62,-30 14,-6 57,-28 95,-50 39,-22 99,-54 135,-72 36,-17 138,-67 227,-110 88,-44 166,-79 173,-79 14,0 94,-32 187,-76 40,-19 83,-38 98,-44 14,-5 25,-14 25,-19 0,-11 -40,-40 -85,-63 -72,-36 -95,-54 -100,-80 -4,-15 -13,-32 -21,-39 -8,-6 -14,-29 -14,-53 0,-33 6,-48 28,-68 39,-36 61,-41 91,-21 14,9 51,30 81,46 30,16 63,36 72,44 18,16 48,12 48,-6 0,-6 -7,-30 -15,-54 -18,-53 -60,-217 -69,-269 -7,-41 -29,-58 -70,-58 -48,0 -154,-51 -201,-95 -40,-39 -45,-49 -45,-88 0,-65 30,-88 133,-105 103,-18 103,-18 277,0 90,9 157,21 177,31 18,9 39,17 47,17 8,0 30,7 48,16 168,81 184,91 205,123 25,37 23,57 -9,103 -23,34 -65,46 -187,55 -68,4 -99,11 -111,23 -12,12 -20,49 -28,136 -25,261 -25,264 -6,285 21,23 56,24 90,3 13,-9 45,-21 70,-25 25,-5 98,-34 162,-65 65,-30 131,-61 147,-69 126,-55 240,-110 262,-127 12,-10 86,-48 353,-185 90,-46 169,-88 175,-92 5,-5 39,-21 75,-36 36,-15 119,-53 185,-85 66,-32 170,-79 230,-105 69,-29 120,-58 136,-76 49,-56 90,-79 139,-79 25,0 54,-6 65,-14 28,-19 163,-77 183,-78 9,-1 27,2 39,6 17,5 31,-1 60,-26 33,-30 69,-56 107,-80 6,-4 52,-25 101,-48 50,-23 108,-50 131,-61 23,-10 45,-19 50,-19 5,-1 27,-9 49,-20 22,-11 47,-19 55,-20 9,0 25,-7 38,-15 12,-9 44,-19 71,-22 100,-12 91,-42 -14,-43 -33,0 -103,-5 -155,-10 -52,-5 -189,-16 -305,-25 -115,-8 -248,-20 -295,-25 -118,-13 -317,-20 -795,-25 -225,-3 -448,-10 -495,-15 -131,-15 -1029,-17 -1290,-2 -627,35 -575,28 -670,91 -47,31 -128,88 -180,126 -52,39 -115,84 -140,100 -35,24 -135,99 -215,163 -5,4 -50,39 -100,77 -49,37 -99,77 -111,89 -29,29 -128,115 -199,171 -33,27 -85,71 -115,100 -30,29 -95,85 -145,126 -49,41 -94,79 -100,85 -5,6 -59,51 -120,99 -60,49 -112,92 -115,96 -16,21 -741,592 -895,705 -27,20 -68,53 -90,74 -22,21 -60,49 -85,63 -67,39 -145,111 -136,126 8,13 236,9 501,-8 z m 1679,300 c 50,-53 43,-63 -165,-219 -190,-142 -177,-135 -215,-128 -26,5 -36,3 -40,-9 -7,-18 -34,-20 -58,-2 -21,15 -11,51 13,44 46,-13 46,-14 43,30 -3,38 0,44 35,69 21,16 51,41 67,56 16,15 46,38 65,51 20,13 54,36 77,50 22,15 53,41 69,57 37,39 73,39 109,1 z m 136,148 c 0,-6 11,-24 25,-41 39,-46 33,-81 -21,-122 -39,-30 -74,-38 -74,-17 0,8 -49,58 -75,76 -19,13 -18,16 35,64 38,36 62,51 82,51 15,0 28,-5 28,-11 z m 684,36 c -6,-16 -24,-21 -24,-7 0,11 11,22 21,22 5,0 6,-7 3,-15 z m -404,170 c 38,-20 50,-43 50,-101 0,-47 -20,-84 -45,-84 -6,0 -46,-22 -88,-50 -42,-27 -81,-50 -87,-50 -5,0 -15,10 -21,23 -6,12 -27,36 -46,54 -40,37 -38,63 5,90 35,22 110,81 141,110 28,27 51,29 91,8 z m 316,216 c 69,-26 94,-65 94,-148 0,-50 -5,-74 -25,-107 -49,-84 -102,-115 -197,-116 -46,0 -68,21 -68,66 0,46 -37,102 -99,149 -28,22 -51,47 -51,56 0,10 12,31 28,47 72,77 197,98 318,53 z m 2288,88 c 3,-17 6,-47 6,-67 0,-20 9,-63 19,-96 10,-34 24,-90 30,-126 16,-96 41,-203 50,-215 13,-17 59,-176 70,-240 14,-85 37,-182 55,-235 36,-103 57,-191 51,-210 -9,-27 -18,-25 -37,8 -9,15 -48,61 -87,102 -39,41 -70,80 -71,86 0,11 -54,63 -111,108 -57,46 -157,141 -187,179 -36,45 -36,65 -2,142 9,22 27,74 40,115 21,72 36,116 74,225 10,28 23,75 31,105 18,75 45,150 55,150 4,0 10,-14 14,-31 z m -84,88 c 0,-13 -4,-27 -9,-32 -5,-6 -16,-37 -25,-70 -33,-133 -80,-284 -136,-440 -10,-27 -21,-62 -24,-78 -7,-29 -42,-70 -56,-65 -4,2 -40,33 -79,70 -39,36 -74,68 -79,70 -5,1 -49,47 -98,100 -88,97 -118,115 -142,86 -5,-8 -6,-22 -2,-33 10,-23 191,-210 303,-310 84,-76 90,-91 58,-153 -10,-20 -29,-58 -41,-83 -13,-25 -35,-61 -50,-79 -25,-31 -29,-32 -60,-22 -18,7 -66,12 -107,12 -63,0 -81,-4 -127,-30 -109,-62 -196,-162 -196,-227 0,-15 -4,-34 -8,-40 -8,-13 -177,-103 -193,-103 -11,0 -71,-38 -127,-81 -26,-19 -69,-48 -97,-64 -27,-17 -72,-44 -100,-62 -28,-19 -62,-33 -80,-33 -30,0 -121,34 -238,88 -34,17 -89,39 -122,51 -52,19 -237,105 -347,162 -20,10 -42,19 -48,19 -5,0 -56,26 -113,58 -56,32 -131,70 -167,86 -101,43 -133,59 -162,82 -32,26 -142,44 -261,44 -51,0 -88,5 -95,12 -39,39 18,102 171,188 51,29 127,79 170,111 43,33 80,59 82,59 6,0 62,39 109,75 38,29 39,29 184,31 146,2 146,2 112,-27 -19,-16 -59,-45 -89,-65 -29,-20 -67,-49 -85,-63 -17,-15 -64,-48 -103,-74 -73,-47 -84,-62 -61,-85 27,-27 39,-21 246,128 206,148 355,265 411,323 36,37 83,79 105,94 23,16 63,45 89,65 80,62 197,88 497,113 96,8 204,21 240,29 36,8 88,20 115,26 86,20 158,38 205,53 48,16 115,30 220,48 36,6 88,18 115,26 53,16 155,29 243,32 48,1 52,-1 52,-22 z m 2805,503 c 10,-16 6,-1583 -4,-1593 -6,-6 -23,1 -48,21 -84,67 -141,145 -202,277 -18,39 -36,78 -41,87 -20,36 -43,167 -48,263 -4,105 11,222 49,362 10,40 19,80 19,90 0,21 36,142 62,208 49,123 86,186 150,253 42,43 53,49 63,32 z m -7875,1065 c 13,-16 8,-189 -8,-265 -12,-56 -45,-53 -136,14 -41,31 -97,67 -123,81 -81,43 -96,81 -35,90 48,7 85,18 152,45 144,57 133,55 150,35 z m 191,73 c 1,-7 1,-38 -1,-68 -2,-78 16,-210 34,-245 9,-17 16,-39 16,-50 0,-11 9,-33 20,-50 11,-16 20,-37 20,-45 1,-8 16,-40 35,-70 19,-30 39,-65 44,-77 5,-11 15,-24 20,-28 16,-10 13,-25 -5,-25 -9,0 -39,20 -66,45 -28,25 -81,62 -119,83 -94,51 -98,62 -60,147 35,77 40,115 14,115 -9,0 -25,-7 -35,-17 -10,-9 -21,-13 -25,-10 -7,8 -5,251 3,271 11,30 103,50 105,24 z m 531,146 c 15,-8 33,-14 40,-14 7,0 26,-7 42,-15 16,-8 56,-22 90,-31 33,-8 77,-19 96,-24 47,-13 289,-12 370,1 119,19 223,28 236,21 6,-4 49,-47 95,-97 46,-49 100,-103 120,-120 46,-37 50,-50 34,-111 -36,-138 -216,-366 -363,-458 -40,-25 -76,-46 -80,-46 -4,0 -20,-7 -35,-15 -15,-8 -42,-19 -60,-24 -18,-6 -63,-22 -102,-36 -121,-45 -128,-47 -230,-47 -111,0 -179,20 -305,89 -62,34 -77,44 -163,115 -70,58 -147,183 -196,316 -18,50 -20,69 -12,95 5,18 13,57 16,87 4,30 15,89 25,130 11,41 21,87 24,101 4,17 19,32 49,47 24,12 50,22 58,22 8,1 30,10 49,21 29,16 46,18 105,13 38,-3 81,-12 97,-20 z m 4815,80 c 20,-13 45,-24 57,-24 32,-1 213,-66 245,-90 16,-11 33,-20 39,-20 17,0 138,-97 185,-149 60,-68 90,-134 112,-248 16,-87 16,-99 1,-210 -24,-170 -49,-233 -158,-397 -32,-48 -58,-90 -58,-92 0,-7 -72,-108 -101,-142 -33,-37 -177,-165 -229,-203 -56,-41 -187,-100 -289,-131 -129,-39 -280,-40 -385,-3 -230,79 -357,206 -487,485 -57,120 -64,161 -63,355 0,150 4,193 21,255 44,160 144,312 272,416 58,46 232,145 256,144 5,0 32,9 60,19 145,56 237,72 383,65 88,-5 109,-9 139,-30 z m -5240,435 c 27,-7 64,-23 81,-38 35,-29 37,-18 -21,-118 -16,-26 -35,-64 -42,-83 -50,-134 -73,-202 -79,-235 -11,-56 -32,-82 -92,-110 -63,-30 -91,-26 -99,13 -3,15 -15,61 -25,103 -12,47 -20,110 -20,162 0,77 3,93 30,144 36,69 108,137 165,157 51,18 45,18 102,5 z m 848,162 c 44,-11 112,-35 150,-55 39,-20 76,-36 84,-36 8,0 33,-11 56,-25 23,-13 68,-34 99,-45 44,-17 68,-35 116,-88 104,-117 166,-220 206,-342 20,-61 31,-295 16,-318 -7,-10 -36,13 -115,93 -59,59 -109,117 -113,129 -13,44 -23,47 -68,22 -32,-19 -61,-25 -136,-29 -52,-3 -138,-11 -190,-17 -52,-6 -115,-8 -140,-4 -119,16 -213,35 -238,48 -15,7 -41,17 -59,20 -65,15 -69,59 -6,71 51,9 65,22 52,46 -13,26 -39,24 -149,-11 -91,-29 -98,-29 -168,-19 -88,14 -140,2 -179,-41 -44,-50 -59,-9 -23,65 11,22 19,47 20,55 0,30 80,173 131,236 48,58 123,124 191,167 65,41 259,94 348,96 19,0 71,-8 115,-18 z m 6729,3500 c 4,-5 6,-1210 6,-2678 1,-2668 1,-2668 -26,-2688 -52,-38 -164,-156 -179,-188 -9,-18 -25,-50 -37,-72 -27,-52 -65,-155 -83,-225 -20,-81 -35,-139 -51,-196 -8,-28 -18,-85 -24,-126 -5,-41 -14,-105 -20,-141 -8,-55 -7,-89 9,-189 10,-68 27,-141 36,-163 9,-22 23,-53 30,-70 55,-129 134,-257 193,-312 20,-19 61,-49 93,-68 68,-42 68,-43 60,-186 -1,-19 -17,-39 -58,-72 -32,-25 -80,-68 -108,-96 -89,-91 -239,-223 -295,-260 -30,-20 -59,-40 -65,-44 -5,-4 -53,-36 -105,-70 -52,-34 -119,-87 -150,-118 -38,-39 -86,-73 -155,-109 -55,-29 -106,-57 -114,-63 -7,-6 -21,-16 -31,-22 -10,-5 -44,-25 -74,-43 -31,-17 -60,-32 -65,-32 -5,0 -51,-22 -102,-49 -166,-86 -213,-109 -279,-136 -36,-15 -72,-33 -80,-39 -8,-7 -40,-22 -70,-35 -30,-13 -62,-27 -70,-32 -17,-10 -71,-39 -117,-63 -36,-19 -59,-15 -93,14 -31,26 -88,26 -144,-2 -44,-21 -44,-21 -153,27 -59,26 -155,70 -213,97 -58,27 -130,61 -160,75 -73,34 -173,83 -235,115 -27,14 -79,40 -115,57 -36,17 -72,36 -80,41 -54,34 -388,208 -457,238 -57,24 -63,36 -35,73 10,13 22,31 26,39 4,8 26,51 49,95 42,80 42,80 117,86 86,7 166,38 283,109 46,27 107,104 107,134 0,12 9,47 20,79 12,33 18,68 14,82 -3,13 -32,51 -65,84 -62,63 -70,86 -45,131 30,53 75,146 81,167 11,38 37,26 120,-52 44,-42 103,-91 131,-110 28,-20 67,-59 87,-88 20,-28 55,-72 79,-97 24,-25 60,-67 82,-93 21,-26 66,-68 99,-93 60,-45 60,-45 85,-20 25,24 25,24 8,93 -47,186 -59,231 -73,271 -25,71 -63,235 -63,269 0,18 -9,55 -20,83 -11,28 -20,58 -20,66 0,9 -7,30 -15,47 -19,41 -44,126 -56,197 -6,30 -17,84 -26,120 -22,94 -55,270 -56,305 -2,28 0,30 51,37 29,4 69,15 88,23 20,8 43,15 52,15 8,0 33,9 56,19 78,36 171,82 191,94 44,27 183,144 240,202 61,62 69,73 170,230 31,50 65,101 74,115 10,14 32,57 50,95 18,39 37,78 43,89 5,10 16,75 25,145 33,281 -13,448 -167,595 -43,41 -96,84 -117,96 -21,11 -54,30 -73,42 -95,57 -151,81 -239,105 -53,14 -101,29 -108,35 -19,15 -181,26 -273,18 -90,-8 -233,-42 -278,-66 -15,-8 -33,-14 -41,-14 -21,0 -200,-89 -256,-128 -126,-86 -233,-222 -310,-391 -30,-68 -56,-207 -62,-331 -8,-188 14,-303 87,-450 120,-244 225,-368 378,-446 95,-48 84,-70 -50,-95 -182,-34 -244,-47 -343,-74 -109,-30 -125,-34 -265,-63 -87,-19 -280,-42 -470,-58 -41,-3 -92,-12 -115,-19 -22,-8 -60,-17 -85,-21 -28,-4 -63,-20 -93,-43 -111,-84 -205,-163 -250,-209 -46,-50 -129,-112 -148,-112 -12,0 -12,37 2,45 5,4 21,32 35,62 30,69 31,137 1,217 -20,53 -27,62 -77,90 -54,30 -58,31 -185,31 -119,0 -133,-2 -170,-24 -22,-13 -49,-34 -61,-45 -24,-25 -71,-112 -79,-146 -3,-16 -29,-43 -72,-75 -158,-116 -315,-243 -403,-325 -9,-8 -50,-37 -91,-64 -70,-47 -216,-172 -285,-243 -30,-32 -33,-33 -95,-28 -124,11 -255,26 -339,40 -54,9 -239,18 -503,24 -230,6 -423,13 -429,17 -17,11 -58,107 -58,139 0,17 -8,62 -19,100 -32,120 -41,158 -52,225 -6,36 -19,99 -30,141 -23,91 -24,140 -5,178 8,15 27,65 41,112 15,46 36,108 46,137 11,30 19,61 19,69 0,8 6,29 14,46 14,30 27,64 93,237 13,36 31,79 39,97 8,17 14,36 14,41 0,6 18,49 40,97 22,48 40,94 40,102 0,18 49,103 60,103 4,0 14,-10 23,-22 8,-13 29,-39 47,-58 18,-19 56,-66 86,-105 30,-38 83,-107 119,-153 36,-45 65,-85 65,-88 0,-10 124,-175 199,-265 54,-64 106,-109 126,-109 5,0 27,-9 47,-20 20,-10 74,-33 120,-49 134,-47 239,-91 288,-120 30,-17 111,-51 123,-51 7,0 29,-9 50,-20 20,-11 42,-20 48,-20 6,0 25,-7 42,-14 52,-24 150,-57 184,-63 25,-4 34,-1 39,12 10,26 -8,48 -52,63 -21,7 -53,19 -71,27 -17,8 -39,15 -50,15 -10,0 -35,9 -56,20 -20,11 -43,20 -50,20 -7,0 -29,9 -50,20 -20,11 -42,20 -48,20 -11,0 -168,72 -231,106 -14,8 -33,14 -42,14 -9,0 -34,9 -56,20 -22,11 -46,20 -55,20 -9,0 -53,17 -98,39 -73,34 -91,48 -162,130 -44,51 -82,97 -84,104 -2,7 -17,27 -32,44 -15,18 -49,64 -74,103 -25,38 -71,98 -102,133 -30,34 -63,73 -71,87 -9,14 -29,42 -45,63 -32,41 -30,57 6,40 127,-61 218,-91 308,-99 70,-7 175,16 267,57 23,10 48,19 55,19 6,1 30,9 52,20 22,11 45,19 52,20 22,0 166,81 222,123 59,45 212,220 241,277 43,81 77,157 84,185 4,17 19,42 33,56 20,22 23,31 14,47 -6,12 -11,74 -11,139 -1,65 -5,136 -10,158 -40,183 -119,329 -257,475 -47,50 -192,140 -225,140 -6,0 -42,16 -82,35 -126,62 -223,85 -358,85 -93,0 -131,-4 -175,-20 -32,-11 -65,-20 -75,-20 -40,0 -185,-82 -250,-140 -36,-33 -74,-60 -84,-60 -10,0 -27,9 -39,20 -30,28 -133,63 -170,57 -52,-9 -147,-60 -190,-102 -104,-103 -140,-244 -101,-390 9,-32 16,-69 16,-81 0,-12 8,-45 17,-74 16,-50 16,-53 -2,-66 -10,-8 -44,-23 -74,-34 -31,-12 -69,-27 -86,-34 -16,-8 -76,-26 -132,-42 -57,-15 -115,-38 -130,-51 -28,-22 -28,-22 18,-66 26,-25 81,-64 124,-88 42,-24 84,-51 94,-59 27,-24 74,-56 109,-74 39,-20 40,-37 11,-131 -24,-78 -20,-98 18,-93 19,2 39,18 65,53 49,65 70,75 107,47 16,-11 44,-27 62,-35 19,-8 59,-36 89,-63 30,-28 67,-58 83,-67 33,-21 36,-62 7,-126 -11,-24 -20,-48 -20,-53 0,-10 -7,-27 -54,-130 -14,-31 -26,-61 -26,-67 0,-6 -9,-30 -19,-53 -22,-50 -53,-128 -71,-178 -37,-106 -69,-203 -88,-265 -55,-179 -69,-213 -112,-268 -50,-64 -105,-160 -180,-317 -28,-58 -64,-130 -80,-160 -16,-30 -41,-80 -56,-110 -14,-30 -46,-96 -70,-146 -24,-50 -44,-94 -44,-97 0,-8 -113,-249 -140,-299 -11,-20 -20,-45 -20,-54 0,-9 -17,-58 -38,-108 -44,-103 -82,-214 -82,-236 0,-8 -6,-27 -14,-41 -7,-14 -19,-50 -26,-80 -12,-48 -38,-120 -59,-159 -9,-18 -53,-170 -131,-450 -51,-185 -59,-213 -75,-247 -8,-17 -15,-43 -15,-57 0,-14 -7,-45 -15,-68 -8,-24 -15,-63 -17,-88 -3,-44 -2,-45 29,-48 27,-3 33,1 38,20 2,13 10,43 16,68 5,25 16,72 24,105 8,33 21,74 29,90 9,17 16,40 16,53 0,12 7,39 16,60 8,20 21,64 29,97 8,33 23,92 34,130 12,39 26,90 33,115 14,57 58,191 96,295 27,73 41,118 88,275 15,49 50,139 90,227 8,17 14,38 14,48 0,9 9,33 19,53 19,38 89,184 121,257 72,159 144,310 190,395 17,30 30,57 30,61 0,16 108,227 144,282 17,25 45,37 47,20 1,-16 27,-171 42,-248 9,-44 23,-100 31,-124 9,-24 16,-54 16,-66 0,-13 9,-53 21,-91 17,-53 19,-72 10,-92 -10,-20 -17,-23 -39,-18 -15,3 -61,8 -102,11 -75,6 -75,6 -110,-41 -29,-39 -35,-57 -38,-109 -4,-63 -4,-63 79,-143 46,-44 102,-93 124,-108 22,-15 72,-55 110,-89 103,-92 98,-42 102,-945 2,-415 5,-769 8,-787 12,-71 144,-100 188,-41 34,46 40,111 41,460 1,185 5,340 9,345 12,11 37,-26 37,-53 0,-13 16,-70 35,-128 19,-58 39,-122 44,-143 26,-101 48,-148 71,-151 43,-7 43,11 6,134 -20,66 -41,133 -47,149 -13,34 -44,142 -65,226 -7,31 -21,69 -29,85 -8,16 -15,45 -15,64 0,19 -10,55 -22,80 -13,28 -24,78 -29,135 -4,50 -12,134 -18,187 -10,95 -8,128 10,128 4,0 41,-27 81,-60 40,-33 129,-106 198,-162 69,-55 130,-106 135,-112 6,-7 64,-57 130,-111 66,-55 183,-161 260,-236 127,-123 200,-190 281,-258 16,-13 58,-51 94,-85 36,-33 80,-73 98,-88 30,-26 31,-31 25,-75 -3,-27 -14,-59 -25,-72 -13,-17 -18,-41 -18,-81 0,-62 20,-92 72,-105 55,-14 81,23 93,128 7,59 14,66 51,44 46,-27 144,-111 149,-128 6,-17 -5,-41 -43,-101 -30,-47 -135,-231 -175,-308 -85,-162 -110,-206 -128,-226 -20,-21 -17,-53 5,-55 42,-5 58,13 110,111 126,243 149,287 160,300 7,8 31,46 52,83 67,119 70,122 96,125 17,2 41,-10 79,-41 30,-24 79,-62 109,-84 30,-22 73,-57 95,-77 37,-33 40,-40 40,-89 0,-59 16,-74 29,-28 5,17 13,31 18,31 17,0 96,-70 101,-89 2,-11 -2,-32 -9,-47 -8,-16 -20,-47 -27,-68 -17,-50 -44,-61 -86,-35 -28,17 -31,23 -31,68 0,28 -4,53 -10,56 -13,8 -23,-35 -24,-103 -1,-52 0,-55 29,-66 17,-6 40,-21 52,-33 26,-27 61,-20 69,13 3,13 12,28 20,35 8,6 19,30 25,52 13,49 37,87 55,87 7,0 32,-13 56,-29 69,-46 117,-62 183,-59 l 60,3 -2,-365 c -4,-977 -12,-1482 -27,-1769 -9,-172 -18,-317 -21,-320 -2,-4 -11,-100 -20,-213 -12,-153 -14,-212 -5,-227 18,-35 65,-52 132,-49 93,5 101,19 109,211 4,84 12,188 18,232 6,44 16,334 21,645 6,311 15,599 20,640 5,41 17,260 25,485 21,558 30,729 38,742 5,7 160,11 499,12 271,1 599,5 728,8 322,8 367,7 673,-4 206,-8 272,-14 282,-24 7,-8 15,-39 19,-70 7,-63 -5,-78 -39,-53 -20,15 -65,19 -65,6 0,-14 23,-32 42,-32 9,0 21,-6 25,-13 4,-7 20,-20 35,-30 18,-11 31,-32 39,-59 6,-24 14,-47 19,-53 13,-17 18,-52 9,-66 -6,-11 -11,-10 -27,4 -10,9 -22,17 -26,17 -11,0 -119,86 -166,132 -31,31 -99,78 -111,78 -22,0 -4,-26 60,-88 38,-37 74,-76 79,-87 13,-26 4,-73 -19,-104 -11,-13 -19,-32 -19,-43 0,-10 -7,-33 -16,-50 -9,-17 -22,-51 -29,-77 -7,-25 -25,-77 -39,-116 -15,-38 -31,-83 -36,-100 -6,-16 -16,-43 -24,-60 -8,-16 -23,-56 -35,-88 -11,-31 -29,-81 -41,-110 -11,-29 -20,-59 -20,-67 0,-8 -9,-28 -20,-45 -11,-16 -20,-39 -20,-50 0,-11 -7,-33 -16,-50 -16,-31 -49,-119 -64,-170 -11,-39 -68,-180 -96,-238 -19,-38 -18,-77 1,-77 8,0 15,8 15,18 0,11 9,27 20,37 11,10 20,24 20,30 0,7 9,24 20,38 11,14 20,37 20,51 0,14 8,34 19,45 10,10 21,39 25,65 6,36 11,46 26,46 16,0 19,9 22,53 3,45 6,52 26,55 18,3 22,10 22,36 0,19 9,45 21,60 20,25 36,78 74,236 9,36 22,79 30,97 8,17 15,37 15,45 0,7 9,30 20,51 11,20 20,42 20,48 0,6 7,25 15,42 37,81 65,173 65,214 0,30 9,59 26,89 28,48 35,52 54,29 7,-8 18,-15 25,-15 6,0 20,-9 30,-20 10,-11 23,-20 30,-20 23,0 66,-57 71,-96 8,-60 43,-212 65,-279 31,-98 34,-171 11,-237 -11,-31 -23,-76 -27,-100 -7,-43 -29,-106 -65,-183 -10,-22 -30,-69 -45,-105 -47,-117 -149,-312 -165,-317 -33,-10 -45,-21 -48,-46 -3,-21 2,-28 22,-33 42,-10 74,4 92,39 9,17 20,34 23,37 4,3 29,50 55,105 72,152 82,175 111,245 14,36 33,77 41,92 8,14 14,31 14,38 0,6 8,30 19,53 10,23 21,50 25,60 9,28 30,15 39,-25 9,-36 33,-53 63,-41 20,7 17,57 -5,101 -18,36 -37,132 -32,162 1,8 13,36 27,62 13,26 24,53 24,59 0,6 18,48 40,94 22,46 40,87 40,92 0,23 116,209 146,234 8,6 14,17 14,24 0,7 18,35 39,63 22,27 54,75 71,106 18,32 54,81 80,109 25,29 65,77 88,108 63,87 125,90 137,6 9,-68 11,-464 2,-692 -4,-115 -12,-462 -17,-770 -6,-366 -15,-621 -25,-735 -24,-257 -13,-532 26,-632 14,-34 72,-58 139,-58 44,0 51,3 64,28 7,15 17,50 20,77 8,62 29,1008 30,1390 1,154 7,363 14,465 10,152 9,212 -2,340 -8,85 -13,157 -11,161 3,3 5,106 5,228 1,186 4,223 17,236 16,16 82,16 264,-1 52,-4 59,-3 77,21 19,24 20,39 19,182 -2,156 -2,156 -42,179 -45,26 -111,59 -202,100 -35,16 -63,32 -63,37 0,4 43,53 96,110 53,56 124,136 157,177 34,41 84,99 113,130 29,30 85,96 125,145 40,50 75,92 78,95 3,3 19,22 35,44 16,21 53,65 82,98 59,66 129,165 184,258 11,19 29,49 39,65 26,44 59,101 99,175 42,79 40,76 54,62 15,-15 13,-939 -3,-958 -6,-7 -24,-16 -40,-19 -16,-4 -84,-31 -152,-62 -138,-62 -235,-95 -251,-85 -6,3 -19,16 -29,29 -26,32 -45,29 -101,-19 -71,-61 -96,-136 -60,-186 27,-38 67,-29 122,27 38,40 62,54 126,76 43,14 86,30 95,35 9,5 36,17 61,28 25,11 72,32 104,46 32,14 76,29 97,32 36,6 39,5 39,-17 0,-13 1,-209 1,-436 0,-395 -1,-413 -21,-450 -11,-21 -20,-49 -20,-63 0,-14 -9,-33 -20,-43 -11,-9 -20,-29 -20,-46 0,-15 -9,-40 -20,-54 -20,-25 -28,-97 -12,-97 15,0 32,24 32,44 0,12 9,35 20,51 11,17 20,47 20,68 0,37 20,51 36,25 10,-16 5,-3061 -5,-3071 -4,-4 -4367,-6 -9697,-5 l -9689,3 -3,6430 c -1,3537 0,6436 3,6443 3,9 1952,12 9694,12 5861,0 9692,-4 9695,-9 z M 0,7481 C 0,963 0,963 37,956 c 50,-8 19436,-8 19486,0 37,7 37,7 37,6525 v 6519 H 9780 0 Z m 20.984087,6518.989 H 19559.99 V -31.45 H 20.984087 Z"
       id="path356" />
  </g>
</svg>
