<?xml version="1.0" encoding="UTF-8" standalone="no"?>
<!-- Created with Inkscape (http://www.inkscape.org/) -->

<svg
   xmlns:dc="http://purl.org/dc/elements/1.1/"
   xmlns:cc="http://creativecommons.org/ns#"
   xmlns:rdf="http://www.w3.org/1999/02/22-rdf-syntax-ns#"
   xmlns:svg="http://www.w3.org/2000/svg"
   xmlns="http://www.w3.org/2000/svg"
   xmlns:sodipodi="http://sodipodi.sourceforge.net/DTD/sodipodi-0.dtd"
   xmlns:inkscape="http://www.inkscape.org/namespaces/inkscape"
   version="1.1"
   id="svg2"
   xml:space="preserve"
   width="768.93317"
   height="477.57434"
   viewBox="0 0 768.93316 477.57433"
   sodipodi:docname="PDDL-req.svg"
   inkscape:version="0.92.3 (2405546, 2018-03-11)"><metadata
     id="metadata8"><rdf:RDF><cc:Work
         rdf:about=""><dc:format>image/svg+xml</dc:format><dc:type
           rdf:resource="http://purl.org/dc/dcmitype/StillImage" /><dc:title></dc:title></cc:Work></rdf:RDF></metadata><defs
     id="defs6"><clipPath
       clipPathUnits="userSpaceOnUse"
       id="clipPath18"><path
         d="M 0,0 H 595.2 V 841.8 H 0 Z"
         id="path16"
         inkscape:connector-curvature="0"
         style="clip-rule:evenodd" /></clipPath></defs><sodipodi:namedview
     pagecolor="#ffffff"
     bordercolor="#666666"
     borderopacity="1"
     objecttolerance="10"
     gridtolerance="10"
     guidetolerance="10"
     inkscape:pageopacity="0"
     inkscape:pageshadow="2"
     inkscape:window-width="3840"
     inkscape:window-height="2034"
     id="namedview4"
     showgrid="false"
     fit-margin-top="16"
     fit-margin-left="16"
     fit-margin-right="16"
     fit-margin-bottom="16"
     inkscape:zoom="1.681987"
     inkscape:cx="473.22559"
     inkscape:cy="153.54228"
     inkscape:window-x="1920"
     inkscape:window-y="60"
     inkscape:window-maximized="1"
     inkscape:current-layer="g14" /><g
     id="g10"
     inkscape:groupmode="layer"
     inkscape:label="PDDL-req"
     transform="matrix(1.3333333,0,0,-1.3333333,-25.600132,750.87932)"><g
       id="g12"><g
         id="g14"
         clip-path="url(#clipPath18)"><g
           id="g22"><path
             d="m 54.5,388.3 c 3.5,0 6.2,-2.7 6.2,-6.2 0,-3.5 -2.7,-6.1 -6.2,-6.1 -3.5,0 -6.1,2.6 -6.1,6.1 0,3.5 2.6,6.2 6.1,6.2 z"
             style="fill:none;stroke:#657b83;stroke-width:2.99979997;stroke-linecap:butt;stroke-linejoin:round;stroke-miterlimit:10;stroke-dasharray:none;stroke-opacity:1"
             id="path24"
             inkscape:connector-curvature="0" /></g><g
           id="g26"><path
             d="M 48.4,388.3 Z"
             style="fill:none;stroke:#657b83;stroke-width:2.99979997;stroke-linecap:butt;stroke-linejoin:round;stroke-miterlimit:10;stroke-dasharray:none;stroke-opacity:1"
             id="path28"
             inkscape:connector-curvature="0" /></g><g
           id="g30"><path
             d="M 60.7,375.9 Z"
             style="fill:none;stroke:#657b83;stroke-width:2.99979997;stroke-linecap:butt;stroke-linejoin:round;stroke-miterlimit:10;stroke-dasharray:none;stroke-opacity:1"
             id="path32"
             inkscape:connector-curvature="0" /></g><g
           id="g34"><path
             d="m 54.5,459.2 c 3.5,0 6.2,-2.7 6.2,-6.2 0,-3.5 -2.7,-6.2 -6.2,-6.2 -3.5,0 -6.1,2.7 -6.1,6.2 0,3.5 2.6,6.2 6.1,6.2 z"
             style="fill:none;stroke:#657b83;stroke-width:2.99979997;stroke-linecap:butt;stroke-linejoin:round;stroke-miterlimit:10;stroke-dasharray:none;stroke-opacity:1"
             id="path36"
             inkscape:connector-curvature="0" /></g><g
           id="g38"><path
             d="M 48.4,459.2 Z"
             style="fill:none;stroke:#657b83;stroke-width:2.99979997;stroke-linecap:butt;stroke-linejoin:round;stroke-miterlimit:10;stroke-dasharray:none;stroke-opacity:1"
             id="path40"
             inkscape:connector-curvature="0" /></g><g
           id="g42"><path
             d="M 60.7,446.8 Z"
             style="fill:none;stroke:#657b83;stroke-width:2.99979997;stroke-linecap:butt;stroke-linejoin:round;stroke-miterlimit:10;stroke-dasharray:none;stroke-opacity:1"
             id="path44"
             inkscape:connector-curvature="0" /></g><g
           id="g46"><text
             transform="matrix(1,0,0,-1,294.6,535)"
             style="font-variant:normal;font-weight:normal;font-size:18px;font-family:'Operator Mono';-inkscape-font-specification:OperatorMonoBold;writing-mode:lr-tb;fill:#dc322f;fill-opacity:1;fill-rule:nonzero;stroke:#dc322f;stroke-width:0.59900999;stroke-linecap:butt;stroke-linejoin:miter;stroke-miterlimit:10;stroke-dasharray:none;stroke-opacity:1"
             id="text50"><tspan
               x="0 9.9899998 19.98"
               y="0"
               sodipodi:role="line"
               id="tspan48">adl</tspan></text>
</g><g
           id="g52"><path
             d="m 229.6,489.4 h 69.8"
             style="fill:none;stroke:#657b83;stroke-width:2.99979997;stroke-linecap:butt;stroke-linejoin:round;stroke-miterlimit:10;stroke-dasharray:none;stroke-opacity:1"
             id="path54"
             inkscape:connector-curvature="0" /></g><g
           id="g56"><text
             transform="matrix(1,0,0,-1,63.8,285.2)"
             style="font-variant:normal;font-weight:normal;font-size:18px;font-family:'Operator Mono';-inkscape-font-specification:OperatorMonoMedium;writing-mode:lr-tb;fill:#657b83;fill-opacity:1;fill-rule:nonzero;stroke:none"
             id="text60"><tspan
               x="0 9.8999996 19.889999 29.879999 39.779999 49.77 59.669998 69.660004 79.650002 89.550003 99.540001 109.44 119.43 129.42 139.32001 149.31 159.21001 169.2 179.19 189.09 199.08 208.98 218.97 228.87 238.86 248.85001 258.84 268.73999 278.73001 288.63 298.62 308.51999 318.51001 328.5 338.39999 348.39001 358.29001 368.28 378.26999 388.17001 398.16 408.06"
               y="0"
               sodipodi:role="line"
               id="tspan58">derived-predicates constraints preferences</tspan></text>
</g><path
           d="M 142.4,400.1 H 53.9 v 53.4 H 231 v -53.4 z"
           style="fill:#fdf6e3;fill-opacity:1;fill-rule:evenodd;stroke:none"
           id="path62"
           inkscape:connector-curvature="0" /><g
           id="g64"><path
             d="M 142.4,400.1 H 53.9 v 53.4 H 231 v -53.4 z"
             style="fill:none;stroke:#586e75;stroke-width:2.99979997;stroke-linecap:butt;stroke-linejoin:round;stroke-miterlimit:10;stroke-dasharray:none;stroke-opacity:1"
             id="path66"
             inkscape:connector-curvature="0" /></g><g
           id="g68"><text
             transform="matrix(1,0,0,-1,62.4,431.1)"
             style="font-variant:normal;font-weight:normal;font-size:18px;font-family:'Operator Mono';-inkscape-font-specification:OperatorMonoMedium;writing-mode:lr-tb;fill:#657b83;fill-opacity:1;fill-rule:nonzero;stroke:none"
             id="text72"><tspan
               x="0 9.9899998 19.98 29.879999 39.869999 49.860001 59.759998 69.75 79.650002 89.639999 99.629997 109.53"
               y="0"
               sodipodi:role="line"
               id="tspan70">action-costs</tspan></text>
</g><g
           id="g74"><text
             transform="matrix(1,0,0,-1,62.4,409.5)"
             style="font-variant:normal;font-weight:normal;font-size:18px;font-family:'Operator Mono';-inkscape-font-specification:OperatorMonoMedium;writing-mode:lr-tb;fill:#657b83;fill-opacity:1;fill-rule:nonzero;stroke:none"
             id="text78"><tspan
               x="0 9.9899998 19.98 29.879999 39.869999 49.860001 59.759998 69.75 79.650002 89.639999 99.629997 109.53 119.52 129.42 139.41 149.39999"
               y="0"
               sodipodi:role="line"
               id="tspan76">durative-actions</tspan></text>
</g><path
           d="m 138.9,476.1 h -85 V 530 h 170 v -53.9 z"
           style="fill:#fdf6e3;fill-opacity:1;fill-rule:evenodd;stroke:none"
           id="path80"
           inkscape:connector-curvature="0" /><g
           id="g82"><path
             d="m 138.9,476.1 h -85 V 530 h 170 v -53.9 z"
             style="fill:none;stroke:#859900;stroke-width:2.99979997;stroke-linecap:butt;stroke-linejoin:round;stroke-miterlimit:10;stroke-dasharray:none;stroke-opacity:1"
             id="path84"
             inkscape:connector-curvature="0" /></g><g
           id="g86"><text
             transform="matrix(1,0,0,-1,62.4,507.4)"
             style="font-variant:normal;font-weight:normal;font-size:18px;font-family:'Operator Mono';-inkscape-font-specification:OperatorMonoMedium;writing-mode:lr-tb;fill:#657b83;fill-opacity:1;fill-rule:nonzero;stroke:none"
             id="text90"><tspan
               x="0 9.9899998 19.98 29.879999 39.869999 49.860001 59.759998 69.75 79.650002 89.639999 99.629997 109.53 119.52 129.42"
               y="0"
               sodipodi:role="line"
               id="tspan88">object-fluents</tspan></text>
</g><g
           id="g92"><text
             transform="matrix(1,0,0,-1,62.4,485.8)"
             style="font-variant:normal;font-weight:normal;font-size:18px;font-family:'Operator Mono';-inkscape-font-specification:OperatorMonoMedium;writing-mode:lr-tb;fill:#657b83;fill-opacity:1;fill-rule:nonzero;stroke:none"
             id="text96"><tspan
               x="0 9.9899998 19.98 29.879999 39.869999 49.860001 59.759998 69.75 79.650002 89.639999 99.629997 109.53 119.52 129.42 139.41"
               y="0"
               sodipodi:role="line"
               id="tspan94">numeric-fluents</tspan></text>
</g><g
           id="g98"><text
             transform="matrix(1,0,0,-1,42.2,537.9)"
             style="font-variant:normal;font-weight:normal;font-size:18px;font-family:'Operator Mono';-inkscape-font-specification:OperatorMonoBold;writing-mode:lr-tb;fill:#859900;fill-opacity:1;fill-rule:nonzero;stroke:#859900;stroke-width:0.59900999;stroke-linecap:butt;stroke-linejoin:miter;stroke-miterlimit:10;stroke-dasharray:none;stroke-opacity:1"
             id="text102"><tspan
               x="0 9.9899998 19.98 29.879999 39.869999 49.77 59.759998"
               y="0"
               sodipodi:role="line"
               id="tspan100">fluents</tspan></text>
</g><path
           d="M 442.2,306.1 H 306.1 V 530 H 578.3 V 306.1 Z"
           style="fill:#fdf6e3;fill-opacity:1;fill-rule:evenodd;stroke:none"
           id="path104"
           inkscape:connector-curvature="0" /><g
           id="g106"><path
             d="M 442.2,306.1 H 306.1 V 530 H 578.3 V 306.1 Z"
             style="fill:none;stroke:#dc322f;stroke-width:2.99979997;stroke-linecap:butt;stroke-linejoin:round;stroke-miterlimit:10;stroke-dasharray:none;stroke-opacity:1"
             id="path108"
             inkscape:connector-curvature="0" /></g><g
           id="g110"><text
             transform="matrix(1,0,0,-1,314.7,507.7)"
             style="font-variant:normal;font-weight:normal;font-size:18px;font-family:'Operator Mono';-inkscape-font-specification:OperatorMonoMedium;writing-mode:lr-tb;fill:#657b83;fill-opacity:1;fill-rule:nonzero;stroke:none"
             id="text114"><tspan
               x="0 9.9899998 19.98 29.879999 39.869999 49.77"
               y="0"
               sodipodi:role="line"
               id="tspan112">strips</tspan></text>
</g><g
           id="g116"><text
             transform="matrix(1,0,0,-1,314.7,486.1)"
             style="font-variant:normal;font-weight:normal;font-size:18px;font-family:'Operator Mono';-inkscape-font-specification:OperatorMonoMedium;writing-mode:lr-tb;fill:#657b83;fill-opacity:1;fill-rule:nonzero;stroke:none"
             id="text120"><tspan
               x="0 9.9899998 19.98 29.879999 39.869999 49.77 59.759998 69.75"
               y="0"
               sodipodi:role="line"
               id="tspan118">equality</tspan></text>
</g><g
           id="g122"><text
             transform="matrix(1,0,0,-1,314.7,464.5)"
             style="font-variant:normal;font-weight:normal;font-size:18px;font-family:'Operator Mono';-inkscape-font-specification:OperatorMonoMedium;writing-mode:lr-tb;fill:#657b83;fill-opacity:1;fill-rule:nonzero;stroke:none"
             id="text126"><tspan
               x="0 9.9899998 19.98 29.879999 39.869999 49.77"
               y="0"
               sodipodi:role="line"
               id="tspan124">typing</tspan></text>
</g><g
           id="g128"><text
             transform="matrix(1,0,0,-1,314.7,442.9)"
             style="font-variant:normal;font-weight:normal;font-size:18px;font-family:'Operator Mono';-inkscape-font-specification:OperatorMonoMedium;writing-mode:lr-tb;fill:#657b83;fill-opacity:1;fill-rule:nonzero;stroke:none"
             id="text132"><tspan
               x="0 9.9899998 19.98 29.879999 39.869999 49.77 59.759998 69.75 79.650002 89.639999 99.540001 109.53 119.43 129.42 139.41 149.31 159.3 169.2 179.19 189.17999 199.08 209.07001"
               y="0"
               sodipodi:role="line"
               id="tspan130">negative-preconditions</tspan></text>
</g><g
           id="g134"><text
             transform="matrix(1,0,0,-1,314.7,421.3)"
             style="font-variant:normal;font-weight:normal;font-size:18px;font-family:'Operator Mono';-inkscape-font-specification:OperatorMonoMedium;writing-mode:lr-tb;fill:#657b83;fill-opacity:1;fill-rule:nonzero;stroke:none"
             id="text138"><tspan
               x="0 9.9899998 19.98 29.879999 39.869999 49.77 59.759998 69.75 79.650002 89.639999 99.540001 109.53 119.43 129.42 139.41 149.31 159.3 169.2 179.19 189.17999 199.08 209.07001 218.97 228.96001 238.95"
               y="0"
               sodipodi:role="line"
               id="tspan136">disjunctive-preconditions</tspan></text>
</g><g
           id="g140"><text
             transform="matrix(1,0,0,-1,314.7,399.7)"
             style="font-variant:normal;font-weight:normal;font-size:18px;font-family:'Operator Mono';-inkscape-font-specification:OperatorMonoBold;writing-mode:lr-tb;fill:#268bd2;fill-opacity:1;fill-rule:nonzero;stroke:#268bd2;stroke-width:0.59900999;stroke-linecap:butt;stroke-linejoin:miter;stroke-miterlimit:10;stroke-dasharray:none;stroke-opacity:1"
             id="text144"><tspan
               x="0 9.9899998 19.98 29.879999 39.869999 49.77 59.759998 69.75 79.650002 89.639999 99.540001 109.53 119.43 129.42 139.41 149.31 159.3 169.2 179.19 189.17999 199.08 209.07001 218.97 228.96001"
               y="0"
               sodipodi:role="line"
               id="tspan142">quantified-preconditions</tspan></text>
</g><g
           id="g146"><text
             transform="matrix(1,0,0,-1,314.7,313.3)"
             style="font-variant:normal;font-weight:normal;font-size:18px;font-family:'Operator Mono';-inkscape-font-specification:OperatorMonoMedium;writing-mode:lr-tb;fill:#657b83;fill-opacity:1;fill-rule:nonzero;stroke:none"
             id="text150"><tspan
               x="0 9.9899998 19.98 29.879999 39.869999 49.77 59.759998 69.75 79.650002 89.639999 99.540001 109.53 119.43 129.42 139.41 149.31 159.3 169.2 179.19"
               y="0"
               sodipodi:role="line"
               id="tspan148">conditional-effects</tspan></text>
</g><path
           d="M 442.2,337.2 H 311.8 v 53.9 h 260.8 v -53.9 z"
           style="fill:#eee8d5;fill-opacity:1;fill-rule:evenodd;stroke:none"
           id="path152"
           inkscape:connector-curvature="0" /><g
           id="g154"><path
             d="M 442.2,337.2 H 311.8 v 53.9 h 260.8 v -53.9 z"
             style="fill:none;stroke:#268bd2;stroke-width:2.99979997;stroke-linecap:butt;stroke-linejoin:round;stroke-miterlimit:10;stroke-dasharray:none;stroke-opacity:1"
             id="path156"
             inkscape:connector-curvature="0" /></g><g
           id="g158"><text
             transform="matrix(1,0,0,-1,320.4,368.5)"
             style="font-variant:normal;font-weight:normal;font-size:18px;font-family:'Operator Mono';-inkscape-font-specification:OperatorMonoMedium;writing-mode:lr-tb;fill:#657b83;fill-opacity:1;fill-rule:nonzero;stroke:none"
             id="text162"><tspan
               x="0 9.8999996 19.889999 29.879999 39.779999 49.77 59.759998 69.660004 79.650002 89.550003 99.540001 109.53 119.43 129.42 139.32001 149.31 159.3 169.2 179.19 189.09 199.08 209.07001 218.97 228.96001 238.86"
               y="0"
               sodipodi:role="line"
               id="tspan160">existential-preconditions</tspan></text>
</g><g
           id="g164"><text
             transform="matrix(1,0,0,-1,320.4,346.9)"
             style="font-variant:normal;font-weight:normal;font-size:18px;font-family:'Operator Mono';-inkscape-font-specification:OperatorMonoMedium;writing-mode:lr-tb;fill:#657b83;fill-opacity:1;fill-rule:nonzero;stroke:none"
             id="text168"><tspan
               x="0 9.8999996 19.889999 29.879999 39.779999 49.77 59.759998 69.660004 79.650002 89.550003 99.540001 109.53 119.43 129.42 139.32001 149.31 159.3 169.2 179.19 189.09 199.08 209.07001 218.97"
               y="0"
               sodipodi:role="line"
               id="tspan166">universal-preconditions</tspan></text>
</g><path
           d="m 305.5,495.6 c 3.5,0 6.2,-2.7 6.2,-6.2 0,-3.5 -2.7,-6.2 -6.2,-6.2 -3.4,0 -6.1,2.7 -6.1,6.2 0,3.5 2.7,6.2 6.1,6.2 z m -6.1,0 z m 12.4,-12.4 z"
           style="fill:#657b83;fill-opacity:1;fill-rule:evenodd;stroke:none"
           id="path170"
           inkscape:connector-curvature="0" /><path
           d="m 54.5,495.6 c 3.5,0 6.2,-2.7 6.2,-6.2 0,-3.5 -2.7,-6.2 -6.2,-6.2 -3.5,0 -6.1,2.7 -6.1,6.2 0,3.5 2.6,6.2 6.1,6.2 z m -6.1,0 z m 12.3,-12.4 z"
           style="fill:#657b83;fill-opacity:1;fill-rule:evenodd;stroke:none"
           id="path172"
           inkscape:connector-curvature="0" /><path
           d="M 171.5,308.9 H 53.9 v 73.7 h 235.2 v -73.7 z"
           style="fill:#fdf6e3;fill-opacity:1;fill-rule:evenodd;stroke:none"
           id="path174"
           inkscape:connector-curvature="0" /><g
           id="g176"><path
             d="M 171.5,308.9 H 53.9 v 73.7 h 235.2 v -73.7 z"
             style="fill:none;stroke:#eee8d5;stroke-width:2.99979997;stroke-linecap:butt;stroke-linejoin:round;stroke-miterlimit:10;stroke-dasharray:none;stroke-opacity:1"
             id="path178"
             inkscape:connector-curvature="0" /></g><g
           id="g180"><text
             transform="matrix(1,0,0,-1,62.4,361.4)"
             style="font-variant:normal;font-weight:normal;font-size:18px;font-family:'Operator Mono';-inkscape-font-specification:OperatorMonoMedium;writing-mode:lr-tb;fill:#657b83;fill-opacity:1;fill-rule:nonzero;stroke:none"
             id="text184"><tspan
               x="0 9.9899998 19.98 29.879999 39.869999 49.860001 59.759998 69.75 79.650002 89.639999 99.629997 109.53 119.52 129.42 139.41 149.39999 159.3 169.28999 179.19 189.17999 199.08"
               y="0"
               sodipodi:role="line"
               id="tspan182">duration-inequalities</tspan></text>
</g><g
           id="g186"><text
             transform="matrix(1,0,0,-1,62.4,339.8)"
             style="font-variant:normal;font-weight:normal;font-size:18px;font-family:'Operator Mono';-inkscape-font-specification:OperatorMonoMedium;writing-mode:lr-tb;fill:#657b83;fill-opacity:1;fill-rule:nonzero;stroke:none"
             id="text190"><tspan
               x="0 9.9899998 19.98 29.879999 39.869999 49.860001 59.759998 69.75 79.650002 89.639999 99.629997 109.53 119.52 129.42 139.41 149.39999 159.3 169.28999"
               y="0"
               sodipodi:role="line"
               id="tspan188">continious-effects</tspan></text>
</g><g
           id="g192"><text
             transform="matrix(1,0,0,-1,62.4,318.2)"
             style="font-variant:normal;font-weight:normal;font-size:18px;font-family:'Operator Mono';-inkscape-font-specification:OperatorMonoMedium;writing-mode:lr-tb;fill:#657b83;fill-opacity:1;fill-rule:nonzero;stroke:none"
             id="text196"><tspan
               x="0 9.9899998 19.98 29.879999 39.869999 49.860001 59.759998 69.75 79.650002 89.639999 99.629997 109.53 119.52 129.42 139.41 149.39999 159.3 169.28999 179.19 189.17999 199.08 209.07001"
               y="0"
               sodipodi:role="line"
               id="tspan194">timed-initial-literals</tspan></text>
</g><g
           id="g198"><path
             d="m 223.4,495.6 c 3.5,0 6.2,-2.7 6.2,-6.2 0,-3.5 -2.7,-6.2 -6.2,-6.2 -3.5,0 -6.2,2.7 -6.2,6.2 0,3.5 2.7,6.2 6.2,6.2 z"
             style="fill:none;stroke:#657b83;stroke-width:2.99979997;stroke-linecap:butt;stroke-linejoin:round;stroke-miterlimit:10;stroke-dasharray:none;stroke-opacity:1"
             id="path200"
             inkscape:connector-curvature="0" /></g><g
           id="g202"><path
             d="M 217.2,495.6 Z"
             style="fill:none;stroke:#657b83;stroke-width:2.99979997;stroke-linecap:butt;stroke-linejoin:round;stroke-miterlimit:10;stroke-dasharray:none;stroke-opacity:1"
             id="path204"
             inkscape:connector-curvature="0" /></g><g
           id="g206"><path
             d="M 229.6,483.2 Z"
             style="fill:none;stroke:#657b83;stroke-width:2.99979997;stroke-linecap:butt;stroke-linejoin:round;stroke-miterlimit:10;stroke-dasharray:none;stroke-opacity:1"
             id="path208"
             inkscape:connector-curvature="0" /></g><path
           d="m 54.5,419.9 c 3.5,0 6.2,-2.7 6.2,-6.2 0,-3.5 -2.7,-6.2 -6.2,-6.2 -3.5,0 -6.1,2.7 -6.1,6.2 0,3.5 2.6,6.2 6.1,6.2 z m -6.1,0 z m 12.3,-12.4 z"
           style="fill:#657b83;fill-opacity:1;fill-rule:evenodd;stroke:none"
           id="path210"
           inkscape:connector-curvature="0" /><g
           id="g212"><path
             d="M 48.4,452.9 H 32.7 v 36.5 h 15.7"
             style="fill:none;stroke:#657b83;stroke-width:2.99979997;stroke-linecap:butt;stroke-linejoin:round;stroke-miterlimit:10;stroke-dasharray:none;stroke-opacity:1"
             id="path214"
             inkscape:connector-curvature="0" /></g><g
           id="g216"><path
             d="M 48.4,382.1 H 32.7 v 31.6 h 15.7"
             style="fill:none;stroke:#657b83;stroke-width:2.99979997;stroke-linecap:butt;stroke-linejoin:round;stroke-miterlimit:10;stroke-dasharray:none;stroke-opacity:1"
             id="path218"
             inkscape:connector-curvature="0" /></g><g
           id="g220"><text
             transform="matrix(1,0,0,-1,33.3,250.3)"
             style="font-variant:normal;font-weight:normal;font-size:28px;font-family:'STIX Two Math';-inkscape-font-specification:STIXTwoMath;writing-mode:lr-tb;fill:#073642;fill-opacity:1;fill-rule:nonzero;stroke:#073642;stroke-width:0.93200999;stroke-linecap:butt;stroke-linejoin:miter;stroke-miterlimit:10;stroke-dasharray:none;stroke-opacity:1"
             id="text224"><tspan
               x="0 16.296 29.288 42.952 55.860001 71.959999"
               y="0"
               sodipodi:role="line"
               id="tspan222">Legend</tspan></text>
</g><g
           id="g226"><path
             d="M 173.9,229 H 204"
             style="fill:none;stroke:#657b83;stroke-width:2.99979997;stroke-linecap:butt;stroke-linejoin:round;stroke-miterlimit:10;stroke-dasharray:none;stroke-opacity:1"
             id="path228"
             inkscape:connector-curvature="0" /></g><path
           d="m 210.2,235.2 c 3.4,0 6.1,-2.7 6.1,-6.1 0,-3.5 -2.7,-6.2 -6.1,-6.2 -3.5,0 -6.2,2.7 -6.2,6.2 0,3.4 2.7,6.1 6.2,6.1 z m -6.2,0 z m 12.4,-12.3 z"
           style="fill:#657b83;fill-opacity:1;fill-rule:evenodd;stroke:none"
           id="path230"
           inkscape:connector-curvature="0" /><g
           id="g232"><path
             d="m 167.7,235.2 c 3.5,0 6.2,-2.7 6.2,-6.1 0,-3.5 -2.7,-6.2 -6.2,-6.2 -3.5,0 -6.2,2.7 -6.2,6.2 0,3.4 2.7,6.1 6.2,6.1 z"
             style="fill:none;stroke:#657b83;stroke-width:2.99979997;stroke-linecap:butt;stroke-linejoin:round;stroke-miterlimit:10;stroke-dasharray:none;stroke-opacity:1"
             id="path234"
             inkscape:connector-curvature="0" /></g><g
           id="g236"><path
             d="M 161.5,235.2 Z"
             style="fill:none;stroke:#657b83;stroke-width:2.99979997;stroke-linecap:butt;stroke-linejoin:round;stroke-miterlimit:10;stroke-dasharray:none;stroke-opacity:1"
             id="path238"
             inkscape:connector-curvature="0" /></g><g
           id="g240"><path
             d="M 173.9,222.9 Z"
             style="fill:none;stroke:#657b83;stroke-width:2.99979997;stroke-linecap:butt;stroke-linejoin:round;stroke-miterlimit:10;stroke-dasharray:none;stroke-opacity:1"
             id="path242"
             inkscape:connector-curvature="0" /></g><g
           id="g244"><text
             transform="matrix(1,0,0,-1,145.8,223.2)"
             style="font-variant:normal;font-weight:normal;font-size:18px;font-family:'Operator Mono';-inkscape-font-specification:OperatorMonoMedium;writing-mode:lr-tb;fill:#657b83;fill-opacity:1;fill-rule:nonzero;stroke:none"
             id="text248"><tspan
               x="0"
               y="0"
               id="tspan246">x</tspan></text>
</g><g
           id="g250"><text
             transform="matrix(1,0,0,-1,219.6,223.2)"
             style="font-variant:normal;font-weight:normal;font-size:18px;font-family:'Operator Mono';-inkscape-font-specification:OperatorMonoMedium;writing-mode:lr-tb;fill:#657b83;fill-opacity:1;fill-rule:nonzero;stroke:none"
             id="text254"><tspan
               x="0"
               y="0"
               id="tspan252">y</tspan></text>
</g><g
           id="g256"><text
             transform="matrix(1,0,0,-1,145.8,254.4)"
             style="font-variant:normal;font-weight:normal;font-size:18px;font-family:'Operator Mono';-inkscape-font-specification:OperatorMonoMedium;writing-mode:lr-tb;fill:#657b83;fill-opacity:1;fill-rule:nonzero;stroke:none"
             id="text260"><tspan
               x="0"
               y="0"
               id="tspan258">x</tspan></text>
</g><g
           id="g262"><text
             transform="matrix(1,0,0,-1,159.292,254.4)"
             style="font-style:italic;font-variant:normal;font-size:18px;font-family:'Skolar PE';-inkscape-font-specification:SkolarPE-Italic;writing-mode:lr-tb;fill:#657b83;fill-opacity:1;fill-rule:nonzero;stroke:none"
             id="text266"><tspan
               x="0 6.6960001 14.094 22.5 32.273998 37.368 44.063999 51.551998 58.139999"
               y="0"
               sodipodi:role="line"
               id="tspan264">requires </tspan></text>
</g><g
           id="g268"><text
             transform="matrix(1,0,0,-1,221,254.4)"
             style="font-variant:normal;font-weight:normal;font-size:18px;font-family:'Operator Mono';-inkscape-font-specification:OperatorMonoMedium;writing-mode:lr-tb;fill:#657b83;fill-opacity:1;fill-rule:nonzero;stroke:none"
             id="text272"><tspan
               x="0"
               y="0"
               id="tspan270">y</tspan></text>
</g><g
           id="g274"><path
             d="m 273.2,244.1 c 3.5,0 6.2,-2.7 6.2,-6.2 0,-3.5 -2.7,-6.1 -6.2,-6.1 -3.5,0 -6.2,2.6 -6.2,6.1 0,3.5 2.7,6.2 6.2,6.2 z"
             style="fill:none;stroke:#657b83;stroke-width:2.99979997;stroke-linecap:butt;stroke-linejoin:round;stroke-miterlimit:10;stroke-dasharray:none;stroke-opacity:1"
             id="path276"
             inkscape:connector-curvature="0" /></g><g
           id="g278"><path
             d="M 267,244.1 Z"
             style="fill:none;stroke:#657b83;stroke-width:2.99979997;stroke-linecap:butt;stroke-linejoin:round;stroke-miterlimit:10;stroke-dasharray:none;stroke-opacity:1"
             id="path280"
             inkscape:connector-curvature="0" /></g><g
           id="g282"><path
             d="M 279.4,231.7 Z"
             style="fill:none;stroke:#657b83;stroke-width:2.99979997;stroke-linecap:butt;stroke-linejoin:round;stroke-miterlimit:10;stroke-dasharray:none;stroke-opacity:1"
             id="path284"
             inkscape:connector-curvature="0" /></g><path
           d="m 301.3,218.5 h -27.6 v 19.9 h 55.1 v -19.9 z"
           style="fill:#fdf6e3;fill-opacity:1;fill-rule:evenodd;stroke:none"
           id="path286"
           inkscape:connector-curvature="0" /><g
           id="g288"><text
             transform="matrix(1,0,0,-1,276.3,222)"
             style="font-variant:normal;font-weight:normal;font-size:18px;font-family:'Operator Mono';-inkscape-font-specification:OperatorMonoMedium;writing-mode:lr-tb;fill:#657b83;fill-opacity:1;fill-rule:nonzero;stroke:none"
             id="text292"><tspan
               x="0 9.9899998 39.869999"
               y="0"
               sodipodi:role="line"
               id="tspan290">x y</tspan></text>
</g><g
           id="g294"><path
             d="m 273.7,218.5 v 19.9"
             style="fill:none;stroke:#073642;stroke-width:2.99979997;stroke-linecap:round;stroke-linejoin:round;stroke-miterlimit:10;stroke-dasharray:none;stroke-opacity:1"
             id="path296"
             inkscape:connector-curvature="0" /></g><g
           id="g298"><path
             d="M 328.8,238.4 H 273.7"
             style="fill:none;stroke:#073642;stroke-width:2.99979997;stroke-linecap:round;stroke-linejoin:round;stroke-miterlimit:10;stroke-dasharray:none;stroke-opacity:1"
             id="path300"
             inkscape:connector-curvature="0" /></g><g
           id="g302"><text
             transform="matrix(1,0,0,-1,274.1,254.4)"
             style="font-variant:normal;font-weight:normal;font-size:18px;font-family:'Operator Mono';-inkscape-font-specification:OperatorMonoMedium;writing-mode:lr-tb;fill:#657b83;fill-opacity:1;fill-rule:nonzero;stroke:none"
             id="text306"><tspan
               x="0"
               y="0"
               id="tspan304">x</tspan></text>
</g><g
           id="g308"><text
             transform="matrix(1,0,0,-1,287.592,254.4)"
             style="font-style:italic;font-variant:normal;font-size:18px;font-family:'Skolar PE';-inkscape-font-specification:SkolarPE-Italic;writing-mode:lr-tb;fill:#657b83;fill-opacity:1;fill-rule:nonzero;stroke:none"
             id="text312"><tspan
               x="0 9.198 18.9 28.188"
               y="0"
               sodipodi:role="line"
               id="tspan310">and </tspan></text>
</g><g
           id="g314"><text
             transform="matrix(1,0,0,-1,319.2,254.4)"
             style="font-variant:normal;font-weight:normal;font-size:18px;font-family:'Operator Mono';-inkscape-font-specification:OperatorMonoMedium;writing-mode:lr-tb;fill:#657b83;fill-opacity:1;fill-rule:nonzero;stroke:none"
             id="text318"><tspan
               x="0"
               y="0"
               id="tspan316">y</tspan></text>
</g><g
           id="g320"><text
             transform="matrix(1,0,0,-1,332.692,254.4)"
             style="font-style:italic;font-variant:normal;font-size:18px;font-family:'Skolar PE';-inkscape-font-specification:SkolarPE-Italic;writing-mode:lr-tb;fill:#657b83;fill-opacity:1;fill-rule:nonzero;stroke:none"
             id="text324"><tspan
               x="0 6.6960001 14.094 22.5 32.273998 37.368 44.063999 51.551998"
               y="0"
               sodipodi:role="line"
               id="tspan322">requires</tspan></text>
</g><path
           d="m 516.4,218.5 h -59.1 v 19.9 h 118.1 v -19.9 z"
           style="fill:#fdf6e3;fill-opacity:1;fill-rule:evenodd;stroke:none"
           id="path326"
           inkscape:connector-curvature="0" /><g
           id="g328" /><g
           id="g330"><text
             transform="matrix(1,0,0,-1,518.5,222)"
             style="font-variant:normal;font-weight:normal;font-size:18px;font-family:'Operator Mono';-inkscape-font-specification:OperatorMonoMedium;writing-mode:lr-tb;fill:#657b83;fill-opacity:1;fill-rule:nonzero;stroke:none"
             id="text334"><tspan
               x="0 9.9899998 39.779999"
               y="0"
               sodipodi:role="line"
               id="tspan332">x y</tspan></text>
</g><g
           id="g336"><path
             d="m 457.4,218.5 v 19.9"
             style="fill:none;stroke:#073642;stroke-width:2.99979997;stroke-linecap:round;stroke-linejoin:round;stroke-miterlimit:10;stroke-dasharray:none;stroke-opacity:1"
             id="path338"
             inkscape:connector-curvature="0" /></g><g
           id="g340"><path
             d="m 575.4,238.4 h -118"
             style="fill:none;stroke:#073642;stroke-width:2.99979997;stroke-linecap:round;stroke-linejoin:round;stroke-miterlimit:10;stroke-dasharray:none;stroke-opacity:1"
             id="path342"
             inkscape:connector-curvature="0" /></g><g
           id="g344"><text
             transform="matrix(1,0,0,-1,439.2,223.2)"
             style="font-variant:normal;font-weight:normal;font-size:18px;font-family:'Operator Mono';-inkscape-font-specification:OperatorMonoBold;writing-mode:lr-tb;fill:#073642;fill-opacity:1;fill-rule:nonzero;stroke:#073642;stroke-width:0.59900999;stroke-linecap:butt;stroke-linejoin:miter;stroke-miterlimit:10;stroke-dasharray:none;stroke-opacity:1"
             id="text348"><tspan
               x="0"
               y="0"
               id="tspan346">z</tspan></text>
</g><g
           id="g350"><text
             transform="matrix(1,0,0,-1,439.2,254.4)"
             style="font-variant:normal;font-weight:normal;font-size:18px;font-family:'Operator Mono';-inkscape-font-specification:OperatorMonoBold;writing-mode:lr-tb;fill:#073642;fill-opacity:1;fill-rule:nonzero;stroke:#073642;stroke-width:0.59900999;stroke-linecap:butt;stroke-linejoin:miter;stroke-miterlimit:10;stroke-dasharray:none;stroke-opacity:1"
             id="text354"><tspan
               x="0"
               y="0"
               id="tspan352">z</tspan></text>
</g><g
           id="g356"><text
             transform="matrix(1,0,0,-1,452.592,254.4)"
             style="font-style:italic;font-variant:normal;font-size:18px;font-family:'Skolar PE';-inkscape-font-specification:SkolarPE-Italic;writing-mode:lr-tb;fill:#657b83;fill-opacity:1;fill-rule:nonzero;stroke:none"
             id="text360"><tspan
               x="0 7.0019999 15.3 25.002001 31.104 40.301998 45.486 55.188 61.776001"
               y="0"
               sodipodi:role="line"
               id="tspan358">contains </tspan></text>
</g><g
           id="g362"><text
             transform="matrix(1,0,0,-1,517.9,254.4)"
             style="font-variant:normal;font-weight:normal;font-size:18px;font-family:'Operator Mono';-inkscape-font-specification:OperatorMonoMedium;writing-mode:lr-tb;fill:#657b83;fill-opacity:1;fill-rule:nonzero;stroke:none"
             id="text366"><tspan
               x="0"
               y="0"
               id="tspan364">x</tspan></text>
</g><g
           id="g368"><text
             transform="matrix(1,0,0,-1,531.392,254.4)"
             style="font-style:italic;font-variant:normal;font-size:18px;font-family:'Skolar PE';-inkscape-font-specification:SkolarPE-Italic;writing-mode:lr-tb;fill:#657b83;fill-opacity:1;fill-rule:nonzero;stroke:none"
             id="text372"><tspan
               x="0 9.198 18.9 28.188"
               y="0"
               sodipodi:role="line"
               id="tspan370">and </tspan></text>
</g><g
           id="g374"><text
             transform="matrix(1,0,0,-1,563,254.4)"
             style="font-variant:normal;font-weight:normal;font-size:18px;font-family:'Operator Mono';-inkscape-font-specification:OperatorMonoMedium;writing-mode:lr-tb;fill:#657b83;fill-opacity:1;fill-rule:nonzero;stroke:none"
             id="text378"><tspan
               x="0"
               y="0"
               id="tspan376">y</tspan></text>
</g><g
           id="g380"><path
             d="M 116.2,274.9 H 583.9"
             style="fill:none;stroke:#eee8d5;stroke-width:2.99979997;stroke-linecap:butt;stroke-linejoin:round;stroke-miterlimit:10;stroke-dasharray:none;stroke-opacity:1"
             id="path382"
             inkscape:connector-curvature="0" /></g></g></g></g></svg>