<?xml version="1.0" encoding="UTF-8" standalone="no"?>
<!-- Created with Inkscape (http://www.inkscape.org/) -->

<svg
   xmlns:dc="http://purl.org/dc/elements/1.1/"
   xmlns:cc="http://creativecommons.org/ns#"
   xmlns:rdf="http://www.w3.org/1999/02/22-rdf-syntax-ns#"
   xmlns:svg="http://www.w3.org/2000/svg"
   xmlns="http://www.w3.org/2000/svg"
   xmlns:sodipodi="http://sodipodi.sourceforge.net/DTD/sodipodi-0.dtd"
   xmlns:inkscape="http://www.inkscape.org/namespaces/inkscape"
   version="1.1"
   id="svg2"
   xml:space="preserve"
   width="446.81638"
   height="267.99496"
   viewBox="0 0 446.81637 267.99496"
   sodipodi:docname="poplan.svg"
   inkscape:version="0.92.3 (2405546, 2018-03-11)"><metadata
     id="metadata8"><rdf:RDF><cc:Work
         rdf:about=""><dc:format>image/svg+xml</dc:format><dc:type
           rdf:resource="http://purl.org/dc/dcmitype/StillImage" /><dc:title /></cc:Work></rdf:RDF></metadata><defs
     id="defs6"><clipPath
       clipPathUnits="userSpaceOnUse"
       id="clipPath18"><path
         d="M 0,0 H 595.2 V 841.8 H 0 Z"
         id="path16"
         inkscape:connector-curvature="0"
         style="clip-rule:evenodd" /></clipPath></defs><sodipodi:namedview
     pagecolor="#ffffff"
     bordercolor="#666666"
     borderopacity="1"
     objecttolerance="10"
     gridtolerance="10"
     guidetolerance="10"
     inkscape:pageopacity="0"
     inkscape:pageshadow="2"
     inkscape:window-width="3840"
     inkscape:window-height="2034"
     id="namedview4"
     showgrid="false"
     fit-margin-top="16"
     fit-margin-bottom="16"
     fit-margin-left="16"
     fit-margin-right="16"
     inkscape:zoom="3.363974"
     inkscape:cx="50.566242"
     inkscape:cy="59.904154"
     inkscape:window-x="1920"
     inkscape:window-y="60"
     inkscape:window-maximized="1"
     inkscape:current-layer="g14" /><g
     id="g10"
     inkscape:groupmode="layer"
     inkscape:label="PO-plan"
     transform="matrix(1.3333333,0,0,-1.3333333,-34.145292,1045.8665)"><g
       id="g12"><g
         id="g14"
         clip-path="url(#clipPath18)"><g
           id="g282"><path
             d="m 300,759.9 18,-30.2"
             style="fill:none;stroke:#657b83;stroke-width:2.99979997;stroke-linecap:round;stroke-linejoin:round;stroke-miterlimit:10;stroke-dasharray:none;stroke-opacity:1"
             id="path284"
             inkscape:connector-curvature="0" /></g><g
           id="g288"><path
             d="m 300,720.5 h 12.8"
             style="fill:none;stroke:#657b83;stroke-width:2.99979997;stroke-linecap:round;stroke-linejoin:round;stroke-miterlimit:10;stroke-dasharray:none;stroke-opacity:1"
             id="path290"
             inkscape:connector-curvature="0" /></g><g
           id="g294"><path
             d="m 300,684.2 17.7,27.3"
             style="fill:none;stroke:#657b83;stroke-width:2.99979997;stroke-linecap:round;stroke-linejoin:round;stroke-miterlimit:10;stroke-dasharray:none;stroke-opacity:1"
             id="path296"
             inkscape:connector-curvature="0" /></g><g
           id="g306"><path
             d="m 157.5,622.1 h 36.1"
             style="fill:none;stroke:#657b83;stroke-width:2.99979997;stroke-linecap:round;stroke-linejoin:round;stroke-miterlimit:10;stroke-dasharray:none;stroke-opacity:1"
             id="path308"
             inkscape:connector-curvature="0" /></g><g
           id="g352"><path
             d="m 226.6,622.1 h 6"
             style="fill:none;stroke:#657b83;stroke-width:2.99979997;stroke-linecap:round;stroke-linejoin:round;stroke-miterlimit:10;stroke-dasharray:none;stroke-opacity:1"
             id="path354"
             inkscape:connector-curvature="0" /></g><g
           id="g182"><path
             d="m 70.6,720.5 18,30.2"
             style="fill:none;stroke:#657b83;stroke-width:2.99979997;stroke-linecap:round;stroke-linejoin:round;stroke-miterlimit:10;stroke-dasharray:none;stroke-opacity:1"
             id="path184"
             inkscape:connector-curvature="0" /></g><g
           id="g188"><path
             d="M 70.6,720.5 H 83.4"
             style="fill:none;stroke:#657b83;stroke-width:2.99979997;stroke-linecap:round;stroke-linejoin:round;stroke-miterlimit:10;stroke-dasharray:none;stroke-opacity:1"
             id="path190"
             inkscape:connector-curvature="0" /></g><g
           id="g194"><path
             d="m 116.4,759.9 h 12.9"
             style="fill:none;stroke:#657b83;stroke-width:2.99979997;stroke-linecap:round;stroke-linejoin:round;stroke-miterlimit:10;stroke-dasharray:none;stroke-opacity:1"
             id="path196"
             inkscape:connector-curvature="0" /></g><g
           id="g200"><path
             d="m 116.4,720.5 h 12.9"
             style="fill:none;stroke:#657b83;stroke-width:2.99979997;stroke-linecap:round;stroke-linejoin:round;stroke-miterlimit:10;stroke-dasharray:none;stroke-opacity:1"
             id="path202"
             inkscape:connector-curvature="0" /></g><g
           id="g206"><path
             d="m 116.4,720.5 17.7,-27.3"
             style="fill:none;stroke:#657b83;stroke-width:2.99979997;stroke-linecap:round;stroke-linejoin:round;stroke-miterlimit:10;stroke-dasharray:none;stroke-opacity:1"
             id="path208"
             inkscape:connector-curvature="0" /></g><g
           id="g212"><path
             d="m 116.4,759.9 3.9,-4.6"
             style="fill:none;stroke:#657b83;stroke-width:2.99979997;stroke-linecap:round;stroke-linejoin:round;stroke-miterlimit:10;stroke-dasharray:none;stroke-opacity:1"
             id="path214"
             inkscape:connector-curvature="0" /></g><g
           id="g226"><path
             d="m 162.3,759.9 14.9,-10.8"
             style="fill:none;stroke:#657b83;stroke-width:2.99979997;stroke-linecap:round;stroke-linejoin:round;stroke-miterlimit:10;stroke-dasharray:none;stroke-opacity:1"
             id="path228"
             inkscape:connector-curvature="0" /></g><g
           id="g232"><path
             d="m 162.3,720.5 15.8,15"
             style="fill:none;stroke:#657b83;stroke-width:2.99979997;stroke-linecap:round;stroke-linejoin:round;stroke-miterlimit:10;stroke-dasharray:none;stroke-opacity:1"
             id="path234"
             inkscape:connector-curvature="0" /></g><g
           id="g238"><path
             d="m 208.2,742.8 15.8,-15"
             style="fill:none;stroke:#657b83;stroke-width:2.99979997;stroke-linecap:round;stroke-linejoin:round;stroke-miterlimit:10;stroke-dasharray:none;stroke-opacity:1"
             id="path240"
             inkscape:connector-curvature="0" /></g><g
           id="g244"><path
             d="m 208.2,742.8 14.9,10.8"
             style="fill:none;stroke:#657b83;stroke-width:2.99979997;stroke-linecap:round;stroke-linejoin:round;stroke-miterlimit:10;stroke-dasharray:none;stroke-opacity:1"
             id="path246"
             inkscape:connector-curvature="0" /></g><g
           id="g250"><path
             d="m 254.1,720.5 3,5.1"
             style="fill:none;stroke:#657b83;stroke-width:2.99979997;stroke-linecap:round;stroke-linejoin:round;stroke-miterlimit:10;stroke-dasharray:none;stroke-opacity:1"
             id="path252"
             inkscape:connector-curvature="0" /></g><g
           id="g264"><path
             d="m 254.1,720.5 h 12.8"
             style="fill:none;stroke:#657b83;stroke-width:2.99979997;stroke-linecap:round;stroke-linejoin:round;stroke-miterlimit:10;stroke-dasharray:none;stroke-opacity:1"
             id="path266"
             inkscape:connector-curvature="0" /></g><g
           id="g270"><path
             d="m 254.1,720.5 17.7,-27.3"
             style="fill:none;stroke:#657b83;stroke-width:2.99979997;stroke-linecap:round;stroke-linejoin:round;stroke-miterlimit:10;stroke-dasharray:none;stroke-opacity:1"
             id="path272"
             inkscape:connector-curvature="0" /></g><g
           id="g276"><path
             d="m 254.1,759.9 h 12.8"
             style="fill:none;stroke:#657b83;stroke-width:2.99979997;stroke-linecap:round;stroke-linejoin:round;stroke-miterlimit:10;stroke-dasharray:none;stroke-opacity:1"
             id="path278"
             inkscape:connector-curvature="0" /></g><g
           id="g22"><path
             d="m 197,753.9 c 6.3,0 11.1,-4.8 11.1,-11.1 0,-6.2 -4.8,-11 -11.1,-11 -6.3,0 -11.2,4.8 -11.2,11 0,6.3 4.9,11.1 11.2,11.1 z"
             style="fill:none;stroke:#b58900;stroke-width:2.99979997;stroke-linecap:butt;stroke-linejoin:round;stroke-miterlimit:10;stroke-dasharray:none;stroke-opacity:1"
             id="path24"
             inkscape:connector-curvature="0" /></g><g
           id="g26"><path
             d="M 185.8,753.9 Z"
             style="fill:none;stroke:#b58900;stroke-width:2.99979997;stroke-linecap:butt;stroke-linejoin:round;stroke-miterlimit:10;stroke-dasharray:none;stroke-opacity:1"
             id="path28"
             inkscape:connector-curvature="0" /></g><g
           id="g30"><path
             d="M 208.2,731.7 Z"
             style="fill:none;stroke:#b58900;stroke-width:2.99979997;stroke-linecap:butt;stroke-linejoin:round;stroke-miterlimit:10;stroke-dasharray:none;stroke-opacity:1"
             id="path32"
             inkscape:connector-curvature="0" /></g><g
           id="g1286"><path
             inkscape:connector-curvature="0"
             id="path34"
             style="fill:#268bd2;fill-opacity:1;fill-rule:evenodd;stroke:none"
             d="m 59.3,731.6 c 6.4,0 11.2,-4.8 11.2,-11.1 0,-6.3 -4.8,-11.1 -11.2,-11.1 -6.3,0 -11.1,4.8 -11.1,11.1 0,6.3 4.8,11.1 11.1,11.1 z m -11.1,0 z m 22.4,-22.2 z" /><g
             id="g36"><text
   id="text40"
   style="font-style:italic;font-variant:normal;font-weight:normal;font-size:18px;font-family:'STIX Two Text';-inkscape-font-specification:STIXTwoTextItalic;writing-mode:lr-tb;fill:#fdf6e3;fill-opacity:1;fill-rule:nonzero;stroke:none"
   transform="matrix(1,0,0,-1,52,715.7)"><tspan
     id="tspan38"
     y="0"
     x="0">a</tspan></text>

</g><g
             id="g42"><text
   id="text46"
   style="font-variant:normal;font-weight:normal;font-size:10.39999962px;font-family:'STIX Two Math';-inkscape-font-specification:STIXTwoMath;writing-mode:lr-tb;fill:#fdf6e3;fill-opacity:1;fill-rule:nonzero;stroke:none"
   transform="matrix(1,0,0,-1,61.6,721.7)"><tspan
     id="tspan44"
     y="0"
     x="0">0</tspan></text>

</g></g><g
           id="g48"><path
             d="m 105.2,770.9 c 6.3,0 11.2,-4.8 11.2,-11 0,-6.3 -4.9,-11.1 -11.2,-11.1 -6.3,0 -11.1,4.8 -11.1,11.1 0,6.2 4.8,11 11.1,11 z"
             style="fill:none;stroke:#2aa198;stroke-width:2.99979997;stroke-linecap:butt;stroke-linejoin:round;stroke-miterlimit:10;stroke-dasharray:none;stroke-opacity:1"
             id="path50"
             inkscape:connector-curvature="0" /></g><g
           id="g52"><path
             d="M 94.1,770.9 Z"
             style="fill:none;stroke:#2aa198;stroke-width:2.99979997;stroke-linecap:butt;stroke-linejoin:round;stroke-miterlimit:10;stroke-dasharray:none;stroke-opacity:1"
             id="path54"
             inkscape:connector-curvature="0" /></g><g
           id="g56"><path
             d="M 116.4,748.7 Z"
             style="fill:none;stroke:#2aa198;stroke-width:2.99979997;stroke-linecap:butt;stroke-linejoin:round;stroke-miterlimit:10;stroke-dasharray:none;stroke-opacity:1"
             id="path58"
             inkscape:connector-curvature="0" /></g><g
           id="g60"><path
             d="m 105.2,731.6 c 6.3,0 11.2,-4.8 11.2,-11.1 0,-6.3 -4.9,-11.1 -11.2,-11.1 -6.3,0 -11.1,4.8 -11.1,11.1 0,6.3 4.8,11.1 11.1,11.1 z"
             style="fill:none;stroke:#2aa198;stroke-width:2.99979997;stroke-linecap:butt;stroke-linejoin:round;stroke-miterlimit:10;stroke-dasharray:none;stroke-opacity:1"
             id="path62"
             inkscape:connector-curvature="0" /></g><g
           id="g64"><path
             d="M 94.1,731.6 Z"
             style="fill:none;stroke:#2aa198;stroke-width:2.99979997;stroke-linecap:butt;stroke-linejoin:round;stroke-miterlimit:10;stroke-dasharray:none;stroke-opacity:1"
             id="path66"
             inkscape:connector-curvature="0" /></g><g
           id="g68"><path
             d="M 116.4,709.4 Z"
             style="fill:none;stroke:#2aa198;stroke-width:2.99979997;stroke-linecap:butt;stroke-linejoin:round;stroke-miterlimit:10;stroke-dasharray:none;stroke-opacity:1"
             id="path70"
             inkscape:connector-curvature="0" /></g><g
           id="g72"><path
             d="m 151.1,695.3 c 6.3,0 11.2,-4.8 11.2,-11.1 0,-6.2 -4.9,-11.1 -11.2,-11.1 -6.3,0 -11.2,4.9 -11.2,11.1 0,6.3 4.9,11.1 11.2,11.1 z"
             style="fill:none;stroke:#859900;stroke-width:2.99979997;stroke-linecap:butt;stroke-linejoin:round;stroke-miterlimit:10;stroke-dasharray:none;stroke-opacity:1"
             id="path74"
             inkscape:connector-curvature="0" /></g><g
           id="g76"><path
             d="M 139.9,695.3 Z"
             style="fill:none;stroke:#859900;stroke-width:2.99979997;stroke-linecap:butt;stroke-linejoin:round;stroke-miterlimit:10;stroke-dasharray:none;stroke-opacity:1"
             id="path78"
             inkscape:connector-curvature="0" /></g><g
           id="g80"><path
             d="M 162.3,673.1 Z"
             style="fill:none;stroke:#859900;stroke-width:2.99979997;stroke-linecap:butt;stroke-linejoin:round;stroke-miterlimit:10;stroke-dasharray:none;stroke-opacity:1"
             id="path82"
             inkscape:connector-curvature="0" /></g><g
           id="g84"><path
             d="m 151.1,770.9 c 6.3,0 11.2,-4.8 11.2,-11 0,-6.3 -4.9,-11.1 -11.2,-11.1 -6.3,0 -11.2,4.8 -11.2,11.1 0,6.2 4.9,11 11.2,11 z"
             style="fill:none;stroke:#859900;stroke-width:2.99979997;stroke-linecap:butt;stroke-linejoin:round;stroke-miterlimit:10;stroke-dasharray:none;stroke-opacity:1"
             id="path86"
             inkscape:connector-curvature="0" /></g><g
           id="g88"><path
             d="M 139.9,770.9 Z"
             style="fill:none;stroke:#859900;stroke-width:2.99979997;stroke-linecap:butt;stroke-linejoin:round;stroke-miterlimit:10;stroke-dasharray:none;stroke-opacity:1"
             id="path90"
             inkscape:connector-curvature="0" /></g><g
           id="g92"><path
             d="M 162.3,748.7 Z"
             style="fill:none;stroke:#859900;stroke-width:2.99979997;stroke-linecap:butt;stroke-linejoin:round;stroke-miterlimit:10;stroke-dasharray:none;stroke-opacity:1"
             id="path94"
             inkscape:connector-curvature="0" /></g><g
           id="g96"><path
             d="m 151.1,731.6 c 6.3,0 11.2,-4.8 11.2,-11.1 0,-6.3 -4.9,-11.1 -11.2,-11.1 -6.3,0 -11.2,4.8 -11.2,11.1 0,6.3 4.9,11.1 11.2,11.1 z"
             style="fill:none;stroke:#859900;stroke-width:2.99979997;stroke-linecap:butt;stroke-linejoin:round;stroke-miterlimit:10;stroke-dasharray:none;stroke-opacity:1"
             id="path98"
             inkscape:connector-curvature="0" /></g><g
           id="g100"><path
             d="M 139.9,731.6 Z"
             style="fill:none;stroke:#859900;stroke-width:2.99979997;stroke-linecap:butt;stroke-linejoin:round;stroke-miterlimit:10;stroke-dasharray:none;stroke-opacity:1"
             id="path102"
             inkscape:connector-curvature="0" /></g><g
           id="g104"><path
             d="M 162.3,709.4 Z"
             style="fill:none;stroke:#859900;stroke-width:2.99979997;stroke-linecap:butt;stroke-linejoin:round;stroke-miterlimit:10;stroke-dasharray:none;stroke-opacity:1"
             id="path106"
             inkscape:connector-curvature="0" /></g><g
           id="g108"><path
             d="m 242.9,770.9 c 6.3,0 11.1,-4.8 11.1,-11 0,-6.3 -4.8,-11.1 -11.1,-11.1 -6.3,0 -11.2,4.8 -11.2,11.1 0,6.2 4.9,11 11.2,11 z"
             style="fill:none;stroke:#cb4b16;stroke-width:2.99979997;stroke-linecap:butt;stroke-linejoin:round;stroke-miterlimit:10;stroke-dasharray:none;stroke-opacity:1"
             id="path110"
             inkscape:connector-curvature="0" /></g><g
           id="g112"><path
             d="M 231.7,770.9 Z"
             style="fill:none;stroke:#cb4b16;stroke-width:2.99979997;stroke-linecap:butt;stroke-linejoin:round;stroke-miterlimit:10;stroke-dasharray:none;stroke-opacity:1"
             id="path114"
             inkscape:connector-curvature="0" /></g><g
           id="g116"><path
             d="M 254.1,748.7 Z"
             style="fill:none;stroke:#cb4b16;stroke-width:2.99979997;stroke-linecap:butt;stroke-linejoin:round;stroke-miterlimit:10;stroke-dasharray:none;stroke-opacity:1"
             id="path118"
             inkscape:connector-curvature="0" /></g><g
           id="g120"><path
             d="m 242.9,731.6 c 6.3,0 11.1,-4.8 11.1,-11.1 0,-6.3 -4.8,-11.1 -11.1,-11.1 -6.3,0 -11.2,4.8 -11.2,11.1 0,6.3 4.9,11.1 11.2,11.1 z"
             style="fill:none;stroke:#cb4b16;stroke-width:2.99979997;stroke-linecap:butt;stroke-linejoin:round;stroke-miterlimit:10;stroke-dasharray:none;stroke-opacity:1"
             id="path122"
             inkscape:connector-curvature="0" /></g><g
           id="g124"><path
             d="M 231.7,731.6 Z"
             style="fill:none;stroke:#cb4b16;stroke-width:2.99979997;stroke-linecap:butt;stroke-linejoin:round;stroke-miterlimit:10;stroke-dasharray:none;stroke-opacity:1"
             id="path126"
             inkscape:connector-curvature="0" /></g><g
           id="g128"><path
             d="M 254.1,709.4 Z"
             style="fill:none;stroke:#cb4b16;stroke-width:2.99979997;stroke-linecap:butt;stroke-linejoin:round;stroke-miterlimit:10;stroke-dasharray:none;stroke-opacity:1"
             id="path130"
             inkscape:connector-curvature="0" /></g><g
           id="g132"><path
             d="m 288.7,695.3 c 6.4,0 11.2,-4.8 11.2,-11.1 0,-6.2 -4.8,-11.1 -11.2,-11.1 -6.3,0 -11.1,4.9 -11.1,11.1 0,6.3 4.8,11.1 11.1,11.1 z"
             style="fill:none;stroke:#dc322f;stroke-width:2.99979997;stroke-linecap:butt;stroke-linejoin:round;stroke-miterlimit:10;stroke-dasharray:none;stroke-opacity:1"
             id="path134"
             inkscape:connector-curvature="0" /></g><g
           id="g136"><path
             d="M 277.6,695.3 Z"
             style="fill:none;stroke:#dc322f;stroke-width:2.99979997;stroke-linecap:butt;stroke-linejoin:round;stroke-miterlimit:10;stroke-dasharray:none;stroke-opacity:1"
             id="path138"
             inkscape:connector-curvature="0" /></g><g
           id="g140"><path
             d="M 300,673.1 Z"
             style="fill:none;stroke:#dc322f;stroke-width:2.99979997;stroke-linecap:butt;stroke-linejoin:round;stroke-miterlimit:10;stroke-dasharray:none;stroke-opacity:1"
             id="path142"
             inkscape:connector-curvature="0" /></g><g
           id="g144"><path
             d="m 288.7,770.9 c 6.4,0 11.2,-4.8 11.2,-11 0,-6.3 -4.8,-11.1 -11.2,-11.1 -6.3,0 -11.1,4.8 -11.1,11.1 0,6.2 4.8,11 11.1,11 z"
             style="fill:none;stroke:#dc322f;stroke-width:2.99979997;stroke-linecap:butt;stroke-linejoin:round;stroke-miterlimit:10;stroke-dasharray:none;stroke-opacity:1"
             id="path146"
             inkscape:connector-curvature="0" /></g><g
           id="g148"><path
             d="M 277.6,770.9 Z"
             style="fill:none;stroke:#dc322f;stroke-width:2.99979997;stroke-linecap:butt;stroke-linejoin:round;stroke-miterlimit:10;stroke-dasharray:none;stroke-opacity:1"
             id="path150"
             inkscape:connector-curvature="0" /></g><g
           id="g152"><path
             d="M 300,748.7 Z"
             style="fill:none;stroke:#dc322f;stroke-width:2.99979997;stroke-linecap:butt;stroke-linejoin:round;stroke-miterlimit:10;stroke-dasharray:none;stroke-opacity:1"
             id="path154"
             inkscape:connector-curvature="0" /></g><g
           id="g156"><path
             d="m 288.7,731.6 c 6.4,0 11.2,-4.8 11.2,-11.1 0,-6.3 -4.8,-11.1 -11.2,-11.1 -6.3,0 -11.1,4.8 -11.1,11.1 0,6.3 4.8,11.1 11.1,11.1 z"
             style="fill:none;stroke:#dc322f;stroke-width:2.99979997;stroke-linecap:butt;stroke-linejoin:round;stroke-miterlimit:10;stroke-dasharray:none;stroke-opacity:1"
             id="path158"
             inkscape:connector-curvature="0" /></g><g
           id="g160"><path
             d="M 277.6,731.6 Z"
             style="fill:none;stroke:#dc322f;stroke-width:2.99979997;stroke-linecap:butt;stroke-linejoin:round;stroke-miterlimit:10;stroke-dasharray:none;stroke-opacity:1"
             id="path162"
             inkscape:connector-curvature="0" /></g><g
           id="g164"><path
             d="M 300,709.4 Z"
             style="fill:none;stroke:#dc322f;stroke-width:2.99979997;stroke-linecap:butt;stroke-linejoin:round;stroke-miterlimit:10;stroke-dasharray:none;stroke-opacity:1"
             id="path166"
             inkscape:connector-curvature="0" /></g><g
           id="g1295"><path
             inkscape:connector-curvature="0"
             id="path168"
             style="fill:#d33682;fill-opacity:1;fill-rule:evenodd;stroke:none"
             d="m 334.6,731.6 c 6.3,0 11.2,-4.8 11.2,-11.1 0,-6.3 -4.9,-11.1 -11.2,-11.1 -6.3,0 -11.2,4.8 -11.2,11.1 0,6.3 4.9,11.1 11.2,11.1 z m -11.2,0 z m 22.4,-22.2 z" /><g
             id="g170"><text
   id="text174"
   style="font-style:italic;font-variant:normal;font-weight:normal;font-size:18px;font-family:'STIX Two Text';-inkscape-font-specification:STIXTwoTextItalic;writing-mode:lr-tb;fill:#fdf6e3;fill-opacity:1;fill-rule:nonzero;stroke:none"
   transform="matrix(1,0,0,-1,327.7,715.7)"><tspan
     id="tspan172"
     y="0"
     x="0">a</tspan></text>

</g><g
             id="g176"><text
   id="text180"
   style="font-variant:normal;font-weight:normal;font-size:10.39999962px;font-family:'STIX Two Math';-inkscape-font-specification:STIXTwoMath;writing-mode:lr-tb;fill:#fdf6e3;fill-opacity:1;fill-rule:nonzero;stroke:none"
   transform="matrix(1,0,0,-1,337.3,721.7)"><tspan
     id="tspan178"
     y="0"
     x="0">*</tspan></text>

</g></g><path
           d="m 93,748.2 1.3,11 v 0.4 l -0.2,0.3 h -0.4 l -0.3,-0.1 -9.1,-6.4 -0.1,-0.1 v -0.1 L 84.1,753 v -0.2 l 0.1,-0.2 0.2,-0.2 7.8,-4.6 0.2,-0.1 h 0.2 l 0.2,0.1 0.1,0.2 0.1,0.1 z"
           style="fill:#657b83;fill-opacity:1;fill-rule:evenodd;stroke:none"
           id="path186"
           inkscape:connector-curvature="0" /><path
           d="m 83.5,715.5 10.2,4.5 0.3,0.2 0.1,0.3 -0.1,0.3 -0.3,0.2 -10.2,4.6 h -0.1 -0.1 -0.2 l -0.2,-0.2 -0.1,-0.2 -0.1,-0.2 v -9 l 0.1,-0.2 0.1,-0.3 h 0.2 l 0.2,-0.1 h 0.1 z"
           style="fill:#657b83;fill-opacity:1;fill-rule:evenodd;stroke:none"
           id="path192"
           inkscape:connector-curvature="0" /><path
           d="m 129.4,754.8 10.1,4.5 0.3,0.2 0.1,0.3 -0.1,0.4 -0.2,0.2 -10.2,4.5 h -0.1 -0.1 -0.2 l -0.2,-0.1 -0.2,-0.2 v -0.2 -9.1 -0.2 l 0.2,-0.2 0.2,-0.1 0.2,-0.1 h 0.1 z"
           style="fill:#657b83;fill-opacity:1;fill-rule:evenodd;stroke:none"
           id="path198"
           inkscape:connector-curvature="0" /><path
           d="m 129.4,715.5 10.1,4.5 0.3,0.2 0.1,0.3 -0.1,0.3 -0.2,0.2 -10.2,4.6 h -0.1 -0.1 -0.2 l -0.2,-0.2 -0.2,-0.2 v -0.2 -9 -0.2 l 0.2,-0.3 h 0.2 l 0.2,-0.1 h 0.1 z"
           style="fill:#657b83;fill-opacity:1;fill-rule:evenodd;stroke:none"
           id="path204"
           inkscape:connector-curvature="0" /><path
           d="m 130,690.3 9.3,-6 0.3,-0.1 h 0.3 l 0.2,0.3 0.1,0.3 -1.8,11 v 0.2 0 l -0.2,0.2 -0.2,0.1 h -0.2 l -0.2,-0.1 -7.6,-4.9 -0.2,-0.2 -0.1,-0.2 v -0.2 l 0.1,-0.2 0.1,-0.1 z"
           style="fill:#657b83;fill-opacity:1;fill-rule:evenodd;stroke:none"
           id="path210"
           inkscape:connector-curvature="0" /><g
           id="g216"><path
             d="m 124.1,750.8 3.9,-4.5"
             style="fill:none;stroke:#657b83;stroke-width:2.99979997;stroke-linecap:round;stroke-linejoin:round;stroke-miterlimit:10;stroke-dasharray:none;stroke-opacity:1"
             id="path218"
             inkscape:connector-curvature="0" /></g><g
           id="g220"><path
             d="m 131.8,741.8 3.8,-4.5"
             style="fill:none;stroke:#657b83;stroke-width:2.99979997;stroke-linecap:round;stroke-linejoin:round;stroke-miterlimit:10;stroke-dasharray:none;stroke-opacity:1"
             id="path222"
             inkscape:connector-curvature="0" /></g><path
           d="m 132.5,733.1 10,-4.8 0.4,-0.1 0.3,0.1 0.2,0.3 -0.1,0.4 -3.1,10.7 v 0.1 h -0.1 l -0.2,0.2 -0.2,0.1 h -0.2 l -0.2,-0.1 -6.9,-5.9 -0.1,-0.2 -0.1,-0.2 0.1,-0.2 v -0.2 l 0.1,-0.1 z"
           style="fill:#657b83;fill-opacity:1;fill-rule:evenodd;stroke:none"
           id="path224"
           inkscape:connector-curvature="0" /><path
           d="m 174.3,744.9 10.9,-2.3 h 0.4 l 0.2,0.2 0.1,0.4 -0.1,0.3 -5.5,9.6 -0.1,0.1 -0.1,0.1 -0.2,0.1 h -0.2 l -0.2,-0.1 -0.2,-0.1 -5.3,-7.4 -0.1,-0.2 v -0.2 l 0.1,-0.2 0.1,-0.2 h 0.1 z"
           style="fill:#657b83;fill-opacity:1;fill-rule:evenodd;stroke:none"
           id="path230"
           inkscape:connector-curvature="0" /><path
           d="m 181.7,731.9 4.2,10.3 0.1,0.3 -0.1,0.3 -0.4,0.2 h -0.3 l -10.5,-3.8 h -0.1 l -0.1,-0.1 -0.1,-0.2 v -0.2 -0.2 l 0.1,-0.2 6.2,-6.6 0.2,-0.1 h 0.2 0.3 l 0.1,0.1 0.1,0.1 z"
           style="fill:#657b83;fill-opacity:1;fill-rule:evenodd;stroke:none"
           id="path236"
           inkscape:connector-curvature="0" /><path
           d="m 220.6,724.1 10.5,-3.7 h 0.3 l 0.3,0.1 0.2,0.3 -0.1,0.4 -4.2,10.2 -0.1,0.2 h -0.1 l -0.1,0.1 -0.3,0.1 -0.2,-0.1 -0.2,-0.1 -6.2,-6.6 -0.1,-0.2 -0.1,-0.2 0.1,-0.2 0.1,-0.2 h 0.1 z"
           style="fill:#657b83;fill-opacity:1;fill-rule:evenodd;stroke:none"
           id="path242"
           inkscape:connector-curvature="0" /><path
           d="m 226.1,749.6 5.6,9.6 0.1,0.3 v 0.3 l -0.4,0.2 h -0.3 l -10.9,-2.2 -0.1,-0.1 H 220 l -0.1,-0.2 -0.1,-0.2 v -0.2 l 0.1,-0.2 5.3,-7.4 0.2,-0.1 0.2,-0.1 h 0.2 l 0.2,0.1 0.1,0.1 z"
           style="fill:#657b83;fill-opacity:1;fill-rule:evenodd;stroke:none"
           id="path248"
           inkscape:connector-curvature="0" /><g
           id="g254"><path
             d="m 260.2,730.7 3,5.1"
             style="fill:none;stroke:#657b83;stroke-width:2.99979997;stroke-linecap:round;stroke-linejoin:round;stroke-miterlimit:10;stroke-dasharray:none;stroke-opacity:1"
             id="path256"
             inkscape:connector-curvature="0" /></g><g
           id="g258"><path
             d="m 266.2,740.8 3.1,5.1"
             style="fill:none;stroke:#657b83;stroke-width:2.99979997;stroke-linecap:round;stroke-linejoin:round;stroke-miterlimit:10;stroke-dasharray:none;stroke-opacity:1"
             id="path260"
             inkscape:connector-curvature="0" /></g><path
           d="m 276.5,748.2 1.4,11 -0.1,0.4 -0.2,0.3 h -0.3 l -0.4,-0.1 -9,-6.4 -0.1,-0.1 -0.1,-0.1 -0.1,-0.2 v -0.2 l 0.1,-0.2 0.2,-0.2 7.8,-4.6 0.2,-0.1 h 0.2 l 0.2,0.1 0.1,0.2 0.1,0.1 z"
           style="fill:#657b83;fill-opacity:1;fill-rule:evenodd;stroke:none"
           id="path262"
           inkscape:connector-curvature="0" /><path
           d="m 267.1,715.5 10.1,4.5 0.3,0.2 0.1,0.3 -0.1,0.3 -0.3,0.2 -10.1,4.6 h -0.2 -0.1 -0.2 l -0.2,-0.2 -0.1,-0.2 v -0.2 -9 -0.2 l 0.1,-0.3 h 0.2 l 0.2,-0.1 h 0.1 z"
           style="fill:#657b83;fill-opacity:1;fill-rule:evenodd;stroke:none"
           id="path268"
           inkscape:connector-curvature="0" /><path
           d="m 267.6,690.3 9.3,-6 0.4,-0.1 h 0.3 l 0.2,0.3 v 0.3 l -1.7,11 V 696 H 276 l -0.1,0.2 -0.3,0.1 h -0.2 l -0.2,-0.1 -7.6,-4.9 -0.1,-0.2 -0.1,-0.2 v -0.2 l 0.1,-0.2 v -0.1 z"
           style="fill:#657b83;fill-opacity:1;fill-rule:evenodd;stroke:none"
           id="path274"
           inkscape:connector-curvature="0" /><path
           d="m 267.1,754.8 10.1,4.5 0.3,0.2 0.1,0.3 -0.1,0.4 -0.3,0.2 -10.1,4.5 h -0.2 -0.1 -0.2 l -0.2,-0.1 -0.1,-0.2 v -0.2 -9.1 -0.2 l 0.1,-0.2 0.2,-0.1 0.2,-0.1 h 0.1 z"
           style="fill:#657b83;fill-opacity:1;fill-rule:evenodd;stroke:none"
           id="path280"
           inkscape:connector-curvature="0" /><path
           d="m 313.7,727 9.1,-6.4 0.3,-0.2 0.3,0.1 0.3,0.3 v 0.3 l -1.3,11.1 v 0.1 l -0.1,0.1 -0.1,0.1 -0.2,0.1 h -0.3 -0.2 l -7.8,-4.7 -0.1,-0.1 -0.1,-0.2 v -0.3 l 0.1,-0.2 v 0 z"
           style="fill:#657b83;fill-opacity:1;fill-rule:evenodd;stroke:none"
           id="path286"
           inkscape:connector-curvature="0" /><path
           d="m 312.9,715.5 10.1,4.5 0.3,0.2 0.2,0.3 -0.2,0.3 -0.2,0.2 -10.2,4.6 h -0.1 -0.1 -0.2 l -0.2,-0.2 -0.1,-0.2 -0.1,-0.2 v -9 l 0.1,-0.2 0.1,-0.3 h 0.2 l 0.2,-0.1 h 0.1 z"
           style="fill:#657b83;fill-opacity:1;fill-rule:evenodd;stroke:none"
           id="path292"
           inkscape:connector-curvature="0" /><path
           d="m 322,708.9 1.7,11 v 0.3 l -0.2,0.3 -0.4,0.1 -0.3,-0.1 -9.3,-6.1 -0.1,-0.1 -0.1,-0.1 v -0.2 -0.2 -0.2 l 0.2,-0.2 7.6,-4.9 0.2,-0.1 h 0.2 l 0.2,0.1 0.2,0.2 v 0.1 z"
           style="fill:#657b83;fill-opacity:1;fill-rule:evenodd;stroke:none"
           id="path298"
           inkscape:connector-curvature="0" /><g
           id="g300"
           transform="translate(0.37499995,15.119198)"><text
   transform="matrix(1,0,0,-1,37,644.3)"
   style="font-variant:normal;font-weight:normal;font-size:24px;font-family:'STIX Two Math';-inkscape-font-specification:STIXTwoMath;writing-mode:lr-tb;fill:#93a1a1;fill-opacity:1;fill-rule:nonzero;stroke:#93a1a1;stroke-width:0.79806;stroke-linecap:butt;stroke-linejoin:miter;stroke-miterlimit:10;stroke-dasharray:none;stroke-opacity:1"
   id="text304"><tspan
     x="0 14.088 25.200001 36.984001 48.167999 61.872002"
     y="0"
     sodipodi:role="line"
     id="tspan302">Legend</tspan></text>

</g><path
           d="m 193.7,617.1 10.1,4.5 0.4,0.2 0.1,0.3 -0.1,0.3 -0.3,0.3 -10.2,4.5 h -0.1 -0.1 -0.2 l -0.2,-0.2 -0.1,-0.2 -0.1,-0.1 v -9.1 l 0.1,-0.2 0.1,-0.2 0.2,-0.1 0.2,-0.1 h 0.1 z"
           style="fill:#657b83;fill-opacity:1;fill-rule:evenodd;stroke:none"
           id="path310"
           inkscape:connector-curvature="0" /><g
           id="g1277"><path
             inkscape:connector-curvature="0"
             id="path312"
             style="fill:#268bd2;fill-opacity:1;fill-rule:evenodd;stroke:none"
             d="m 146.2,633.2 c 6.4,0 11.2,-4.8 11.2,-11.1 0,-6.2 -4.8,-11.1 -11.2,-11.1 -6.3,0 -11.1,4.9 -11.1,11.1 0,6.3 4.8,11.1 11.1,11.1 z m -11.1,0 z M 157.5,611 Z" /><g
             id="g314"><text
   id="text318"
   style="font-style:italic;font-variant:normal;font-weight:normal;font-size:18px;font-family:'STIX Two Text';-inkscape-font-specification:STIXTwoTextItalic;writing-mode:lr-tb;fill:#fdf6e3;fill-opacity:1;fill-rule:nonzero;stroke:none"
   transform="matrix(1,0,0,-1,138.9,617.3)"><tspan
     id="tspan316"
     y="0"
     x="0">a</tspan></text>

</g><g
             id="g320"><text
   id="text324"
   style="font-variant:normal;font-weight:normal;font-size:10.39999962px;font-family:'STIX Two Math';-inkscape-font-specification:STIXTwoMath;writing-mode:lr-tb;fill:#fdf6e3;fill-opacity:1;fill-rule:nonzero;stroke:none"
   transform="matrix(1,0,0,-1,148.5,623.3)"><tspan
     id="tspan322"
     y="0"
     x="0">0</tspan></text>

</g></g><g
           id="g326"
           transform="translate(-0.39)"><path
             d="m 215.4,633.2 c 6.3,0 11.2,-4.8 11.2,-11.1 0,-6.2 -4.9,-11.1 -11.2,-11.1 -6.3,0 -11.2,4.9 -11.2,11.1 0,6.3 4.9,11.1 11.2,11.1 z"
             style="fill:none;stroke:#859900;stroke-width:2.99979997;stroke-linecap:butt;stroke-linejoin:round;stroke-miterlimit:10;stroke-dasharray:none;stroke-opacity:1"
             id="path328"
             inkscape:connector-curvature="0" /></g><g
           id="g330"><path
             d="M 204.2,633.2 Z"
             style="fill:none;stroke:#859900;stroke-width:2.99979997;stroke-linecap:butt;stroke-linejoin:round;stroke-miterlimit:10;stroke-dasharray:none;stroke-opacity:1"
             id="path332"
             inkscape:connector-curvature="0" /></g><g
           id="g334"><path
             d="M 226.6,611 Z"
             style="fill:none;stroke:#859900;stroke-width:2.99979997;stroke-linecap:butt;stroke-linejoin:round;stroke-miterlimit:10;stroke-dasharray:none;stroke-opacity:1"
             id="path336"
             inkscape:connector-curvature="0" /></g><g
           id="g1268"><path
             inkscape:connector-curvature="0"
             id="path338"
             style="fill:#d33682;fill-opacity:1;fill-rule:evenodd;stroke:none"
             d="m 283.3,633.2 c 6.3,0 11.1,-4.8 11.1,-11.1 0,-6.2 -4.8,-11.1 -11.1,-11.1 -6.4,0 -11.2,4.9 -11.2,11.1 0,6.3 4.8,11.1 11.2,11.1 z m -11.2,0 z M 294.5,611 Z" /><g
             id="g340"><text
   id="text344"
   style="font-style:italic;font-variant:normal;font-weight:normal;font-size:18px;font-family:'STIX Two Text';-inkscape-font-specification:STIXTwoTextItalic;writing-mode:lr-tb;fill:#fdf6e3;fill-opacity:1;fill-rule:nonzero;stroke:none"
   transform="matrix(1,0,0,-1,276.3,617.3)"><tspan
     id="tspan342"
     y="0"
     x="0">a</tspan></text>

</g><g
             id="g346"><text
   id="text350"
   style="font-variant:normal;font-weight:normal;font-size:10.39999962px;font-family:'STIX Two Math';-inkscape-font-specification:STIXTwoMath;writing-mode:lr-tb;fill:#fdf6e3;fill-opacity:1;fill-rule:nonzero;stroke:none"
   transform="matrix(1,0,0,-1,285.9,623.3)"><tspan
     id="tspan348"
     y="0"
     x="0">*</tspan></text>

</g></g><g
           id="g356"><path
             d="m 238.5,622.1 h 5.9"
             style="fill:none;stroke:#657b83;stroke-width:2.99979997;stroke-linecap:round;stroke-linejoin:round;stroke-miterlimit:10;stroke-dasharray:none;stroke-opacity:1"
             id="path358"
             inkscape:connector-curvature="0" /></g><g
           id="g360"><path
             d="m 250.3,622.1 h 5.9"
             style="fill:none;stroke:#657b83;stroke-width:2.99979997;stroke-linecap:round;stroke-linejoin:round;stroke-miterlimit:10;stroke-dasharray:none;stroke-opacity:1"
             id="path362"
             inkscape:connector-curvature="0" /></g><path
           d="m 261.6,617.1 10.1,4.5 0.3,0.2 0.1,0.3 -0.1,0.3 -0.2,0.3 -10.2,4.5 h -0.2 v 0 h -0.2 l -0.2,-0.2 -0.2,-0.2 v -0.1 -9.1 -0.2 l 0.2,-0.2 0.2,-0.1 0.2,-0.1 v 0 z"
           style="fill:#657b83;fill-opacity:1;fill-rule:evenodd;stroke:none"
           id="path364"
           inkscape:connector-curvature="0" /><g
           id="g1235"
           transform="translate(-0.04300031)"><g
             id="g366"><text
   id="text370"
   style="font-variant:normal;font-weight:normal;font-size:15px;font-family:'STIX Two Math';-inkscape-font-specification:STIXTwoMath;writing-mode:lr-tb;fill:#839496;fill-opacity:1;fill-rule:nonzero;stroke:none"
   transform="matrix(1,0,0,-1,123.3,598.7)"><tspan
     id="tspan368"
     y="0"
     x="0">I</tspan></text>

</g><g
             id="g372"><text
   id="text376"
   style="font-variant:normal;font-weight:normal;font-size:12px;font-family:'STIX Two Math';-inkscape-font-specification:STIXTwoMath;writing-mode:lr-tb;fill:#839496;fill-opacity:1;fill-rule:nonzero;stroke:none"
   transform="matrix(1,0,0,-1,128.7,598.7)"><tspan
     id="tspan374"
     sodipodi:role="line"
     y="0"
     x="0 8.9040003 13.188 20.388 24.672001 33.360001">NITIAL</tspan></text>

</g></g><g
           id="g1243"
           transform="translate(-1.2849999)"><g
             id="g378"><text
   id="text382"
   style="font-variant:normal;font-weight:normal;font-size:15px;font-family:'STIX Two Math';-inkscape-font-specification:STIXTwoMath;writing-mode:lr-tb;fill:#839496;fill-opacity:1;fill-rule:nonzero;stroke:none"
   transform="matrix(1,0,0,-1,266.9,598.7)"><tspan
     id="tspan380"
     y="0"
     x="0">G</tspan></text>

</g><g
             id="g384"><text
   id="text388"
   style="font-variant:normal;font-weight:normal;font-size:12px;font-family:'STIX Two Math';-inkscape-font-specification:STIXTwoMath;writing-mode:lr-tb;fill:#839496;fill-opacity:1;fill-rule:nonzero;stroke:none"
   transform="matrix(1,0,0,-1,277.7,598.7)"><tspan
     id="tspan386"
     sodipodi:role="line"
     y="0"
     x="0 8.3999996 17.004">OAL</tspan></text>

</g></g><g
           id="g390"
           transform="translate(0.50842534,0.00366894)"><text
   transform="matrix(1,0,0,-1,202.7,598.7)"
   style="font-variant:normal;font-weight:normal;font-size:15px;font-family:'STIX Two Text';-inkscape-font-specification:STIXTwoText;writing-mode:lr-tb;fill:#839496;fill-opacity:1;fill-rule:nonzero;stroke:none"
   id="text394"><tspan
     x="0 7.5 12.195 19.184999"
     y="0"
     sodipodi:role="line"
     id="tspan392">Step</tspan></text>

</g><g
           id="g1259"><g
             id="g396"><text
   id="text400"
   style="font-style:italic;font-variant:normal;font-weight:normal;font-size:15px;font-family:'STIX Two Text';-inkscape-font-specification:STIXTwoTextItalic;writing-mode:lr-tb;fill:#839496;fill-opacity:1;fill-rule:nonzero;stroke:none"
   transform="matrix(1,0,0,-1,154.5,642.6)"><tspan
     id="tspan398"
     sodipodi:role="line"
     y="0"
     x="0 9.7950001 17.879999 26.264999 31.77 39.764999">Causal</tspan></text>

</g><g
             id="g402"><text
   id="text406"
   style="font-style:italic;font-variant:normal;font-weight:normal;font-size:15px;font-family:'STIX Two Text';-inkscape-font-specification:STIXTwoTextItalic;writing-mode:lr-tb;fill:#839496;fill-opacity:1;fill-rule:nonzero;stroke:none"
   transform="matrix(1,0,0,-1,164.3,627.6)"><tspan
     id="tspan404"
     sodipodi:role="line"
     y="0"
     x="0 4.0949998 8.2799997 16.77">link</tspan></text>

</g></g><g
           id="g1251"><g
             id="g408"><text
   id="text412"
   style="font-style:italic;font-variant:normal;font-weight:normal;font-size:15px;font-family:'STIX Two Text';-inkscape-font-specification:STIXTwoTextItalic;writing-mode:lr-tb;fill:#839496;fill-opacity:1;fill-rule:nonzero;stroke:none"
   transform="matrix(1,0,0,-1,228.2,642.7)"><tspan
     id="tspan410"
     sodipodi:role="line"
     y="0"
     x="0 10.605 16.200001 24.299999 30.584999">Order</tspan></text>

</g><g
             id="g414"><text
   id="text418"
   style="font-style:italic;font-variant:normal;font-weight:normal;font-size:15px;font-family:'STIX Two Text';-inkscape-font-specification:STIXTwoTextItalic;writing-mode:lr-tb;fill:#839496;fill-opacity:1;fill-rule:nonzero;stroke:none"
   transform="matrix(1,0,0,-1,234.3,627.7)"><tspan
     id="tspan416"
     sodipodi:role="line"
     y="0"
     x="0 4.0050001 8.1899996 16.77">link</tspan></text>

</g></g><g
           id="g420"
           transform="translate(-1.5)"><path
             d="M 110.6,660.4 H 348.7"
             style="fill:none;stroke:#93a1a1;stroke-width:2.99979997;stroke-linecap:round;stroke-linejoin:round;stroke-miterlimit:10;stroke-dasharray:none;stroke-opacity:1"
             id="path422"
             inkscape:connector-curvature="0" /></g></g></g></g></svg>