<svg height="512" viewBox="0 0 64 64" width="512" xmlns="http://www.w3.org/2000/svg"><g fill="#fff"><circle cx="28" cy="33" r="1"/><circle cx="25" cy="51" r="1"/><circle cx="30" cy="41" r="2"/></g><path d="m41.75 26c-.27 0-.52-.01-.75-.02a9.753 9.753 0 0 1 -4-1.27 7.82 7.82 0 0 0 -3.5-.71c-4.13 0-4.13 2-8.25 2-4 0-4.13-1.88-7.89-1.99l1.47 33.17a4 4 0 0 0 4 3.82h18.34a4 4 0 0 0 4-3.82l1.45-32.53a9.638 9.638 0 0 1 -4.87 1.35zm-16.75 26a1 1 0 1 1 1-1 1 1 0 0 1 -1 1zm2-19a1 1 0 1 1 1 1 1 1 0 0 1 -1-1zm3 10a2 2 0 1 1 2-2 2.006 2.006 0 0 1 -2 2z" fill="#57a4ff"/><path d="m47 16-.38 8.65a9.638 9.638 0 0 1 -4.87 1.35c-.27 0-.52-.01-.75-.02a9.753 9.753 0 0 1 -4-1.27 7.82 7.82 0 0 0 -3.5-.71c-4.13 0-4.13 2-8.25 2-4 0-4.13-1.88-7.89-1.99l-.36-8.01z" fill="#d1e7f8"/><path d="m41 16v-8a1 1 0 0 1 1-1h7v-4h-9a3 3 0 0 0 -3 3v49h4z" fill="#9bfbff"/></svg>