<?xml version="1.0" encoding="UTF-8" standalone="no"?>
<svg
   xmlns:dc="http://purl.org/dc/elements/1.1/"
   xmlns:cc="http://creativecommons.org/ns#"
   xmlns:rdf="http://www.w3.org/1999/02/22-rdf-syntax-ns#"
   xmlns:svg="http://www.w3.org/2000/svg"
   xmlns="http://www.w3.org/2000/svg"
   xmlns:sodipodi="http://sodipodi.sourceforge.net/DTD/sodipodi-0.dtd"
   xmlns:inkscape="http://www.inkscape.org/namespaces/inkscape"
   width="160mm"
   height="90mm"
   viewBox="0 0 16000 9000"
   version="1.1"
   stroke-width="28.222"
   stroke-linejoin="round"
   xml:space="preserve"
   id="svg2"
   inkscape:version="0.92.3 (2405546, 2018-03-11)"
   sodipodi:docname="level-spread.svg"><metadata
   id="metadata534"><rdf:RDF><cc:Work
       rdf:about=""><dc:format>image/svg+xml</dc:format><dc:type
         rdf:resource="http://purl.org/dc/dcmitype/StillImage" /></cc:Work></rdf:RDF></metadata><defs
   id="defs532">





</defs><sodipodi:namedview
   pagecolor="#ffffff"
   bordercolor="#666666"
   borderopacity="1"
   objecttolerance="10"
   gridtolerance="10"
   guidetolerance="10"
   inkscape:pageopacity="0"
   inkscape:pageshadow="2"
   inkscape:window-width="1920"
   inkscape:window-height="1047"
   id="namedview530"
   showgrid="false"
   inkscape:zoom="2.0554808"
   inkscape:cx="295.41607"
   inkscape:cy="177.7"
   inkscape:window-x="0"
   inkscape:window-y="1080"
   inkscape:window-maximized="1"
   inkscape:current-layer="svg2" /><path
   d="m 7999,8976.3786 -7999,0 L 0,0 l 15997,0 0,8976.3786 -7998,0 z"
   id="path4"
   inkscape:connector-curvature="0"
   style="fill:#fdf6e3;stroke:none" /><path
   fill="none"
   stroke="rgb(179,179,179)"
   stroke-linejoin="round"
   d="M 7996,8022 L 1667,8022 1667,373 14325,373 14325,8022 7996,8022 Z"
   id="path6" /><path
   fill="none"
   stroke="rgb(179,179,179)"
   stroke-linejoin="round"
   d="M 14325,8021 L 1667,8021"
   id="path8" /><path
   fill="none"
   stroke="rgb(179,179,179)"
   stroke-linejoin="round"
   d="M 14325,6746 L 1667,6746"
   id="path10" /><path
   fill="none"
   stroke="rgb(179,179,179)"
   stroke-linejoin="round"
   d="M 14325,5471 L 1667,5471"
   id="path12" /><path
   fill="none"
   stroke="rgb(179,179,179)"
   stroke-linejoin="round"
   d="M 14325,4196 L 1667,4196"
   id="path14" /><path
   fill="none"
   stroke="rgb(179,179,179)"
   stroke-linejoin="round"
   d="M 14325,2922 L 1667,2922"
   id="path16" /><path
   fill="none"
   stroke="rgb(179,179,179)"
   stroke-linejoin="round"
   d="M 14325,1646 L 1667,1646"
   id="path18" /><path
   fill="none"
   stroke="rgb(179,179,179)"
   stroke-linejoin="round"
   d="M 14325,371 L 1667,371"
   id="path20" /><path
   fill="none"
   stroke="rgb(238,232,213)"
   stroke-linejoin="round"
   d="M 14325,7637 L 1667,7637"
   id="path22" /><path
   fill="none"
   stroke="rgb(238,232,213)"
   stroke-linejoin="round"
   d="M 14325,7412 L 1667,7412"
   id="path24" /><path
   fill="none"
   stroke="rgb(238,232,213)"
   stroke-linejoin="round"
   d="M 14325,7253 L 1667,7253"
   id="path26" /><path
   fill="none"
   stroke="rgb(238,232,213)"
   stroke-linejoin="round"
   d="M 14325,7130 L 1667,7130"
   id="path28" /><path
   fill="none"
   stroke="rgb(238,232,213)"
   stroke-linejoin="round"
   d="M 14325,7029 L 1667,7029"
   id="path30" /><path
   fill="none"
   stroke="rgb(238,232,213)"
   stroke-linejoin="round"
   d="M 14325,6943 L 1667,6943"
   id="path32" /><path
   fill="none"
   stroke="rgb(238,232,213)"
   stroke-linejoin="round"
   d="M 14325,6869 L 1667,6869"
   id="path34" /><path
   fill="none"
   stroke="rgb(238,232,213)"
   stroke-linejoin="round"
   d="M 14325,6804 L 1667,6804"
   id="path36" /><path
   fill="none"
   stroke="rgb(238,232,213)"
   stroke-linejoin="round"
   d="M 14325,6362 L 1667,6362"
   id="path38" /><path
   fill="none"
   stroke="rgb(238,232,213)"
   stroke-linejoin="round"
   d="M 14325,6138 L 1667,6138"
   id="path40" /><path
   fill="none"
   stroke="rgb(238,232,213)"
   stroke-linejoin="round"
   d="M 14325,5978 L 1667,5978"
   id="path42" /><path
   fill="none"
   stroke="rgb(238,232,213)"
   stroke-linejoin="round"
   d="M 14325,5854 L 1667,5854"
   id="path44" /><path
   fill="none"
   stroke="rgb(238,232,213)"
   stroke-linejoin="round"
   d="M 14325,5754 L 1667,5754"
   id="path46" /><path
   fill="none"
   stroke="rgb(238,232,213)"
   stroke-linejoin="round"
   d="M 14325,5669 L 1667,5669"
   id="path48" /><path
   fill="none"
   stroke="rgb(238,232,213)"
   stroke-linejoin="round"
   d="M 14325,5595 L 1667,5595"
   id="path50" /><path
   fill="none"
   stroke="rgb(238,232,213)"
   stroke-linejoin="round"
   d="M 14325,5530 L 1667,5530"
   id="path52" /><path
   fill="none"
   stroke="rgb(238,232,213)"
   stroke-linejoin="round"
   d="M 14325,5087 L 1667,5087"
   id="path54" /><path
   fill="none"
   stroke="rgb(238,232,213)"
   stroke-linejoin="round"
   d="M 14325,4862 L 1667,4862"
   id="path56" /><path
   fill="none"
   stroke="rgb(238,232,213)"
   stroke-linejoin="round"
   d="M 14325,4703 L 1667,4703"
   id="path58" /><path
   fill="none"
   stroke="rgb(238,232,213)"
   stroke-linejoin="round"
   d="M 14325,4580 L 1667,4580"
   id="path60" /><path
   fill="none"
   stroke="rgb(238,232,213)"
   stroke-linejoin="round"
   d="M 14325,4479 L 1667,4479"
   id="path62" /><path
   fill="none"
   stroke="rgb(238,232,213)"
   stroke-linejoin="round"
   d="M 14325,4393 L 1667,4393"
   id="path64" /><path
   fill="none"
   stroke="rgb(238,232,213)"
   stroke-linejoin="round"
   d="M 14325,4319 L 1667,4319"
   id="path66" /><path
   fill="none"
   stroke="rgb(238,232,213)"
   stroke-linejoin="round"
   d="M 14325,4254 L 1667,4254"
   id="path68" /><path
   fill="none"
   stroke="rgb(238,232,213)"
   stroke-linejoin="round"
   d="M 14325,3812 L 1667,3812"
   id="path70" /><path
   fill="none"
   stroke="rgb(238,232,213)"
   stroke-linejoin="round"
   d="M 14325,3588 L 1667,3588"
   id="path72" /><path
   fill="none"
   stroke="rgb(238,232,213)"
   stroke-linejoin="round"
   d="M 14325,3428 L 1667,3428"
   id="path74" /><path
   fill="none"
   stroke="rgb(238,232,213)"
   stroke-linejoin="round"
   d="M 14325,3305 L 1667,3305"
   id="path76" /><path
   fill="none"
   stroke="rgb(238,232,213)"
   stroke-linejoin="round"
   d="M 14325,3204 L 1667,3204"
   id="path78" /><path
   fill="none"
   stroke="rgb(238,232,213)"
   stroke-linejoin="round"
   d="M 14325,3119 L 1667,3119"
   id="path80" /><path
   fill="none"
   stroke="rgb(238,232,213)"
   stroke-linejoin="round"
   d="M 14325,3045 L 1667,3045"
   id="path82" /><path
   fill="none"
   stroke="rgb(238,232,213)"
   stroke-linejoin="round"
   d="M 14325,2980 L 1667,2980"
   id="path84" /><path
   fill="none"
   stroke="rgb(238,232,213)"
   stroke-linejoin="round"
   d="M 14325,2538 L 1667,2538"
   id="path86" /><path
   fill="none"
   stroke="rgb(238,232,213)"
   stroke-linejoin="round"
   d="M 14325,2313 L 1667,2313"
   id="path88" /><path
   fill="none"
   stroke="rgb(238,232,213)"
   stroke-linejoin="round"
   d="M 14325,2154 L 1667,2154"
   id="path90" /><path
   fill="none"
   stroke="rgb(238,232,213)"
   stroke-linejoin="round"
   d="M 14325,2030 L 1667,2030"
   id="path92" /><path
   fill="none"
   stroke="rgb(238,232,213)"
   stroke-linejoin="round"
   d="M 14325,1930 L 1667,1930"
   id="path94" /><path
   fill="none"
   stroke="rgb(238,232,213)"
   stroke-linejoin="round"
   d="M 14325,1844 L 1667,1844"
   id="path96" /><path
   fill="none"
   stroke="rgb(238,232,213)"
   stroke-linejoin="round"
   d="M 14325,1770 L 1667,1770"
   id="path98" /><path
   fill="none"
   stroke="rgb(238,232,213)"
   stroke-linejoin="round"
   d="M 14325,1705 L 1667,1705"
   id="path100" /><path
   fill="none"
   stroke="rgb(238,232,213)"
   stroke-linejoin="round"
   d="M 14325,1262 L 1667,1262"
   id="path102" /><path
   fill="none"
   stroke="rgb(238,232,213)"
   stroke-linejoin="round"
   d="M 14325,1038 L 1667,1038"
   id="path104" /><path
   fill="none"
   stroke="rgb(238,232,213)"
   stroke-linejoin="round"
   d="M 14325,878 L 1667,878"
   id="path106" /><path
   fill="none"
   stroke="rgb(238,232,213)"
   stroke-linejoin="round"
   d="M 14325,755 L 1667,755"
   id="path108" /><path
   fill="none"
   stroke="rgb(238,232,213)"
   stroke-linejoin="round"
   d="M 14325,654 L 1667,654"
   id="path110" /><path
   fill="none"
   stroke="rgb(238,232,213)"
   stroke-linejoin="round"
   d="M 14325,570 L 1667,570"
   id="path112" /><path
   fill="none"
   stroke="rgb(238,232,213)"
   stroke-linejoin="round"
   d="M 14325,496 L 1667,496"
   id="path114" /><path
   fill="none"
   stroke="rgb(238,232,213)"
   stroke-linejoin="round"
   d="M 14325,430 L 1667,430"
   id="path116" /><path
   fill="none"
   stroke="rgb(7,54,66)"
   stroke-linejoin="round"
   d="M 14325,8169 L 14325,8021"
   id="path118" /><path
   fill="none"
   stroke="rgb(7,54,66)"
   stroke-linejoin="round"
   d="M 14325,8169 L 14325,8021"
   id="path120" /><path
   fill="none"
   stroke="rgb(7,54,66)"
   stroke-linejoin="round"
   d="M 12215,8169 L 12215,8021"
   id="path122" /><path
   fill="none"
   stroke="rgb(7,54,66)"
   stroke-linejoin="round"
   d="M 12215,8169 L 12215,8021"
   id="path124" /><path
   fill="none"
   stroke="rgb(7,54,66)"
   stroke-linejoin="round"
   d="M 10105,8169 L 10105,8021"
   id="path126" /><path
   fill="none"
   stroke="rgb(7,54,66)"
   stroke-linejoin="round"
   d="M 10105,8169 L 10105,8021"
   id="path128" /><path
   fill="none"
   stroke="rgb(7,54,66)"
   stroke-linejoin="round"
   d="M 7996,8169 L 7996,8021"
   id="path130" /><path
   fill="none"
   stroke="rgb(7,54,66)"
   stroke-linejoin="round"
   d="M 7996,8169 L 7996,8021"
   id="path132" /><path
   fill="none"
   stroke="rgb(7,54,66)"
   stroke-linejoin="round"
   d="M 5886,8169 L 5886,8021"
   id="path134" /><path
   fill="none"
   stroke="rgb(7,54,66)"
   stroke-linejoin="round"
   d="M 5886,8169 L 5886,8021"
   id="path136" /><path
   fill="none"
   stroke="rgb(7,54,66)"
   stroke-linejoin="round"
   d="M 3776,8169 L 3776,8021"
   id="path138" /><path
   fill="none"
   stroke="rgb(7,54,66)"
   stroke-linejoin="round"
   d="M 3776,8169 L 3776,8021"
   id="path140" /><path
   fill="none"
   stroke="rgb(7,54,66)"
   stroke-linejoin="round"
   d="M 1667,8169 L 1667,8021"
   id="path142" /><path
   fill="none"
   stroke="rgb(7,54,66)"
   stroke-linejoin="round"
   d="M 1667,8169 L 1667,8021"
   id="path144" /><path
   fill="none"
   stroke="rgb(7,54,66)"
   stroke-linejoin="round"
   d="M 1667,8021 L 14325,8021"
   id="path146" /><path
   fill="none"
   stroke="rgb(147,161,161)"
   stroke-linejoin="round"
   d="M 14475,8021 L 14325,8021"
   id="path148" /><path
   fill="none"
   stroke="rgb(147,161,161)"
   stroke-linejoin="round"
   d="M 14475,8021 L 14325,8021"
   id="path150" /><path
   fill="none"
   stroke="rgb(147,161,161)"
   stroke-linejoin="round"
   d="M 14475,6746 L 14325,6746"
   id="path152" /><path
   fill="none"
   stroke="rgb(147,161,161)"
   stroke-linejoin="round"
   d="M 14475,6746 L 14325,6746"
   id="path154" /><path
   fill="none"
   stroke="rgb(147,161,161)"
   stroke-linejoin="round"
   d="M 14475,5471 L 14325,5471"
   id="path156" /><path
   fill="none"
   stroke="rgb(147,161,161)"
   stroke-linejoin="round"
   d="M 14475,5471 L 14325,5471"
   id="path158" /><path
   fill="none"
   stroke="rgb(147,161,161)"
   stroke-linejoin="round"
   d="M 14475,4196 L 14325,4196"
   id="path160" /><path
   fill="none"
   stroke="rgb(147,161,161)"
   stroke-linejoin="round"
   d="M 14475,4196 L 14325,4196"
   id="path162" /><path
   fill="none"
   stroke="rgb(147,161,161)"
   stroke-linejoin="round"
   d="M 14475,2922 L 14325,2922"
   id="path164" /><path
   fill="none"
   stroke="rgb(147,161,161)"
   stroke-linejoin="round"
   d="M 14475,2922 L 14325,2922"
   id="path166" /><path
   fill="none"
   stroke="rgb(147,161,161)"
   stroke-linejoin="round"
   d="M 14475,1646 L 14325,1646"
   id="path168" /><path
   fill="none"
   stroke="rgb(147,161,161)"
   stroke-linejoin="round"
   d="M 14475,1646 L 14325,1646"
   id="path170" /><path
   fill="none"
   stroke="rgb(147,161,161)"
   stroke-linejoin="round"
   d="M 14475,372 L 14325,372"
   id="path172" /><path
   fill="none"
   stroke="rgb(147,161,161)"
   stroke-linejoin="round"
   d="M 14475,372 L 14325,372"
   id="path174" /><path
   fill="none"
   stroke="rgb(147,161,161)"
   stroke-linejoin="round"
   d="M 14325,8021 L 14325,371"
   id="path176" /><path
   fill="rgb(220,50,47)"
   stroke="none"
   d="M 3513,8021 L 2985,8021 2985,4544 3513,4544 3513,8021 Z"
   id="path178" /><path
   fill="rgb(220,50,47)"
   stroke="none"
   d="M 5622,8021 L 5095,8021 5095,4538 5622,4538 5622,8021 Z"
   id="path180" /><path
   fill="rgb(220,50,47)"
   stroke="none"
   d="M 7732,8021 L 7205,8021 7205,4442 7732,4442 7732,8021 Z"
   id="path182" /><path
   fill="rgb(220,50,47)"
   stroke="none"
   d="M 9841,8021 L 9314,8021 9314,3429 9841,3429 9841,8021 Z"
   id="path184" /><path
   fill="rgb(220,50,47)"
   stroke="none"
   d="M 11951,8021 L 11423,8021 11423,665 11951,665 11951,8021 Z"
   id="path186" /><path
   fill="rgb(220,50,47)"
   stroke="none"
   d="M 14061,8021 L 13533,8021 13533,666 14061,666 14061,8021 Z"
   id="path188" /><path
   fill="none"
   stroke="rgb(220,50,47)"
   stroke-width="53"
   stroke-linejoin="round"
   d="M 13091,371 L 13012,462 12884,601 12755,734 12626,860 12498,980 12369,1096 12240,1205 12112,1312 11983,1413 11854,1511 11726,1606 11597,1697 11469,1785 11340,1869 11211,1952 11083,2032 10954,2110 10825,2185 10697,2259 10568,2330 10439,2401 10311,2468 10182,2534 10053,2598 9925,2661 9796,2722 9667,2783 9539,2841 9410,2899 9281,2954 9153,3010 9024,3064 8896,3116 8767,3168 8638,3219 8510,3268 8381,3318 8252,3366 8124,3412 7996,3459 7867,3504 7739,3549 7610,3593 7481,3636 7353,3679 7224,3721 7095,3762 6967,3802 6838,3843 6710,3882 6581,3921 6452,3959 6324,3997 6195,4034 6066,4071 5938,4106 5809,4142 5680,4177 5552,4212 5423,4246 5294,4280 5166,4313 5037,4346 4908,4379 4780,4411 4651,4443 4522,4474 4394,4505 4265,4536 4137,4566 4008,4597 3879,4626 3751,4655 3622,4685 3493,4713 3365,4741 3236,4769 3107,4797 2979,4825 2850,4851 2721,4879"
   id="path214"
   style="stroke-width:115.0902166;stroke-miterlimit:4;stroke-dasharray:none" /><path
   fill="none"
   stroke="rgb(133,153,0)"
   stroke-width="53"
   stroke-linejoin="round"
   d="M 13270,2347 L 13141,2466 13012,2577 12884,2683 12755,2784 12626,2879 12498,2970 12369,3058 12240,3142 12112,3222 11983,3299 11854,3374 11726,3445 11597,3514 11469,3581 11340,3646 11211,3708 11083,3770 10954,3828 10825,3886 10697,3941 10568,3996 10439,4048 10311,4099 10182,4150 10053,4199 9925,4246 9796,4293 9667,4338 9539,4384 9410,4427 9281,4469 9153,4511 9024,4552 8896,4592 8767,4631 8638,4670 8510,4707 8381,4745 8252,4781 8124,4817 7996,4852 7867,4887 7739,4921 7610,4954 7481,4987 7353,5019 7224,5051 7095,5082 6967,5113 6838,5144 6710,5173 6581,5203 6452,5231 6324,5260 6195,5289 6066,5316 5938,5344 5809,5371 5680,5397 5552,5424 5423,5450 5294,5475 5166,5501 5037,5526 4908,5550 4780,5575 4651,5600 4522,5623 4394,5647 4265,5670 4137,5693 4008,5716 3879,5738 3751,5761 3622,5782 3493,5804 3365,5826 3236,5847 3107,5868 2979,5889 2850,5910 2721,5930"
   id="path216" /><path
   fill="none"
   stroke="rgb(38,139,210)"
   stroke-width="53"
   stroke-linejoin="round"
   d="M 13270,4761 L 13141,4838 13012,4911 12884,4980 12755,5046 12626,5108 12498,5168 12369,5226 12240,5280 12112,5333 11983,5383 11854,5432 11726,5479 11597,5525 11469,5568 11340,5610 11211,5651 11083,5691 10954,5730 10825,5767 10697,5804 10568,5839 10439,5874 10311,5908 10182,5940 10053,5973 9925,6003 9796,6034 9667,6064 9539,6093 9410,6122 9281,6149 9153,6177 9024,6204 8896,6229 8767,6255 8638,6281 8510,6305 8381,6330 8252,6354 8124,6377 7996,6400 7867,6423 7739,6445 7610,6466 7481,6488 7353,6510 7224,6530 7095,6550 6967,6571 6838,6591 6710,6610 6581,6629 6452,6649 6324,6668 6195,6685 6066,6704 5938,6722 5809,6740 5680,6757 5552,6774 5423,6791 5294,6808 5166,6825 5037,6841 4908,6857 4780,6873 4651,6889 4522,6905 4394,6920 4265,6935 4137,6950 4008,6965 3879,6980 3751,6994 3622,7009 3493,7023 3365,7037 3236,7052 3107,7065 2979,7078 2850,7092 2721,7106"
   id="path218"
   style="stroke-width:53.00133131;stroke-miterlimit:4;stroke-dasharray:106.00266262,106.00266262;stroke-dashoffset:0" /><path
   fill="none"
   stroke="rgb(0,43,54)"
   stroke-linejoin="round"
   d="M 13797,690 L 13797,666 13797,643"
   id="path220" /><path
   fill="none"
   stroke="rgb(0,43,54)"
   stroke-linejoin="round"
   d="M 13897,690 L 13697,690"
   id="path222" /><path
   fill="none"
   stroke="rgb(0,43,54)"
   stroke-linejoin="round"
   d="M 13697,643 L 13897,643"
   id="path224" /><path
   fill="none"
   stroke="rgb(0,43,54)"
   stroke-linejoin="round"
   d="M 11687,670 L 11687,665 11687,659"
   id="path226" /><path
   fill="none"
   stroke="rgb(0,43,54)"
   stroke-linejoin="round"
   d="M 11787,670 L 11587,670"
   id="path228" /><path
   fill="none"
   stroke="rgb(0,43,54)"
   stroke-linejoin="round"
   d="M 11587,659 L 11787,659"
   id="path230" /><path
   fill="none"
   stroke="rgb(0,43,54)"
   stroke-linejoin="round"
   d="M 9577,3442 L 9577,3429 9577,3417"
   id="path232" /><path
   fill="none"
   stroke="rgb(0,43,54)"
   stroke-linejoin="round"
   d="M 9677,3442 L 9477,3442"
   id="path234" /><path
   fill="none"
   stroke="rgb(0,43,54)"
   stroke-linejoin="round"
   d="M 9477,3417 L 9677,3417"
   id="path236" /><path
   fill="none"
   stroke="rgb(0,43,54)"
   stroke-linejoin="round"
   d="M 7469,4464 L 7469,4442 7469,4421"
   id="path238" /><path
   fill="none"
   stroke="rgb(0,43,54)"
   stroke-linejoin="round"
   d="M 7569,4464 L 7369,4464"
   id="path240" /><path
   fill="none"
   stroke="rgb(0,43,54)"
   stroke-linejoin="round"
   d="M 7369,4421 L 7569,4421"
   id="path242" /><path
   d="M 5359,4558 L 5359,4538 5359,4518"
   id="path244"
   stroke-linejoin="round"
   stroke="rgb(0,43,54)"
   fill="none" /><path
   d="M 5459,4558 L 5259,4558"
   id="path246"
   stroke-linejoin="round"
   stroke="rgb(0,43,54)"
   fill="none" /><path
   d="M 5259,4518 L 5459,4518"
   id="path248"
   stroke-linejoin="round"
   stroke="rgb(0,43,54)"
   fill="none" /><path
   d="M 3249,4566 L 3249,4544 3249,4525"
   id="path250"
   stroke-linejoin="round"
   stroke="rgb(0,43,54)"
   fill="none" /><path
   d="M 3349,4566 L 3149,4566"
   id="path252"
   stroke-linejoin="round"
   stroke="rgb(0,43,54)"
   fill="none" /><path
   d="M 3149,4525 L 3349,4525"
   id="path254"
   stroke-linejoin="round"
   stroke="rgb(0,43,54)"
   fill="none" /><g
   id="g3697"
   transform="translate(-56.444438,0)"><g
     id="g3691"><path
       d="m 13533,8021 -527,0 0,-5244 527,0 0,5244 z"
       id="path200"
       inkscape:connector-curvature="0"
       style="fill:none;stroke:#859900;stroke-width:50;stroke-linejoin:round" /><path
       d="m 13270,2785 0,-8 0,-9"
       id="path256"
       inkscape:connector-curvature="0"
       style="fill:none;stroke:#073642;stroke-linejoin:round" /><path
       d="m 13370,2785 -200,0"
       id="path258"
       inkscape:connector-curvature="0"
       style="fill:none;stroke:#073642;stroke-linejoin:round" /><path
       d="m 13170,2768 200,0"
       id="path260"
       inkscape:connector-curvature="0"
       style="fill:none;stroke:#073642;stroke-linejoin:round" /></g><g
     id="g3685"><path
       d="m 11423,8021 -527,0 0,-5244 527,0 0,5244 z"
       id="path198"
       inkscape:connector-curvature="0"
       style="fill:none;stroke:#859900;stroke-width:50;stroke-linejoin:round" /><path
       d="m 11160,2785 0,-8 0,-9"
       id="path262"
       inkscape:connector-curvature="0"
       style="fill:none;stroke:#073642;stroke-linejoin:round" /><path
       d="m 11260,2785 -200,0"
       id="path264"
       inkscape:connector-curvature="0"
       style="fill:none;stroke:#073642;stroke-linejoin:round" /><path
       d="m 11060,2768 200,0"
       id="path266"
       inkscape:connector-curvature="0"
       style="fill:none;stroke:#073642;stroke-linejoin:round" /></g><g
     id="g3679"><path
       d="m 9314,8021 -528,0 0,-3351 528,0 0,3351 z"
       id="path196"
       inkscape:connector-curvature="0"
       style="fill:none;stroke:#859900;stroke-width:50;stroke-linejoin:round" /><path
       d="m 9050,4694 0,-24 0,-23"
       id="path268"
       inkscape:connector-curvature="0"
       style="fill:none;stroke:#073642;stroke-linejoin:round" /><path
       d="m 9150,4694 -200,0"
       id="path270"
       inkscape:connector-curvature="0"
       style="fill:none;stroke:#073642;stroke-linejoin:round" /><path
       d="m 8950,4647 200,0"
       id="path272"
       inkscape:connector-curvature="0"
       style="fill:none;stroke:#073642;stroke-linejoin:round" /></g><g
     id="g3673"><path
       d="m 7205,8021 -528,0 0,-2498 528,0 0,2498 z"
       id="path194"
       inkscape:connector-curvature="0"
       style="fill:none;stroke:#859900;stroke-width:50;stroke-linejoin:round" /><path
       d="m 6941,5567 0,-44 0,-42"
       id="path274"
       inkscape:connector-curvature="0"
       style="fill:none;stroke:#073642;stroke-linejoin:round" /><path
       d="m 7041,5567 -200,0"
       id="path276"
       inkscape:connector-curvature="0"
       style="fill:none;stroke:#073642;stroke-linejoin:round" /><path
       d="m 6841,5481 200,0"
       id="path278"
       inkscape:connector-curvature="0"
       style="fill:none;stroke:#073642;stroke-linejoin:round" /></g><g
     id="g3667"><path
       d="m 5095,8021 -527,0 0,-2292 527,0 0,2292 z"
       id="path192"
       inkscape:connector-curvature="0"
       style="fill:none;stroke:#859900;stroke-width:50;stroke-linejoin:round" /><path
       d="m 4831,5777 0,-48 0,-44"
       id="path280"
       inkscape:connector-curvature="0"
       style="fill:none;stroke:#073642;stroke-linejoin:round" /><path
       d="m 4931,5777 -200,0"
       id="path282"
       inkscape:connector-curvature="0"
       style="fill:none;stroke:#073642;stroke-linejoin:round" /><path
       d="m 4731,5685 200,0"
       id="path284"
       inkscape:connector-curvature="0"
       style="fill:none;stroke:#073642;stroke-linejoin:round" /></g><g
     id="g3661"><path
       d="m 2985,8021 -527,0 0,-2258 527,0 0,2258 z"
       id="path190"
       inkscape:connector-curvature="0"
       style="fill:none;stroke:#859900;stroke-width:50;stroke-linejoin:round" /><path
       d="m 2721,5813 0,-50 0,-45"
       id="path286"
       inkscape:connector-curvature="0"
       style="fill:none;stroke:#073642;stroke-linejoin:round" /><path
       d="m 2821,5813 -200,0"
       id="path288"
       inkscape:connector-curvature="0"
       style="fill:none;stroke:#073642;stroke-linejoin:round" /><path
       d="m 2621,5718 200,0"
       id="path290"
       inkscape:connector-curvature="0"
       style="fill:none;stroke:#073642;stroke-linejoin:round" /></g></g><g
   id="g3754"
   transform="translate(-112.88888,0)"><g
     transform="translate(-56.444438,0)"
     id="g3628"><path
       d="m 13006,8021 -528,0 0,-2898 528,0 0,2898 z"
       id="path212"
       inkscape:connector-curvature="0"
       style="fill:none;stroke:#268bd2;stroke-width:50;stroke-linejoin:round;stroke-dasharray:99, 99" /><path
       d="m 12742,5191 0,-68 0,-60"
       id="path292"
       inkscape:connector-curvature="0"
       style="fill:none;stroke:#586e75;stroke-linejoin:round" /><path
       d="m 12842,5191 -200,0"
       id="path294"
       inkscape:connector-curvature="0"
       style="fill:none;stroke:#586e75;stroke-linejoin:round" /><path
       d="m 12642,5063 200,0"
       id="path296"
       inkscape:connector-curvature="0"
       style="fill:none;stroke:#586e75;stroke-linejoin:round" /></g><g
     transform="translate(-56.444438,0)"
     id="g3622"><path
       d="m 10896,8021 -527,0 0,-2896 527,0 0,2896 z"
       id="path210"
       inkscape:connector-curvature="0"
       style="fill:none;stroke:#268bd2;stroke-width:50;stroke-linejoin:round;stroke-dasharray:99, 99" /><path
       d="m 10632,5193 0,-68 0,-60"
       id="path298"
       inkscape:connector-curvature="0"
       style="fill:none;stroke:#586e75;stroke-linejoin:round" /><path
       d="m 10732,5193 -200,0"
       id="path300"
       inkscape:connector-curvature="0"
       style="fill:none;stroke:#586e75;stroke-linejoin:round" /><path
       d="m 10532,5065 200,0"
       id="path302"
       inkscape:connector-curvature="0"
       style="fill:none;stroke:#586e75;stroke-linejoin:round" /></g><g
     transform="translate(-56.444438,0)"
     id="g3616"><path
       d="m 8786,8021 -527,0 0,-1977 527,0 0,1977 z"
       id="path208"
       inkscape:connector-curvature="0"
       style="fill:none;stroke:#268bd2;stroke-width:50;stroke-linejoin:round;stroke-dasharray:99, 99" /><path
       d="m 8522,6238 0,-194 0,-143"
       id="path304"
       inkscape:connector-curvature="0"
       style="fill:none;stroke:#586e75;stroke-linejoin:round" /><path
       d="m 8622,6238 -200,0"
       id="path306"
       inkscape:connector-curvature="0"
       style="fill:none;stroke:#586e75;stroke-linejoin:round" /><path
       d="m 8422,5901 200,0"
       id="path308"
       inkscape:connector-curvature="0"
       style="fill:none;stroke:#586e75;stroke-linejoin:round" /></g><g
     transform="translate(-56.444438,0)"
     id="g3610"><path
       d="m 6677,8021 -527,0 0,-1380 527,0 0,1380 z"
       id="path206"
       inkscape:connector-curvature="0"
       style="fill:none;stroke:#268bd2;stroke-width:50;stroke-linejoin:round;stroke-dasharray:99, 99" /><path
       d="m 6414,6982 0,-341 0,-210"
       id="path310"
       inkscape:connector-curvature="0"
       style="fill:none;stroke:#586e75;stroke-linejoin:round" /><path
       d="m 6514,6982 -200,0"
       id="path312"
       inkscape:connector-curvature="0"
       style="fill:none;stroke:#586e75;stroke-linejoin:round" /><path
       d="m 6314,6431 200,0"
       id="path314"
       inkscape:connector-curvature="0"
       style="fill:none;stroke:#586e75;stroke-linejoin:round" /></g><g
     transform="translate(-56.444438,0)"
     id="g3604"><path
       d="m 4568,8021 -528,0 0,-1011 528,0 0,1011 z"
       id="path204"
       inkscape:connector-curvature="0"
       style="fill:none;stroke:#268bd2;stroke-width:50;stroke-linejoin:round;stroke-dasharray:99, 99" /><path
       d="m 4304,7663 0,-653 0,-292"
       id="path316"
       inkscape:connector-curvature="0"
       style="fill:none;stroke:#586e75;stroke-linejoin:round" /><path
       d="m 4404,7663 -200,0"
       id="path318"
       inkscape:connector-curvature="0"
       style="fill:none;stroke:#586e75;stroke-linejoin:round" /><path
       d="m 4204,6718 200,0"
       id="path320"
       inkscape:connector-curvature="0"
       style="fill:none;stroke:#586e75;stroke-linejoin:round" /></g><g
     id="g3599"
     transform="translate(-56.444442,0)"><path
       d="m 2458,8021 -528,0 0,-791 528,0 0,791 z"
       id="path202"
       inkscape:connector-curvature="0"
       style="fill:none;stroke:#268bd2;stroke-width:50;stroke-linejoin:round;stroke-dasharray:99, 99" /><path
       d="m 2194,8021 0,-791 0,-352"
       id="path322"
       inkscape:connector-curvature="0"
       style="fill:none;stroke:#586e75;stroke-linejoin:round" /><path
       d="m 2094,6878 200,0"
       id="path324"
       inkscape:connector-curvature="0"
       style="fill:none;stroke:#586e75;stroke-linejoin:round" /></g></g><text
   class="TextShape"
   id="text326"
   style="font-size:846.66662598px;line-height:0%;fill:#073642"><tspan
     class="TextParagraph"
     font-size="488px"
     font-weight="400"
     id="tspan328"
     style="font-weight:400;font-size:846.66662598px;font-family:'Aller Display';fill:#073642"><tspan
       class="TextPosition"
       x="13125"
       y="8737"
       id="tspan330"
       style="font-size:846.66662598px;fill:#073642"><tspan
         id="tspan332"
         style="font-size:846.66662598px;fill:#073642;stroke:none">0</tspan></tspan></tspan></text>

<text
   class="TextShape"
   id="text334"
   style="font-size:846.66662598px;line-height:0%;fill:#586e75"><tspan
     class="TextParagraph"
     font-size="488px"
     font-weight="400"
     id="tspan336"
     style="font-weight:400;font-size:846.66662598px;font-family:'Aller Display';fill:#586e75"><tspan
       class="TextPosition"
       x="11028"
       y="8737"
       id="tspan338"
       style="font-size:846.66662598px;fill:#586e75"><tspan
         id="tspan340"
         style="font-size:846.66662598px;fill:#586e75;stroke:none">1</tspan></tspan></tspan></text>

<text
   class="TextShape"
   id="text342"
   style="font-size:846.66662598px;line-height:0%;fill:#657b83"><tspan
     class="TextParagraph"
     font-size="488px"
     font-weight="400"
     id="tspan344"
     style="font-weight:400;font-size:846.66662598px;font-family:'Aller Display';fill:#657b83"><tspan
       class="TextPosition"
       x="8918"
       y="8737"
       id="tspan346"
       style="font-size:846.66662598px;fill:#657b83"><tspan
         id="tspan348"
         style="font-size:846.66662598px;fill:#657b83;stroke:none">2</tspan></tspan></tspan></text>

<text
   class="TextShape"
   id="text350"
   style="font-size:846.66662598px;line-height:0%;fill:#657b83"><tspan
     class="TextParagraph"
     font-size="488px"
     font-weight="400"
     id="tspan352"
     style="font-weight:400;font-size:846.66662598px;font-family:'Aller Display';fill:#657b83"><tspan
       class="TextPosition"
       x="6808"
       y="8737"
       id="tspan354"
       style="font-size:846.66662598px;fill:#657b83"><tspan
         id="tspan356"
         style="font-size:846.66662598px;fill:#657b83;stroke:none">3</tspan></tspan></tspan></text>

<text
   class="TextShape"
   id="text358"
   style="font-size:846.66662598px;line-height:0%;fill:#839496"><tspan
     class="TextParagraph"
     font-size="488px"
     font-weight="400"
     id="tspan360"
     style="font-weight:400;font-size:846.66662598px;font-family:'Aller Display';fill:#839496"><tspan
       class="TextPosition"
       x="4672"
       y="8737"
       id="tspan362"
       style="font-size:846.66662598px;fill:#839496"><tspan
         id="tspan364"
         style="font-size:846.66662598px;fill:#839496;stroke:none">4</tspan></tspan></tspan></text>

<text
   class="TextShape"
   id="text366"
   style="font-size:846.66662598px;line-height:0%;fill:#93a1a1"><tspan
     class="TextParagraph"
     font-size="488px"
     font-weight="400"
     id="tspan368"
     style="font-weight:400;font-size:846.66662598px;font-family:'Aller Display';fill:#93a1a1"><tspan
       class="TextPosition"
       x="2588"
       y="8737"
       id="tspan370"
       style="font-size:846.66662598px;fill:#93a1a1"><tspan
         id="tspan372"
         style="font-size:846.66662598px;fill:#93a1a1;stroke:none">5</tspan></tspan></tspan></text>

<text
   class="TextShape"
   id="text374"
   style="font-size:564.44439697px;line-height:0%;fill:#93a1a1"><tspan
     class="TextParagraph"
     font-size="348px"
     font-weight="400"
     id="tspan376"
     style="font-weight:400;font-size:564.44439697px;font-family:'Aller Display';fill:#93a1a1"><tspan
       class="TextPosition"
       x="14575"
       y="8140"
       id="tspan378"
       style="font-size:564.44439697px;fill:#93a1a1"><tspan
         id="tspan380"
         style="font-size:564.44439697px;fill:#93a1a1;stroke:none">10⁻⁴</tspan></tspan></tspan></text>

<text
   class="TextShape"
   id="text382"
   style="font-size:564.44439697px;line-height:0%;fill:#839496"><tspan
     class="TextParagraph"
     font-size="348px"
     font-weight="400"
     id="tspan384"
     style="font-weight:400;font-size:564.44439697px;font-family:'Aller Display';fill:#839496"><tspan
       class="TextPosition"
       x="14575"
       y="6865"
       id="tspan386"
       style="font-size:564.44439697px;fill:#839496"><tspan
         id="tspan388"
         style="font-size:564.44439697px;fill:#839496;stroke:none">10⁻³</tspan></tspan></tspan></text>

<text
   class="TextShape"
   id="text390"
   style="font-size:564.44439697px;line-height:0%;fill:#657b83"><tspan
     class="TextParagraph"
     font-size="348px"
     font-weight="400"
     id="tspan392"
     style="font-weight:400;font-size:564.44439697px;font-family:'Aller Display';fill:#657b83"><tspan
       class="TextPosition"
       x="14575"
       y="5590"
       id="tspan394"
       style="font-size:564.44439697px;fill:#657b83"><tspan
         id="tspan396"
         style="font-size:564.44439697px;fill:#657b83;stroke:none">10⁻²</tspan></tspan></tspan></text>

<text
   class="TextShape"
   id="text398"
   style="font-size:564.44439697px;line-height:0%;fill:#586e75"><tspan
     class="TextParagraph"
     font-size="348px"
     font-weight="400"
     id="tspan400"
     style="font-weight:400;font-size:564.44439697px;font-family:'Aller Display';fill:#586e75"><tspan
       class="TextPosition"
       x="14575"
       y="4315"
       id="tspan402"
       style="font-size:564.44439697px;fill:#586e75"><tspan
         id="tspan404"
         style="font-size:564.44439697px;fill:#586e75;stroke:none">0,1</tspan></tspan></tspan></text>

<text
   class="TextShape"
   id="text406"
   style="font-size:564.44439697px;line-height:0%;fill:#586e75"><tspan
     class="TextParagraph"
     font-size="348px"
     font-weight="400"
     id="tspan408"
     style="font-weight:400;font-size:564.44439697px;font-family:'Aller Display';fill:#586e75"><tspan
       class="TextPosition"
       x="14575"
       y="3041"
       id="tspan410"
       style="font-size:564.44439697px;fill:#586e75"><tspan
         id="tspan412"
         style="font-size:564.44439697px;fill:#586e75;stroke:none">1</tspan></tspan></tspan></text>

<text
   class="TextShape"
   id="text414"
   style="font-size:564.44439697px;line-height:0%;fill:#073642"><tspan
     class="TextParagraph"
     font-size="348px"
     font-weight="400"
     id="tspan416"
     style="font-weight:400;font-size:564.44439697px;font-family:'Aller Display';fill:#073642"><tspan
       class="TextPosition"
       x="14575"
       y="1765"
       id="tspan418"
       style="font-size:564.44439697px;fill:#073642"><tspan
         id="tspan420"
         style="font-size:564.44439697px;fill:#073642;stroke:none">10</tspan></tspan></tspan></text>

<text
   class="TextShape"
   id="text422"
   style="font-size:564.44439697px;line-height:0%"><tspan
     class="TextParagraph"
     font-size="348px"
     font-weight="400"
     id="tspan424"
     style="font-weight:400;font-size:564.44439697px;font-family:'Aller Display'"><tspan
       class="TextPosition"
       x="14575"
       y="491"
       id="tspan426"
       style="font-size:564.44439697px"><tspan
         id="tspan428"
         style="font-size:564.44439697px;fill:#073642;stroke:none">100</tspan></tspan></tspan></text>

<text
   class="TextShape"
   id="text430"
   x="2403.6069"
   y="-889.58789"
   style="font-style:normal;font-variant:normal;font-weight:bold;font-stretch:normal;line-height:0%;font-family:'STIX Two Math';-inkscape-font-specification:'STIX Two Math Bold'"><tspan
     class="TextParagraph"
     font-size="348px"
     font-weight="400"
     id="tspan432"
     style="font-style:normal;font-variant:normal;font-weight:bold;font-stretch:normal;font-size:564.44439697px;font-family:'STIX Two Math';-inkscape-font-specification:'STIX Two Math Bold';fill:#dc322f"><tspan
       class="TextPosition"
       x="5100.6016"
       y="911.41211"
       id="tspan434"
       style="font-style:normal;font-variant:normal;font-weight:bold;font-stretch:normal;font-size:564.44439697px;font-family:'STIX Two Math';-inkscape-font-specification:'STIX Two Math Bold';fill:#dc322f;stroke:none"><tspan
         style="font-style:normal;font-variant:normal;font-weight:bold;font-stretch:normal;font-size:493.88885498px;font-family:'STIX Two Math';-inkscape-font-specification:'STIX Two Math Bold';baseline-shift:baseline"
         id="tspan4745" /></tspan></tspan></text>
<g
   id="g4676"
   transform="translate(-282.2222,-498.42431)"><path
   id="path454"
   d="M 710,1635 H 310 v -502 h 800 v 502 z"
   inkscape:connector-curvature="0"
   style="fill:#dc322f;stroke:none" /><text
   style="line-height:0%;fill:#dc322f"
   id="text466"
   class="TextShape"><tspan
     style="font-weight:400;font-size:836px;font-family:'Aller Display';fill:#dc322f"
     id="tspan468"
     font-weight="400"
     font-size="836px"
     class="TextParagraph"><tspan
       style="fill:#dc322f"
       id="tspan470"
       y="1671"
       x="1296"
       class="TextPosition"><tspan
         style="fill:#dc322f;stroke:none"
         id="tspan472">4</tspan></tspan></tspan></text>

</g><text
   style="font-style:normal;font-variant:normal;font-weight:bold;font-stretch:normal;line-height:0%;font-family:'STIX Two Math';-inkscape-font-specification:'STIX Two Math Bold'"
   y="-720.25452"
   x="-757.28149"
   id="text3641"
   class="TextShape"><tspan
     style="font-style:normal;font-variant:normal;font-weight:bold;font-stretch:normal;font-size:564.44439697px;font-family:'STIX Two Math';-inkscape-font-specification:'STIX Two Math Bold';fill:#dc322f"
     id="tspan3643"
     font-weight="400"
     font-size="348px"
     class="TextParagraph"><tspan
       style="font-style:normal;font-variant:normal;font-weight:bold;font-stretch:normal;font-size:564.44439697px;font-family:'STIX Two Math';-inkscape-font-specification:'STIX Two Math Bold';fill:#dc322f;stroke:none"
       id="tspan3645"
       y="1080.7455"
       x="1939.7185"
       class="TextPosition"><tspan
   style="font-style:italic;font-variant:normal;font-weight:normal;font-stretch:normal;font-family:'STIX Two Text';-inkscape-font-specification:'STIX Two Text Italic'"
   id="tspan1186">f</tspan>(<tspan
   style="font-style:italic;font-variant:normal;font-weight:normal;font-stretch:normal;font-family:'STIX Two Text';-inkscape-font-specification:'STIX Two Text Italic'"
   id="tspan1155">x</tspan>) = 146,8 <tspan
   id="tspan3651"
   style="font-style:italic;font-variant:normal;font-weight:normal;font-stretch:normal;font-size:564.44439697px;font-family:'STIX Two Text';-inkscape-font-specification:'STIX Two Text Italic';fill:#dc322f">x<tspan
   style="-inkscape-font-specification:'STIX Two Math';font-family:'STIX Two Math';font-weight:normal;font-style:normal;font-stretch:normal;font-variant:normal;font-size:65%;baseline-shift:super"
   id="tspan1202">-4,757</tspan></tspan></tspan></tspan></text>
<text
   class="TextShape"
   id="text438"
   x="2361.6069"
   y="-759.88641"
   style="font-style:normal;font-variant:normal;font-weight:bold;font-stretch:normal;line-height:0%;font-family:'STIX Two Math';-inkscape-font-specification:'STIX Two Math Bold'"><tspan
     class="TextParagraph"
     font-size="348px"
     font-weight="400"
     id="tspan440"
     style="font-style:normal;font-variant:normal;font-weight:bold;font-stretch:normal;font-size:564.44439697px;font-family:'STIX Two Math';-inkscape-font-specification:'STIX Two Math Bold';fill:#859900"><tspan
       class="TextPosition"
       x="5100.6016"
       y="2207.114"
       id="tspan442"
       style="font-style:normal;font-variant:normal;font-weight:bold;font-stretch:normal;font-size:564.44439697px;font-family:'STIX Two Math';-inkscape-font-specification:'STIX Two Math Bold';fill:#859900;stroke:none"><tspan
         style="font-style:normal;font-variant:normal;font-weight:bold;font-stretch:normal;font-size:493.88885498px;font-family:'STIX Two Math';-inkscape-font-specification:'STIX Two Math Bold'"
         id="tspan4747" /></tspan></tspan></text>
<g
   id="g4669"
   transform="translate(-268.1112,-1078.1916)"><path
   id="path458"
   d="M 710,3516 H 310 v -502 h 800 v 502 z"
   inkscape:connector-curvature="0"
   style="fill:none;stroke:#859900;stroke-linejoin:round" /><text
   style="line-height:0%;fill:#859900"
   id="text482"
   class="TextShape"><tspan
     style="font-weight:400;font-size:836px;font-family:'Aller Display';fill:#859900"
     id="tspan484"
     font-weight="400"
     font-size="836px"
     class="TextParagraph"><tspan
       style="fill:#859900"
       id="tspan486"
       y="3552"
       x="1296"
       class="TextPosition"><tspan
         style="fill:#859900;stroke:none"
         id="tspan488">3</tspan></tspan></tspan></text>

</g><text
   style="font-style:normal;font-variant:normal;font-weight:bold;font-stretch:normal;line-height:0%;font-family:'STIX Two Math';-inkscape-font-specification:'STIX Two Math Bold'"
   y="-590.55304"
   x="-799.28156"
   id="text3627"
   class="TextShape"><tspan
     style="font-style:normal;font-variant:normal;font-weight:bold;font-stretch:normal;font-size:564.44439697px;font-family:'STIX Two Math';-inkscape-font-specification:'STIX Two Math Bold';fill:#859900"
     id="tspan3629"
     font-weight="400"
     font-size="348px"
     class="TextParagraph"><tspan
       style="font-style:normal;font-variant:normal;font-weight:bold;font-stretch:normal;font-size:564.44439697px;font-family:'STIX Two Math';-inkscape-font-specification:'STIX Two Math Bold';fill:#859900;stroke:none"
       id="tspan3631"
       y="2376.447"
       x="1939.7185"
       class="TextPosition"><tspan
   style="font-style:italic;font-variant:normal;font-weight:normal;font-stretch:normal;font-family:'STIX Two Text';-inkscape-font-specification:'STIX Two Text Italic'"
   id="tspan1190">f</tspan>(<tspan
   style="font-style:italic;font-variant:normal;font-weight:normal;font-stretch:normal;font-family:'STIX Two Text';-inkscape-font-specification:'STIX Two Text Italic'"
   id="tspan1182">x</tspan>) = 2,821 <tspan
   id="tspan3637"
   style="font-style:italic;font-variant:normal;font-weight:normal;font-stretch:normal;font-size:564.44439697px;font-family:'STIX Two Text';-inkscape-font-specification:'STIX Two Text Italic';fill:#859900">x<tspan
   style="font-size:65%;baseline-shift:super;-inkscape-font-specification:'STIX Two Math';font-family:'STIX Two Math';font-weight:normal;font-style:normal;font-stretch:normal;font-variant:normal"
   id="tspan1200">-3,612</tspan></tspan></tspan></tspan></text>
<text
   class="TextShape"
   id="text446"
   x="2508.6067"
   y="-540.07318"
   style="font-style:normal;font-variant:normal;font-weight:bold;font-stretch:normal;line-height:0%;font-family:'STIX Two Math';-inkscape-font-specification:'STIX Two Math Bold'"><tspan
     class="TextParagraph"
     font-size="348px"
     font-weight="400"
     id="tspan448"
     style="font-style:normal;font-variant:normal;font-weight:bold;font-stretch:normal;font-size:564.44439697px;font-family:'STIX Two Math';-inkscape-font-specification:'STIX Two Math Bold';fill:#268bd2"><tspan
       class="TextPosition"
       x="5100.6016"
       y="3483.9272"
       id="tspan450"
       style="font-style:normal;font-variant:normal;font-weight:bold;font-stretch:normal;font-size:564.44439697px;font-family:'STIX Two Math';-inkscape-font-specification:'STIX Two Math Bold';fill:#268bd2;stroke:none"><tspan
         style="font-style:normal;font-variant:normal;font-weight:bold;font-stretch:normal;font-size:493.88885498px;font-family:'STIX Two Math';-inkscape-font-specification:'STIX Two Math Bold'"
         id="tspan4749" /></tspan></tspan></text>
<g
   id="g4662"
   transform="translate(-268.1112,-1655.1298)"><path
   id="path462"
   d="M 710,5397 H 310 v -501 h 800 v 501 z"
   inkscape:connector-curvature="0"
   style="fill:none;stroke:#268bd2;stroke-linejoin:round;stroke-dasharray:53, 53" /><text
   id="text498"
   class="TextShape"
   style="line-height:0%;fill:#268bd2"><tspan
     id="tspan500"
     font-weight="400"
     font-size="836px"
     class="TextParagraph"
     style="font-weight:400;font-size:836px;font-family:'Aller Display';fill:#268bd2"><tspan
       id="tspan502"
       y="5434"
       x="1296"
       class="TextPosition"
       style="fill:#268bd2"><tspan
         id="tspan504"
         style="fill:#268bd2;stroke:none">2</tspan></tspan></tspan></text>

</g><text
   style="font-style:normal;font-variant:normal;font-weight:bold;font-stretch:normal;line-height:0%;font-family:'STIX Two Math';-inkscape-font-specification:'STIX Two Math Bold'"
   y="-370.73987"
   x="-652.28143"
   id="text3613"
   class="TextShape"><tspan
     style="font-style:normal;font-variant:normal;font-weight:bold;font-stretch:normal;font-size:564.44439697px;font-family:'STIX Two Math';-inkscape-font-specification:'STIX Two Math Bold';fill:#268bd2"
     id="tspan3615"
     font-weight="400"
     font-size="348px"
     class="TextParagraph"><tspan
       dy="0 0 0 0 0 0 0 0 0 0 0 0 0 0"
       style="font-style:normal;font-variant:normal;font-weight:bold;font-stretch:normal;font-size:564.44439697px;font-family:'STIX Two Math';-inkscape-font-specification:'STIX Two Math Bold';fill:#268bd2;stroke:none"
       id="tspan3617"
       y="3653.2603"
       x="1939.7185"
       class="TextPosition"><tspan
   style="font-style:italic;font-variant:normal;font-weight:normal;font-stretch:normal;font-family:'STIX Two Text';-inkscape-font-specification:'STIX Two Text Italic'"
   id="tspan1194">f</tspan>(<tspan
   style="font-style:italic;font-variant:normal;font-weight:normal;font-stretch:normal;font-family:'STIX Two Text';-inkscape-font-specification:'STIX Two Text Italic'"
   id="tspan1178">x</tspan>) = 0,036 <tspan
   id="tspan3623"
   style="font-style:italic;font-variant:normal;font-weight:normal;font-stretch:normal;font-size:564.44439697px;font-family:'STIX Two Text';-inkscape-font-specification:'STIX Two Text Italic';fill:#268bd2">x<tspan
   style="-inkscape-font-specification:'STIX Two Math';font-family:'STIX Two Math';font-weight:normal;font-style:normal;font-stretch:normal;font-variant:normal;font-size:65%;baseline-shift:super"
   id="tspan1198">-2,364</tspan></tspan></tspan></tspan></text>
<text
   class="TextShape"
   id="text514"
   style="font-style:normal;font-variant:normal;font-weight:normal;font-stretch:normal;font-size:846.66662598px;line-height:0%;font-family:Aller;-inkscape-font-specification:Aller;fill:#002b36"
   x="-194.17474"
   y="116.50485"><tspan
     class="TextParagraph"
     font-size="627px"
     font-weight="400"
     id="tspan516"
     style="font-style:normal;font-variant:normal;font-weight:normal;font-stretch:normal;font-size:846.66662598px;font-family:Aller;-inkscape-font-specification:Aller;fill:#002b36"><tspan
       class="TextPosition"
       x="97.825249"
       y="8774.5049"
       id="tspan518"
       style="font-style:normal;font-variant:normal;font-weight:normal;font-stretch:normal;font-size:846.66662598px;font-family:Aller;-inkscape-font-specification:Aller;fill:#002b36"><tspan
         id="tspan520"
         style="font-style:normal;font-variant:normal;font-weight:normal;font-stretch:normal;font-size:846.66662598px;font-family:Aller;-inkscape-font-specification:Aller;fill:#002b36;stroke:none">Level</tspan></tspan></tspan></text>

<text
   class="TextShape"
   transform="rotate(-90)"
   id="text522"
   x="-24232.203"
   y="8838.4824"
   style="font-size:15.08580112px;line-height:0%"><tspan
     class="TextParagraph"
     font-size="423px"
     font-weight="400"
     id="tspan524"
     style="font-weight:400;font-size:531.7744751px;font-family:Aller"><tspan
       class="TextPosition"
       x="-4545.2354"
       y="15869.723"
       id="tspan526"><tspan
         id="tspan528"
         style="fill:#073642;stroke:none">Running time (s)</tspan></tspan></tspan></text>

<text
   class="TextShape"
   id="text514-2"
   style="font-style:normal;font-variant:normal;font-weight:normal;font-stretch:normal;font-size:560.71490479px;line-height:0%;font-family:Aller;-inkscape-font-specification:Aller;fill:#002b36"
   x="22.466173"
   y="495.36954"><tspan
     class="TextParagraph"
     font-size="627px"
     font-weight="400"
     id="tspan516-5"
     style="font-style:normal;font-variant:normal;font-weight:normal;font-stretch:normal;font-size:560.71490479px;font-family:Aller;-inkscape-font-specification:Aller;fill:#002b36">Width<tspan
   class="TextPosition"
   x="215.8466"
   y="6229.2319"
   id="tspan518-3"
   style="font-style:normal;font-variant:normal;font-weight:normal;font-stretch:normal;font-size:560.71490479px;font-family:Aller;-inkscape-font-specification:Aller;fill:#002b36"><tspan
     id="tspan520-9"
     style="font-style:normal;font-variant:normal;font-weight:normal;font-stretch:normal;font-size:560.71490479px;font-family:Aller;-inkscape-font-specification:Aller;fill:#002b36;stroke:none" /></tspan></tspan></text>

</svg>