<?xml version="1.0" encoding="UTF-8" standalone="no"?>
<svg
   xmlns:ooo="http://xml.openoffice.org/svg/export"
   xmlns:dc="http://purl.org/dc/elements/1.1/"
   xmlns:cc="http://creativecommons.org/ns#"
   xmlns:rdf="http://www.w3.org/1999/02/22-rdf-syntax-ns#"
   xmlns:svg="http://www.w3.org/2000/svg"
   xmlns="http://www.w3.org/2000/svg"
   xmlns:sodipodi="http://sodipodi.sourceforge.net/DTD/sodipodi-0.dtd"
   xmlns:inkscape="http://www.inkscape.org/namespaces/inkscape"
   version="1.2"
   width="187.15334mm"
   height="66.25mm"
   viewBox="0 0 18715.334 6625"
   preserveAspectRatio="xMidYMid"
   xml:space="preserve"
   id="svg909"
   sodipodi:docname="operator graph.svg"
   style="fill-rule:evenodd;stroke-width:28.22200012;stroke-linejoin:round"
   inkscape:version="0.92.3 (2405546, 2018-03-11)"><metadata
   id="metadata913"><rdf:RDF><cc:Work
       rdf:about=""><dc:format>image/svg+xml</dc:format><dc:type
         rdf:resource="http://purl.org/dc/dcmitype/StillImage" /><dc:title></dc:title></cc:Work></rdf:RDF></metadata><sodipodi:namedview
   pagecolor="#ffffff"
   bordercolor="#666666"
   borderopacity="1"
   objecttolerance="10"
   gridtolerance="10"
   guidetolerance="10"
   inkscape:pageopacity="0"
   inkscape:pageshadow="2"
   inkscape:window-width="1920"
   inkscape:window-height="1017"
   id="namedview911"
   showgrid="false"
   fit-margin-top="0"
   fit-margin-left="0"
   fit-margin-right="0"
   fit-margin-bottom="0"
   inkscape:zoom="1.2619981"
   inkscape:cx="507.09243"
   inkscape:cy="161.62388"
   inkscape:window-x="1"
   inkscape:window-y="30"
   inkscape:window-maximized="1"
   inkscape:current-layer="svg909" />
 <defs
   class="ClipPathGroup"
   id="defs8">
  <clipPath
   id="presentation_clip_path"
   clipPathUnits="userSpaceOnUse">
   <rect
   x="0"
   y="0"
   width="22000"
   height="12000"
   id="rect2" />
  </clipPath>
  <clipPath
   id="presentation_clip_path_shrink"
   clipPathUnits="userSpaceOnUse">
   <rect
   x="22"
   y="12"
   width="21956"
   height="11976"
   id="rect5" />
  </clipPath>
 
     </defs>
 <defs
   class="TextShapeIndex"
   id="defs250">
  <g
   ooo:slide="id1"
   ooo:id-list="id3 id4 id5 id6 id7 id8 id9 id10 id11 id12 id13 id14 id15 id16 id17 id18 id19 id20 id21 id22 id23 id24 id25 id26 id27 id28"
   id="g248" />
 </defs>
 <defs
   class="EmbeddedBulletChars"
   id="defs282">
  <g
   id="bullet-char-template-57356"
   transform="matrix(4.8828125e-4,0,0,-4.8828125e-4,0,0)">
   <path
   d="M 580,1141 1163,571 580,0 -4,571 Z"
   id="path252"
   inkscape:connector-curvature="0" />
  </g>
  <g
   id="bullet-char-template-57354"
   transform="matrix(4.8828125e-4,0,0,-4.8828125e-4,0,0)">
   <path
   d="M 8,1128 H 1137 V 0 H 8 Z"
   id="path255"
   inkscape:connector-curvature="0" />
  </g>
  <g
   id="bullet-char-template-10146"
   transform="matrix(4.8828125e-4,0,0,-4.8828125e-4,0,0)">
   <path
   d="M 174,0 602,739 174,1481 1456,739 Z M 1358,739 309,1346 659,739 Z"
   id="path258"
   inkscape:connector-curvature="0" />
  </g>
  <g
   id="bullet-char-template-10132"
   transform="matrix(4.8828125e-4,0,0,-4.8828125e-4,0,0)">
   <path
   d="M 2015,739 1276,0 H 717 l 543,543 H 174 v 393 h 1086 l -543,545 h 557 z"
   id="path261"
   inkscape:connector-curvature="0" />
  </g>
  <g
   id="bullet-char-template-10007"
   transform="matrix(4.8828125e-4,0,0,-4.8828125e-4,0,0)">
   <path
   d="m 0,-2 c -7,16 -16,29 -25,39 l 381,530 c -94,256 -141,385 -141,387 0,25 13,38 40,38 9,0 21,-2 34,-5 21,4 42,12 65,25 l 27,-13 111,-251 280,301 64,-25 24,25 c 21,-10 41,-24 62,-43 C 886,937 835,863 770,784 769,783 710,716 594,584 L 774,223 c 0,-27 -21,-55 -63,-84 l 16,-20 C 717,90 699,76 672,76 641,76 570,178 457,381 L 164,-76 c -22,-34 -53,-51 -92,-51 -42,0 -63,17 -64,51 -7,9 -10,24 -10,44 0,9 1,19 2,30 z"
   id="path264"
   inkscape:connector-curvature="0" />
  </g>
  <g
   id="bullet-char-template-10004"
   transform="matrix(4.8828125e-4,0,0,-4.8828125e-4,0,0)">
   <path
   d="M 285,-33 C 182,-33 111,30 74,156 52,228 41,333 41,471 c 0,78 14,145 41,201 34,71 87,106 158,106 53,0 88,-31 106,-94 l 23,-176 c 8,-64 28,-97 59,-98 l 735,706 c 11,11 33,17 66,17 42,0 63,-15 63,-46 V 965 c 0,-36 -10,-64 -30,-84 L 442,47 C 390,-6 338,-33 285,-33 Z"
   id="path267"
   inkscape:connector-curvature="0" />
  </g>
  <g
   id="bullet-char-template-9679"
   transform="matrix(4.8828125e-4,0,0,-4.8828125e-4,0,0)">
   <path
   d="M 813,0 C 632,0 489,54 383,161 276,268 223,411 223,592 c 0,181 53,324 160,431 106,107 249,161 430,161 179,0 323,-54 432,-161 108,-107 162,-251 162,-431 0,-180 -54,-324 -162,-431 C 1136,54 992,0 813,0 Z"
   id="path270"
   inkscape:connector-curvature="0" />
  </g>
  <g
   id="bullet-char-template-8226"
   transform="matrix(4.8828125e-4,0,0,-4.8828125e-4,0,0)">
   <path
   d="m 346,457 c -73,0 -137,26 -191,78 -54,51 -81,114 -81,188 0,73 27,136 81,188 54,52 118,78 191,78 73,0 134,-26 185,-79 51,-51 77,-114 77,-187 0,-75 -25,-137 -76,-188 -50,-52 -112,-78 -186,-78 z"
   id="path273"
   inkscape:connector-curvature="0" />
  </g>
  <g
   id="bullet-char-template-8211"
   transform="matrix(4.8828125e-4,0,0,-4.8828125e-4,0,0)">
   <path
   d="M -4,459 H 1135 V 606 H -4 Z"
   id="path276"
   inkscape:connector-curvature="0" />
  </g>
  <g
   id="bullet-char-template-61548"
   transform="matrix(4.8828125e-4,0,0,-4.8828125e-4,0,0)">
   <path
   d="m 173,740 c 0,163 58,303 173,419 116,115 255,173 419,173 163,0 302,-58 418,-173 116,-116 174,-256 174,-419 0,-163 -58,-303 -174,-418 C 1067,206 928,148 765,148 601,148 462,206 346,322 231,437 173,577 173,740 Z"
   id="path279"
   inkscape:connector-curvature="0" />
  </g>
 </defs>
 <defs
   class="TextEmbeddedBitmaps"
   id="defs284" />
 <g
   id="g289"
   transform="translate(-1900,-1659)">
  <g
   id="id2"
   class="Master_Slide">
   <g
   id="bg-id2"
   class="Background" />
   <g
   id="bo-id2"
   class="BackgroundObjects" />
  </g>
 </g>
 <g
   id="g841"
   class="com.sun.star.drawing.CustomShape"
   transform="translate(-1900,-1659)">
       <g
   id="id24">
        <rect
   style="fill:none;stroke:none"
   id="rect824"
   height="1288"
   width="1308"
   y="6047"
   x="9497"
   class="BoundingBox" />
        <path
   style="fill:none;stroke:#b58900;stroke-width:106;stroke-linejoin:round"
   inkscape:connector-curvature="0"
   id="path826"
   d="m 10150,6100 c 340,0 600,256 600,590 0,334 -260,590 -600,590 -340,0 -600,-256 -600,-590 0,-334 260,-590 600,-590 z" />
        <text
   id="text838"
   class="TextShape"><tspan
     style="font-weight:400;font-size:368px;font-family:'STIX Two Math'"
     id="tspan836"
     font-weight="400"
     font-size="368px"
     class="TextParagraph"><tspan
       id="tspan830"
       y="6783"
       x="9794"
       class="TextPosition"><tspan
         style="font-style:italic;font-size:635px;font-family:'STIX Two Text';fill:#073642;stroke:none"
         id="tspan828"
         font-style="italic"
         font-size="635px">a</tspan></tspan><tspan
       id="tspan834"
       y="6993"
       x="10133"
       class="TextPosition"><tspan
         style="fill:#073642;stroke:none"
         id="tspan832">go</tspan></tspan></tspan></text>

       </g>
      </g><g
   id="g390"
   class="com.sun.star.drawing.ConnectorShape"
   transform="translate(-1900,-1659)">
       <g
   id="id7">
        <rect
   style="fill:none;stroke:none"
   id="rect357"
   height="2678"
   width="7279"
   y="4636"
   x="2447"
   class="BoundingBox" />
        <path
   style="fill:none;stroke:#839496;stroke-width:106;stroke-linecap:round;stroke-linejoin:round"
   inkscape:connector-curvature="0"
   id="path359"
   d="m 2500,4689 c 0,40 1,79 2,118" />
        <path
   style="fill:none;stroke:#839496;stroke-width:106;stroke-linecap:round;stroke-linejoin:round"
   inkscape:connector-curvature="0"
   id="path361"
   d="m 2551,5274 c 7,34 14,67 21,100" />
        <path
   style="fill:none;stroke:#839496;stroke-width:106;stroke-linecap:round;stroke-linejoin:round"
   inkscape:connector-curvature="0"
   id="path363"
   d="m 2714,5801 c 15,33 30,66 46,97" />
        <path
   style="fill:none;stroke:#839496;stroke-width:106;stroke-linecap:round;stroke-linejoin:round"
   inkscape:connector-curvature="0"
   id="path365"
   d="m 3009,6271 c 23,27 47,53 71,79" />
        <path
   style="fill:none;stroke:#839496;stroke-width:106;stroke-linecap:round;stroke-linejoin:round"
   inkscape:connector-curvature="0"
   id="path367"
   d="m 3429,6645 c 30,20 60,40 90,59" />
        <path
   style="fill:none;stroke:#839496;stroke-width:106;stroke-linecap:round;stroke-linejoin:round"
   inkscape:connector-curvature="0"
   id="path369"
   d="m 3923,6907 c 33,13 66,26 100,39" />
        <path
   style="fill:none;stroke:#839496;stroke-width:106;stroke-linecap:round;stroke-linejoin:round"
   inkscape:connector-curvature="0"
   id="path371"
   d="m 4460,7078 c 34,8 68,16 103,23" />
        <path
   style="fill:none;stroke:#839496;stroke-width:106;stroke-linecap:round;stroke-linejoin:round"
   inkscape:connector-curvature="0"
   id="path373"
   d="m 5019,7180 c 34,4 69,9 104,13" />
        <path
   style="fill:none;stroke:#839496;stroke-width:106;stroke-linecap:round;stroke-linejoin:round"
   inkscape:connector-curvature="0"
   id="path375"
   d="m 5578,7230 c 35,2 71,4 107,5" />
        <path
   style="fill:none;stroke:#839496;stroke-width:106;stroke-linecap:round;stroke-linejoin:round"
   inkscape:connector-curvature="0"
   id="path377"
   d="m 6144,7244 c 35,0 71,0 106,-1" />
        <path
   style="fill:none;stroke:#839496;stroke-width:106;stroke-linecap:round;stroke-linejoin:round"
   inkscape:connector-curvature="0"
   id="path379"
   d="m 6707,7231 c 36,-1 73,-3 108,-5" />
        <path
   style="fill:none;stroke:#839496;stroke-width:106;stroke-linecap:round;stroke-linejoin:round"
   inkscape:connector-curvature="0"
   id="path381"
   d="m 7274,7199 c 34,-2 69,-4 103,-7" />
        <path
   style="fill:none;stroke:#839496;stroke-width:106;stroke-linecap:round;stroke-linejoin:round"
   inkscape:connector-curvature="0"
   id="path383"
   d="m 7841,7156 c 36,-3 71,-6 106,-9" />
        <path
   style="fill:none;stroke:#839496;stroke-width:106;stroke-linecap:round;stroke-linejoin:round"
   inkscape:connector-curvature="0"
   id="path385"
   d="m 8403,7111 c 37,-3 74,-5 110,-8" />
        <path
   style="fill:#839496;stroke:none"
   inkscape:connector-curvature="0"
   id="path387"
   d="m 8871,6855 -7,-1 h -6 l -18,5 -14,11 -9,16 -2,17 3,12 8,13 10,10 14,6 621,158 -624,120 -17,5 -14,11 -10,16 -2,17 5,17 12,15 17,9 h 15 5 l -1,-1 820,-157 17,-3 17,-10 10,-15 4,-17 -3,-17 -10,-16 -15,-11 -17,-4 z" />
       </g>
      </g><g
   id="g450"
   class="com.sun.star.drawing.TextShape"
   transform="translate(-1635.4167,-1659)">
       <g
   id="id9">
        <rect
   style="fill:none;stroke:none"
   id="rect401"
   height="1485"
   width="5401"
   y="6799"
   x="2500"
   class="BoundingBox" />
        <path
   style="fill:#fdf6e3;stroke:none"
   inkscape:connector-curvature="0"
   id="path403"
   d="M 5200,8283 H 2500 V 6799 h 5400 v 1484 z" />
        <text
   id="text447"
   class="TextShape"><tspan
     style="font-style:italic;font-weight:400;font-size:353px;font-family:Hack, monospace"
     id="tspan417"
     font-weight="400"
     font-style="italic"
     font-size="353px"
     class="TextParagraph"><tspan
       id="tspan415"
       y="7250"
       x="2750"
       class="TextPosition"><tspan
         style="fill:#586e75;stroke:none"
         id="tspan405">corridor</tspan><tspan
         style="font-style:normal;fill:#000000;stroke:none"
         id="tspan407"
         font-style="normal"> </tspan><tspan
         style="font-style:normal;fill:#859900;stroke:none"
         id="tspan409"
         font-style="normal">locked</tspan><tspan
         style="font-style:normal;fill:#000000;stroke:none"
         id="tspan411"
         font-style="normal"> </tspan><tspan
         style="font-weight:700;fill:#d33682;stroke:none"
         id="tspan413"
         font-weight="700">false</tspan></tspan></tspan><tspan
     style="font-style:italic;font-weight:400;font-size:353px;font-family:Hack, monospace"
     id="tspan431"
     font-weight="400"
     font-style="italic"
     font-size="353px"
     class="TextParagraph"><tspan
       id="tspan429"
       y="7661"
       x="2750"
       class="TextPosition"><tspan
         style="fill:#586e75;stroke:none"
         id="tspan419">livingroom</tspan><tspan
         style="font-style:normal;font-weight:700;fill:#d33682;stroke:none"
         id="tspan421"
         font-weight="700"
         font-style="normal"> </tspan><tspan
         style="font-style:normal;fill:#859900;stroke:none"
         id="tspan423"
         font-style="normal">locked</tspan><tspan
         style="font-style:normal;font-weight:700;fill:#d33682;stroke:none"
         id="tspan425"
         font-weight="700"
         font-style="normal"> </tspan><tspan
         style="font-weight:700;fill:#d33682;stroke:none"
         id="tspan427"
         font-weight="700">false</tspan></tspan></tspan><tspan
     style="font-style:italic;font-weight:400;font-size:353px;font-family:Hack, monospace"
     id="tspan445"
     font-weight="400"
     font-style="italic"
     font-size="353px"
     class="TextParagraph"><tspan
       id="tspan443"
       y="8072"
       x="2750"
       class="TextPosition"><tspan
         style="fill:#586e75;stroke:none"
         id="tspan433">robot</tspan><tspan
         style="font-style:normal;fill:#d33682;stroke:none"
         id="tspan435"
         font-style="normal"> </tspan><tspan
         style="font-style:normal;fill:#859900;stroke:none"
         id="tspan437"
         font-style="normal">room</tspan><tspan
         style="font-style:normal;font-weight:700;fill:#d33682;stroke:none"
         id="tspan439"
         font-weight="700"
         font-style="normal"> </tspan><tspan
         style="fill:#586e75;stroke:none"
         id="tspan441">corridor</tspan></tspan></tspan></text>

       </g>
      </g><g
   id="g473"
   class="com.sun.star.drawing.TextShape"
   transform="translate(-1688.3333,-1659)">
       <g
   id="id10">
        <rect
   style="fill:none;stroke:none"
   id="rect452"
   height="684"
   width="2301"
   y="7500"
   x="11400"
   class="BoundingBox" />
        <path
   style="fill:#fdf6e3;stroke:none"
   inkscape:connector-curvature="0"
   id="path454"
   d="m 12550,8183 h -1150 v -683 h 2300 v 683 z" />
        <text
   id="text470"
   class="TextShape"><tspan
     style="font-weight:400;font-size:370px;font-family:Hack, monospace"
     id="tspan468"
     font-weight="400"
     font-size="370px"
     class="TextParagraph"><tspan
       id="tspan466"
       y="7968"
       x="11650"
       class="TextPosition"><tspan
         style="fill:#586e75;stroke:none"
         id="tspan456">m</tspan><tspan
         style="fill:#000000;stroke:none"
         id="tspan458"> </tspan><tspan
         style="fill:#859900;stroke:none"
         id="tspan460">room</tspan><tspan
         style="fill:#000000;stroke:none"
         id="tspan462"> </tspan><tspan
         style="fill:#586e75;stroke:none"
         id="tspan464">r</tspan></tspan></tspan></text>

       </g>
      </g><g
   id="g496"
   class="com.sun.star.drawing.TextShape"
   transform="translate(-1535.4166,-1288.5833)">
       <g
   id="id11">
        <rect
   style="fill:none;stroke:none"
   id="rect475"
   height="684"
   width="3601"
   y="4709"
   x="3300"
   class="BoundingBox" />
        <path
   style="fill:#fdf6e3;stroke:none"
   inkscape:connector-curvature="0"
   id="path477"
   d="M 5100,5392 H 3300 v -683 h 3600 v 683 z" />
        <text
   id="text493"
   class="TextShape"><tspan
     style="font-weight:400;font-size:370px;font-family:Hack, monospace"
     id="tspan491"
     font-weight="400"
     font-size="370px"
     class="TextParagraph"><tspan
       id="tspan489"
       y="5177"
       x="3550"
       class="TextPosition"><tspan
         style="fill:#586e75;stroke:none"
         id="tspan479">r</tspan><tspan
         style="fill:#000000;stroke:none"
         id="tspan481"> </tspan><tspan
         style="fill:#859900;stroke:none"
         id="tspan483">locked</tspan><tspan
         style="fill:#000000;stroke:none"
         id="tspan485"> </tspan><tspan
         style="font-style:italic;font-weight:700;fill:#d33682;stroke:none"
         id="tspan487"
         font-weight="700"
         font-style="italic">false</tspan></tspan></tspan></text>

       </g>
      </g><g
   id="g519"
   class="com.sun.star.drawing.TextShape"
   transform="translate(-1835.4167,-1659)">
       <g
   id="id12">
        <rect
   style="fill:none;stroke:none"
   id="rect498"
   height="684"
   width="3401"
   y="1659"
   x="3700"
   class="BoundingBox" />
        <path
   style="fill:#fdf6e3;stroke:none"
   inkscape:connector-curvature="0"
   id="path500"
   d="M 5400,2342 H 3700 v -683 h 3400 v 683 z" />
        <text
   id="text516"
   class="TextShape"><tspan
     style="font-style:italic;font-weight:400;font-size:370px;font-family:Hack, monospace"
     id="tspan514"
     font-weight="400"
     font-style="italic"
     font-size="370px"
     class="TextParagraph"><tspan
       id="tspan512"
       y="2127"
       x="3950"
       class="TextPosition"><tspan
         style="fill:#586e75;stroke:none"
         id="tspan502">robot</tspan><tspan
         style="font-style:normal;fill:#000000;stroke:none"
         id="tspan504"
         font-style="normal"> </tspan><tspan
         style="font-style:normal;fill:#859900;stroke:none"
         id="tspan506"
         font-style="normal">holds</tspan><tspan
         style="font-style:normal;fill:#000000;stroke:none"
         id="tspan508"
         font-style="normal"> </tspan><tspan
         style="font-style:normal;font-weight:700;fill:#ce181e;stroke:none"
         id="tspan510"
         font-weight="700"
         font-style="normal">~</tspan></tspan></tspan></text>

       </g>
      </g><g
   id="g542"
   class="com.sun.star.drawing.TextShape"
   transform="translate(-1900,-1659)">
       <g
   id="id13">
        <rect
   style="fill:none;stroke:none"
   id="rect521"
   height="684"
   width="5001"
   y="3209"
   x="12600"
   class="BoundingBox" />
        <path
   style="fill:#fdf6e3;stroke:none"
   inkscape:connector-curvature="0"
   id="path523"
   d="m 15100,3892 h -2500 v -683 h 5000 v 683 z" />
        <text
   id="text539"
   class="TextShape"><tspan
     style="font-style:italic;font-weight:400;font-size:370px;font-family:Hack, monospace"
     id="tspan537"
     font-weight="400"
     font-style="italic"
     font-size="370px"
     class="TextParagraph"><tspan
       id="tspan535"
       y="3677"
       x="12850"
       class="TextPosition"><tspan
         style="fill:#586e75;stroke:none"
         id="tspan525">robot</tspan><tspan
         style="font-style:normal;fill:#000000;stroke:none"
         id="tspan527"
         font-style="normal"> </tspan><tspan
         style="font-style:normal;fill:#859900;stroke:none"
         id="tspan529"
         font-style="normal">holds</tspan><tspan
         style="font-style:normal;fill:#000000;stroke:none"
         id="tspan531"
         font-style="normal"> </tspan><tspan
         style="fill:#586e75;stroke:none"
         id="tspan533">lollipop</tspan></tspan></tspan></text>

       </g>
      </g><g
   id="g565"
   class="com.sun.star.drawing.TextShape"
   transform="translate(-1900,-1659)">
       <g
   id="id14">
        <rect
   style="fill:none;stroke:none"
   id="rect544"
   height="684"
   width="2301"
   y="1659"
   x="9000"
   class="BoundingBox" />
        <path
   style="fill:#fdf6e3;stroke:none"
   inkscape:connector-curvature="0"
   id="path546"
   d="M 10150,2342 H 9000 v -683 h 2300 v 683 z" />
        <text
   id="text562"
   class="TextShape"><tspan
     style="font-weight:400;font-size:370px;font-family:Hack, monospace"
     id="tspan560"
     font-weight="400"
     font-size="370px"
     class="TextParagraph"><tspan
       id="tspan558"
       y="2127"
       x="9250"
       class="TextPosition"><tspan
         style="fill:#586e75;stroke:none"
         id="tspan548">g</tspan><tspan
         style="fill:#000000;stroke:none"
         id="tspan550"> </tspan><tspan
         style="fill:#859900;stroke:none"
         id="tspan552">hold</tspan><tspan
         style="fill:#000000;stroke:none"
         id="tspan554"> </tspan><tspan
         style="fill:#586e75;stroke:none"
         id="tspan556">k</tspan></tspan></tspan></text>

       </g>
      </g><g
   id="g588"
   class="com.sun.star.drawing.TextShape"
   transform="translate(-1900,-1659)">
       <g
   id="id15">
        <rect
   style="fill:none;stroke:none"
   id="rect567"
   height="684"
   width="3101"
   y="4709"
   x="12700"
   class="BoundingBox" />
        <path
   style="fill:#fdf6e3;stroke:none"
   inkscape:connector-curvature="0"
   id="path569"
   d="m 14250,5392 h -1550 v -683 h 3100 v 683 z" />
        <text
   id="text585"
   class="TextShape"><tspan
     style="font-weight:400;font-size:370px;font-family:Hack, monospace"
     id="tspan583"
     font-weight="400"
     font-size="370px"
     class="TextParagraph"><tspan
       id="tspan581"
       y="5177"
       x="12950"
       class="TextPosition"><tspan
         style="fill:#586e75;stroke:none"
         id="tspan571">g</tspan><tspan
         style="fill:#000000;stroke:none"
         id="tspan573"> </tspan><tspan
         style="fill:#859900;stroke:none"
         id="tspan575">room</tspan><tspan
         style="fill:#000000;stroke:none"
         id="tspan577"> </tspan><tspan
         style="fill:#586e75;stroke:none"
         id="tspan579">room</tspan></tspan></tspan></text>

       </g>
      </g><g
   id="g611"
   class="com.sun.star.drawing.TextShape"
   transform="translate(-1835.4167,-1764.8333)">
       <g
   id="id16">
        <rect
   style="fill:none;stroke:none"
   id="rect590"
   height="684"
   width="4701"
   y="3209"
   x="3050"
   class="BoundingBox" />
        <path
   style="fill:#fdf6e3;stroke:none"
   inkscape:connector-curvature="0"
   id="path592"
   d="M 5400,3892 H 3050 v -683 h 4700 v 683 z" />
        <text
   id="text608"
   class="TextShape"><tspan
     style="font-style:italic;font-weight:400;font-size:370px;font-family:Hack, monospace"
     id="tspan606"
     font-weight="400"
     font-style="italic"
     font-size="370px"
     class="TextParagraph"><tspan
       id="tspan604"
       y="3677"
       x="3300"
       class="TextPosition"><tspan
         style="fill:#586e75;stroke:none"
         id="tspan594">kitchen</tspan><tspan
         style="font-style:normal;fill:#000000;stroke:none"
         id="tspan596"
         font-style="normal"> </tspan><tspan
         style="font-style:normal;fill:#859900;stroke:none"
         id="tspan598"
         font-style="normal">locked</tspan><tspan
         style="font-style:normal;fill:#000000;stroke:none"
         id="tspan600"
         font-style="normal"> </tspan><tspan
         style="font-weight:700;fill:#d33682;stroke:none"
         id="tspan602"
         font-weight="700">true</tspan></tspan></tspan></text>

       </g>
      </g><g
   id="g702"
   class="com.sun.star.drawing.TextShape"
   transform="translate(-1476.6666,-1659)">
       <g
   id="id17">
        <rect
   style="fill:none;stroke:none"
   id="rect613"
   height="2501"
   width="6101"
   y="5783"
   x="13900"
   class="BoundingBox" />
        <path
   style="fill:#fdf6e3;stroke:none"
   inkscape:connector-curvature="0"
   id="path615"
   d="M 16950,8283 H 13900 V 5783 h 6100 v 2500 z" />
        <text
   id="text699"
   class="TextShape"><tspan
     style="font-weight:400;font-size:353px;font-family:Hack, monospace"
     id="tspan631"
     font-weight="400"
     font-size="353px"
     class="TextParagraph"><tspan
       id="tspan629"
       y="6234"
       x="14150"
       class="TextPosition"><tspan
         style="fill:#2aa198;stroke:none"
         id="tspan617">&quot;planning.w&quot;</tspan><tspan
         style="fill:#586e75;stroke:none"
         id="tspan619"> </tspan><tspan
         style="font-weight:700;fill:#073642;stroke:none"
         id="tspan621"
         font-weight="700">=</tspan><tspan
         style="fill:#586e75;stroke:none"
         id="tspan623"> </tspan><tspan
         style="font-weight:700;fill:#dc322f;stroke:none"
         id="tspan625"
         font-weight="700">?</tspan><tspan
         style="fill:#586e75;stroke:none"
         id="tspan627"> ;</tspan></tspan></tspan><tspan
     style="font-weight:400;font-size:353px;font-family:Hack, monospace"
     id="tspan645"
     font-weight="400"
     font-size="353px"
     class="TextParagraph"><tspan
       id="tspan643"
       y="6645"
       x="14150"
       class="TextPosition"><tspan
         style="fill:#586e75;stroke:none"
         id="tspan633">(g, r, m, k) </tspan><tspan
         style="font-weight:700;fill:#b58900;stroke:none"
         id="tspan635"
         font-weight="700">::</tspan><tspan
         style="fill:#586e75;stroke:none"
         id="tspan637"> </tspan><tspan
         style="font-weight:700;fill:#268bd2;stroke:none"
         id="tspan639"
         font-weight="700">Variables</tspan><tspan
         style="fill:#586e75;stroke:none"
         id="tspan641">;</tspan></tspan></tspan><tspan
     style="font-weight:400;font-size:353px;font-family:Hack, monospace"
     id="tspan657"
     font-weight="400"
     font-size="353px"
     class="TextParagraph"><tspan
       id="tspan655"
       y="7056"
       x="14150"
       class="TextPosition"><tspan
         style="fill:#268bd2;stroke:none"
         id="tspan647">Movable</tspan><tspan
         style="font-weight:700;fill:#b58900;stroke:none"
         id="tspan649"
         font-weight="700">/</tspan><tspan
         style="fill:#268bd2;stroke:none"
         id="tspan651">Grabber</tspan><tspan
         style="fill:#586e75;stroke:none"
         id="tspan653">;</tspan></tspan></tspan><tspan
     style="font-weight:400;font-size:353px;font-family:Hack, monospace"
     id="tspan679"
     font-weight="400"
     font-size="353px"
     class="TextParagraph"><tspan
       id="tspan677"
       y="7467"
       x="14150"
       class="TextPosition"><tspan
         style="fill:#586e75;stroke:none"
         id="tspan659">g </tspan><tspan
         style="font-weight:700;fill:#b58900;stroke:none"
         id="tspan661"
         font-weight="700">::</tspan><tspan
         style="fill:#586e75;stroke:none"
         id="tspan663"> </tspan><tspan
         style="fill:#268bd2;stroke:none"
         id="tspan665">Grabber</tspan><tspan
         style="fill:#586e75;stroke:none"
         id="tspan667">; r </tspan><tspan
         style="font-weight:700;fill:#b58900;stroke:none"
         id="tspan669"
         font-weight="700">::</tspan><tspan
         style="fill:#586e75;stroke:none"
         id="tspan671"> </tspan><tspan
         style="fill:#268bd2;stroke:none"
         id="tspan673">Room</tspan><tspan
         style="fill:#586e75;stroke:none"
         id="tspan675">;</tspan></tspan></tspan><tspan
     style="font-weight:400;font-size:353px;font-family:Hack, monospace"
     id="tspan697"
     font-weight="400"
     font-size="353px"
     class="TextParagraph"><tspan
       id="tspan695"
       y="7878"
       x="14150"
       class="TextPosition"><tspan
         style="fill:#586e75;stroke:none"
         id="tspan681">m </tspan><tspan
         style="font-weight:700;fill:#b58900;stroke:none"
         id="tspan683"
         font-weight="700">::</tspan><tspan
         style="fill:#586e75;stroke:none"
         id="tspan685"> </tspan><tspan
         style="fill:#268bd2;stroke:none"
         id="tspan687">Movable</tspan><tspan
         style="fill:#586e75;stroke:none"
         id="tspan689">; k </tspan><tspan
         style="fill:#859900;stroke:none"
         id="tspan691">keyof</tspan><tspan
         style="fill:#586e75;stroke:none"
         id="tspan693"> r;</tspan></tspan></tspan></text>

       </g>
      </g><g
   id="g725"
   class="com.sun.star.drawing.TextShape"
   transform="translate(-1900,-1659)">
       <g
   id="id18">
        <rect
   style="fill:none;stroke:none"
   id="rect704"
   height="684"
   width="2301"
   y="4709"
   x="9000"
   class="BoundingBox" />
        <path
   style="fill:#fdf6e3;stroke:none"
   inkscape:connector-curvature="0"
   id="path706"
   d="M 10150,5392 H 9000 v -683 h 2300 v 683 z" />
        <text
   id="text722"
   class="TextShape"><tspan
     style="font-weight:400;font-size:370px;font-family:Hack, monospace"
     id="tspan720"
     font-weight="400"
     font-size="370px"
     class="TextParagraph"><tspan
       id="tspan718"
       y="5177"
       x="9250"
       class="TextPosition"><tspan
         style="fill:#586e75;stroke:none"
         id="tspan708">g</tspan><tspan
         style="fill:#000000;stroke:none"
         id="tspan710"> </tspan><tspan
         style="fill:#859900;stroke:none"
         id="tspan712">hold</tspan><tspan
         style="fill:#000000;stroke:none"
         id="tspan714"> </tspan><tspan
         style="font-weight:700;fill:#ce181e;stroke:none"
         id="tspan716"
         font-weight="700">~</tspan></tspan></tspan></text>

       </g>
      </g><g
   id="g803"
   class="com.sun.star.drawing.CustomShape"
   transform="translate(-1900,-1659)">
       <g
   id="id22">
        <rect
   style="fill:none;stroke:none"
   id="rect786"
   height="1182"
   width="1202"
   y="3509"
   x="1900"
   class="BoundingBox" />
        <path
   style="fill:#268bd2;stroke:none"
   inkscape:connector-curvature="0"
   id="path788"
   d="m 2500,3509 c 340,0 600,256 600,590 0,334 -260,590 -600,590 -340,0 -600,-256 -600,-590 0,-334 260,-590 600,-590 z m -600,0 z m 1201,1181 z" />
        <text
   id="text800"
   class="TextShape"><tspan
     style="font-weight:400;font-size:573px;font-family:'STIX Two Math'"
     id="tspan798"
     font-weight="400"
     font-size="573px"
     class="TextParagraph"><tspan
       id="tspan792"
       y="4364"
       x="2095"
       class="TextPosition"><tspan
         style="font-style:italic;font-size:988px;font-family:'STIX Two Text';fill:#fdf6e3;stroke:none"
         id="tspan790"
         font-style="italic"
         font-size="988px">a</tspan></tspan><tspan
       id="tspan796"
       y="4038"
       x="2620"
       class="TextPosition"><tspan
         style="fill:#fdf6e3;stroke:none"
         id="tspan794">0</tspan></tspan></tspan></text>

       </g>
      </g><g
   id="g822"
   class="com.sun.star.drawing.CustomShape"
   transform="translate(-1900,-1659)">
       <g
   id="id23">
        <rect
   style="fill:none;stroke:none"
   id="rect805"
   height="1182"
   width="1202"
   y="3509"
   x="19300"
   class="BoundingBox" />
        <path
   style="fill:#d33682;stroke:none"
   inkscape:connector-curvature="0"
   id="path807"
   d="m 19900,3509 c 340,0 600,256 600,590 0,334 -260,590 -600,590 -340,0 -600,-256 -600,-590 0,-334 260,-590 600,-590 z m -600,0 z m 1201,1181 z" />
        <text
   id="text819"
   class="TextShape"><tspan
     style="font-weight:400;font-size:573px;font-family:'STIX Two Math'"
     id="tspan817"
     font-weight="400"
     font-size="573px"
     class="TextParagraph"><tspan
       id="tspan811"
       y="4364"
       x="19521"
       class="TextPosition"><tspan
         style="font-style:italic;font-size:988px;font-family:'STIX Two Text';fill:#fdf6e3;stroke:none"
         id="tspan809"
         font-style="italic"
         font-size="988px">a</tspan></tspan><tspan
       id="tspan815"
       y="4038"
       x="20046"
       class="TextPosition"><tspan
         style="fill:#fdf6e3;stroke:none"
         id="tspan813">*</tspan></tspan></tspan></text>

       </g>
      </g><g
   id="g860"
   class="com.sun.star.drawing.CustomShape"
   transform="translate(-1900,-1659)">
       <g
   id="id25">
        <rect
   style="fill:none;stroke:none"
   id="rect843"
   height="1289"
   width="1308"
   y="3455"
   x="11247"
   class="BoundingBox" />
        <path
   style="fill:none;stroke:#dc322f;stroke-width:106;stroke-linejoin:round"
   inkscape:connector-curvature="0"
   id="path845"
   d="m 11900,3509 c 340,0 600,256 600,590 0,334 -260,590 -600,590 -340,0 -600,-256 -600,-590 0,-334 260,-590 600,-590 z" />
        <text
   id="text857"
   class="TextShape"><tspan
     style="font-weight:400;font-size:368px;font-family:'STIX Two Math'"
     id="tspan855"
     font-weight="400"
     font-size="368px"
     class="TextParagraph"><tspan
       id="tspan849"
       y="4192"
       x="11389"
       class="TextPosition"><tspan
         style="font-style:italic;font-size:635px;font-family:'STIX Two Text';fill:#073642;stroke:none"
         id="tspan847"
         font-style="italic"
         font-size="635px">a</tspan></tspan><tspan
       id="tspan853"
       y="4402"
       x="11728"
       class="TextPosition"><tspan
         style="fill:#073642;stroke:none"
         id="tspan851">grab</tspan></tspan></tspan></text>

       </g>
      </g><g
   id="g886"
   class="Group"
   transform="translate(-1900,-1659)">
       <g
   id="g867"
   class="com.sun.star.drawing.CustomShape">
        <g
   id="id26">
         <rect
   style="fill:none;stroke:none"
   id="rect862"
   height="1268"
   width="1308"
   y="3486"
   x="7847"
   class="BoundingBox" />
         <path
   style="fill:none;stroke:#859900;stroke-width:106;stroke-linejoin:round"
   inkscape:connector-curvature="0"
   id="path864"
   d="m 8500,3539 c 340,0 600,251 600,580 0,329 -260,580 -600,580 -340,0 -600,-251 -600,-580 0,-329 260,-580 600,-580 z" />
        </g>
       </g>
       <g
   id="g884"
   class="com.sun.star.drawing.TextShape">
        <g
   id="id27">
         <rect
   style="fill:none;stroke:none"
   id="rect869"
   height="992"
   width="1054"
   y="3499"
   x="7974"
   class="BoundingBox" />
         <text
   id="text881"
   class="TextShape"><tspan
     style="font-weight:400;font-size:353px;font-family:'STIX Two Text'"
     id="tspan879"
     font-weight="400"
     font-size="353px"
     class="TextParagraph"><tspan
       id="tspan873"
       y="3984"
       x="8331"
       class="TextPosition"><tspan
         style="font-style:italic;font-size:635px;fill:#073642;stroke:none"
         id="tspan871"
         font-style="italic"
         font-size="635px">a</tspan></tspan><tspan
       id="tspan877"
       y="4403"
       x="7986"
       class="TextPosition"><tspan
         style="fill:#073642;stroke:none"
         id="tspan875">unlock</tspan></tspan></tspan></text>

        </g>
       </g>
      </g><g
   id="g899"
   class="com.sun.star.drawing.TextShape"
   transform="translate(-1476.6666,-1659)">
       <g
   id="id28">
        <rect
   style="fill:none;stroke:none"
   id="rect888"
   height="887"
   width="3492"
   y="5200"
   x="16700"
   class="BoundingBox" />
        <text
   id="text896"
   class="TextShape"><tspan
     style="font-weight:700;font-size:635px;font-family:'STIX Two Text'"
     id="tspan894"
     font-weight="700"
     font-size="635px"
     class="TextParagraph"><tspan
       id="tspan892"
       y="5808"
       x="16950"
       class="TextPosition"><tspan
         style="fill:#eee8d5;stroke:none"
         id="tspan890">domain.w</tspan></tspan></tspan></text>

       </g>
      </g>
<g
   id="g298"
   class="com.sun.star.drawing.ConnectorShape"
   transform="translate(-1900,-1659)">
       <g
   id="id3">
        <rect
   style="fill:none;stroke:none"
   id="rect291"
   height="2825"
   width="2449"
   y="4058"
   x="7102"
   class="BoundingBox" />
        <path
   style="fill:none;stroke:#657b83;stroke-width:81;stroke-linecap:round;stroke-linejoin:round"
   inkscape:connector-curvature="0"
   id="path293"
   d="m 7974,4491 c -183.6119,38.7233 -897.3513,1999.0389 1124,2181"
   sodipodi:nodetypes="cc" />
        <path
   style="fill:#657b83;stroke:none"
   inkscape:connector-curvature="0"
   id="path295"
   d="m 9105,6880 427,-169 12,-8 6,-12 -4,-14 -11,-9 -412,-204 -6,-3 h -3 l -9,2 -9,4 -5,7 -2,9 -16,375 1,9 5,9 9,4 8,2 h 4 z" />
       </g>
      </g><g
   id="g307"
   class="com.sun.star.drawing.ConnectorShape"
   transform="translate(-1900,-1659)">
       <g
   id="id4">
        <rect
   style="fill:none;stroke:none"
   id="rect300"
   height="1144"
   width="3513"
   y="4658"
   x="8459"
   class="BoundingBox" />
        <path
   style="fill:none;stroke:#657b83;stroke-width:81;stroke-linecap:round;stroke-linejoin:round"
   inkscape:connector-curvature="0"
   id="path302"
   d="m 8500,4699 c 0,1347 2687,1334 3284,393" />
        <path
   style="fill:#657b83;stroke:none"
   inkscape:connector-curvature="0"
   id="path304"
   d="m 11971,5168 -55,-456 -5,-14 -10,-9 -15,1 -12,8 -302,347 -3,4 -1,3 -1,9 2,10 5,7 8,4 359,111 9,1 10,-3 6,-7 4,-8 1,-3 z" />
       </g>
      </g><g
   id="g346"
   class="com.sun.star.drawing.ConnectorShape"
   transform="translate(-1900,-1659)">
       <g
   id="id5">
        <rect
   style="fill:none;stroke:none"
   id="rect309"
   height="1197"
   width="9042"
   y="2500"
   x="2447"
   class="BoundingBox" />
        <path
   style="fill:none;stroke:#839496;stroke-width:106;stroke-linecap:round;stroke-linejoin:round"
   inkscape:connector-curvature="0"
   id="path311"
   d="m 2500,3509 c 0,-34 5,-67 16,-99" />
        <path
   style="fill:none;stroke:#839496;stroke-width:106;stroke-linecap:round;stroke-linejoin:round"
   inkscape:connector-curvature="0"
   id="path313"
   d="m 2823,3094 c 29,-17 60,-33 92,-48" />
        <path
   style="fill:none;stroke:#839496;stroke-width:106;stroke-linecap:round;stroke-linejoin:round"
   inkscape:connector-curvature="0"
   id="path315"
   d="m 3353,2883 c 32,-9 64,-18 98,-27" />
        <path
   style="fill:none;stroke:#839496;stroke-width:106;stroke-linecap:round;stroke-linejoin:round"
   inkscape:connector-curvature="0"
   id="path317"
   d="m 3917,2753 c 34,-6 68,-12 102,-18" />
        <path
   style="fill:none;stroke:#839496;stroke-width:106;stroke-linecap:round;stroke-linejoin:round"
   inkscape:connector-curvature="0"
   id="path319"
   d="m 4459,2670 c 36,-4 71,-8 108,-13" />
        <path
   style="fill:none;stroke:#839496;stroke-width:106;stroke-linecap:round;stroke-linejoin:round"
   inkscape:connector-curvature="0"
   id="path321"
   d="m 5032,2612 c 34,-3 69,-6 103,-8" />
        <path
   style="fill:none;stroke:#839496;stroke-width:106;stroke-linecap:round;stroke-linejoin:round"
   inkscape:connector-curvature="0"
   id="path323"
   d="m 5590,2576 c 36,-2 71,-3 107,-5" />
        <path
   style="fill:none;stroke:#839496;stroke-width:106;stroke-linecap:round;stroke-linejoin:round"
   inkscape:connector-curvature="0"
   id="path325"
   d="m 6160,2557 c 35,0 70,-1 105,-1" />
        <path
   style="fill:none;stroke:#839496;stroke-width:106;stroke-linecap:round;stroke-linejoin:round"
   inkscape:connector-curvature="0"
   id="path327"
   d="m 6723,2554 c 35,0 71,1 106,1" />
        <path
   style="fill:none;stroke:#839496;stroke-width:106;stroke-linecap:round;stroke-linejoin:round"
   inkscape:connector-curvature="0"
   id="path329"
   d="m 7290,2566 c 36,1 71,2 107,4" />
        <path
   style="fill:none;stroke:#839496;stroke-width:106;stroke-linecap:round;stroke-linejoin:round"
   inkscape:connector-curvature="0"
   id="path331"
   d="m 7855,2592 c 35,2 70,4 105,6" />
        <path
   style="fill:none;stroke:#839496;stroke-width:106;stroke-linecap:round;stroke-linejoin:round"
   inkscape:connector-curvature="0"
   id="path333"
   d="m 8418,2633 c 37,4 73,7 109,10" />
        <path
   style="fill:none;stroke:#839496;stroke-width:106;stroke-linecap:round;stroke-linejoin:round"
   inkscape:connector-curvature="0"
   id="path335"
   d="m 8983,2693 c 35,4 69,8 103,13" />
        <path
   style="fill:none;stroke:#839496;stroke-width:106;stroke-linecap:round;stroke-linejoin:round"
   inkscape:connector-curvature="0"
   id="path337"
   d="m 9544,2772 c 36,6 72,13 108,19" />
        <path
   style="fill:none;stroke:#839496;stroke-width:106;stroke-linecap:round;stroke-linejoin:round"
   inkscape:connector-curvature="0"
   id="path339"
   d="m 10093,2878 c 32,7 64,15 96,22" />
        <path
   style="fill:none;stroke:#839496;stroke-width:106;stroke-linecap:round;stroke-linejoin:round"
   inkscape:connector-curvature="0"
   id="path341"
   d="m 10652,3029 c 33,11 65,22 96,34" />
        <path
   style="fill:#839496;stroke:none"
   inkscape:connector-curvature="0"
   id="path343"
   d="m 11016,2918 -5,-5 -5,-5 -16,-8 -18,-1 -17,5 -13,12 -6,10 -3,15 1,15 6,13 352,536 -542,-332 -16,-8 -18,-2 -17,6 -13,11 -9,16 -1,18 7,18 11,11 4,4 v -2 l 710,438 15,9 19,4 18,-4 14,-10 10,-15 3,-18 -4,-19 -10,-14 z" />
       </g>
      </g><g
   id="g355"
   class="com.sun.star.drawing.ConnectorShape"
   transform="translate(-1900,-1659)">
       <g
   id="id6">
        <rect
   style="fill:none;stroke:none"
   id="rect348"
   height="1094"
   width="3494"
   y="2457"
   x="8448"
   class="BoundingBox" />
        <path
   style="fill:none;stroke:#657b83;stroke-width:81;stroke-linecap:round;stroke-linejoin:round"
   inkscape:connector-curvature="0"
   id="path350"
   d="M 11900,3509 C 11900,2227 9255,2249 8631,3103" />
        <path
   style="fill:#657b83;stroke:none"
   inkscape:connector-curvature="0"
   id="path352"
   d="m 8448,3018 37,457 4,15 10,9 h 15 l 12,-8 316,-334 4,-5 1,-3 1,-9 -2,-9 -5,-8 -8,-4 -354,-125 -8,-2 -10,3 -7,7 -4,7 -1,3 z" />
       </g>
      </g><g
   id="g399"
   class="com.sun.star.drawing.ConnectorShape"
   transform="translate(-1900,-1659)">
       <g
   id="id8">
        <rect
   style="fill:none;stroke:none"
   id="rect392"
   height="1364"
   width="1325"
   y="6575"
   x="10109"
   class="BoundingBox" />
        <path
   style="fill:none;stroke:#657b83;stroke-width:81;stroke-linecap:round;stroke-linejoin:round"
   inkscape:connector-curvature="0"
   id="path394"
   d="m 10150,7280 c 0,831 807.62,860.7234 1165.62,505.7234 C 11673.62,7430.7234 11505,6943 11180,6772"
   sodipodi:nodetypes="czc" />
        <path
   style="fill:#657b83;stroke:none"
   inkscape:connector-curvature="0"
   id="path396"
   d="m 11220,6576 -448,96 -14,6 -8,11 2,15 9,11 373,269 5,3 3,1 h 9 l 9,-3 7,-6 4,-8 77,-367 v -9 l -3,-10 -8,-5 -8,-4 -3,-1 z" />
       </g>
      </g><g
   id="g746"
   class="com.sun.star.drawing.ConnectorShape"
   transform="translate(-1900,-1659)">
       <g
   id="id19">
        <rect
   style="fill:none;stroke:none"
   id="rect727"
   height="461"
   width="4854"
   y="3869"
   x="3047"
   class="BoundingBox" />
        <path
   style="fill:none;stroke:#839496;stroke-width:106;stroke-linecap:round;stroke-linejoin:round"
   inkscape:connector-curvature="0"
   id="path729"
   d="m 3100,4099 h 106" />
        <path
   style="fill:none;stroke:#839496;stroke-width:106;stroke-linecap:round;stroke-linejoin:round"
   inkscape:connector-curvature="0"
   id="path731"
   d="m 3663,4099 h 106" />
        <path
   style="fill:none;stroke:#839496;stroke-width:106;stroke-linecap:round;stroke-linejoin:round"
   inkscape:connector-curvature="0"
   id="path733"
   d="m 4226,4099 h 106" />
        <path
   style="fill:none;stroke:#839496;stroke-width:106;stroke-linecap:round;stroke-linejoin:round"
   inkscape:connector-curvature="0"
   id="path735"
   d="m 4789,4099 h 106" />
        <path
   style="fill:none;stroke:#839496;stroke-width:106;stroke-linecap:round;stroke-linejoin:round"
   inkscape:connector-curvature="0"
   id="path737"
   d="m 5352,4099 h 106" />
        <path
   style="fill:none;stroke:#839496;stroke-width:106;stroke-linecap:round;stroke-linejoin:round"
   inkscape:connector-curvature="0"
   id="path739"
   d="m 5915,4099 h 106" />
        <path
   style="fill:none;stroke:#839496;stroke-width:106;stroke-linecap:round;stroke-linejoin:round"
   inkscape:connector-curvature="0"
   id="path741"
   d="m 6478,4099 h 106" />
        <path
   style="fill:#839496;stroke:none"
   inkscape:connector-curvature="0"
   id="path743"
   d="m 7038,3870 h -7 -7 l -17,4 -14,13 -9,15 -2,18 4,12 8,12 11,10 14,6 627,140 -622,139 -17,5 -14,12 -9,16 -2,17 5,17 13,14 17,9 h 16 5 l -2,-2 817,-180 18,-4 16,-10 10,-16 3,-17 -3,-17 -10,-16 -16,-11 -18,-3 z" />
       </g>
      </g><g
   id="g775"
   class="com.sun.star.drawing.ConnectorShape"
   transform="translate(-1900,-1659)">
       <g
   id="id20">
        <rect
   style="fill:none;stroke:none"
   id="rect748"
   height="461"
   width="6854"
   y="3869"
   x="12447"
   class="BoundingBox" />
        <path
   style="fill:none;stroke:#839496;stroke-width:106;stroke-linecap:round;stroke-linejoin:round"
   inkscape:connector-curvature="0"
   id="path750"
   d="m 12500,4099 h 106" />
        <path
   style="fill:none;stroke:#839496;stroke-width:106;stroke-linecap:round;stroke-linejoin:round"
   inkscape:connector-curvature="0"
   id="path752"
   d="m 13063,4099 h 106" />
        <path
   style="fill:none;stroke:#839496;stroke-width:106;stroke-linecap:round;stroke-linejoin:round"
   inkscape:connector-curvature="0"
   id="path754"
   d="m 13626,4099 h 106" />
        <path
   style="fill:none;stroke:#839496;stroke-width:106;stroke-linecap:round;stroke-linejoin:round"
   inkscape:connector-curvature="0"
   id="path756"
   d="m 14189,4099 h 106" />
        <path
   style="fill:none;stroke:#839496;stroke-width:106;stroke-linecap:round;stroke-linejoin:round"
   inkscape:connector-curvature="0"
   id="path758"
   d="m 14752,4099 h 106" />
        <path
   style="fill:none;stroke:#839496;stroke-width:106;stroke-linecap:round;stroke-linejoin:round"
   inkscape:connector-curvature="0"
   id="path760"
   d="m 15315,4099 h 106" />
        <path
   style="fill:none;stroke:#839496;stroke-width:106;stroke-linecap:round;stroke-linejoin:round"
   inkscape:connector-curvature="0"
   id="path762"
   d="m 15878,4099 h 106" />
        <path
   style="fill:none;stroke:#839496;stroke-width:106;stroke-linecap:round;stroke-linejoin:round"
   inkscape:connector-curvature="0"
   id="path764"
   d="m 16441,4099 h 106" />
        <path
   style="fill:none;stroke:#839496;stroke-width:106;stroke-linecap:round;stroke-linejoin:round"
   inkscape:connector-curvature="0"
   id="path766"
   d="m 17004,4099 h 106" />
        <path
   style="fill:none;stroke:#839496;stroke-width:106;stroke-linecap:round;stroke-linejoin:round"
   inkscape:connector-curvature="0"
   id="path768"
   d="m 17567,4099 h 106" />
        <path
   style="fill:none;stroke:#839496;stroke-width:106;stroke-linecap:round;stroke-linejoin:round"
   inkscape:connector-curvature="0"
   id="path770"
   d="m 18130,4099 h 106" />
        <path
   style="fill:#839496;stroke:none"
   inkscape:connector-curvature="0"
   id="path772"
   d="m 18438,3870 h -7 -7 l -17,4 -14,13 -9,15 -2,18 4,12 8,12 11,10 14,6 627,140 -622,139 -17,5 -14,12 -9,16 -2,17 5,17 13,14 17,9 h 16 5 l -2,-2 817,-180 18,-4 16,-10 10,-16 3,-17 -3,-17 -10,-16 -16,-11 -18,-3 z" />
       </g>
      </g><g
   id="g784"
   class="com.sun.star.drawing.ConnectorShape"
   transform="translate(-1900,-1659)">
       <g
   id="id21">
        <rect
   style="fill:none;stroke:none"
   id="rect777"
   height="1797"
   width="1969"
   y="4517"
   x="10534"
   class="BoundingBox" />
        <path
   style="fill:none;stroke:#657b83;stroke-width:80.98896027;stroke-linecap:round;stroke-linejoin:round;stroke-miterlimit:4;stroke-dasharray:none"
   inkscape:connector-curvature="0"
   id="path779"
   d="m 10575,6272 c 580.944,-96.365 1699.987,-419.3765 1718,-1313"
   sodipodi:nodetypes="cc" />
        <path
   style="fill:#657b83;stroke:none"
   inkscape:connector-curvature="0"
   id="path781"
   d="m 12500,4968 -154,-432 -8,-13 -12,-6 -14,4 -10,10 -218,405 -3,5 v 4 l 2,9 4,9 7,6 8,2 374,29 9,-1 9,-5 5,-9 2,-8 v -3 z" />
       </g>
      </g></svg>
