<?xml version="1.0" encoding="UTF-8" standalone="no"?>
<!-- Created with Inkscape (http://www.inkscape.org/) -->

<svg
   xmlns:dc="http://purl.org/dc/elements/1.1/"
   xmlns:cc="http://creativecommons.org/ns#"
   xmlns:rdf="http://www.w3.org/1999/02/22-rdf-syntax-ns#"
   xmlns:svg="http://www.w3.org/2000/svg"
   xmlns="http://www.w3.org/2000/svg"
   xmlns:sodipodi="http://sodipodi.sourceforge.net/DTD/sodipodi-0.dtd"
   xmlns:inkscape="http://www.inkscape.org/namespaces/inkscape"
   version="1.1"
   id="svg2"
   xml:space="preserve"
   width="398.66666"
   height="194.13333"
   viewBox="0 0 398.66665 194.13333"
   sodipodi:docname="quotienning.svg"
   inkscape:version="0.92.3 (2405546, 2018-03-11)"><metadata
     id="metadata8"><rdf:RDF><cc:Work
         rdf:about=""><dc:format>image/svg+xml</dc:format><dc:type
           rdf:resource="http://purl.org/dc/dcmitype/StillImage" /><dc:title></dc:title></cc:Work></rdf:RDF></metadata><defs
     id="defs6"><clipPath
       clipPathUnits="userSpaceOnUse"
       id="clipPath18"><path
         d="M 0,0 H 595.2 V 841.8 H 0 Z"
         id="path16"
         inkscape:connector-curvature="0"
         style="clip-rule:evenodd" /></clipPath></defs><sodipodi:namedview
     pagecolor="#ffffff"
     bordercolor="#666666"
     borderopacity="1"
     objecttolerance="10"
     gridtolerance="10"
     guidetolerance="10"
     inkscape:pageopacity="0"
     inkscape:pageshadow="2"
     inkscape:window-width="1920"
     inkscape:window-height="1017"
     id="namedview4"
     showgrid="false"
     fit-margin-top="16"
     fit-margin-left="16"
     fit-margin-right="16"
     fit-margin-bottom="16"
     inkscape:zoom="1.681987"
     inkscape:cx="224.5613"
     inkscape:cy="70.653391"
     inkscape:window-x="0"
     inkscape:window-y="30"
     inkscape:window-maximized="1"
     inkscape:current-layer="g14" /><g
     id="g10"
     inkscape:groupmode="layer"
     inkscape:label="quotienning"
     transform="matrix(1.3333333,0,0,-1.3333333,-44.399998,1081.3333)"><g
       id="g12"><g
         id="g14"
         clip-path="url(#clipPath18)"><path
           d="m 95,787.9 c 10.4,0 18.4,-21.4 18.4,-49.6 0,-28.1 -8,-49.6 -18.4,-49.6 -10.5,0 -18.5,21.5 -18.5,49.6 0,28.2 8,49.6 18.5,49.6 z m -18.5,0 z m 36.9,-99.2 z"
           style="fill:#fdf6e3;fill-opacity:1;fill-rule:evenodd;stroke:none"
           id="path22"
           inkscape:connector-curvature="0" /><g
           id="g24"><path
             d="m 94.4,787.9 c 0.2,0 0.4,0 0.6,0 1.9,0 3.7,-0.7 5.4,-2"
             style="fill:none;stroke:#eee8d5;stroke-width:2.99979997;stroke-linecap:round;stroke-linejoin:round;stroke-miterlimit:10;stroke-dasharray:none;stroke-opacity:1"
             id="path26"
             inkscape:connector-curvature="0" /></g><g
           id="g28"><path
             d="m 104.3,781.5 c 1,-1.5 1.9,-3.3 2.7,-5.2"
             style="fill:none;stroke:#eee8d5;stroke-width:2.99979997;stroke-linecap:round;stroke-linejoin:round;stroke-miterlimit:10;stroke-dasharray:none;stroke-opacity:1"
             id="path30"
             inkscape:connector-curvature="0" /></g><g
           id="g32"><path
             d="m 109.1,770.7 c 0.6,-1.8 1.1,-3.7 1.5,-5.7"
             style="fill:none;stroke:#eee8d5;stroke-width:2.99979997;stroke-linecap:round;stroke-linejoin:round;stroke-miterlimit:10;stroke-dasharray:none;stroke-opacity:1"
             id="path34"
             inkscape:connector-curvature="0" /></g><g
           id="g36"><path
             d="m 111.8,759.2 c 0.3,-1.9 0.6,-3.9 0.8,-5.9"
             style="fill:none;stroke:#eee8d5;stroke-width:2.99979997;stroke-linecap:round;stroke-linejoin:round;stroke-miterlimit:10;stroke-dasharray:none;stroke-opacity:1"
             id="path38"
             inkscape:connector-curvature="0" /></g><g
           id="g40"><path
             d="m 113.1,747.4 c 0.1,-1.9 0.2,-3.9 0.3,-5.9"
             style="fill:none;stroke:#eee8d5;stroke-width:2.99979997;stroke-linecap:round;stroke-linejoin:round;stroke-miterlimit:10;stroke-dasharray:none;stroke-opacity:1"
             id="path42"
             inkscape:connector-curvature="0" /></g><g
           id="g44"><path
             d="m 113.4,735.5 c -0.1,-2 -0.2,-4 -0.3,-5.9"
             style="fill:none;stroke:#eee8d5;stroke-width:2.99979997;stroke-linecap:round;stroke-linejoin:round;stroke-miterlimit:10;stroke-dasharray:none;stroke-opacity:1"
             id="path46"
             inkscape:connector-curvature="0" /></g><g
           id="g48"><path
             d="m 112.6,723.7 c -0.2,-2.1 -0.5,-4 -0.8,-5.9"
             style="fill:none;stroke:#eee8d5;stroke-width:2.99979997;stroke-linecap:round;stroke-linejoin:round;stroke-miterlimit:10;stroke-dasharray:none;stroke-opacity:1"
             id="path50"
             inkscape:connector-curvature="0" /></g><g
           id="g52"><path
             d="m 110.7,711.9 c -0.5,-2 -1,-3.9 -1.5,-5.7"
             style="fill:none;stroke:#eee8d5;stroke-width:2.99979997;stroke-linecap:round;stroke-linejoin:round;stroke-miterlimit:10;stroke-dasharray:none;stroke-opacity:1"
             id="path54"
             inkscape:connector-curvature="0" /></g><g
           id="g56"><path
             d="m 107.1,700.7 c -0.8,-2 -1.7,-3.8 -2.7,-5.3"
             style="fill:none;stroke:#eee8d5;stroke-width:2.99979997;stroke-linecap:round;stroke-linejoin:round;stroke-miterlimit:10;stroke-dasharray:none;stroke-opacity:1"
             id="path58"
             inkscape:connector-curvature="0" /></g><g
           id="g60"><path
             d="m 100.6,691 c -1.7,-1.4 -3.5,-2.2 -5.4,-2.3"
             style="fill:none;stroke:#eee8d5;stroke-width:2.99979997;stroke-linecap:round;stroke-linejoin:round;stroke-miterlimit:10;stroke-dasharray:none;stroke-opacity:1"
             id="path62"
             inkscape:connector-curvature="0" /></g><g
           id="g64"><path
             d="m 89.8,690.6 c -1.4,1 -2.8,2.5 -4,4.4"
             style="fill:none;stroke:#eee8d5;stroke-width:2.99979997;stroke-linecap:round;stroke-linejoin:round;stroke-miterlimit:10;stroke-dasharray:none;stroke-opacity:1"
             id="path66"
             inkscape:connector-curvature="0" /></g><g
           id="g68"><path
             d="m 83,700.2 c -0.8,1.6 -1.4,3.5 -2.1,5.5"
             style="fill:none;stroke:#eee8d5;stroke-width:2.99979997;stroke-linecap:round;stroke-linejoin:round;stroke-miterlimit:10;stroke-dasharray:none;stroke-opacity:1"
             id="path70"
             inkscape:connector-curvature="0" /></g><g
           id="g72"><path
             d="m 79.3,711.4 c -0.4,1.8 -0.8,3.8 -1.1,5.8"
             style="fill:none;stroke:#eee8d5;stroke-width:2.99979997;stroke-linecap:round;stroke-linejoin:round;stroke-miterlimit:10;stroke-dasharray:none;stroke-opacity:1"
             id="path74"
             inkscape:connector-curvature="0" /></g><g
           id="g76"><path
             d="M 77.4,723.1 C 77.2,725 77,727 76.8,729"
             style="fill:none;stroke:#eee8d5;stroke-width:2.99979997;stroke-linecap:round;stroke-linejoin:round;stroke-miterlimit:10;stroke-dasharray:none;stroke-opacity:1"
             id="path78"
             inkscape:connector-curvature="0" /></g><g
           id="g80"><path
             d="m 76.6,734.9 c -0.1,1.1 -0.1,2.3 -0.1,3.4 0,0.9 0,1.8 0.1,2.6"
             style="fill:none;stroke:#eee8d5;stroke-width:2.99979997;stroke-linecap:round;stroke-linejoin:round;stroke-miterlimit:10;stroke-dasharray:none;stroke-opacity:1"
             id="path82"
             inkscape:connector-curvature="0" /></g><g
           id="g84"><path
             d="m 76.8,746.8 c 0.1,2 0.3,4 0.5,5.9"
             style="fill:none;stroke:#eee8d5;stroke-width:2.99979997;stroke-linecap:round;stroke-linejoin:round;stroke-miterlimit:10;stroke-dasharray:none;stroke-opacity:1"
             id="path86"
             inkscape:connector-curvature="0" /></g><g
           id="g88"><path
             d="m 78.1,758.6 c 0.3,2 0.6,4 1.1,5.8"
             style="fill:none;stroke:#eee8d5;stroke-width:2.99979997;stroke-linecap:round;stroke-linejoin:round;stroke-miterlimit:10;stroke-dasharray:none;stroke-opacity:1"
             id="path90"
             inkscape:connector-curvature="0" /></g><g
           id="g92"><path
             d="m 80.6,770.2 c 0.7,2 1.3,3.9 2.1,5.6"
             style="fill:none;stroke:#eee8d5;stroke-width:2.99979997;stroke-linecap:round;stroke-linejoin:round;stroke-miterlimit:10;stroke-dasharray:none;stroke-opacity:1"
             id="path94"
             inkscape:connector-curvature="0" /></g><g
           id="g96"><path
             d="m 85.4,781 c 1.1,1.9 2.4,3.4 3.7,4.5"
             style="fill:none;stroke:#eee8d5;stroke-width:2.99979997;stroke-linecap:round;stroke-linejoin:round;stroke-miterlimit:10;stroke-dasharray:none;stroke-opacity:1"
             id="path98"
             inkscape:connector-curvature="0" /></g><g
           id="g100"><path
             d="m 75.1,774.5 -7.8,5.6"
             style="fill:none;stroke:#657b83;stroke-width:2.99979997;stroke-linecap:round;stroke-linejoin:round;stroke-miterlimit:10;stroke-dasharray:none;stroke-opacity:1"
             id="path102"
             inkscape:connector-curvature="0" /></g><path
           d="m 72.3,770.4 10.8,-2.2 h 0.4 l 0.3,0.1 0.1,0.4 -0.1,0.3 -5.7,9.6 -0.1,0.1 v 0 l -0.2,0.1 h -0.3 -0.2 l -0.1,-0.2 -5.3,-7.4 -0.1,-0.2 v -0.2 l 0.1,-0.2 0.2,-0.1 v -0.1 z"
           style="fill:#657b83;fill-opacity:1;fill-rule:evenodd;stroke:none"
           id="path104"
           inkscape:connector-curvature="0" /><g
           id="g106"><path
             d="m 95,755.6 v 1.7"
             style="fill:none;stroke:#657b83;stroke-width:2.99979997;stroke-linecap:round;stroke-linejoin:round;stroke-miterlimit:10;stroke-dasharray:none;stroke-opacity:1"
             id="path108"
             inkscape:connector-curvature="0" /></g><path
           d="m 89.9,755.5 4.5,-10.2 0.2,-0.3 0.3,-0.1 0.4,0.1 0.2,0.3 4.5,10.2 0.1,0.1 v 0.1 l -0.1,0.2 -0.1,0.2 -0.2,0.1 -0.2,0.1 h -9.1 l -0.2,-0.1 -0.2,-0.1 -0.1,-0.2 v -0.2 -0.1 z"
           style="fill:#657b83;fill-opacity:1;fill-rule:evenodd;stroke:none"
           id="path110"
           inkscape:connector-curvature="0" /><g
           id="g112"><path
             d="m 113.9,773.7 -7.7,-5.3"
             style="fill:none;stroke:#657b83;stroke-width:2.99979997;stroke-linecap:round;stroke-linejoin:round;stroke-miterlimit:10;stroke-dasharray:none;stroke-opacity:1"
             id="path114"
             inkscape:connector-curvature="0" /></g><path
           d="m 116.9,769.7 5.7,9.5 0.1,0.3 v 0.3 l -0.4,0.2 -0.3,0.1 -10.9,-2.2 h -0.2 v 0 l -0.2,-0.2 -0.1,-0.2 v -0.2 l 0.1,-0.2 5.2,-7.5 0.2,-0.1 0.2,-0.1 h 0.2 l 0.2,0.1 h 0.1 z"
           style="fill:#657b83;fill-opacity:1;fill-rule:evenodd;stroke:none"
           id="path116"
           inkscape:connector-curvature="0" /><g
           id="g118"><path
             d="M 73.1,733.8 H 67.7"
             style="fill:none;stroke:#657b83;stroke-width:2.99979997;stroke-linecap:round;stroke-linejoin:round;stroke-miterlimit:10;stroke-dasharray:none;stroke-opacity:1"
             id="path120"
             inkscape:connector-curvature="0" /></g><path
           d="m 73.2,728.8 10.2,4.5 0.3,0.2 0.1,0.3 -0.1,0.3 -0.3,0.3 -10.2,4.5 H 73.1 73 72.8 l -0.2,-0.2 -0.1,-0.1 v -0.2 -9.1 -0.2 l 0.1,-0.2 0.2,-0.1 0.2,-0.1 h 0.1 z"
           style="fill:#657b83;fill-opacity:1;fill-rule:evenodd;stroke:none"
           id="path122"
           inkscape:connector-curvature="0" /><g
           id="g124"><path
             d="m 111.5,734 -5.3,-0.2"
             style="fill:none;stroke:#657b83;stroke-width:2.99979997;stroke-linecap:round;stroke-linejoin:round;stroke-miterlimit:10;stroke-dasharray:none;stroke-opacity:1"
             id="path126"
             inkscape:connector-curvature="0" /></g><path
           d="m 111.8,729 10,4.8 0.3,0.2 0.1,0.3 -0.1,0.4 -0.3,0.1 -10.3,4.2 -0.1,0.1 h -0.1 l -0.2,-0.1 -0.2,-0.1 -0.2,-0.2 v -0.2 l 0.3,-9.1 v -0.2 l 0.2,-0.2 h 0.2 l 0.2,-0.1 h 0.1 z"
           style="fill:#657b83;fill-opacity:1;fill-rule:evenodd;stroke:none"
           id="path128"
           inkscape:connector-curvature="0" /><g
           id="g130"><path
             d="m 76.6,703.3 -6.5,-7"
             style="fill:none;stroke:#657b83;stroke-width:2.99979997;stroke-linecap:round;stroke-linejoin:round;stroke-miterlimit:10;stroke-dasharray:none;stroke-opacity:1"
             id="path132"
             inkscape:connector-curvature="0" /></g><path
           d="m 80.4,700 3.5,10.5 v 0.3 l -0.1,0.3 -0.3,0.2 -0.4,-0.1 -10.2,-4.4 h -0.1 v -0.1 l -0.1,-0.2 -0.1,-0.2 V 706 l 0.2,-0.1 6.6,-6.2 0.2,-0.1 h 0.3 l 0.2,0.1 0.1,0.1 h 0.1 z"
           style="fill:#657b83;fill-opacity:1;fill-rule:evenodd;stroke:none"
           id="path134"
           inkscape:connector-curvature="0" /><g
           id="g136"><path
             d="m 112.3,704.3 -6.1,6.9"
             style="fill:none;stroke:#657b83;stroke-width:2.99979997;stroke-linecap:round;stroke-linejoin:round;stroke-miterlimit:10;stroke-dasharray:none;stroke-opacity:1"
             id="path138"
             inkscape:connector-curvature="0" /></g><path
           d="m 108.7,700.8 10.1,-4.5 0.4,-0.1 0.3,0.1 0.1,0.3 v 0.3 l -3.4,10.7 -0.1,0.1 v 0 l -0.2,0.2 h -0.2 -0.2 l -0.2,-0.1 -6.8,-6.1 -0.1,-0.1 -0.1,-0.3 0.1,-0.2 0.1,-0.2 h 0.1 z"
           style="fill:#657b83;fill-opacity:1;fill-rule:evenodd;stroke:none"
           id="path140"
           inkscape:connector-curvature="0" /><path
           d="m 59.3,799 c 6.4,0 11.2,-4.8 11.2,-11.1 0,-6.2 -4.8,-11 -11.2,-11 -6.3,0 -11.1,4.8 -11.1,11 0,6.3 4.8,11.1 11.1,11.1 z m -11.1,0 z m 22.4,-22.2 z"
           style="fill:#657b83;fill-opacity:1;fill-rule:evenodd;stroke:none"
           id="path142"
           inkscape:connector-curvature="0" /><g
           id="g144"><text
             transform="matrix(1,0,0,-1,52.9,785.3)"
             style="font-style:italic;font-variant:normal;font-weight:normal;font-size:18px;font-family:'STIX Two Text';-inkscape-font-specification:STIXTwoTextItalic;writing-mode:lr-tb;fill:#fdf6e3;fill-opacity:1;fill-rule:nonzero;stroke:none"
             id="text148"><tspan
               x="0"
               y="0"
               id="tspan146">v</tspan></text>
</g><g
           id="g150"><text
             transform="matrix(1,0,0,-1,60.6,779.4)"
             style="font-variant:normal;font-weight:normal;font-size:10.39999962px;font-family:'STIX Two Math';-inkscape-font-specification:STIXTwoMath;writing-mode:lr-tb;fill:#fdf6e3;fill-opacity:1;fill-rule:nonzero;stroke:none"
             id="text154"><tspan
               x="0"
               y="0"
               id="tspan152">1</tspan></text>
</g><path
           d="m 94.9,779.4 c 6.4,0 11.2,-4.8 11.2,-11 0,-6.3 -4.8,-11.1 -11.2,-11.1 -6.3,0 -11.1,4.8 -11.1,11.1 0,6.2 4.8,11 11.1,11 z m -11.1,0 z m 22.4,-22.2 z"
           style="fill:#268bd2;fill-opacity:1;fill-rule:evenodd;stroke:none"
           id="path156"
           inkscape:connector-curvature="0" /><g
           id="g158"><text
             transform="matrix(1,0,0,-1,88.5,765.7)"
             style="font-style:italic;font-variant:normal;font-weight:normal;font-size:18px;font-family:'STIX Two Text';-inkscape-font-specification:STIXTwoTextItalic;writing-mode:lr-tb;fill:#fdf6e3;fill-opacity:1;fill-rule:nonzero;stroke:none"
             id="text162"><tspan
               x="0"
               y="0"
               id="tspan160">v</tspan></text>
</g><g
           id="g164"><text
             transform="matrix(1,0,0,-1,96.2,759.8)"
             style="font-variant:normal;font-weight:normal;font-size:10.39999962px;font-family:'STIX Two Math';-inkscape-font-specification:STIXTwoMath;writing-mode:lr-tb;fill:#fdf6e3;fill-opacity:1;fill-rule:nonzero;stroke:none"
             id="text168"><tspan
               x="0"
               y="0"
               id="tspan166">2</tspan></text>
</g><path
           d="m 130.5,798.8 c 6.3,0 11.2,-4.8 11.2,-11.1 0,-6.3 -4.9,-11.1 -11.2,-11.1 -6.3,0 -11.2,4.8 -11.2,11.1 0,6.3 4.9,11.1 11.2,11.1 z m -11.2,0 z m 22.4,-22.2 z"
           style="fill:#657b83;fill-opacity:1;fill-rule:evenodd;stroke:none"
           id="path170"
           inkscape:connector-curvature="0" /><g
           id="g172"><text
             transform="matrix(1,0,0,-1,124.1,785.1)"
             style="font-style:italic;font-variant:normal;font-weight:normal;font-size:18px;font-family:'STIX Two Text';-inkscape-font-specification:STIXTwoTextItalic;writing-mode:lr-tb;fill:#fdf6e3;fill-opacity:1;fill-rule:nonzero;stroke:none"
             id="text176"><tspan
               x="0"
               y="0"
               id="tspan174">v</tspan></text>
</g><g
           id="g178"><text
             transform="matrix(1,0,0,-1,131.8,779.1)"
             style="font-variant:normal;font-weight:normal;font-size:10.39999962px;font-family:'STIX Two Math';-inkscape-font-specification:STIXTwoMath;writing-mode:lr-tb;fill:#fdf6e3;fill-opacity:1;fill-rule:nonzero;stroke:none"
             id="text182"><tspan
               x="0"
               y="0"
               id="tspan180">3</tspan></text>
</g><path
           d="m 56.5,744.9 c 6.3,0 11.2,-4.8 11.2,-11.1 0,-6.2 -4.9,-11.1 -11.2,-11.1 -6.3,0 -11.2,4.9 -11.2,11.1 0,6.3 4.9,11.1 11.2,11.1 z m -11.2,0 z m 22.4,-22.2 z"
           style="fill:#657b83;fill-opacity:1;fill-rule:evenodd;stroke:none"
           id="path184"
           inkscape:connector-curvature="0" /><g
           id="g186"><text
             transform="matrix(1,0,0,-1,50.1,731.2)"
             style="font-style:italic;font-variant:normal;font-weight:normal;font-size:18px;font-family:'STIX Two Text';-inkscape-font-specification:STIXTwoTextItalic;writing-mode:lr-tb;fill:#fdf6e3;fill-opacity:1;fill-rule:nonzero;stroke:none"
             id="text190"><tspan
               x="0"
               y="0"
               id="tspan188">v</tspan></text>
</g><g
           id="g192"><text
             transform="matrix(1,0,0,-1,57.8,725.2)"
             style="font-variant:normal;font-weight:normal;font-size:10.39999962px;font-family:'STIX Two Math';-inkscape-font-specification:STIXTwoMath;writing-mode:lr-tb;fill:#fdf6e3;fill-opacity:1;fill-rule:nonzero;stroke:none"
             id="text196"><tspan
               x="0"
               y="0"
               id="tspan194">4</tspan></text>
</g><path
           d="m 94.9,744.9 c 6.4,0 11.2,-4.8 11.2,-11.1 0,-6.2 -4.8,-11.1 -11.2,-11.1 -6.3,0 -11.1,4.9 -11.1,11.1 0,6.3 4.8,11.1 11.1,11.1 z m -11.1,0 z m 22.4,-22.2 z"
           style="fill:#268bd2;fill-opacity:1;fill-rule:evenodd;stroke:none"
           id="path198"
           inkscape:connector-curvature="0" /><g
           id="g200"><text
             transform="matrix(1,0,0,-1,88.5,731.2)"
             style="font-style:italic;font-variant:normal;font-weight:normal;font-size:18px;font-family:'STIX Two Text';-inkscape-font-specification:STIXTwoTextItalic;writing-mode:lr-tb;fill:#fdf6e3;fill-opacity:1;fill-rule:nonzero;stroke:none"
             id="text204"><tspan
               x="0"
               y="0"
               id="tspan202">v</tspan></text>
</g><g
           id="g206"><text
             transform="matrix(1,0,0,-1,96.2,725.2)"
             style="font-variant:normal;font-weight:normal;font-size:10.39999962px;font-family:'STIX Two Math';-inkscape-font-specification:STIXTwoMath;writing-mode:lr-tb;fill:#fdf6e3;fill-opacity:1;fill-rule:nonzero;stroke:none"
             id="text210"><tspan
               x="0"
               y="0"
               id="tspan208">5</tspan></text>
</g><path
           d="m 133.3,745.4 c 6.4,0 11.2,-4.8 11.2,-11.1 0,-6.2 -4.8,-11 -11.2,-11 -6.3,0 -11.1,4.8 -11.1,11 0,6.3 4.8,11.1 11.1,11.1 z m -11.1,0 z m 22.4,-22.2 z"
           style="fill:#657b83;fill-opacity:1;fill-rule:evenodd;stroke:none"
           id="path212"
           inkscape:connector-curvature="0" /><g
           id="g214"><text
             transform="matrix(1,0,0,-1,126.9,731.7)"
             style="font-style:italic;font-variant:normal;font-weight:normal;font-size:18px;font-family:'STIX Two Text';-inkscape-font-specification:STIXTwoTextItalic;writing-mode:lr-tb;fill:#fdf6e3;fill-opacity:1;fill-rule:nonzero;stroke:none"
             id="text218"><tspan
               x="0"
               y="0"
               id="tspan216">v</tspan></text>
</g><g
           id="g220"><text
             transform="matrix(1,0,0,-1,134.6,725.7)"
             style="font-variant:normal;font-weight:normal;font-size:10.39999962px;font-family:'STIX Two Math';-inkscape-font-specification:STIXTwoMath;writing-mode:lr-tb;fill:#fdf6e3;fill-opacity:1;fill-rule:nonzero;stroke:none"
             id="text224"><tspan
               x="0"
               y="0"
               id="tspan222">6</tspan></text>
</g><path
           d="m 62.2,699.6 c 6.3,0 11.1,-4.9 11.1,-11.1 0,-6.3 -4.8,-11.1 -11.1,-11.1 -6.4,0 -11.2,4.8 -11.2,11.1 0,6.2 4.8,11.1 11.2,11.1 z m -11.2,0 z m 22.4,-22.2 z"
           style="fill:#657b83;fill-opacity:1;fill-rule:evenodd;stroke:none"
           id="path226"
           inkscape:connector-curvature="0" /><g
           id="g228"><text
             transform="matrix(1,0,0,-1,55.8,685.8)"
             style="font-style:italic;font-variant:normal;font-weight:normal;font-size:18px;font-family:'STIX Two Text';-inkscape-font-specification:STIXTwoTextItalic;writing-mode:lr-tb;fill:#fdf6e3;fill-opacity:1;fill-rule:nonzero;stroke:none"
             id="text232"><tspan
               x="0"
               y="0"
               id="tspan230">v</tspan></text>
</g><g
           id="g234"><text
             transform="matrix(1,0,0,-1,63.4,679.9)"
             style="font-variant:normal;font-weight:normal;font-size:10.39999962px;font-family:'STIX Two Math';-inkscape-font-specification:STIXTwoMath;writing-mode:lr-tb;fill:#fdf6e3;fill-opacity:1;fill-rule:nonzero;stroke:none"
             id="text238"><tspan
               x="0"
               y="0"
               id="tspan236">7</tspan></text>
</g><path
           d="m 94.9,722.2 c 6.4,0 11.2,-4.8 11.2,-11 0,-6.3 -4.8,-11.1 -11.2,-11.1 -6.3,0 -11.1,4.8 -11.1,11.1 0,6.2 4.8,11 11.1,11 z m -11.1,0 z M 106.2,700 Z"
           style="fill:#268bd2;fill-opacity:1;fill-rule:evenodd;stroke:none"
           id="path240"
           inkscape:connector-curvature="0" /><g
           id="g242"><text
             transform="matrix(1,0,0,-1,88.5,708.5)"
             style="font-style:italic;font-variant:normal;font-weight:normal;font-size:18px;font-family:'STIX Two Text';-inkscape-font-specification:STIXTwoTextItalic;writing-mode:lr-tb;fill:#fdf6e3;fill-opacity:1;fill-rule:nonzero;stroke:none"
             id="text246"><tspan
               x="0"
               y="0"
               id="tspan244">v</tspan></text>
</g><g
           id="g248"><text
             transform="matrix(1,0,0,-1,96.2,702.6)"
             style="font-variant:normal;font-weight:normal;font-size:10.39999962px;font-family:'STIX Two Math';-inkscape-font-specification:STIXTwoMath;writing-mode:lr-tb;fill:#fdf6e3;fill-opacity:1;fill-rule:nonzero;stroke:none"
             id="text252"><tspan
               x="0"
               y="0"
               id="tspan250">8</tspan></text>
</g><path
           d="m 127.4,699.6 c 6.3,0 11.1,-4.9 11.1,-11.1 0,-6.3 -4.8,-11.1 -11.1,-11.1 -6.4,0 -11.2,4.8 -11.2,11.1 0,6.2 4.8,11.1 11.2,11.1 z m -11.2,0 z m 22.4,-22.2 z"
           style="fill:#657b83;fill-opacity:1;fill-rule:evenodd;stroke:none"
           id="path254"
           inkscape:connector-curvature="0" /><g
           id="g256"><text
             transform="matrix(1,0,0,-1,121,685.8)"
             style="font-style:italic;font-variant:normal;font-weight:normal;font-size:18px;font-family:'STIX Two Text';-inkscape-font-specification:STIXTwoTextItalic;writing-mode:lr-tb;fill:#fdf6e3;fill-opacity:1;fill-rule:nonzero;stroke:none"
             id="text260"><tspan
               x="0"
               y="0"
               id="tspan258">v</tspan></text>
</g><g
           id="g262"><text
             transform="matrix(1,0,0,-1,128.6,679.9)"
             style="font-variant:normal;font-weight:normal;font-size:10.39999962px;font-family:'STIX Two Math';-inkscape-font-specification:STIXTwoMath;writing-mode:lr-tb;fill:#fdf6e3;fill-opacity:1;fill-rule:nonzero;stroke:none"
             id="text266"><tspan
               x="0"
               y="0"
               id="tspan264">7</tspan></text>
</g><g
           id="g268"><path
             d="M 253.9,747.5 243,754.6"
             style="fill:none;stroke:#657b83;stroke-width:2.99979997;stroke-linecap:round;stroke-linejoin:round;stroke-miterlimit:10;stroke-dasharray:none;stroke-opacity:1"
             id="path270"
             inkscape:connector-curvature="0" /></g><path
           d="m 251.2,743.2 10.9,-1.7 h 0.4 l 0.3,0.2 0.1,0.3 -0.1,0.3 -6.1,9.4 -0.1,0.1 v 0 l -0.2,0.1 h -0.3 l -0.2,-0.1 -0.1,-0.1 -5,-7.6 -0.1,-0.2 v -0.3 l 0.2,-0.2 0.1,-0.1 h 0.1 z"
           style="fill:#657b83;fill-opacity:1;fill-rule:evenodd;stroke:none"
           id="path272"
           inkscape:connector-curvature="0" /><g
           id="g274"><path
             d="m 289.4,748.6 -10.8,-6.9"
             style="fill:none;stroke:#657b83;stroke-width:2.99979997;stroke-linecap:round;stroke-linejoin:round;stroke-miterlimit:10;stroke-dasharray:none;stroke-opacity:1"
             id="path276"
             inkscape:connector-curvature="0" /></g><path
           d="m 292.2,744.4 6.1,9.2 0.1,0.4 v 0.3 l -0.3,0.2 h -0.3 l -11,-1.6 -0.2,-0.1 v 0 l -0.2,-0.1 -0.1,-0.3 v -0.2 l 0.1,-0.2 4.9,-7.6 0.1,-0.2 0.2,-0.1 h 0.3 l 0.2,0.1 v 0.1 z"
           style="fill:#657b83;fill-opacity:1;fill-rule:evenodd;stroke:none"
           id="path278"
           inkscape:connector-curvature="0" /><g
           id="g280"><path
             d="m 248.9,733.8 h -5.4"
             style="fill:none;stroke:#657b83;stroke-width:2.99979997;stroke-linecap:round;stroke-linejoin:round;stroke-miterlimit:10;stroke-dasharray:none;stroke-opacity:1"
             id="path282"
             inkscape:connector-curvature="0" /></g><path
           d="m 249,728.8 10.1,4.5 0.3,0.2 0.1,0.3 -0.1,0.3 -0.2,0.3 -10.2,4.5 h -0.1 -0.1 -0.2 l -0.2,-0.2 -0.2,-0.1 v -0.2 -9.1 -0.2 l 0.2,-0.2 0.2,-0.1 0.2,-0.1 h 0.1 z"
           style="fill:#657b83;fill-opacity:1;fill-rule:evenodd;stroke:none"
           id="path284"
           inkscape:connector-curvature="0" /><g
           id="g286"><path
             d="m 287.3,734 -5.4,-0.2"
             style="fill:none;stroke:#657b83;stroke-width:2.99979997;stroke-linecap:round;stroke-linejoin:round;stroke-miterlimit:10;stroke-dasharray:none;stroke-opacity:1"
             id="path288"
             inkscape:connector-curvature="0" /></g><path
           d="m 287.6,729 10,4.8 0.2,0.2 0.1,0.3 -0.1,0.4 -0.2,0.1 -10.4,4.2 -0.1,0.1 H 287 l -0.2,-0.1 -0.2,-0.1 -0.1,-0.2 v -0.2 l 0.3,-9.1 v -0.2 l 0.1,-0.2 h 0.2 l 0.2,-0.1 h 0.1 z"
           style="fill:#657b83;fill-opacity:1;fill-rule:evenodd;stroke:none"
           id="path290"
           inkscape:connector-curvature="0" /><g
           id="g292"><path
             d="m 254.9,718.8 -9,-8.3"
             style="fill:none;stroke:#657b83;stroke-width:2.99979997;stroke-linecap:round;stroke-linejoin:round;stroke-miterlimit:10;stroke-dasharray:none;stroke-opacity:1"
             id="path294"
             inkscape:connector-curvature="0" /></g><path
           d="m 258.4,715.1 4.5,10.2 v 0.4 l -0.1,0.2 -0.3,0.2 h -0.3 l -10.6,-3.5 -0.1,-0.1 h -0.1 l -0.1,-0.2 -0.1,-0.2 0.1,-0.3 0.1,-0.1 6.1,-6.7 0.2,-0.2 h 0.2 0.2 l 0.2,0.1 v 0.1 z"
           style="fill:#657b83;fill-opacity:1;fill-rule:evenodd;stroke:none"
           id="path296"
           inkscape:connector-curvature="0" /><g
           id="g298"><path
             d="m 287.4,717.8 -8.8,8.2"
             style="fill:none;stroke:#657b83;stroke-width:2.99979997;stroke-linecap:round;stroke-linejoin:round;stroke-miterlimit:10;stroke-dasharray:none;stroke-opacity:1"
             id="path300"
             inkscape:connector-curvature="0" /></g><path
           d="m 284.1,714 10.4,-3.6 h 0.4 l 0.3,0.1 0.2,0.3 -0.1,0.4 -4.4,10.2 v 0.1 l -0.1,0.1 -0.2,0.1 h -0.2 -0.2 l -0.2,-0.1 -6.2,-6.7 -0.1,-0.1 v -0.3 l 0.1,-0.2 0.1,-0.2 v 0 z"
           style="fill:#657b83;fill-opacity:1;fill-rule:evenodd;stroke:none"
           id="path302"
           inkscape:connector-curvature="0" /><path
           d="m 235.1,773.5 c 6.3,0 11.1,-4.8 11.1,-11.1 0,-6.2 -4.8,-11.1 -11.1,-11.1 -6.3,0 -11.2,4.9 -11.2,11.1 0,6.3 4.9,11.1 11.2,11.1 z m -11.2,0 z m 22.4,-22.2 z"
           style="fill:#657b83;fill-opacity:1;fill-rule:evenodd;stroke:none"
           id="path304"
           inkscape:connector-curvature="0" /><g
           id="g306"><text
             transform="matrix(1,0,0,-1,228.7,759.8)"
             style="font-style:italic;font-variant:normal;font-weight:normal;font-size:18px;font-family:'STIX Two Text';-inkscape-font-specification:STIXTwoTextItalic;writing-mode:lr-tb;fill:#fdf6e3;fill-opacity:1;fill-rule:nonzero;stroke:none"
             id="text310"><tspan
               x="0"
               y="0"
               id="tspan308">v</tspan></text>
</g><g
           id="g312"><text
             transform="matrix(1,0,0,-1,236.4,753.8)"
             style="font-variant:normal;font-weight:normal;font-size:10.39999962px;font-family:'STIX Two Math';-inkscape-font-specification:STIXTwoMath;writing-mode:lr-tb;fill:#fdf6e3;fill-opacity:1;fill-rule:nonzero;stroke:none"
             id="text316"><tspan
               x="0"
               y="0"
               id="tspan314">1</tspan></text>
</g><path
           d="m 306.3,773.3 c 6.3,0 11.1,-4.9 11.1,-11.1 0,-6.3 -4.8,-11.1 -11.1,-11.1 -6.4,0 -11.2,4.8 -11.2,11.1 0,6.2 4.8,11.1 11.2,11.1 z m -11.2,0 z m 22.4,-22.2 z"
           style="fill:#657b83;fill-opacity:1;fill-rule:evenodd;stroke:none"
           id="path318"
           inkscape:connector-curvature="0" /><g
           id="g320"><text
             transform="matrix(1,0,0,-1,299.8,759.5)"
             style="font-style:italic;font-variant:normal;font-weight:normal;font-size:18px;font-family:'STIX Two Text';-inkscape-font-specification:STIXTwoTextItalic;writing-mode:lr-tb;fill:#fdf6e3;fill-opacity:1;fill-rule:nonzero;stroke:none"
             id="text324"><tspan
               x="0"
               y="0"
               id="tspan322">v</tspan></text>
</g><g
           id="g326"><text
             transform="matrix(1,0,0,-1,307.5,753.6)"
             style="font-variant:normal;font-weight:normal;font-size:10.39999962px;font-family:'STIX Two Math';-inkscape-font-specification:STIXTwoMath;writing-mode:lr-tb;fill:#fdf6e3;fill-opacity:1;fill-rule:nonzero;stroke:none"
             id="text330"><tspan
               x="0"
               y="0"
               id="tspan328">3</tspan></text>
</g><path
           d="m 232.2,744.9 c 6.4,0 11.2,-4.8 11.2,-11.1 0,-6.2 -4.8,-11.1 -11.2,-11.1 -6.3,0 -11.1,4.9 -11.1,11.1 0,6.3 4.8,11.1 11.1,11.1 z m -11.1,0 z m 22.4,-22.2 z"
           style="fill:#657b83;fill-opacity:1;fill-rule:evenodd;stroke:none"
           id="path332"
           inkscape:connector-curvature="0" /><g
           id="g334"><text
             transform="matrix(1,0,0,-1,225.8,731.2)"
             style="font-style:italic;font-variant:normal;font-weight:normal;font-size:18px;font-family:'STIX Two Text';-inkscape-font-specification:STIXTwoTextItalic;writing-mode:lr-tb;fill:#fdf6e3;fill-opacity:1;fill-rule:nonzero;stroke:none"
             id="text338"><tspan
               x="0"
               y="0"
               id="tspan336">v</tspan></text>
</g><g
           id="g340"><text
             transform="matrix(1,0,0,-1,233.5,725.2)"
             style="font-variant:normal;font-weight:normal;font-size:10.39999962px;font-family:'STIX Two Math';-inkscape-font-specification:STIXTwoMath;writing-mode:lr-tb;fill:#fdf6e3;fill-opacity:1;fill-rule:nonzero;stroke:none"
             id="text344"><tspan
               x="0"
               y="0"
               id="tspan342">4</tspan></text>
</g><path
           d="m 270.7,744.9 c 6.3,0 11.1,-4.8 11.1,-11.1 0,-6.2 -4.8,-11.1 -11.1,-11.1 -6.3,0 -11.2,4.9 -11.2,11.1 0,6.3 4.9,11.1 11.2,11.1 z m -11.2,0 z m 22.4,-22.2 z"
           style="fill:#268bd2;fill-opacity:1;fill-rule:evenodd;stroke:none"
           id="path346"
           inkscape:connector-curvature="0" /><g
           id="g348"><text
             transform="matrix(1,0,0,-1,262.9,731.2)"
             style="font-style:italic;font-variant:normal;font-weight:normal;font-size:18px;font-family:'STIX Two Text';-inkscape-font-specification:STIXTwoTextBoldItalic;writing-mode:lr-tb;fill:#fdf6e3;fill-opacity:1;fill-rule:nonzero;stroke:none"
             id="text352"><tspan
               x="0"
               y="0"
               id="tspan350"
               style="font-style:italic;font-variant:normal;font-weight:bold;font-stretch:normal;font-family:'STIX Two Text';-inkscape-font-specification:'STIX Two Text Bold Italic'">v</tspan></text>
</g><g
           id="g354"><text
             transform="matrix(1,0,0,-1,271.8,725.2)"
             style="font-variant:normal;font-weight:normal;font-size:10.39999962px;font-family:'STIX Two Math';-inkscape-font-specification:STIXTwoMath;writing-mode:lr-tb;fill:#fdf6e3;fill-opacity:1;fill-rule:nonzero;stroke:#fdf6e3;stroke-width:0.34714001;stroke-linecap:butt;stroke-linejoin:miter;stroke-miterlimit:10;stroke-dasharray:none;stroke-opacity:1"
             id="text358"><tspan
               x="0"
               y="0"
               id="tspan356"
               style="font-style:normal;font-variant:normal;font-weight:bold;font-stretch:normal;font-family:'STIX Two Text';-inkscape-font-specification:'STIX Two Text Bold'">รท</tspan></text>
</g><path
           d="m 309.1,745.4 c 6.3,0 11.2,-4.8 11.2,-11.1 0,-6.2 -4.9,-11 -11.2,-11 -6.3,0 -11.2,4.8 -11.2,11 0,6.3 4.9,11.1 11.2,11.1 z m -11.2,0 z m 22.4,-22.2 z"
           style="fill:#657b83;fill-opacity:1;fill-rule:evenodd;stroke:none"
           id="path360"
           inkscape:connector-curvature="0" /><g
           id="g362"><text
             transform="matrix(1,0,0,-1,302.7,731.7)"
             style="font-style:italic;font-variant:normal;font-weight:normal;font-size:18px;font-family:'STIX Two Text';-inkscape-font-specification:STIXTwoTextItalic;writing-mode:lr-tb;fill:#fdf6e3;fill-opacity:1;fill-rule:nonzero;stroke:none"
             id="text366"><tspan
               x="0"
               y="0"
               id="tspan364">v</tspan></text>
</g><g
           id="g368"><text
             transform="matrix(1,0,0,-1,310.4,725.7)"
             style="font-variant:normal;font-weight:normal;font-size:10.39999962px;font-family:'STIX Two Math';-inkscape-font-specification:STIXTwoMath;writing-mode:lr-tb;fill:#fdf6e3;fill-opacity:1;fill-rule:nonzero;stroke:none"
             id="text372"><tspan
               x="0"
               y="0"
               id="tspan370">6</tspan></text>
</g><path
           d="m 237.9,713.7 c 6.3,0 11.2,-4.8 11.2,-11.1 0,-6.2 -4.9,-11 -11.2,-11 -6.3,0 -11.2,4.8 -11.2,11 0,6.3 4.9,11.1 11.2,11.1 z m -11.2,0 z m 22.4,-22.2 z"
           style="fill:#657b83;fill-opacity:1;fill-rule:evenodd;stroke:none"
           id="path374"
           inkscape:connector-curvature="0" /><g
           id="g376"><text
             transform="matrix(1,0,0,-1,231.5,700)"
             style="font-style:italic;font-variant:normal;font-weight:normal;font-size:18px;font-family:'STIX Two Text';-inkscape-font-specification:STIXTwoTextItalic;writing-mode:lr-tb;fill:#fdf6e3;fill-opacity:1;fill-rule:nonzero;stroke:none"
             id="text380"><tspan
               x="0"
               y="0"
               id="tspan378">v</tspan></text>
</g><g
           id="g382"><text
             transform="matrix(1,0,0,-1,239.2,694.1)"
             style="font-variant:normal;font-weight:normal;font-size:10.39999962px;font-family:'STIX Two Math';-inkscape-font-specification:STIXTwoMath;writing-mode:lr-tb;fill:#fdf6e3;fill-opacity:1;fill-rule:nonzero;stroke:none"
             id="text386"><tspan
               x="0"
               y="0"
               id="tspan384">7</tspan></text>
</g><path
           d="m 303.1,713.7 c 6.3,0 11.2,-4.8 11.2,-11.1 0,-6.2 -4.9,-11 -11.2,-11 -6.3,0 -11.2,4.8 -11.2,11 0,6.3 4.9,11.1 11.2,11.1 z m -11.2,0 z m 22.4,-22.2 z"
           style="fill:#657b83;fill-opacity:1;fill-rule:evenodd;stroke:none"
           id="path388"
           inkscape:connector-curvature="0" /><g
           id="g390"><text
             transform="matrix(1,0,0,-1,296.7,700)"
             style="font-style:italic;font-variant:normal;font-weight:normal;font-size:18px;font-family:'STIX Two Text';-inkscape-font-specification:STIXTwoTextItalic;writing-mode:lr-tb;fill:#fdf6e3;fill-opacity:1;fill-rule:nonzero;stroke:none"
             id="text394"><tspan
               x="0"
               y="0"
               id="tspan392">v</tspan></text>
</g><g
           id="g396"><text
             transform="matrix(1,0,0,-1,304.4,694.1)"
             style="font-variant:normal;font-weight:normal;font-size:10.39999962px;font-family:'STIX Two Math';-inkscape-font-specification:STIXTwoMath;writing-mode:lr-tb;fill:#fdf6e3;fill-opacity:1;fill-rule:nonzero;stroke:none"
             id="text400"><tspan
               x="0"
               y="0"
               id="tspan398">7</tspan></text>
</g><path
           d="m 155.9,742.1 h 40.4 v 7.1 L 209.8,735 196.3,720.8 v 7.1 h -40.4 l 6.7,7.1 z m 0,7.1 z m 53.9,-28.4 z"
           style="fill:#eee8d5;fill-opacity:1;fill-rule:evenodd;stroke:none"
           id="path402"
           inkscape:connector-curvature="0" /><g
           id="g404"><text
             transform="matrix(1,0,0,-1,167.3,724.5)"
             style="font-variant:normal;font-weight:normal;font-size:40px;font-family:'STIX Two Math';-inkscape-font-specification:STIXTwoMath;writing-mode:lr-tb;fill:#002b36;fill-opacity:1;fill-rule:nonzero;stroke:#002b36;stroke-width:1.33104002;stroke-linecap:butt;stroke-linejoin:miter;stroke-miterlimit:10;stroke-dasharray:none;stroke-opacity:1"
             id="text408"><tspan
               x="0"
               y="0"
               id="tspan406"
               style="font-style:normal;font-variant:normal;font-weight:bold;font-stretch:normal;font-family:'STIX Two Text';-inkscape-font-specification:'STIX Two Text Bold'">รท</tspan></text>
</g><g
           id="g410"><text
             transform="matrix(1,0,0,-1,161.4,757.4)"
             style="font-style:italic;font-variant:normal;font-weight:normal;font-size:18px;font-family:'STIX Two Text';-inkscape-font-specification:STIXTwoTextItalic;writing-mode:lr-tb;fill:#073642;fill-opacity:1;fill-rule:nonzero;stroke:none"
             id="text414"><tspan
               x="0"
               y="0"
               id="tspan412">v</tspan></text>
</g><g
           id="g416"><text
             transform="matrix(1,0,0,-1,169.1,751.5)"
             style="font-variant:normal;font-weight:normal;font-size:10.39999962px;font-family:'STIX Two Math';-inkscape-font-specification:STIXTwoMath;writing-mode:lr-tb;fill:#073642;fill-opacity:1;fill-rule:nonzero;stroke:none"
             id="text420"><tspan
               x="0 5.1896 7.7895999 10.192 15.3816 17.9816 20.384001"
               y="0"
               sodipodi:role="line"
               id="tspan418">2, 5, 8</tspan></text>
</g><g
           id="g422"><text
             transform="matrix(1,0,0,-1,167.1,709.1)"
             style="font-style:italic;font-variant:normal;font-weight:normal;font-size:22px;font-family:'STIX Two Text';-inkscape-font-specification:STIXTwoTextBoldItalic;writing-mode:lr-tb;fill:#268bd2;fill-opacity:1;fill-rule:nonzero;stroke:none"
             id="text426"><tspan
               x="0"
               y="0"
               id="tspan424"
               style="font-style:italic;font-variant:normal;font-weight:bold;font-stretch:normal;font-family:'STIX Two Text';-inkscape-font-specification:'STIX Two Text Bold Italic'">v</tspan></text>
</g><g
           id="g428"><text
             transform="matrix(1,0,0,-1,177.9,701.9)"
             style="font-variant:normal;font-weight:normal;font-size:12.80000019px;font-family:'STIX Two Math';-inkscape-font-specification:STIXTwoMath;writing-mode:lr-tb;fill:#268bd2;fill-opacity:1;fill-rule:nonzero;stroke:#268bd2;stroke-width:0.42449999;stroke-linecap:butt;stroke-linejoin:miter;stroke-miterlimit:10;stroke-dasharray:none;stroke-opacity:1"
             id="text432"><tspan
               x="0"
               y="0"
               id="tspan430"
               style="font-style:normal;font-variant:normal;font-weight:bold;font-stretch:normal;font-family:'STIX Two Text';-inkscape-font-specification:'STIX Two Text Bold'">รท</tspan></text>
</g></g></g></g></svg>